<?xml version="1.0" encoding="UTF-8"?>
<!DOCTYPE svg PUBLIC "-//W3C//DTD SVG 1.1//EN" "http://www.w3.org/Graphics/SVG/1.1/DTD/svg11.dtd">
<svg xmlns="http://www.w3.org/2000/svg" version="1.1" width="500px" height="499px" style="shape-rendering:geometricPrecision; text-rendering:geometricPrecision; image-rendering:optimizeQuality; fill-rule:evenodd; clip-rule:evenodd" xmlns:xlink="http://www.w3.org/1999/xlink">
<g><path style="opacity:1" fill="#1a6034" d="M 231.5,127.5 C 229.983,127.489 228.816,126.823 228,125.5C 226.274,120.71 222.774,118.543 217.5,119C 214.638,116.588 211.305,115.921 207.5,117C 207.026,118.729 206.026,119.895 204.5,120.5C 204.5,118.833 204.5,117.167 204.5,115.5C 207.767,115.043 211.101,114.709 214.5,114.5C 216.865,115.03 218.865,116.197 220.5,118C 223.146,118.497 225.813,118.664 228.5,118.5C 227.924,122.112 228.924,125.112 231.5,127.5 Z"/></g>
<g><path style="opacity:1" fill="#027231" d="M 231.5,127.5 C 234.39,127.278 237.057,127.945 239.5,129.5C 242.966,131.889 245.966,134.722 248.5,138C 253.379,139.548 257.045,142.548 259.5,147C 262.834,148.683 266.167,150.183 269.5,151.5C 269.75,152.922 270.583,153.922 272,154.5C 273.755,153.33 274.755,151.663 275,149.5C 277.292,148.092 279.459,148.259 281.5,150C 289.5,150.667 297.5,150.667 305.5,150C 309.632,144.924 314.465,144.09 320,147.5C 321.707,147.492 323.207,147.158 324.5,146.5C 325.301,144.958 325.634,143.292 325.5,141.5C 328.344,141.343 330.011,142.676 330.5,145.5C 331.286,147.735 332.952,148.735 335.5,148.5C 336.894,148.379 338.228,148.046 339.5,147.5C 340.502,144.667 342.336,142.667 345,141.5C 348.151,142.093 351.318,142.593 354.5,143C 353.112,143.889 353.278,144.389 355,144.5C 359.261,143.764 363.428,142.764 367.5,141.5C 368.222,141.918 368.722,142.584 369,143.5C 371.107,139.499 374.273,138.499 378.5,140.5C 380.955,138.703 383.622,137.37 386.5,136.5C 390.695,137.772 395.029,138.772 399.5,139.5C 400.331,141.473 400.498,143.473 400,145.5C 403.101,146.467 405.934,147.8 408.5,149.5C 408.333,149.833 408.167,150.167 408,150.5C 405.127,147.9 402.294,147.9 399.5,150.5C 401.526,154.76 403.86,158.76 406.5,162.5C 406.514,164.593 405.848,166.426 404.5,168C 405.572,169.284 406.905,169.617 408.5,169C 406.353,172.39 404.353,175.89 402.5,179.5C 404.023,181.283 406.023,181.949 408.5,181.5C 413.13,182.658 417.797,183.824 422.5,185C 424.224,188.959 426.557,192.459 429.5,195.5C 429.804,196.15 430.137,196.817 430.5,197.5C 429.738,197.911 428.738,198.077 427.5,198C 427.833,198.333 428.167,198.667 428.5,199C 433.705,199.241 438.872,199.741 444,200.5C 446.078,199.057 446.911,199.724 446.5,202.5C 389.331,202.168 332.331,202.501 275.5,203.5C 274.022,203.238 272.689,203.571 271.5,204.5C 271.624,205.107 271.957,205.44 272.5,205.5C 276.761,210.701 278.761,216.701 278.5,223.5C 277.167,223.5 275.833,223.5 274.5,223.5C 275.317,215.598 272.651,209.265 266.5,204.5C 262.797,201.483 258.464,199.816 253.5,199.5C 253.167,199.5 252.833,199.5 252.5,199.5C 245.474,198.174 239.141,199.841 233.5,204.5C 232.036,205.405 230.702,205.405 229.5,204.5C 228.791,203.596 227.791,203.263 226.5,203.5C 166.336,202.501 106.002,202.168 45.5,202.5C 46.0184,198.453 46.8518,194.453 48,190.5C 50.6417,187.971 53.8084,186.971 57.5,187.5C 57.5,186.5 57.5,185.5 57.5,184.5C 60.8175,185.221 64.1508,185.388 67.5,185C 68.2931,183.915 68.9598,182.748 69.5,181.5C 68.5153,179.902 68.3486,178.235 69,176.5C 70.2515,174.999 71.2515,173.332 72,171.5C 74.3806,170.565 76.8806,170.232 79.5,170.5C 79.2436,172.792 79.5769,174.959 80.5,177C 84.7159,178.204 89.0492,178.87 93.5,179C 96.1339,180.586 97.8005,182.92 98.5,186C 102.847,187.151 106.681,186.317 110,183.5C 111.984,184.339 113.817,185.339 115.5,186.5C 115.833,186.5 116.167,186.5 116.5,186.5C 116.33,187.822 116.663,188.989 117.5,190C 121.224,192.221 125.224,193.721 129.5,194.5C 131.359,192.808 133.359,191.308 135.5,190C 145.965,191.705 150.965,187.205 150.5,176.5C 153.349,177.591 156.182,177.591 159,176.5C 160.675,178.168 162.342,179.835 164,181.5C 165.699,180.594 167.533,180.261 169.5,180.5C 169.674,178.139 170.007,175.806 170.5,173.5C 172.199,173.66 173.866,173.494 175.5,173C 176.756,172.583 177.423,171.75 177.5,170.5C 177.5,170.167 177.5,169.833 177.5,169.5C 178.5,169.5 179.5,169.5 180.5,169.5C 180.666,165.486 180.499,161.486 180,157.5C 176.65,153.439 175.65,148.773 177,143.5C 180.46,141.932 183.96,140.599 187.5,139.5C 187.323,133.689 189.823,130.689 195,130.5C 196.067,129.809 197.234,129.309 198.5,129C 199.833,128.333 199.833,127.667 198.5,127C 199.999,124.672 201.666,122.505 203.5,120.5C 203.833,120.5 204.167,120.5 204.5,120.5C 206.026,119.895 207.026,118.729 207.5,117C 211.305,115.921 214.638,116.588 217.5,119C 222.774,118.543 226.274,120.71 228,125.5C 228.816,126.823 229.983,127.489 231.5,127.5 Z"/></g>
<g><path style="opacity:1" fill="#186637" d="M 203.5,120.5 C 201.666,122.505 199.999,124.672 198.5,127C 199.833,127.667 199.833,128.333 198.5,129C 197.234,129.309 196.067,129.809 195,130.5C 189.823,130.689 187.323,133.689 187.5,139.5C 183.96,140.599 180.46,141.932 177,143.5C 175.65,148.773 176.65,153.439 180,157.5C 180.499,161.486 180.666,165.486 180.5,169.5C 179.5,169.5 178.5,169.5 177.5,169.5C 179.059,164.732 178.226,160.399 175,156.5C 174.333,152.167 174.333,147.833 175,143.5C 178.704,141.523 182.204,139.189 185.5,136.5C 186.759,131.739 189.759,128.905 194.5,128C 197.076,124.918 200.076,122.418 203.5,120.5 Z"/></g>
<g><path style="opacity:1" fill="#156634" d="M 367.5,141.5 C 363.428,142.764 359.261,143.764 355,144.5C 353.278,144.389 353.112,143.889 354.5,143C 351.318,142.593 348.151,142.093 345,141.5C 342.336,142.667 340.502,144.667 339.5,147.5C 338.228,148.046 336.894,148.379 335.5,148.5C 332.952,148.735 331.286,147.735 330.5,145.5C 336.024,147.405 339.69,145.571 341.5,140C 343.101,139.727 344.601,139.227 346,138.5C 350.52,140.006 355.187,141.006 360,141.5C 361.657,140.516 363.323,139.516 365,138.5C 366.045,139.373 366.878,140.373 367.5,141.5 Z"/></g>
<g><path style="opacity:0.251" fill="#166533" d="M 324.5,146.5 C 323.207,147.158 321.707,147.492 320,147.5C 314.465,144.09 309.632,144.924 305.5,150C 297.5,150.667 289.5,150.667 281.5,150C 279.459,148.259 277.292,148.092 275,149.5C 274.755,151.663 273.755,153.33 272,154.5C 270.583,153.922 269.75,152.922 269.5,151.5C 270.496,151.414 271.329,151.748 272,152.5C 272.333,150.833 272.667,149.167 273,147.5C 273.893,146.919 274.893,146.585 276,146.5C 285.762,149.217 295.596,149.717 305.5,148C 306.447,145.118 308.447,143.952 311.5,144.5C 315.817,145.33 320.15,145.997 324.5,146.5 Z"/></g>
<g><path style="opacity:1" fill="#0b6c30" d="M 413.5,161.5 C 412.36,166.549 410.36,171.215 407.5,175.5C 406.135,177.751 406.469,179.751 408.5,181.5C 406.023,181.949 404.023,181.283 402.5,179.5C 404.353,175.89 406.353,172.39 408.5,169C 406.905,169.617 405.572,169.284 404.5,168C 405.848,166.426 406.514,164.593 406.5,162.5C 403.86,158.76 401.526,154.76 399.5,150.5C 402.294,147.9 405.127,147.9 408,150.5C 408.167,150.167 408.333,149.833 408.5,149.5C 405.934,147.8 403.101,146.467 400,145.5C 400.498,143.473 400.331,141.473 399.5,139.5C 395.029,138.772 390.695,137.772 386.5,136.5C 386.811,135.522 387.478,134.855 388.5,134.5C 390.5,135.5 392.5,136.5 394.5,137.5C 397.131,135.092 399.631,135.092 402,137.5C 402.497,140.146 402.664,142.813 402.5,145.5C 404.827,145.665 406.993,146.331 409,147.5C 409.498,150.817 409.665,154.15 409.5,157.5C 412.5,157.167 413.833,158.5 413.5,161.5 Z"/></g>
<g><path style="opacity:0.302" fill="#0a4021" d="M 413.5,161.5 C 413.83,167.304 411.83,171.97 407.5,175.5C 410.36,171.215 412.36,166.549 413.5,161.5 Z"/></g>
<g><path style="opacity:1" fill="#116b34" d="M 177.5,170.5 C 177.423,171.75 176.756,172.583 175.5,173C 173.866,173.494 172.199,173.66 170.5,173.5C 170.007,175.806 169.674,178.139 169.5,180.5C 167.533,180.261 165.699,180.594 164,181.5C 162.342,179.835 160.675,178.168 159,176.5C 156.182,177.591 153.349,177.591 150.5,176.5C 150.965,187.205 145.965,191.705 135.5,190C 133.359,191.308 131.359,192.808 129.5,194.5C 125.224,193.721 121.224,192.221 117.5,190C 116.663,188.989 116.33,187.822 116.5,186.5C 120.241,188.587 124.074,190.587 128,192.5C 129.41,191.213 130.91,190.046 132.5,189C 136.769,186.965 141.102,185.799 145.5,185.5C 147.022,182.371 147.855,179.037 148,175.5C 151.753,169.872 156.92,167.372 163.5,168C 166.113,170.795 166.113,173.629 163.5,176.5C 164,176.833 164.5,177.167 165,177.5C 168.223,173.546 172.389,171.213 177.5,170.5 Z"/></g>
<g><path style="opacity:1" fill="#1d6637" d="M 115.5,186.5 C 113.817,185.339 111.984,184.339 110,183.5C 106.681,186.317 102.847,187.151 98.5,186C 97.8005,182.92 96.1339,180.586 93.5,179C 89.0492,178.87 84.7159,178.204 80.5,177C 79.5769,174.959 79.2436,172.792 79.5,170.5C 76.8806,170.232 74.3806,170.565 72,171.5C 71.2515,173.332 70.2515,174.999 69,176.5C 68.3486,178.235 68.5153,179.902 69.5,181.5C 68.9598,182.748 68.2931,183.915 67.5,185C 64.1508,185.388 60.8175,185.221 57.5,184.5C 57.5,185.5 57.5,186.5 57.5,187.5C 53.8084,186.971 50.6417,187.971 48,190.5C 46.8518,194.453 46.0184,198.453 45.5,202.5C 106.002,202.168 166.336,202.501 226.5,203.5C 165.167,203.5 103.833,203.5 42.5,203.5C 44.2981,198.642 45.6314,193.642 46.5,188.5C 48.2873,187.684 49.9539,186.684 51.5,185.5C 53.0709,186.309 54.7376,186.643 56.5,186.5C 56.147,184.365 56.9803,183.032 59,182.5C 61.2641,184.164 63.5974,184.497 66,183.5C 67.5007,177.832 69.0007,172.166 70.5,166.5C 74.3017,168.054 78.3017,169.054 82.5,169.5C 82.7394,171.467 82.4061,173.301 81.5,175C 84.1728,177.501 87.1728,178.001 90.5,176.5C 96.1902,176.19 98.8569,178.857 98.5,184.5C 100.467,184.261 102.301,184.594 104,185.5C 108.534,178.764 112.367,179.097 115.5,186.5 Z"/></g>
<g><path style="opacity:1" fill="#a9ba93" d="M 253.5,199.5 C 258.464,199.816 262.797,201.483 266.5,204.5C 266.027,205.906 265.027,206.573 263.5,206.5C 260.744,203.802 257.411,202.469 253.5,202.5C 253.5,201.5 253.5,200.5 253.5,199.5 Z"/></g>
<g><path style="opacity:1" fill="#1e6932" d="M 429.5,195.5 C 431.017,195.511 432.184,196.177 433,197.5C 433.725,196.941 434.558,196.608 435.5,196.5C 439.267,198.092 443.267,198.925 447.5,199C 448.801,200.616 448.801,202.116 447.5,203.5C 390.167,203.5 332.833,203.5 275.5,203.5C 332.331,202.501 389.331,202.168 446.5,202.5C 446.911,199.724 446.078,199.057 444,200.5C 438.872,199.741 433.705,199.241 428.5,199C 428.167,198.667 427.833,198.333 427.5,198C 428.738,198.077 429.738,197.911 430.5,197.5C 430.137,196.817 429.804,196.15 429.5,195.5 Z"/></g>
<g><path style="opacity:1" fill="#97bda1" d="M 42.5,203.5 C 103.833,203.5 165.167,203.5 226.5,203.5C 227.791,203.263 228.791,203.596 229.5,204.5C 229.167,205.5 228.5,206.167 227.5,206.5C 166.509,204.504 105.176,203.837 43.5,204.5C 42.8333,204.5 42.5,204.167 42.5,203.5 Z"/></g>
<g><path style="opacity:1" fill="#9cc39f" d="M 275.5,203.5 C 332.833,203.5 390.167,203.5 447.5,203.5C 447.5,204.167 447.167,204.5 446.5,204.5C 388.331,204.168 330.331,204.501 272.5,205.5C 271.957,205.44 271.624,205.107 271.5,204.5C 272.689,203.571 274.022,203.238 275.5,203.5 Z"/></g>
<g><path style="opacity:0.999" fill="#fcfcfc" d="M 42.5,203.5 C 42.5,204.167 42.8333,204.5 43.5,204.5C 82.569,205.17 121.736,205.836 161,206.5C 181.891,205.948 203.058,205.615 224.5,205.5C 224.326,207.861 223.993,210.194 223.5,212.5C 222.756,216.119 222.423,219.785 222.5,223.5C 221.102,224.777 220.436,226.443 220.5,228.5C 220.64,230.03 221.307,231.03 222.5,231.5C 223.098,247.006 222.431,262.339 220.5,277.5C 220.786,283.259 220.452,288.925 219.5,294.5C 219.167,294.5 218.833,294.5 218.5,294.5C 181.833,294.5 145.167,294.5 108.5,294.5C 99.771,284.639 89.4377,276.972 77.5,271.5C 77.0472,270.542 76.3805,269.708 75.5,269C 75.8333,268.667 76.1667,268.333 76.5,268C 72.9628,266.857 71.7961,264.691 73,261.5C 72.3333,262.167 71.6667,262.833 71,263.5C 69.8575,261.382 69.3575,259.382 69.5,257.5C 68.9708,260.257 67.9708,262.757 66.5,265C 68.9316,266.087 68.5983,266.587 65.5,266.5C 58.5803,265.372 51.5803,265.205 44.5,266C 42.8807,266.236 41.8807,267.069 41.5,268.5C 39.5,268.5 37.5,268.5 35.5,268.5C 33.2729,262.534 32.2729,256.201 32.5,249.5C 33.0431,249.44 33.3764,249.107 33.5,248.5C 32.8075,247.482 32.1408,246.482 31.5,245.5C 30.6814,243.228 30.0147,240.894 29.5,238.5C 30.0431,238.44 30.3764,238.107 30.5,237.5C 29.4116,236.066 28.0783,235.066 26.5,234.5C 26.3379,232.473 26.5045,230.473 27,228.5C 30.2996,222.86 32.7996,216.86 34.5,210.5C 37.1864,208.144 39.853,205.811 42.5,203.5 Z"/></g>
<g><path style="opacity:1" fill="#f3fef4" d="M 43.5,204.5 C 105.176,203.837 166.509,204.504 227.5,206.5C 226.343,208.678 225.01,210.678 223.5,212.5C 223.993,210.194 224.326,207.861 224.5,205.5C 203.058,205.615 181.891,205.948 161,206.5C 121.736,205.836 82.569,205.17 43.5,204.5 Z"/></g>
<g><path style="opacity:1" fill="#90a575" d="M 252.5,199.5 C 252.5,200.5 252.5,201.5 252.5,202.5C 245.613,202.207 239.446,204.207 234,208.5C 230.985,207.641 230.819,206.308 233.5,204.5C 239.141,199.841 245.474,198.174 252.5,199.5 Z"/></g>
<g><path style="opacity:1" fill="#f0feed" d="M 446.5,204.5 C 446.5,204.833 446.5,205.167 446.5,205.5C 389.833,205.5 333.167,205.5 276.5,205.5C 278.721,211.207 279.721,217.207 279.5,223.5C 279.167,223.5 278.833,223.5 278.5,223.5C 278.761,216.701 276.761,210.701 272.5,205.5C 330.331,204.501 388.331,204.168 446.5,204.5 Z"/></g>
<g><path style="opacity:1" fill="#407a3a" d="M 252.5,199.5 C 252.833,199.5 253.167,199.5 253.5,199.5C 253.5,200.5 253.5,201.5 253.5,202.5C 257.411,202.469 260.744,203.802 263.5,206.5C 266.459,209.716 268.959,213.383 271,217.5C 271.495,219.473 271.662,221.473 271.5,223.5C 270.5,223.5 269.5,223.5 268.5,223.5C 268.737,222.209 268.404,221.209 267.5,220.5C 267.598,218.447 266.931,216.78 265.5,215.5C 261.065,206.953 254.065,203.786 244.5,206C 241.405,206.935 239.071,208.769 237.5,211.5C 234.036,214.625 232.369,218.625 232.5,223.5C 231.5,223.5 230.5,223.5 229.5,223.5C 228.963,218.759 229.963,214.426 232.5,210.5C 232.167,209.5 231.5,208.833 230.5,208.5C 226.276,212.622 224.609,217.622 225.5,223.5C 224.5,223.5 223.5,223.5 222.5,223.5C 222.423,219.785 222.756,216.119 223.5,212.5C 225.01,210.678 226.343,208.678 227.5,206.5C 228.5,206.167 229.167,205.5 229.5,204.5C 230.702,205.405 232.036,205.405 233.5,204.5C 230.819,206.308 230.985,207.641 234,208.5C 239.446,204.207 245.613,202.207 252.5,202.5C 252.5,201.5 252.5,200.5 252.5,199.5 Z"/></g>
<g><path style="opacity:0.999" fill="#fcfdfc" d="M 446.5,205.5 C 446.644,209.375 446.31,213.208 445.5,217C 448.273,225.547 452.607,233.213 458.5,240C 465.616,240.383 470.95,243.55 474.5,249.5C 472.83,249.751 471.33,250.418 470,251.5C 467.394,256.595 464.228,261.262 460.5,265.5C 459.883,265.611 459.383,265.944 459,266.5C 457.71,273.492 455.877,280.326 453.5,287C 453.57,287.765 453.903,288.265 454.5,288.5C 454.784,290.415 454.451,292.081 453.5,293.5C 451.435,293.517 449.435,293.85 447.5,294.5C 391.5,294.5 335.5,294.5 279.5,294.5C 279.822,288.642 279.489,282.975 278.5,277.5C 278.5,262.167 278.5,246.833 278.5,231.5C 279.391,230.739 280.058,229.739 280.5,228.5C 279.954,226.865 279.62,225.199 279.5,223.5C 279.721,217.207 278.721,211.207 276.5,205.5C 333.167,205.5 389.833,205.5 446.5,205.5 Z"/></g>
<g><path style="opacity:1" fill="#e6f8e8" d="M 265.5,215.5 C 263.866,214.793 262.532,213.627 261.5,212C 260.101,211.405 258.768,211.572 257.5,212.5C 256.41,211.609 256.41,210.609 257.5,209.5C 256.833,209.167 256.167,208.833 255.5,208.5C 254.167,209.167 252.833,209.833 251.5,210.5C 249.028,209.008 246.361,208.342 243.5,208.5C 243.5,209.5 243.5,210.5 243.5,211.5C 241.5,211.5 239.5,211.5 237.5,211.5C 239.071,208.769 241.405,206.935 244.5,206C 254.065,203.786 261.065,206.953 265.5,215.5 Z"/></g>
<g><path style="opacity:1" fill="#89996f" d="M 266.5,204.5 C 272.651,209.265 275.317,215.598 274.5,223.5C 273.5,223.5 272.5,223.5 271.5,223.5C 271.662,221.473 271.495,219.473 271,217.5C 268.959,213.383 266.459,209.716 263.5,206.5C 265.027,206.573 266.027,205.906 266.5,204.5 Z"/></g>
<g><path style="opacity:1" fill="#f7f7f3" d="M 265.5,215.5 C 266.931,216.78 267.598,218.447 267.5,220.5C 267.567,221.959 267.234,223.292 266.5,224.5C 265.395,226.713 265.395,228.88 266.5,231C 269.284,230.081 272.284,229.581 275.5,229.5C 276.29,230.401 277.29,231.068 278.5,231.5C 278.5,246.833 278.5,262.167 278.5,277.5C 275.5,277.5 272.5,277.5 269.5,277.5C 268.508,277.672 267.842,277.338 267.5,276.5C 268.043,276.44 268.376,276.107 268.5,275.5C 267.511,274.532 266.844,273.365 266.5,272C 267.418,269.914 268.085,267.747 268.5,265.5C 269.167,264.833 269.833,264.167 270.5,263.5C 271.558,262.4 272.392,261.066 273,259.5C 273.407,256.318 273.907,253.151 274.5,250C 271.181,243.92 266.848,243.087 261.5,247.5C 257.733,244.07 255.566,239.737 255,234.5C 254.292,233.619 253.458,232.953 252.5,232.5C 252.167,232.5 251.833,232.5 251.5,232.5C 250.167,231.167 250.167,229.833 251.5,228.5C 253.583,223.414 251.917,221.58 246.5,223C 245.944,223.383 245.611,223.883 245.5,224.5C 244.532,226.607 244.198,228.941 244.5,231.5C 243.178,231.33 242.011,231.663 241,232.5C 238.569,230.971 236.736,228.971 235.5,226.5C 235.144,224.81 234.144,223.81 232.5,223.5C 232.369,218.625 234.036,214.625 237.5,211.5C 239.5,211.5 241.5,211.5 243.5,211.5C 243.5,210.5 243.5,209.5 243.5,208.5C 246.361,208.342 249.028,209.008 251.5,210.5C 252.833,209.833 254.167,209.167 255.5,208.5C 256.167,208.833 256.833,209.167 257.5,209.5C 256.41,210.609 256.41,211.609 257.5,212.5C 258.768,211.572 260.101,211.405 261.5,212C 262.532,213.627 263.866,214.793 265.5,215.5 Z"/></g>
<g><path style="opacity:1" fill="#8f9a6b" d="M 229.5,223.5 C 228.167,223.5 226.833,223.5 225.5,223.5C 224.609,217.622 226.276,212.622 230.5,208.5C 231.5,208.833 232.167,209.5 232.5,210.5C 229.963,214.426 228.963,218.759 229.5,223.5 Z"/></g>
<g><path style="opacity:1" fill="#958154" d="M 251.5,228.5 C 251.067,225.741 249.4,224.408 246.5,224.5C 246.882,227.646 246.882,230.646 246.5,233.5C 245.5,233.5 244.5,233.5 243.5,233.5C 243.5,233.167 243.5,232.833 243.5,232.5C 245.369,230.365 246.036,227.698 245.5,224.5C 245.611,223.883 245.944,223.383 246.5,223C 251.917,221.58 253.583,223.414 251.5,228.5 Z"/></g>
<g><path style="opacity:1" fill="#bda83b" d="M 266.5,224.5 C 270.5,224.5 274.5,224.5 278.5,224.5C 278.5,226.167 278.5,227.833 278.5,229.5C 277.5,229.5 276.5,229.5 275.5,229.5C 272.284,229.581 269.284,230.081 266.5,231C 265.395,228.88 265.395,226.713 266.5,224.5 Z"/></g>
<g><path style="opacity:1" fill="#aea65d" d="M 222.5,223.5 C 223.5,223.5 224.5,223.5 225.5,223.5C 226.833,223.5 228.167,223.5 229.5,223.5C 230.5,223.5 231.5,223.5 232.5,223.5C 234.144,223.81 235.144,224.81 235.5,226.5C 235.742,231.508 234.075,232.508 230.5,229.5C 231.5,229.5 232.5,229.5 233.5,229.5C 233.5,227.833 233.5,226.167 233.5,224.5C 230.15,224.335 226.817,224.502 223.5,225C 221.963,226.11 221.297,227.61 221.5,229.5C 224.328,228.503 226.995,228.503 229.5,229.5C 226.892,229.4 224.558,230.067 222.5,231.5C 221.307,231.03 220.64,230.03 220.5,228.5C 220.436,226.443 221.102,224.777 222.5,223.5 Z"/></g>
<g><path style="opacity:1" fill="#bba933" d="M 230.5,229.5 C 230.167,229.5 229.833,229.5 229.5,229.5C 226.995,228.503 224.328,228.503 221.5,229.5C 221.297,227.61 221.963,226.11 223.5,225C 226.817,224.502 230.15,224.335 233.5,224.5C 233.5,226.167 233.5,227.833 233.5,229.5C 232.5,229.5 231.5,229.5 230.5,229.5 Z"/></g>
<g><path style="opacity:1" fill="#a9a45b" d="M 267.5,220.5 C 268.404,221.209 268.737,222.209 268.5,223.5C 269.5,223.5 270.5,223.5 271.5,223.5C 272.5,223.5 273.5,223.5 274.5,223.5C 275.833,223.5 277.167,223.5 278.5,223.5C 278.833,223.5 279.167,223.5 279.5,223.5C 279.62,225.199 279.954,226.865 280.5,228.5C 280.058,229.739 279.391,230.739 278.5,231.5C 277.29,231.068 276.29,230.401 275.5,229.5C 276.5,229.5 277.5,229.5 278.5,229.5C 278.5,227.833 278.5,226.167 278.5,224.5C 274.5,224.5 270.5,224.5 266.5,224.5C 267.234,223.292 267.567,221.959 267.5,220.5 Z"/></g>
<g><path style="opacity:1" fill="#c1a65c" d="M 251.5,228.5 C 250.167,229.833 250.167,231.167 251.5,232.5C 250.185,234.599 248.518,234.933 246.5,233.5C 246.882,230.646 246.882,227.646 246.5,224.5C 249.4,224.408 251.067,225.741 251.5,228.5 Z"/></g>
<g><path style="opacity:0.388" fill="#525051" d="M 26.5,234.5 C 28.0783,235.066 29.4116,236.066 30.5,237.5C 30.3764,238.107 30.0431,238.44 29.5,238.5C 27.7376,237.738 26.7376,236.404 26.5,234.5 Z"/></g>
<g><path style="opacity:1" fill="#a78332" d="M 251.5,232.5 C 251.833,232.5 252.167,232.5 252.5,232.5C 252.328,234.492 252.995,236.158 254.5,237.5C 254.137,238.183 253.804,238.85 253.5,239.5C 251.857,239.52 250.524,238.853 249.5,237.5C 248.476,238.853 247.143,239.52 245.5,239.5C 245.88,237.302 245.213,235.635 243.5,234.5C 243.5,234.167 243.5,233.833 243.5,233.5C 244.5,233.5 245.5,233.5 246.5,233.5C 248.518,234.933 250.185,234.599 251.5,232.5 Z"/></g>
<g><path style="opacity:1" fill="#e7c167" d="M 243.5,234.5 C 245.213,235.635 245.88,237.302 245.5,239.5C 247.143,239.52 248.476,238.853 249.5,237.5C 250.524,238.853 251.857,239.52 253.5,239.5C 254.451,240.919 254.784,242.585 254.5,244.5C 253.596,245.209 253.263,246.209 253.5,247.5C 249.084,248.306 246.417,246.639 245.5,242.5C 244.699,240.207 244.032,240.54 243.5,243.5C 242.778,243.918 242.278,244.584 242,245.5C 241.255,241.552 241.755,237.885 243.5,234.5 Z"/></g>
<g><path style="opacity:1" fill="#dbc591" d="M 252.5,232.5 C 253.458,232.953 254.292,233.619 255,234.5C 255.566,239.737 257.733,244.07 261.5,247.5C 259.549,248.716 258.049,250.382 257,252.5C 255.85,249.952 255.017,247.285 254.5,244.5C 254.784,242.585 254.451,240.919 253.5,239.5C 253.804,238.85 254.137,238.183 254.5,237.5C 252.995,236.158 252.328,234.492 252.5,232.5 Z"/></g>
<g><path style="opacity:1" fill="#f2f1ea" d="M 245.5,224.5 C 246.036,227.698 245.369,230.365 243.5,232.5C 242.542,232.953 241.708,233.619 241,234.5C 240.667,238.167 240.333,241.833 240,245.5C 239.617,246.056 239.117,246.389 238.5,246.5C 234.723,243.519 231.223,243.852 228,247.5C 227.333,251.167 227.333,254.833 228,258.5C 228.608,260.066 229.442,261.4 230.5,262.5C 231.167,263.5 231.833,264.5 232.5,265.5C 234.827,268.997 234.827,272.33 232.5,275.5C 232.5,275.833 232.5,276.167 232.5,276.5C 228.6,277.43 224.6,277.763 220.5,277.5C 222.431,262.339 223.098,247.006 222.5,231.5C 224.558,230.067 226.892,229.4 229.5,229.5C 229.833,229.5 230.167,229.5 230.5,229.5C 234.075,232.508 235.742,231.508 235.5,226.5C 236.736,228.971 238.569,230.971 241,232.5C 242.011,231.663 243.178,231.33 244.5,231.5C 244.198,228.941 244.532,226.607 245.5,224.5 Z"/></g>
<g><path style="opacity:0.396" fill="#7a7879" d="M 31.5,245.5 C 32.1408,246.482 32.8075,247.482 33.5,248.5C 33.3764,249.107 33.0431,249.44 32.5,249.5C 30.8624,248.295 30.5291,246.962 31.5,245.5 Z"/></g>
<g><path style="opacity:1" fill="#d9be8c" d="M 243.5,232.5 C 243.5,232.833 243.5,233.167 243.5,233.5C 243.5,233.833 243.5,234.167 243.5,234.5C 241.755,237.885 241.255,241.552 242,245.5C 242.278,244.584 242.778,243.918 243.5,243.5C 244.139,244.097 244.472,244.93 244.5,246C 244.497,248.314 243.831,249.481 242.5,249.5C 241.71,248.599 240.71,247.932 239.5,247.5C 238.833,247.5 238.5,247.167 238.5,246.5C 239.117,246.389 239.617,246.056 240,245.5C 240.333,241.833 240.667,238.167 241,234.5C 241.708,233.619 242.542,232.953 243.5,232.5 Z"/></g>
<g><path style="opacity:1" fill="#967f5c" d="M 238.5,246.5 C 238.5,247.167 238.833,247.5 239.5,247.5C 239.125,252.751 236.459,256.251 231.5,258C 233.603,258.853 233.603,260.02 231.5,261.5C 230.833,261.5 230.5,261.833 230.5,262.5C 229.442,261.4 228.608,260.066 228,258.5C 227.333,254.833 227.333,251.167 228,247.5C 231.223,243.852 234.723,243.519 238.5,246.5 Z"/></g>
<g><path style="opacity:1" fill="#b98a26" d="M 245.5,242.5 C 246.417,246.639 249.084,248.306 253.5,247.5C 253.875,249.698 254.542,251.698 255.5,253.5C 254.807,257.762 253.974,258.095 253,254.5C 251.519,255.471 250.685,256.804 250.5,258.5C 250.34,260.153 249.674,261.486 248.5,262.5C 248.606,259.385 247.606,256.719 245.5,254.5C 244.994,250.604 244.994,246.604 245.5,242.5 Z"/></g>
<g><path style="opacity:1" fill="#b9915d" d="M 239.5,247.5 C 240.71,247.932 241.71,248.599 242.5,249.5C 241.761,249.369 241.094,249.536 240.5,250C 241.792,253.165 241.792,256.332 240.5,259.5C 240.047,260.458 239.381,261.292 238.5,262C 235.961,262.796 233.628,262.629 231.5,261.5C 233.603,260.02 233.603,258.853 231.5,258C 236.459,256.251 239.125,252.751 239.5,247.5 Z"/></g>
<g><path style="opacity:1" fill="#674722" d="M 262.5,261.5 C 264.607,262.468 266.941,262.802 269.5,262.5C 270.167,262.5 270.5,262.833 270.5,263.5C 269.833,264.167 269.167,264.833 268.5,265.5C 267.25,265.577 266.417,266.244 266,267.5C 263.993,266.331 261.827,265.665 259.5,265.5C 259.5,264.167 259.5,262.833 259.5,261.5C 260.5,261.5 261.5,261.5 262.5,261.5 Z"/></g>
<g><path style="opacity:0.318" fill="#464446" d="M 474.5,249.5 C 470.948,255.394 466.614,260.727 461.5,265.5C 461.167,265.5 460.833,265.5 460.5,265.5C 464.228,261.262 467.394,256.595 470,251.5C 471.33,250.418 472.83,249.751 474.5,249.5 Z"/></g>
<g><path style="opacity:1" fill="#6b4722" d="M 240.5,259.5 C 243.691,263.503 242.524,265.836 237,266.5C 235.467,266.227 233.967,265.894 232.5,265.5C 231.833,264.5 231.167,263.5 230.5,262.5C 230.5,261.833 230.833,261.5 231.5,261.5C 233.628,262.629 235.961,262.796 238.5,262C 239.381,261.292 240.047,260.458 240.5,259.5 Z"/></g>
<g><path style="opacity:1" fill="#d2d1d3" d="M 77.5,271.5 C 75.629,271.141 74.129,270.141 73,268.5C 72.6667,268.833 72.3333,269.167 72,269.5C 69.706,268.578 67.5394,267.578 65.5,266.5C 68.5983,266.587 68.9316,266.087 66.5,265C 67.9708,262.757 68.9708,260.257 69.5,257.5C 69.3575,259.382 69.8575,261.382 71,263.5C 71.6667,262.833 72.3333,262.167 73,261.5C 71.7961,264.691 72.9628,266.857 76.5,268C 76.1667,268.333 75.8333,268.667 75.5,269C 76.3805,269.708 77.0472,270.542 77.5,271.5 Z"/></g>
<g><path style="opacity:1" fill="#95764d" d="M 245.5,242.5 C 244.994,246.604 244.994,250.604 245.5,254.5C 244.666,260.01 244.5,265.676 245,271.5C 243.302,272.741 241.802,274.074 240.5,275.5C 237.833,275.5 235.167,275.5 232.5,275.5C 234.827,272.33 234.827,268.997 232.5,265.5C 233.967,265.894 235.467,266.227 237,266.5C 242.524,265.836 243.691,263.503 240.5,259.5C 241.792,256.332 241.792,253.165 240.5,250C 241.094,249.536 241.761,249.369 242.5,249.5C 243.831,249.481 244.497,248.314 244.5,246C 244.472,244.93 244.139,244.097 243.5,243.5C 244.032,240.54 244.699,240.207 245.5,242.5 Z"/></g>
<g><path style="opacity:1" fill="#947952" d="M 254.5,244.5 C 255.017,247.285 255.85,249.952 257,252.5C 258.049,250.382 259.549,248.716 261.5,247.5C 266.848,243.087 271.181,243.92 274.5,250C 273.907,253.151 273.407,256.318 273,259.5C 272.392,261.066 271.558,262.4 270.5,263.5C 270.5,262.833 270.167,262.5 269.5,262.5C 269.956,258.881 268.456,256.548 265,255.5C 262.053,247.367 260.22,247.7 259.5,256.5C 260.092,258.423 261.092,260.089 262.5,261.5C 261.5,261.5 260.5,261.5 259.5,261.5C 259.5,262.833 259.5,264.167 259.5,265.5C 261.827,265.665 263.993,266.331 266,267.5C 266.417,266.244 267.25,265.577 268.5,265.5C 268.085,267.747 267.418,269.914 266.5,272C 266.844,273.365 267.511,274.532 268.5,275.5C 268.376,276.107 268.043,276.44 267.5,276.5C 266.833,276.5 266.167,276.5 265.5,276.5C 264.081,275.549 262.415,275.216 260.5,275.5C 258.909,274.781 257.409,273.781 256,272.5C 256.138,265.993 255.972,259.66 255.5,253.5C 254.542,251.698 253.875,249.698 253.5,247.5C 253.263,246.209 253.596,245.209 254.5,244.5 Z"/></g>
<g><path style="opacity:1" fill="#bf9760" d="M 269.5,262.5 C 266.941,262.802 264.607,262.468 262.5,261.5C 261.092,260.089 260.092,258.423 259.5,256.5C 260.22,247.7 262.053,247.367 265,255.5C 268.456,256.548 269.956,258.881 269.5,262.5 Z"/></g>
<g><path style="opacity:0.129" fill="#2a272a" d="M 35.5,268.5 C 37.5,268.5 39.5,268.5 41.5,268.5C 39.5,271.167 37.5,271.167 35.5,268.5 Z"/></g>
<g><path style="opacity:1" fill="#e0c06f" d="M 255.5,253.5 C 255.972,259.66 256.138,265.993 256,272.5C 257.409,273.781 258.909,274.781 260.5,275.5C 256.154,275.334 251.821,275.501 247.5,276C 246.402,276.77 246.402,277.603 247.5,278.5C 246.5,278.5 245.5,278.5 244.5,278.5C 244.804,277.85 245.137,277.183 245.5,276.5C 243.955,275.548 242.288,275.215 240.5,275.5C 241.802,274.074 243.302,272.741 245,271.5C 244.5,265.676 244.666,260.01 245.5,254.5C 247.606,256.719 248.606,259.385 248.5,262.5C 248.5,266.167 248.5,269.833 248.5,273.5C 249.833,273.5 251.167,273.5 252.5,273.5C 252.811,268.234 252.145,263.234 250.5,258.5C 250.685,256.804 251.519,255.471 253,254.5C 253.974,258.095 254.807,257.762 255.5,253.5 Z"/></g>
<g><path style="opacity:1" fill="#997842" d="M 250.5,258.5 C 252.145,263.234 252.811,268.234 252.5,273.5C 251.167,273.5 249.833,273.5 248.5,273.5C 248.5,269.833 248.5,266.167 248.5,262.5C 249.674,261.486 250.34,260.153 250.5,258.5 Z"/></g>
<g><path style="opacity:1" fill="#dabd3b" d="M 232.5,276.5 C 232.5,276.167 232.5,275.833 232.5,275.5C 235.167,275.5 237.833,275.5 240.5,275.5C 242.288,275.215 243.955,275.548 245.5,276.5C 245.137,277.183 244.804,277.85 244.5,278.5C 240.5,278.5 236.5,278.5 232.5,278.5C 233.506,277.604 233.506,276.938 232.5,276.5 Z"/></g>
<g><path style="opacity:1" fill="#d5b63f" d="M 260.5,275.5 C 262.415,275.216 264.081,275.549 265.5,276.5C 262.052,275.901 259.386,276.901 257.5,279.5C 256.833,279.5 256.167,279.5 255.5,279.5C 253.052,278.527 250.385,278.194 247.5,278.5C 246.402,277.603 246.402,276.77 247.5,276C 251.821,275.501 256.154,275.334 260.5,275.5 Z"/></g>
<g><path style="opacity:1" fill="#c7bb65" d="M 232.5,276.5 C 233.506,276.938 233.506,277.604 232.5,278.5C 230.833,278.5 229.167,278.5 227.5,278.5C 225.5,278.5 223.5,278.5 221.5,278.5C 221.5,281.5 221.5,284.5 221.5,287.5C 221.806,290.385 221.473,293.052 220.5,295.5C 220.5,294.833 220.167,294.5 219.5,294.5C 220.452,288.925 220.786,283.259 220.5,277.5C 224.6,277.763 228.6,277.43 232.5,276.5 Z"/></g>
<g><path style="opacity:1" fill="#d3c635" d="M 265.5,276.5 C 266.167,276.5 266.833,276.5 267.5,276.5C 267.842,277.338 268.508,277.672 269.5,277.5C 269.5,278.167 269.5,278.833 269.5,279.5C 265.5,279.5 261.5,279.5 257.5,279.5C 259.386,276.901 262.052,275.901 265.5,276.5 Z"/></g>
<g><path style="opacity:1" fill="#a7b235" d="M 227.5,278.5 C 229.167,278.5 230.833,278.5 232.5,278.5C 236.5,278.5 240.5,278.5 244.5,278.5C 245.5,278.5 246.5,278.5 247.5,278.5C 250.385,278.194 253.052,278.527 255.5,279.5C 246.5,279.5 237.5,279.5 228.5,279.5C 228.727,281.933 227.727,283.599 225.5,284.5C 226.63,282.685 227.296,280.685 227.5,278.5 Z"/></g>
<g><path style="opacity:0.653" fill="#2f2f2f" d="M 65.5,266.5 C 67.5394,267.578 69.706,268.578 72,269.5C 72.3333,269.167 72.6667,268.833 73,268.5C 74.129,270.141 75.629,271.141 77.5,271.5C 89.4377,276.972 99.771,284.639 108.5,294.5C 108.167,294.5 107.833,294.5 107.5,294.5C 95.1049,282.63 80.7716,273.797 64.5,268C 56.7978,267.269 49.1311,267.436 41.5,268.5C 41.8807,267.069 42.8807,266.236 44.5,266C 51.5803,265.205 58.5803,265.372 65.5,266.5 Z"/></g>
<g><path style="opacity:1" fill="#38841f" d="M 255.5,279.5 C 256.167,279.5 256.833,279.5 257.5,279.5C 261.5,279.5 265.5,279.5 269.5,279.5C 270.833,280.833 272.167,282.167 273.5,283.5C 274.6,284.605 275.267,285.938 275.5,287.5C 275.167,287.5 274.833,287.5 274.5,287.5C 273.791,286.596 272.791,286.263 271.5,286.5C 270.859,285.518 270.193,284.518 269.5,283.5C 264.682,282.188 260.015,282.188 255.5,283.5C 255.5,284.167 255.167,284.5 254.5,284.5C 250.979,283.286 246.979,282.286 242.5,281.5C 241.252,282.04 240.085,282.707 239,283.5C 236.063,282.183 233.23,282.183 230.5,283.5C 229.833,284.5 229.167,285.5 228.5,286.5C 227.833,286.5 227.5,286.833 227.5,287.5C 226.5,287.5 225.5,287.5 224.5,287.5C 224.557,286.391 224.89,285.391 225.5,284.5C 227.727,283.599 228.727,281.933 228.5,279.5C 237.5,279.5 246.5,279.5 255.5,279.5 Z"/></g>
<g><path style="opacity:1" fill="#dec22e" d="M 227.5,278.5 C 227.296,280.685 226.63,282.685 225.5,284.5C 224.89,285.391 224.557,286.391 224.5,287.5C 224.167,287.5 223.833,287.5 223.5,287.5C 222.833,287.5 222.167,287.5 221.5,287.5C 221.5,284.5 221.5,281.5 221.5,278.5C 223.5,278.5 225.5,278.5 227.5,278.5 Z"/></g>
<g><path style="opacity:1" fill="#195820" d="M 230.5,283.5 C 233.805,284.15 237.139,284.816 240.5,285.5C 245.209,285.344 249.875,285.011 254.5,284.5C 255.167,284.5 255.5,284.167 255.5,283.5C 260.133,284.029 264.8,285.029 269.5,286.5C 255.98,286.754 242.314,286.754 228.5,286.5C 229.167,285.5 229.833,284.5 230.5,283.5 Z"/></g>
<g><path style="opacity:1" fill="#126c1e" d="M 255.5,283.5 C 260.015,282.188 264.682,282.188 269.5,283.5C 270.193,284.518 270.859,285.518 271.5,286.5C 270.833,286.5 270.167,286.5 269.5,286.5C 264.8,285.029 260.133,284.029 255.5,283.5 Z"/></g>
<g><path style="opacity:1" fill="#186b1e" d="M 254.5,284.5 C 249.875,285.011 245.209,285.344 240.5,285.5C 237.139,284.816 233.805,284.15 230.5,283.5C 233.23,282.183 236.063,282.183 239,283.5C 240.085,282.707 241.252,282.04 242.5,281.5C 246.979,282.286 250.979,283.286 254.5,284.5 Z"/></g>
<g><path style="opacity:1" fill="#e0c331" d="M 275.5,287.5 C 275.267,285.938 274.6,284.605 273.5,283.5C 271.913,279.082 273.58,277.415 278.5,278.5C 278.662,280.527 278.495,282.527 278,284.5C 277.764,286.119 276.931,287.119 275.5,287.5 Z"/></g>
<g><path style="opacity:0.125" fill="#bcbabb" d="M 460.5,265.5 C 460.833,265.5 461.167,265.5 461.5,265.5C 459.367,273.233 457.033,280.9 454.5,288.5C 453.903,288.265 453.57,287.765 453.5,287C 455.877,280.326 457.71,273.492 459,266.5C 459.383,265.944 459.883,265.611 460.5,265.5 Z"/></g>
<g><path style="opacity:1" fill="#f1fbf0" d="M 274.5,287.5 C 274.833,287.5 275.167,287.5 275.5,287.5C 275.5,289.167 275.5,290.833 275.5,292.5C 271.4,292.763 267.4,292.43 263.5,291.5C 263.053,288.476 262.22,288.143 261,290.5C 260.517,289.552 260.351,288.552 260.5,287.5C 265.167,287.5 269.833,287.5 274.5,287.5 Z"/></g>
<g><path style="opacity:1" fill="#e8f6e6" d="M 223.5,287.5 C 223.833,287.5 224.167,287.5 224.5,287.5C 225.5,287.5 226.5,287.5 227.5,287.5C 237.5,287.5 247.5,287.5 257.5,287.5C 257.5,288.5 257.5,289.5 257.5,290.5C 254.512,288.727 251.179,288.06 247.5,288.5C 247.541,292.243 246.874,292.41 245.5,289C 243.251,288.137 241.418,288.637 240,290.5C 238.599,288.808 236.766,288.141 234.5,288.5C 234.5,289.833 234.5,291.167 234.5,292.5C 230.833,292.5 227.167,292.5 223.5,292.5C 223.5,290.833 223.5,289.167 223.5,287.5 Z"/></g>
<g><path style="opacity:1" fill="#7e9e81" d="M 227.5,287.5 C 227.5,286.833 227.833,286.5 228.5,286.5C 242.314,286.754 255.98,286.754 269.5,286.5C 270.167,286.5 270.833,286.5 271.5,286.5C 272.791,286.263 273.791,286.596 274.5,287.5C 269.833,287.5 265.167,287.5 260.5,287.5C 260.351,288.552 260.517,289.552 261,290.5C 262.22,288.143 263.053,288.476 263.5,291.5C 261.379,291.675 259.379,291.341 257.5,290.5C 257.5,289.5 257.5,288.5 257.5,287.5C 247.5,287.5 237.5,287.5 227.5,287.5 Z"/></g>
<g><path style="opacity:1" fill="#9ab098" d="M 257.5,290.5 C 259.379,291.341 261.379,291.675 263.5,291.5C 267.4,292.43 271.4,292.763 275.5,292.5C 275.5,292.833 275.5,293.167 275.5,293.5C 273.5,293.5 271.5,293.5 269.5,293.5C 259.833,293.5 250.167,293.5 240.5,293.5C 235.5,293.5 230.5,293.5 225.5,293.5C 224.833,293.5 224.167,293.5 223.5,293.5C 223.5,293.167 223.5,292.833 223.5,292.5C 227.167,292.5 230.833,292.5 234.5,292.5C 234.5,291.167 234.5,289.833 234.5,288.5C 236.766,288.141 238.599,288.808 240,290.5C 241.418,288.637 243.251,288.137 245.5,289C 246.874,292.41 247.541,292.243 247.5,288.5C 251.179,288.06 254.512,288.727 257.5,290.5 Z"/></g>
<g><path style="opacity:1" fill="#cec46a" d="M 269.5,277.5 C 272.5,277.5 275.5,277.5 278.5,277.5C 279.489,282.975 279.822,288.642 279.5,294.5C 278.833,294.5 278.5,294.833 278.5,295.5C 277.833,295.5 277.167,295.5 276.5,295.5C 276.672,294.508 276.338,293.842 275.5,293.5C 275.5,293.167 275.5,292.833 275.5,292.5C 275.5,290.833 275.5,289.167 275.5,287.5C 276.931,287.119 277.764,286.119 278,284.5C 278.495,282.527 278.662,280.527 278.5,278.5C 273.58,277.415 271.913,279.082 273.5,283.5C 272.167,282.167 270.833,280.833 269.5,279.5C 269.5,278.833 269.5,278.167 269.5,277.5 Z"/></g>
<g><path style="opacity:1" fill="#206036" d="M 107.5,294.5 C 107.833,294.5 108.167,294.5 108.5,294.5C 145.167,294.5 181.833,294.5 218.5,294.5C 218.5,294.833 218.5,295.167 218.5,295.5C 182.833,295.5 147.167,295.5 111.5,295.5C 111.318,297.591 111.652,299.591 112.5,301.5C 113.325,302.386 114.325,302.719 115.5,302.5C 115.15,305.041 115.15,307.374 115.5,309.5C 112.05,308.756 110.384,310.09 110.5,313.5C 110.833,315.5 111.167,317.5 111.5,319.5C 107.176,314.957 107.509,310.79 112.5,307C 111.315,302.605 109.648,298.439 107.5,294.5 Z"/></g>
<g><path style="opacity:1" fill="#458c1a" d="M 223.5,293.5 C 224.167,293.5 224.833,293.5 225.5,293.5C 227.448,294.131 229.281,295.131 231,296.5C 232.516,293.949 233.349,294.282 233.5,297.5C 236.866,297.212 240.2,297.046 243.5,297C 242.262,297.69 242.262,298.19 243.5,298.5C 243.5,298.833 243.5,299.167 243.5,299.5C 238.786,299.827 234.12,299.493 229.5,298.5C 227.328,296.828 225.328,295.161 223.5,293.5 Z"/></g>
<g><path style="opacity:0.576" fill="#2a352b" d="M 453.5,293.5 C 451.537,294.82 449.537,296.154 447.5,297.5C 447.5,296.5 447.5,295.5 447.5,294.5C 449.435,293.85 451.435,293.517 453.5,293.5 Z"/></g>
<g><path style="opacity:1" fill="#147037" d="M 218.5,295.5 C 183.337,296.498 148.004,296.832 112.5,296.5C 112.5,297.5 112.5,298.5 112.5,299.5C 115.857,299.106 118.19,300.439 119.5,303.5C 119.148,306.217 117.815,308.217 115.5,309.5C 115.15,307.374 115.15,305.041 115.5,302.5C 114.325,302.719 113.325,302.386 112.5,301.5C 111.652,299.591 111.318,297.591 111.5,295.5C 147.167,295.5 182.833,295.5 218.5,295.5 Z"/></g>
<g><path style="opacity:1" fill="#1a601d" d="M 240.5,293.5 C 250.167,293.5 259.833,293.5 269.5,293.5C 269.5,294.5 269.5,295.5 269.5,296.5C 264.833,296.5 260.167,296.5 255.5,296.5C 250.127,296.759 245.127,295.759 240.5,293.5 Z"/></g>
<g><path style="opacity:1" fill="#23711d" d="M 225.5,293.5 C 230.5,293.5 235.5,293.5 240.5,293.5C 245.127,295.759 250.127,296.759 255.5,296.5C 255.5,297.167 255.167,297.5 254.5,297.5C 250.817,298.133 247.15,298.466 243.5,298.5C 242.262,298.19 242.262,297.69 243.5,297C 240.2,297.046 236.866,297.212 233.5,297.5C 233.349,294.282 232.516,293.949 231,296.5C 229.281,295.131 227.448,294.131 225.5,293.5 Z"/></g>
<g><path style="opacity:1" fill="#438519" d="M 269.5,293.5 C 271.5,293.5 273.5,293.5 275.5,293.5C 276.338,293.842 276.672,294.508 276.5,295.5C 273.654,295.59 271.321,296.756 269.5,299C 264.511,299.499 259.511,299.666 254.5,299.5C 254.5,298.833 254.5,298.167 254.5,297.5C 255.167,297.5 255.5,297.167 255.5,296.5C 260.167,296.5 264.833,296.5 269.5,296.5C 269.5,295.5 269.5,294.5 269.5,293.5 Z"/></g>
<g><path style="opacity:1" fill="#c7c242" d="M 221.5,287.5 C 222.167,287.5 222.833,287.5 223.5,287.5C 223.5,289.167 223.5,290.833 223.5,292.5C 223.5,292.833 223.5,293.167 223.5,293.5C 225.328,295.161 227.328,296.828 229.5,298.5C 234.12,299.493 238.786,299.827 243.5,299.5C 243.242,301.127 236.576,301.46 223.5,300.5C 221.273,299.599 220.273,297.933 220.5,295.5C 221.473,293.052 221.806,290.385 221.5,287.5 Z"/></g>
<g><path style="opacity:1" fill="#2c6405" d="M 219.5,294.5 C 220.167,294.5 220.5,294.833 220.5,295.5C 220.273,297.933 221.273,299.599 223.5,300.5C 231.167,301.167 238.833,301.833 246.5,302.5C 238.493,302.666 230.493,302.5 222.5,302C 219.959,300.152 218.959,297.652 219.5,294.5 Z"/></g>
<g><path style="opacity:1" fill="#037330" d="M 218.5,294.5 C 218.833,294.5 219.167,294.5 219.5,294.5C 218.959,297.652 219.959,300.152 222.5,302C 230.493,302.5 238.493,302.666 246.5,302.5C 256.503,302.036 266.503,301.369 276.5,300.5C 278.727,299.599 279.727,297.933 279.5,295.5C 335.171,295.167 390.837,295.5 446.5,296.5C 444.631,297.624 442.631,298.457 440.5,299C 439.289,300.113 439.289,301.28 440.5,302.5C 439.073,306.26 436.407,308.594 432.5,309.5C 431.558,309.392 430.725,309.059 430,308.5C 429.505,306.527 429.338,304.527 429.5,302.5C 426.142,301.45 422.809,300.45 419.5,299.5C 413.428,299.945 407.428,300.778 401.5,302C 398.9,304.984 397.9,308.484 398.5,312.5C 395.91,313.252 393.41,314.252 391,315.5C 387.631,314.187 384.131,313.354 380.5,313C 379.833,312 379.167,311 378.5,310C 367.992,309.175 357.658,309.341 347.5,310.5C 346.432,311.434 345.099,311.768 343.5,311.5C 337.229,314.723 331.562,313.89 326.5,309C 320.188,308.876 314.022,308.043 308,306.5C 305.323,307.71 302.49,308.377 299.5,308.5C 294.917,307.979 290.25,307.979 285.5,308.5C 283.897,308.312 282.563,308.812 281.5,310C 277.39,311.143 273.724,310.477 270.5,308C 271.551,306.615 272.884,305.615 274.5,305C 273,304.5 271.5,304 270,303.5C 254.536,304.477 239.036,304.81 223.5,304.5C 223.5,306.167 223.5,307.833 223.5,309.5C 190.192,310.912 156.859,311.912 123.5,312.5C 119.224,315.799 114.891,316.132 110.5,313.5C 110.384,310.09 112.05,308.756 115.5,309.5C 117.815,308.217 119.148,306.217 119.5,303.5C 118.19,300.439 115.857,299.106 112.5,299.5C 112.5,298.5 112.5,297.5 112.5,296.5C 148.004,296.832 183.337,296.498 218.5,295.5C 218.5,295.167 218.5,294.833 218.5,294.5 Z"/></g>
<g><path style="opacity:1" fill="#cbc841" d="M 276.5,295.5 C 277.167,295.5 277.833,295.5 278.5,295.5C 278.833,295.5 279.167,295.5 279.5,295.5C 279.727,297.933 278.727,299.599 276.5,300.5C 268.981,300.825 261.648,300.492 254.5,299.5C 259.511,299.666 264.511,299.499 269.5,299C 271.321,296.756 273.654,295.59 276.5,295.5 Z"/></g>
<g><path style="opacity:1" fill="#a0ae34" d="M 254.5,297.5 C 254.5,298.167 254.5,298.833 254.5,299.5C 261.648,300.492 268.981,300.825 276.5,300.5C 266.503,301.369 256.503,302.036 246.5,302.5C 238.833,301.833 231.167,301.167 223.5,300.5C 236.576,301.46 243.242,301.127 243.5,299.5C 243.5,299.167 243.5,298.833 243.5,298.5C 247.15,298.466 250.817,298.133 254.5,297.5 Z"/></g>
<g><path style="opacity:1" fill="#186536" d="M 278.5,295.5 C 278.5,294.833 278.833,294.5 279.5,294.5C 335.5,294.5 391.5,294.5 447.5,294.5C 447.5,295.5 447.5,296.5 447.5,297.5C 446.89,298.391 446.557,299.391 446.5,300.5C 442.96,302.036 440.96,304.703 440.5,308.5C 438.318,310.088 435.818,311.088 433,311.5C 431.833,311.333 430.667,311.167 429.5,311C 428.837,309.482 427.837,308.315 426.5,307.5C 425.746,304.909 424.079,303.076 421.5,302C 415.511,301.998 409.511,302.332 403.5,303C 400.679,305.141 399.346,307.975 399.5,311.5C 399.672,312.492 399.338,313.158 398.5,313.5C 396.448,315.922 393.782,316.922 390.5,316.5C 387.118,316.324 383.785,315.824 380.5,315C 379.313,313.981 378.313,312.814 377.5,311.5C 367.522,310.501 357.522,310.168 347.5,310.5C 357.658,309.341 367.992,309.175 378.5,310C 379.167,311 379.833,312 380.5,313C 384.131,313.354 387.631,314.187 391,315.5C 393.41,314.252 395.91,313.252 398.5,312.5C 397.9,308.484 398.9,304.984 401.5,302C 407.428,300.778 413.428,299.945 419.5,299.5C 422.809,300.45 426.142,301.45 429.5,302.5C 429.338,304.527 429.505,306.527 430,308.5C 430.725,309.059 431.558,309.392 432.5,309.5C 436.407,308.594 439.073,306.26 440.5,302.5C 439.289,301.28 439.289,300.113 440.5,299C 442.631,298.457 444.631,297.624 446.5,296.5C 390.837,295.5 335.171,295.167 279.5,295.5C 279.167,295.5 278.833,295.5 278.5,295.5 Z"/></g>
<g><path style="opacity:1" fill="#017232" d="M 285.5,308.5 C 284.426,309.885 283.093,311.051 281.5,312C 274.174,312.5 266.841,312.666 259.5,312.5C 259.5,313.833 259.5,315.167 259.5,316.5C 259.5,317.5 259.5,318.5 259.5,319.5C 257.466,320.548 256.133,322.214 255.5,324.5C 253.045,325.355 250.712,326.355 248.5,327.5C 247.504,327.414 246.671,327.748 246,328.5C 245.833,331.333 244.333,332.833 241.5,333C 235.147,332.649 228.814,332.816 222.5,333.5C 216.965,336.561 211.299,339.228 205.5,341.5C 204.355,344.119 202.521,346.119 200,347.5C 199.881,351.005 198.714,354.005 196.5,356.5C 194.852,358.429 193.185,360.429 191.5,362.5C 188.944,363.051 186.611,364.051 184.5,365.5C 183.509,369.445 183.176,373.445 183.5,377.5C 181.821,377.285 180.821,377.952 180.5,379.5C 177.482,379.665 174.482,379.498 171.5,379C 166.399,376.647 161.399,374.147 156.5,371.5C 155.866,369.433 154.866,367.6 153.5,366C 149.768,364.031 145.768,363.031 141.5,363C 140.205,360.894 139.038,358.394 138,355.5C 136.887,354.695 135.721,354.028 134.5,353.5C 131.991,347.807 128.991,342.474 125.5,337.5C 125.5,337.167 125.5,336.833 125.5,336.5C 126.478,336.189 127.145,335.522 127.5,334.5C 126.147,333.476 125.48,332.143 125.5,330.5C 125.5,329.833 125.5,329.167 125.5,328.5C 122.163,324.669 117.83,322.669 112.5,322.5C 111.596,321.791 111.263,320.791 111.5,319.5C 111.167,317.5 110.833,315.5 110.5,313.5C 114.891,316.132 119.224,315.799 123.5,312.5C 156.859,311.912 190.192,310.912 223.5,309.5C 223.5,307.833 223.5,306.167 223.5,304.5C 239.036,304.81 254.536,304.477 270,303.5C 271.5,304 273,304.5 274.5,305C 272.884,305.615 271.551,306.615 270.5,308C 273.724,310.477 277.39,311.143 281.5,310C 282.563,308.812 283.897,308.312 285.5,308.5 Z"/></g>
<g><path style="opacity:0.427" fill="#10391d" d="M 426.5,307.5 C 422.733,303.214 418.4,302.547 413.5,305.5C 412.252,304.96 411.085,304.293 410,303.5C 407.553,304.406 405.053,305.239 402.5,306C 401.391,307.876 400.391,309.709 399.5,311.5C 399.346,307.975 400.679,305.141 403.5,303C 409.511,302.332 415.511,301.998 421.5,302C 424.079,303.076 425.746,304.909 426.5,307.5 Z"/></g>
<g><path style="opacity:1" fill="#106835" d="M 343.5,311.5 C 341.752,314.042 339.252,315.376 336,315.5C 330.897,314.801 326.231,313.134 322,310.5C 316.732,313.099 311.398,313.099 306,310.5C 300.749,312.488 295.416,312.822 290,311.5C 280.933,313.123 271.766,313.957 262.5,314C 261.627,315.045 260.627,315.878 259.5,316.5C 259.5,315.167 259.5,313.833 259.5,312.5C 266.841,312.666 274.174,312.5 281.5,312C 283.093,311.051 284.426,309.885 285.5,308.5C 290.25,307.979 294.917,307.979 299.5,308.5C 302.49,308.377 305.323,307.71 308,306.5C 314.022,308.043 320.188,308.876 326.5,309C 331.562,313.89 337.229,314.723 343.5,311.5 Z"/></g>
<g><path style="opacity:1" fill="#1a412a" d="M 446.5,300.5 C 444.12,303.56 442.12,306.894 440.5,310.5C 434.074,316.681 429.407,315.681 426.5,307.5C 427.837,308.315 428.837,309.482 429.5,311C 430.667,311.167 431.833,311.333 433,311.5C 435.818,311.088 438.318,310.088 440.5,308.5C 440.96,304.703 442.96,302.036 446.5,300.5 Z"/></g>
<g><path style="opacity:0.22" fill="#142e1c" d="M 343.5,311.5 C 345.099,311.768 346.432,311.434 347.5,310.5C 357.522,310.168 367.522,310.501 377.5,311.5C 378.313,312.814 379.313,313.981 380.5,315C 383.785,315.824 387.118,316.324 390.5,316.5C 393.782,316.922 396.448,315.922 398.5,313.5C 398.489,315.017 397.823,316.184 396.5,317C 392.058,319.149 387.724,318.983 383.5,316.5C 382.833,316.833 382.167,317.167 381.5,317.5C 379.42,315.411 377.087,313.744 374.5,312.5C 365.596,312.46 356.596,312.626 347.5,313C 343.629,314.766 339.629,316.266 335.5,317.5C 330.866,316.216 326.366,314.549 322,312.5C 320,313.167 318,313.833 316,314.5C 309.617,311.915 303.284,311.915 297,314.5C 294.782,313.528 292.449,312.861 290,312.5C 285.606,314.6 280.94,315.934 276,316.5C 271.64,316.423 267.14,316.256 262.5,316C 261.364,317.145 260.364,318.312 259.5,319.5C 259.5,318.5 259.5,317.5 259.5,316.5C 260.627,315.878 261.627,315.045 262.5,314C 271.766,313.957 280.933,313.123 290,311.5C 295.416,312.822 300.749,312.488 306,310.5C 311.398,313.099 316.732,313.099 322,310.5C 326.231,313.134 330.897,314.801 336,315.5C 339.252,315.376 341.752,314.042 343.5,311.5 Z"/></g>
<g><path style="opacity:0.945" fill="#14381e" d="M 112.5,322.5 C 117.83,322.669 122.163,324.669 125.5,328.5C 122.01,326.192 118.01,325.025 113.5,325C 112.748,324.329 112.414,323.496 112.5,322.5 Z"/></g>
<g><path style="opacity:1" fill="#136434" d="M 248.5,327.5 C 247.943,330.792 246.276,333.292 243.5,335C 236.5,335.333 229.5,335.667 222.5,336C 221.619,336.708 220.953,337.542 220.5,338.5C 215.626,340.125 210.626,341.125 205.5,341.5C 211.299,339.228 216.965,336.561 222.5,333.5C 228.814,332.816 235.147,332.649 241.5,333C 244.333,332.833 245.833,331.333 246,328.5C 246.671,327.748 247.504,327.414 248.5,327.5 Z"/></g>
<g><path style="opacity:0.078" fill="#12321c" d="M 259.5,319.5 C 258.322,325.004 254.988,328.504 249.5,330C 247.411,335.82 243.244,338.32 237,337.5C 231.326,335.94 225.826,336.273 220.5,338.5C 220.953,337.542 221.619,336.708 222.5,336C 229.5,335.667 236.5,335.333 243.5,335C 246.276,333.292 247.943,330.792 248.5,327.5C 250.712,326.355 253.045,325.355 255.5,324.5C 256.133,322.214 257.466,320.548 259.5,319.5 Z"/></g>
<g><path style="opacity:1" fill="#124323" d="M 220.5,338.5 C 215.156,340.693 209.822,343.193 204.5,346C 201.735,350.173 199.068,354.34 196.5,358.5C 196.5,357.833 196.5,357.167 196.5,356.5C 198.714,354.005 199.881,351.005 200,347.5C 202.521,346.119 204.355,344.119 205.5,341.5C 210.626,341.125 215.626,340.125 220.5,338.5 Z"/></g>
<g><path style="opacity:0.467" fill="#144026" d="M 125.5,344.5 C 129.561,349.023 132.895,354.023 135.5,359.5C 134.185,358.524 132.852,357.524 131.5,356.5C 129.88,352.241 127.88,348.241 125.5,344.5 Z"/></g>
<g><path style="opacity:1" fill="#1b5f36" d="M 125.5,330.5 C 125.48,332.143 126.147,333.476 127.5,334.5C 127.145,335.522 126.478,336.189 125.5,336.5C 124.637,335.537 123.97,335.537 123.5,336.5C 123.957,337.298 124.624,337.631 125.5,337.5C 128.991,342.474 131.991,347.807 134.5,353.5C 136.4,357.002 138.4,360.502 140.5,364C 143.675,363.947 146.342,364.78 148.5,366.5C 145.428,366.817 142.428,366.484 139.5,365.5C 138.143,363.435 136.81,361.435 135.5,359.5C 132.895,354.023 129.561,349.023 125.5,344.5C 121.717,340.6 119.884,335.934 120,330.5C 121,331.5 122,332.5 123,333.5C 123.377,332.058 124.21,331.058 125.5,330.5 Z"/></g>
<g><path style="opacity:1" fill="#126734" d="M 196.5,356.5 C 196.5,357.167 196.5,357.833 196.5,358.5C 196.672,359.492 196.338,360.158 195.5,360.5C 193.461,361.911 192.461,363.911 192.5,366.5C 185.412,365.408 183.079,368.074 185.5,374.5C 187.18,376.726 186.847,378.393 184.5,379.5C 183.167,379.5 181.833,379.5 180.5,379.5C 180.821,377.952 181.821,377.285 183.5,377.5C 183.176,373.445 183.509,369.445 184.5,365.5C 186.611,364.051 188.944,363.051 191.5,362.5C 193.185,360.429 194.852,358.429 196.5,356.5 Z"/></g>
<g><path style="opacity:1" fill="#13321c" d="M 135.5,359.5 C 136.81,361.435 138.143,363.435 139.5,365.5C 142.428,366.484 145.428,366.817 148.5,366.5C 148.833,367.167 149.167,367.833 149.5,368.5C 141.151,370.912 136.484,367.912 135.5,359.5 Z"/></g>
<g><path style="opacity:0.89" fill="#154023" d="M 195.5,360.5 C 194.366,363.899 193.033,367.232 191.5,370.5C 186.706,367.277 184.706,368.61 185.5,374.5C 183.079,368.074 185.412,365.408 192.5,366.5C 192.461,363.911 193.461,361.911 195.5,360.5 Z"/></g>
<g><path style="opacity:1" fill="#106836" d="M 134.5,353.5 C 135.721,354.028 136.887,354.695 138,355.5C 139.038,358.394 140.205,360.894 141.5,363C 145.768,363.031 149.768,364.031 153.5,366C 154.866,367.6 155.866,369.433 156.5,371.5C 161.399,374.147 166.399,376.647 171.5,379C 174.482,379.498 177.482,379.665 180.5,379.5C 176.648,384.302 172.648,384.469 168.5,380C 166.5,379.667 164.5,379.333 162.5,379C 157.848,375.819 153.515,372.319 149.5,368.5C 149.167,367.833 148.833,367.167 148.5,366.5C 146.342,364.78 143.675,363.947 140.5,364C 138.4,360.502 136.4,357.002 134.5,353.5 Z"/></g>
<g><path style="opacity:1" fill="#112f1b" d="M 149.5,368.5 C 153.515,372.319 157.848,375.819 162.5,379C 164.5,379.333 166.5,379.667 168.5,380C 172.648,384.469 176.648,384.302 180.5,379.5C 181.833,379.5 183.167,379.5 184.5,379.5C 180.692,381.672 176.692,383.672 172.5,385.5C 170.684,384.185 169.017,382.685 167.5,381C 163.866,380.844 160.533,379.844 157.5,378C 154.998,374.667 152.332,371.501 149.5,368.5 Z"/></g>
</svg>
