<?xml version="1.0" encoding="UTF-8"?>
<!DOCTYPE svg PUBLIC "-//W3C//DTD SVG 1.1//EN" "http://www.w3.org/Graphics/SVG/1.1/DTD/svg11.dtd">
<svg xmlns="http://www.w3.org/2000/svg" version="1.1" width="840px" height="859px" style="shape-rendering:geometricPrecision; text-rendering:geometricPrecision; image-rendering:optimizeQuality; fill-rule:evenodd; clip-rule:evenodd" xmlns:xlink="http://www.w3.org/1999/xlink">
<g><path style="opacity:1" fill="#7423d9" d="M 274.5,7.5 C 276.766,11.4356 279.766,14.7689 283.5,17.5C 285.535,19.938 287.201,22.6047 288.5,25.5C 289.603,35.0936 287.936,44.0936 283.5,52.5C 279.5,54.5 276.5,57.5 274.5,61.5C 266.18,66.83 257.18,68.4966 247.5,66.5C 245.491,64.9348 243.157,63.9348 240.5,63.5C 225.892,53.4286 220.892,39.7619 225.5,22.5C 226.674,21.4863 227.34,20.153 227.5,18.5C 230.833,13.1667 235.167,8.83333 240.5,5.5C 252.177,-0.249863 263.51,0.416804 274.5,7.5 Z"/></g>
<g><path style="opacity:0.427" fill="#4ccfdd" d="M 240.5,5.5 C 235.167,8.83333 230.833,13.1667 227.5,18.5C 228.833,11.1667 233.167,6.83333 240.5,5.5 Z"/></g>
<g><path style="opacity:1" fill="#ae88d2" d="M 248.5,7.5 C 256.582,6.6418 264.248,7.80847 271.5,11C 273.333,14.1667 275.833,16.6667 279,18.5C 288.324,37.5292 283.49,51.6958 264.5,61C 238.413,63.2472 226.913,51.4138 230,25.5C 233.441,16.5567 239.608,10.5567 248.5,7.5 Z"/></g>
<g><path style="opacity:0.553" fill="#41ccdd" d="M 288.5,25.5 C 287.201,22.6047 285.535,19.938 283.5,17.5C 281.234,13.5644 278.234,10.2311 274.5,7.5C 263.51,0.416804 252.177,-0.249863 240.5,5.5C 244.627,1.67947 249.627,0.0127999 255.5,0.5C 272.599,0.948054 283.599,9.28139 288.5,25.5 Z"/></g>
<g><path style="opacity:1" fill="#495ed8" d="M 274.5,7.5 C 278.234,10.2311 281.234,13.5644 283.5,17.5C 279.766,14.7689 276.766,11.4356 274.5,7.5 Z"/></g>
<g><path style="opacity:1" fill="#fefefe" d="M 240.5,16.5 C 241.289,16.7828 241.956,17.2828 242.5,18C 235.242,29.8366 236.075,41.0033 245,51.5C 245.667,52.5 245.667,53.5 245,54.5C 233.135,43.0218 231.635,30.3551 240.5,16.5 Z"/></g>
<g><path style="opacity:0.573" fill="#48c6e0" d="M 227.5,18.5 C 227.34,20.153 226.674,21.4863 225.5,22.5C 225.229,20.6203 225.896,19.287 227.5,18.5 Z"/></g>
<g><path style="opacity:0.553" fill="#4acfdf" d="M 148.5,28.5 C 173.156,27.3265 181.323,38.3265 173,61.5C 166.976,68.1857 159.476,70.3524 150.5,68C 140.911,65.1147 136.245,58.6147 136.5,48.5C 136.354,43.7781 137.52,39.4447 140,35.5C 142.736,32.9011 145.569,30.5678 148.5,28.5 Z"/></g>
<g><path style="opacity:1" fill="#7035d9" d="M 151.5,29.5 C 169.822,29.6458 177.322,38.6458 174,56.5C 165.671,68.7014 155.338,70.7014 143,62.5C 133.485,48.3202 136.318,37.3202 151.5,29.5 Z"/></g>
<g><path style="opacity:1" fill="#ae88d2" d="M 153.5,32.5 C 162.845,32.6951 169.345,37.0284 173,45.5C 173.667,47.5 173.667,49.5 173,51.5C 167.5,64.6483 158.333,67.8149 145.5,61C 136.965,47.9367 139.632,38.4367 153.5,32.5 Z"/></g>
<g><path style="opacity:1" fill="#fefefe" d="M 249.5,56.5 C 252.019,55.206 254.352,55.706 256.5,58C 256,58.5 255.5,59 255,59.5C 252.982,58.7772 251.148,57.7772 249.5,56.5 Z"/></g>
<g><path style="opacity:0.529" fill="#50d4df" d="M 225.5,22.5 C 220.892,39.7619 225.892,53.4286 240.5,63.5C 238.099,62.9512 235.765,62.1178 233.5,61C 224.192,51.4005 220.692,39.9005 223,26.5C 223.2,24.6803 224.034,23.347 225.5,22.5 Z"/></g>
<g><path style="opacity:1" fill="#4565d8" d="M 283.5,52.5 C 280.833,55.8333 277.833,58.8333 274.5,61.5C 276.5,57.5 279.5,54.5 283.5,52.5 Z"/></g>
<g><path style="opacity:0.204" fill="#4bcbdf" d="M 288.5,25.5 C 292.678,42.7734 287.012,55.9401 271.5,65C 263.532,68.8344 255.532,69.3344 247.5,66.5C 257.18,68.4966 266.18,66.83 274.5,61.5C 277.833,58.8333 280.833,55.8333 283.5,52.5C 287.936,44.0936 289.603,35.0936 288.5,25.5 Z"/></g>
<g><path style="opacity:0.592" fill="#43c3dc" d="M 240.5,63.5 C 243.157,63.9348 245.491,64.9348 247.5,66.5C 244.654,66.4484 242.32,65.4484 240.5,63.5 Z"/></g>
<g><path style="opacity:1" fill="#731ed9" d="M 237.5,84.5 C 245.994,98.5785 247.828,113.579 243,129.5C 240.794,135.186 237.628,140.186 233.5,144.5C 230.833,145.167 229.167,146.833 228.5,149.5C 215.835,159.157 201.502,162.324 185.5,159C 180.986,157.445 176.653,155.611 172.5,153.5C 172.167,152.833 171.833,152.167 171.5,151.5C 168.105,147.102 164.105,143.436 159.5,140.5C 159.167,139.5 158.5,138.833 157.5,138.5C 155.396,133.956 153.563,129.29 152,124.5C 150.455,112.802 151.621,101.469 155.5,90.5C 157.167,88.5 158.833,86.5 160.5,84.5C 163.833,81.8333 166.833,78.8333 169.5,75.5C 170.716,73.5491 172.382,72.0491 174.5,71C 177.613,69.5831 180.613,68.0831 183.5,66.5C 199.537,62.8594 214.204,65.6927 227.5,75C 230.703,78.3709 234.036,81.5375 237.5,84.5 Z"/></g>
<g><path style="opacity:1" fill="#ae88d2" d="M 188.5,70.5 C 214.336,67.5455 231.503,78.2122 240,102.5C 243.646,130.059 232.146,147.559 205.5,155C 179.329,157.138 162.829,145.638 156,120.5C 153.835,95.1998 164.668,78.5331 188.5,70.5 Z"/></g>
<g><path style="opacity:0.447" fill="#4acede" d="M 183.5,66.5 C 180.613,68.0831 177.613,69.5831 174.5,71C 172.382,72.0491 170.716,73.5491 169.5,75.5C 165.5,77.5 162.5,80.5 160.5,84.5C 158.833,86.5 157.167,88.5 155.5,90.5C 156.049,88.0987 156.882,85.7654 158,83.5C 163.7,76.454 170.533,70.954 178.5,67C 180.134,66.5065 181.801,66.3398 183.5,66.5 Z"/></g>
<g><path style="opacity:0.694" fill="#4dcedf" d="M 237.5,84.5 C 234.036,81.5375 230.703,78.3709 227.5,75C 214.204,65.6927 199.537,62.8594 183.5,66.5C 204.568,59.6928 222.401,64.6928 237,81.5C 237.483,82.448 237.649,83.448 237.5,84.5 Z"/></g>
<g><path style="opacity:1" fill="#4c59d8" d="M 169.5,75.5 C 166.833,78.8333 163.833,81.8333 160.5,84.5C 162.5,80.5 165.5,77.5 169.5,75.5 Z"/></g>
<g><path style="opacity:1" fill="#fefefe" d="M 174.5,86.5 C 175.289,86.7828 175.956,87.2828 176.5,88C 165.824,106.72 167.491,124.22 181.5,140.5C 181.167,140.833 180.833,141.167 180.5,141.5C 164.316,124.844 162.316,106.511 174.5,86.5 Z"/></g>
<g><path style="opacity:0.553" fill="#48c9de" d="M 529.5,222.5 C 526.729,222.579 524.063,222.079 521.5,221C 491.919,205.97 479.752,181.804 485,148.5C 497.914,111.625 523.747,96.4588 562.5,103C 596.088,115.974 610.588,140.474 606,176.5C 595.1,212.956 570.6,228.789 532.5,224C 531.263,223.768 530.263,223.268 529.5,222.5 Z"/></g>
<g><path style="opacity:1" fill="#4c55d8" d="M 509.5,114.5 C 505.895,119.774 501.562,124.441 496.5,128.5C 500.105,123.226 504.438,118.559 509.5,114.5 Z"/></g>
<g><path style="opacity:1" fill="#4b5ad8" d="M 582.5,115.5 C 587.23,119.227 591.23,123.56 594.5,128.5C 589.77,124.773 585.77,120.44 582.5,115.5 Z"/></g>
<g><path style="opacity:1" fill="#7618d9" d="M 582.5,115.5 C 585.77,120.44 589.77,124.773 594.5,128.5C 602.408,138.279 606.075,149.612 605.5,162.5C 605.883,177.707 601.217,191.04 591.5,202.5C 588.167,203.833 585.833,206.167 584.5,209.5C 568.344,222.454 550.011,226.787 529.5,222.5C 521.997,220.334 515.33,216.667 509.5,211.5C 506.437,207.434 502.771,204.101 498.5,201.5C 485.285,184.064 481.785,164.73 488,143.5C 489.667,139.833 491.333,136.167 493,132.5C 493.949,130.907 495.115,129.574 496.5,128.5C 501.562,124.441 505.895,119.774 509.5,114.5C 525.598,103.482 543.265,100.316 562.5,105C 569.889,107.194 576.555,110.694 582.5,115.5 Z"/></g>
<g><path style="opacity:1" fill="#ae88d2" d="M 537.5,109.5 C 552.102,108.317 565.435,111.817 577.5,120C 581.689,125.187 586.189,130.02 591,134.5C 600.574,152.969 600.907,171.636 592,190.5C 583.397,204.103 571.231,212.603 555.5,216C 525.289,219.155 504.789,206.655 494,178.5C 488.06,142.327 502.56,119.327 537.5,109.5 Z"/></g>
<g><path style="opacity:0.592" fill="#43c4dc" d="M 155.5,90.5 C 151.621,101.469 150.455,112.802 152,124.5C 153.563,129.29 155.396,133.956 157.5,138.5C 156.206,137.71 155.039,136.71 154,135.5C 153,132.5 152,129.5 151,126.5C 150.333,117.167 150.333,107.833 151,98.5C 152.232,95.5883 153.732,92.9216 155.5,90.5 Z"/></g>
<g><path style="opacity:1" fill="#fefefe" d="M 518.5,131.5 C 521.833,130.833 523.833,132.167 524.5,135.5C 521.613,140.711 518.946,140.711 516.5,135.5C 516.752,133.927 517.418,132.594 518.5,131.5 Z"/></g>
<g><path style="opacity:1" fill="#751bd9" d="M 395.5,184.5 C 385.436,200.955 370.77,207.122 351.5,203C 347.811,201.156 344.145,199.322 340.5,197.5C 325.93,182.918 323.597,166.584 333.5,148.5C 337.167,146.833 339.833,144.167 341.5,140.5C 356.747,130.805 371.747,131.305 386.5,142C 397.069,152.375 400.569,164.875 397,179.5C 396.392,181.154 395.892,182.821 395.5,184.5 Z"/></g>
<g><path style="opacity:0.49" fill="#38c8dc" d="M 157.5,138.5 C 158.5,138.833 159.167,139.5 159.5,140.5C 162.895,144.898 166.895,148.564 171.5,151.5C 171.833,152.167 172.167,152.833 172.5,153.5C 171.448,153.649 170.448,153.483 169.5,153C 165.667,149.167 161.833,145.333 158,141.5C 157.517,140.552 157.351,139.552 157.5,138.5 Z"/></g>
<g><path style="opacity:1" fill="#485ed8" d="M 159.5,140.5 C 164.105,143.436 168.105,147.102 171.5,151.5C 166.895,148.564 162.895,144.898 159.5,140.5 Z"/></g>
<g><path style="opacity:1" fill="#ae88d2" d="M 356.5,140.5 C 380.643,139.809 392.143,151.476 391,175.5C 385.051,192.23 373.218,199.397 355.5,197C 334.795,187.892 329.295,173.059 339,152.5C 343.851,146.843 349.684,142.843 356.5,140.5 Z"/></g>
<g><path style="opacity:1" fill="#fefefe" d="M 509.5,144.5 C 511.252,144.418 512.252,145.251 512.5,147C 508.549,157.066 508.049,167.233 511,177.5C 512.791,180.952 514.958,184.118 517.5,187C 517.387,188.28 516.72,189.113 515.5,189.5C 507.899,183.399 503.899,175.399 503.5,165.5C 504.116,158.026 506.116,151.026 509.5,144.5 Z"/></g>
<g><path style="opacity:1" fill="#456bd8" d="M 233.5,144.5 C 232.167,146.5 230.5,148.167 228.5,149.5C 229.167,146.833 230.833,145.167 233.5,144.5 Z"/></g>
<g><path style="opacity:0.224" fill="#47d0df" d="M 237.5,84.5 C 238.794,85.2899 239.961,86.2899 241,87.5C 252.281,112.754 247.781,134.587 227.5,153C 222.5,155.333 217.5,157.667 212.5,160C 203.167,160.667 193.833,160.667 184.5,160C 181.5,159 178.5,158 175.5,157C 174.29,155.961 173.29,154.794 172.5,153.5C 176.653,155.611 180.986,157.445 185.5,159C 201.502,162.324 215.835,159.157 228.5,149.5C 230.5,148.167 232.167,146.5 233.5,144.5C 237.628,140.186 240.794,135.186 243,129.5C 247.828,113.579 245.994,98.5785 237.5,84.5 Z"/></g>
<g><path style="opacity:0.655" fill="#4fcfe0" d="M 395.5,184.5 C 395.892,182.821 396.392,181.154 397,179.5C 400.569,164.875 397.069,152.375 386.5,142C 371.747,131.305 356.747,130.805 341.5,140.5C 338.5,142.833 335.833,145.5 333.5,148.5C 323.597,166.584 325.93,182.918 340.5,197.5C 337.737,197.256 335.571,195.923 334,193.5C 332,190.167 330,186.833 328,183.5C 322.194,160.54 329.694,143.707 350.5,133C 386.333,128.833 402.167,144.667 398,180.5C 397.8,182.32 396.966,183.653 395.5,184.5 Z"/></g>
<g><path style="opacity:1" fill="#4d57d8" d="M 341.5,140.5 C 339.833,144.167 337.167,146.833 333.5,148.5C 335.833,145.5 338.5,142.833 341.5,140.5 Z"/></g>
<g><path style="opacity:0.51" fill="#40c7de" d="M 395.5,184.5 C 391.922,194.574 384.922,201.074 374.5,204C 366.5,204.667 358.5,204.667 350.5,204C 346.444,202.831 343.111,200.664 340.5,197.5C 344.145,199.322 347.811,201.156 351.5,203C 370.77,207.122 385.436,200.955 395.5,184.5 Z"/></g>
<g><path style="opacity:1" fill="#4962d8" d="M 498.5,201.5 C 502.771,204.101 506.437,207.434 509.5,211.5C 505.229,208.899 501.563,205.566 498.5,201.5 Z"/></g>
<g><path style="opacity:1" fill="#4568d8" d="M 591.5,202.5 C 589.5,205.167 587.167,207.5 584.5,209.5C 585.833,206.167 588.167,203.833 591.5,202.5 Z"/></g>
<g><path style="opacity:0.165" fill="#50d0e1" d="M 461.5,212.5 C 455.606,210.729 449.606,209.229 443.5,208C 432.807,207.263 422.14,207.43 411.5,208.5C 417.463,207.17 423.796,206.504 430.5,206.5C 439.637,206.453 448.637,207.453 457.5,209.5C 459.332,210.057 460.665,211.057 461.5,212.5 Z"/></g>
<g><path style="opacity:1" fill="#7617d9" d="M 461.5,212.5 C 478.916,220.587 492.916,232.587 503.5,248.5C 512.932,265.551 516.599,283.884 514.5,303.5C 509.61,332.256 494.277,353.756 468.5,368C 451.619,375.814 433.952,378.647 415.5,376.5C 410.321,375.005 404.988,373.671 399.5,372.5C 393.752,369.692 388.086,366.692 382.5,363.5C 346.346,334.569 336.513,298.236 353,254.5C 356.437,247.948 360.604,241.948 365.5,236.5C 369.167,234.833 371.833,232.167 373.5,228.5C 384.52,218.657 397.187,211.99 411.5,208.5C 422.14,207.43 432.807,207.263 443.5,208C 449.606,209.229 455.606,210.729 461.5,212.5 Z"/></g>
<g><path style="opacity:1" fill="#ae88d2" d="M 479.5,232.5 C 482.5,236.167 485.833,239.5 489.5,242.5C 504.47,260.02 510.303,280.354 507,303.5C 501.653,332.767 485.487,353.267 458.5,365C 419.635,377.044 388.135,366.877 364,334.5C 352.201,314.135 349.201,292.468 355,269.5C 367.59,234.243 392.59,215.909 430,214.5C 449.006,214.108 465.506,220.108 479.5,232.5 Z"/></g>
<g><path style="opacity:0.286" fill="#54d2de" d="M 461.5,212.5 C 475.488,216.621 487.321,224.287 497,235.5C 500.218,239.331 502.385,243.665 503.5,248.5C 492.916,232.587 478.916,220.587 461.5,212.5 Z"/></g>
<g><path style="opacity:1" fill="#4e5ad8" d="M 373.5,228.5 C 371.833,232.167 369.167,234.833 365.5,236.5C 367.833,233.5 370.5,230.833 373.5,228.5 Z"/></g>
<g><path style="opacity:1" fill="#9257d7" d="M 479.5,232.5 C 483.833,234.833 487.167,238.167 489.5,242.5C 485.833,239.5 482.5,236.167 479.5,232.5 Z"/></g>
<g><path style="opacity:1" fill="#fefefe" d="M 392.5,245.5 C 400.941,247.529 402.274,251.696 396.5,258C 389.667,259.167 386.833,256.333 388,249.5C 389.397,247.93 390.897,246.596 392.5,245.5 Z"/></g>
<g><path style="opacity:0.49" fill="#5dcae0" d="M 503.5,248.5 C 506.379,250.352 508.379,253.019 509.5,256.5C 515.199,270.635 517.366,285.301 516,300.5C 515.768,301.737 515.268,302.737 514.5,303.5C 516.599,283.884 512.932,265.551 503.5,248.5 Z"/></g>
<g><path style="opacity:0.655" fill="#4ecddf" d="M 411.5,208.5 C 397.187,211.99 384.52,218.657 373.5,228.5C 370.5,230.833 367.833,233.5 365.5,236.5C 360.604,241.948 356.437,247.948 353,254.5C 336.513,298.236 346.346,334.569 382.5,363.5C 374.469,360 367.636,354.667 362,347.5C 354.636,336.078 348.969,323.745 345,310.5C 338.426,262.291 357.259,228.625 401.5,209.5C 404.768,208.513 408.102,208.18 411.5,208.5 Z"/></g>
<g><path style="opacity:1" fill="#fefefe" d="M 378.5,266.5 C 380.359,266.461 381.692,267.294 382.5,269C 375.297,284.301 374.797,299.801 381,315.5C 383.833,319 386.667,322.5 389.5,326C 386.833,328.668 384.333,328.168 382,324.5C 369.305,305.986 368.138,286.653 378.5,266.5 Z"/></g>
<g><path style="opacity:0.408" fill="#4dccdd" d="M 382.5,363.5 C 388.086,366.692 393.752,369.692 399.5,372.5C 392.85,371.186 387.184,368.186 382.5,363.5 Z"/></g>
<g><path style="opacity:0.306" fill="#49cbde" d="M 514.5,303.5 C 512.176,326.96 501.843,346.127 483.5,361C 464.061,374.355 442.394,380.022 418.5,378C 417.263,377.768 416.263,377.268 415.5,376.5C 433.952,378.647 451.619,375.814 468.5,368C 494.277,353.756 509.61,332.256 514.5,303.5 Z"/></g>
<g><path style="opacity:0.243" fill="#47d5e0" d="M 399.5,372.5 C 404.988,373.671 410.321,375.005 415.5,376.5C 409.721,376.566 404.387,375.233 399.5,372.5 Z"/></g>
<g><path style="opacity:0.306" fill="#56d9e3" d="M 194.5,388.5 C 194.5,388.833 194.5,389.167 194.5,389.5C 192.194,389.993 189.861,390.326 187.5,390.5C 189.279,388.656 191.612,387.99 194.5,388.5 Z"/></g>
<g><path style="opacity:1" fill="#7719d9" d="M 194.5,389.5 C 213.422,386.801 228.422,393.134 239.5,408.5C 239.989,409.995 240.655,411.329 241.5,412.5C 242.321,416.127 243.654,419.46 245.5,422.5C 247.136,447.68 236.136,464.513 212.5,473C 202.074,474.486 192.074,473.32 182.5,469.5C 180.381,467.6 178.047,465.934 175.5,464.5C 174.833,461.833 173.167,460.167 170.5,459.5C 158.785,445.291 156.451,429.624 163.5,412.5C 165.192,410.795 166.525,408.795 167.5,406.5C 171.833,404.167 175.167,400.833 177.5,396.5C 180.869,394.485 184.202,392.485 187.5,390.5C 189.861,390.326 192.194,389.993 194.5,389.5 Z"/></g>
<g><path style="opacity:0.408" fill="#51c7df" d="M 194.5,389.5 C 194.5,389.167 194.5,388.833 194.5,388.5C 202.86,388.169 211.193,388.502 219.5,389.5C 226.983,392.976 233.316,397.976 238.5,404.5C 239.429,405.689 239.762,407.022 239.5,408.5C 228.422,393.134 213.422,386.801 194.5,389.5 Z"/></g>
<g><path style="opacity:1" fill="#ae87d2" d="M 195.5,395.5 C 215.926,393.949 229.76,402.616 237,421.5C 239.474,430.479 238.641,439.145 234.5,447.5C 231.256,451.694 227.923,455.861 224.5,460C 211.996,467.203 198.996,468.203 185.5,463C 166.771,450.125 162.271,433.292 172,412.5C 178.038,404.242 185.872,398.575 195.5,395.5 Z"/></g>
<g><path style="opacity:0.388" fill="#4dd4e0" d="M 187.5,390.5 C 184.202,392.485 180.869,394.485 177.5,396.5C 173.833,399.5 170.5,402.833 167.5,406.5C 166.525,408.795 165.192,410.795 163.5,412.5C 163.917,409.657 164.917,406.99 166.5,404.5C 170.167,400.833 173.833,397.167 177.5,393.5C 180.55,391.483 183.883,390.483 187.5,390.5 Z"/></g>
<g><path style="opacity:1" fill="#5351d8" d="M 177.5,396.5 C 175.167,400.833 171.833,404.167 167.5,406.5C 170.5,402.833 173.833,399.5 177.5,396.5 Z"/></g>
<g><path style="opacity:0.165" fill="#47d6e0" d="M 239.5,408.5 C 241.176,409.183 241.843,410.517 241.5,412.5C 240.655,411.329 239.989,409.995 239.5,408.5 Z"/></g>
<g><path style="opacity:1" fill="#fefefe" d="M 184.5,409.5 C 186.252,409.418 187.252,410.251 187.5,412C 186.125,415.069 184.459,415.236 182.5,412.5C 183.193,411.482 183.859,410.482 184.5,409.5 Z"/></g>
<g><path style="opacity:1" fill="#fefefe" d="M 177.5,417.5 C 179.484,417.484 180.484,418.484 180.5,420.5C 178.6,426.372 178.1,432.372 179,438.5C 179.816,442.135 181.65,445.135 184.5,447.5C 184.113,448.72 183.28,449.387 182,449.5C 177.641,447.134 174.974,443.467 174,438.5C 172.701,431 173.868,424 177.5,417.5 Z"/></g>
<g><path style="opacity:0.592" fill="#4fd7e0" d="M 241.5,412.5 C 243.858,415.243 245.191,418.577 245.5,422.5C 243.654,419.46 242.321,416.127 241.5,412.5 Z"/></g>
<g><path style="opacity:0.643" fill="#48cbdf" d="M 245.5,422.5 C 248.622,440.295 243.289,455.128 229.5,467C 224.5,469.333 219.5,471.667 214.5,474C 206.5,474.667 198.5,474.667 190.5,474C 187.588,472.768 184.922,471.268 182.5,469.5C 192.074,473.32 202.074,474.486 212.5,473C 236.136,464.513 247.136,447.68 245.5,422.5 Z"/></g>
<g><path style="opacity:1" fill="#7718d9" d="M 776.5,443.5 C 809.701,441.588 830.701,456.588 839.5,488.5C 839.5,493.167 839.5,497.833 839.5,502.5C 837.672,508.787 835.672,515.12 833.5,521.5C 831.808,523.205 830.475,525.205 829.5,527.5C 828.833,528.167 828.167,528.833 827.5,529.5C 823.5,531.5 820.5,534.5 818.5,538.5C 817.167,539.167 816.167,540.167 815.5,541.5C 812.996,542.584 810.663,543.917 808.5,545.5C 808.167,545.5 807.833,545.5 807.5,545.5C 806.005,545.989 804.671,546.655 803.5,547.5C 801.5,547.833 799.5,548.167 797.5,548.5C 787.418,548.807 777.418,548.474 767.5,547.5C 767.167,547.5 766.833,547.5 766.5,547.5C 765.07,546.463 763.403,545.796 761.5,545.5C 760.486,544.326 759.153,543.66 757.5,543.5C 757.167,542.833 756.833,542.167 756.5,541.5C 753.769,537.766 750.436,534.766 746.5,532.5C 744.854,529.19 742.52,526.523 739.5,524.5C 738.833,523.5 738.167,522.5 737.5,521.5C 737.011,520.005 736.345,518.671 735.5,517.5C 725.617,486.264 734.951,462.597 763.5,446.5C 767.628,444.908 771.962,443.908 776.5,443.5 Z"/></g>
<g><path style="opacity:0.655" fill="#61dbe4" d="M 776.5,442.5 C 776.5,442.833 776.5,443.167 776.5,443.5C 771.962,443.908 767.628,444.908 763.5,446.5C 764.348,444.907 765.681,443.74 767.5,443C 770.482,442.502 773.482,442.335 776.5,442.5 Z"/></g>
<g><path style="opacity:0.345" fill="#57d0e1" d="M 776.5,443.5 C 776.5,443.167 776.5,442.833 776.5,442.5C 809.668,438.724 830.668,452.724 839.5,484.5C 839.5,485.833 839.5,487.167 839.5,488.5C 830.701,456.588 809.701,441.588 776.5,443.5 Z"/></g>
<g><path style="opacity:0.655" fill="#53d0e1" d="M 163.5,412.5 C 156.451,429.624 158.785,445.291 170.5,459.5C 171.833,461.5 173.5,463.167 175.5,464.5C 178.047,465.934 180.381,467.6 182.5,469.5C 175.829,467.361 170.329,463.361 166,457.5C 157.873,443.918 156.373,429.584 161.5,414.5C 161.747,413.287 162.414,412.62 163.5,412.5 Z"/></g>
<g><path style="opacity:1" fill="#ae88d2" d="M 778.5,449.5 C 804.849,448.693 822.349,460.693 831,485.5C 833.482,499.145 831.149,511.812 824,523.5C 818.813,527.689 813.98,532.189 809.5,537C 786.157,548.598 765.657,544.765 748,525.5C 736.309,507.612 735.642,489.279 746,470.5C 754.382,459.568 765.216,452.568 778.5,449.5 Z"/></g>
<g><path style="opacity:1" fill="#4969d9" d="M 170.5,459.5 C 173.167,460.167 174.833,461.833 175.5,464.5C 173.5,463.167 171.833,461.5 170.5,459.5 Z"/></g>
<g><path style="opacity:0.345" fill="#4fd1de" d="M 763.5,446.5 C 734.951,462.597 725.617,486.264 735.5,517.5C 733.274,514.7 731.774,511.367 731,507.5C 727.472,484.891 734.306,466.224 751.5,451.5C 753.844,450.663 755.844,449.329 757.5,447.5C 759.396,446.534 761.396,446.201 763.5,446.5 Z"/></g>
<g><path style="opacity:1" fill="#fefefe" d="M 761.5,468.5 C 766.493,468.997 767.493,471.164 764.5,475C 759.382,474.824 758.382,472.658 761.5,468.5 Z"/></g>
<g><path style="opacity:1" fill="#fefefe" d="M 753.5,479.5 C 755.132,479.825 756.132,480.825 756.5,482.5C 752.414,492.635 752.58,502.635 757,512.5C 759.741,514.067 760.908,516.401 760.5,519.5C 753.831,516.891 749.997,511.891 749,504.5C 747.492,495.549 748.992,487.216 753.5,479.5 Z"/></g>
<g><path style="opacity:1" fill="#7717d9" d="M 499.5,489.5 C 526.528,492.038 547.362,504.704 562,527.5C 571.191,543.638 574.691,560.971 572.5,579.5C 570.644,590.397 566.977,600.73 561.5,610.5C 558.844,613.794 556.178,617.127 553.5,620.5C 550.167,621.833 547.833,624.167 546.5,627.5C 525.527,645.81 501.193,652.143 473.5,646.5C 467.908,644.332 462.241,641.999 456.5,639.5C 455.486,638.326 454.153,637.66 452.5,637.5C 449.98,635.737 447.647,633.737 445.5,631.5C 441.108,626.106 436.108,621.439 430.5,617.5C 417.032,599.502 411.365,579.169 413.5,556.5C 415.926,549.315 418.426,541.982 421,534.5C 423.778,528.588 427.278,523.255 431.5,518.5C 436.821,514.845 441.487,510.512 445.5,505.5C 461.05,492.508 479.05,487.175 499.5,489.5 Z"/></g>
<g><path style="opacity:1" fill="#ae88d2" d="M 480.5,496.5 C 517.85,492.92 544.683,507.92 561,541.5C 572.253,576.345 563.753,605.179 535.5,628C 512.74,641.972 488.74,644.306 463.5,635C 431.788,618.413 417.788,592.247 421.5,556.5C 428.689,524.046 448.356,504.046 480.5,496.5 Z"/></g>
<g><path style="opacity:0.631" fill="#58cbdf" d="M 499.5,488.5 C 499.5,488.833 499.5,489.167 499.5,489.5C 479.05,487.175 461.05,492.508 445.5,505.5C 440.226,509.105 435.559,513.438 431.5,518.5C 427.278,523.255 423.778,528.588 421,534.5C 418.426,541.982 415.926,549.315 413.5,556.5C 414.859,545.041 418.359,534.374 424,524.5C 433.585,511.404 445.418,501.071 459.5,493.5C 463.418,491.739 467.418,490.239 471.5,489C 480.827,488.5 490.161,488.334 499.5,488.5 Z"/></g>
<g><path style="opacity:1" fill="#78cfe6" d="M 839.5,502.5 C 839.5,505.5 839.5,508.5 839.5,511.5C 837.5,514.833 835.5,518.167 833.5,521.5C 835.672,515.12 837.672,508.787 839.5,502.5 Z"/></g>
<g><path style="opacity:1" fill="#5546d8" d="M 445.5,505.5 C 441.487,510.512 436.821,514.845 431.5,518.5C 435.559,513.438 440.226,509.105 445.5,505.5 Z"/></g>
<g><path style="opacity:0.388" fill="#5cd1e1" d="M 499.5,489.5 C 499.5,489.167 499.5,488.833 499.5,488.5C 504.179,488.334 508.845,488.501 513.5,489C 551.724,500.903 572.058,526.903 574.5,567C 574.333,570.167 574.167,573.333 574,576.5C 573.768,577.737 573.268,578.737 572.5,579.5C 574.691,560.971 571.191,543.638 562,527.5C 547.362,504.704 526.528,492.038 499.5,489.5 Z"/></g>
<g><path style="opacity:0.122" fill="#3ac7de" d="M 735.5,517.5 C 736.345,518.671 737.011,520.005 737.5,521.5C 735.824,520.817 735.157,519.483 735.5,517.5 Z"/></g>
<g><path style="opacity:0.122" fill="#3ecddf" d="M 737.5,521.5 C 738.167,522.5 738.833,523.5 739.5,524.5C 739.5,524.833 739.5,525.167 739.5,525.5C 737.824,524.817 737.157,523.483 737.5,521.5 Z"/></g>
<g><path style="opacity:1" fill="#5053d8" d="M 739.5,525.5 C 739.5,525.167 739.5,524.833 739.5,524.5C 742.52,526.523 744.854,529.19 746.5,532.5C 745.833,532.5 745.167,532.5 744.5,532.5C 743.214,529.883 741.547,527.55 739.5,525.5 Z"/></g>
<g><path style="opacity:0.325" fill="#3ecadc" d="M 833.5,521.5 C 833.316,524.337 831.982,526.337 829.5,527.5C 830.475,525.205 831.808,523.205 833.5,521.5 Z"/></g>
<g><path style="opacity:1" fill="#fefefe" d="M 457.5,525.5 C 463.33,525.161 465.83,527.827 465,533.5C 459.99,538.934 456.157,538.101 453.5,531C 454.007,528.455 455.341,526.621 457.5,525.5 Z"/></g>
<g><path style="opacity:0.447" fill="#40c6df" d="M 739.5,525.5 C 741.547,527.55 743.214,529.883 744.5,532.5C 741.636,530.977 739.969,528.643 739.5,525.5 Z"/></g>
<g><path style="opacity:1" fill="#3cb3dc" d="M 744.5,532.5 C 745.167,532.5 745.833,532.5 746.5,532.5C 749.231,536.234 752.564,539.234 756.5,541.5C 756.833,542.167 757.167,542.833 757.5,543.5C 752.313,540.99 747.979,537.324 744.5,532.5 Z"/></g>
<g><path style="opacity:1" fill="#4f52d8" d="M 746.5,532.5 C 750.436,534.766 753.769,537.766 756.5,541.5C 752.564,539.234 749.231,536.234 746.5,532.5 Z"/></g>
<g><path style="opacity:1" fill="#4c54d8" d="M 827.5,529.5 C 824.833,532.833 821.833,535.833 818.5,538.5C 820.5,534.5 823.5,531.5 827.5,529.5 Z"/></g>
<g><path style="opacity:0.471" fill="#54d0e0" d="M 2.5,619.5 C -5.37881,585.472 3.62119,556.806 29.5,533.5C 34.9091,530.09 40.2424,526.59 45.5,523C 51.7142,521.496 57.7142,519.496 63.5,517C 76.1667,516.333 88.8333,516.333 101.5,517C 106.208,518.15 110.875,519.484 115.5,521C 158.286,543.289 174.119,578.122 163,625.5C 160.714,631.701 158.047,637.701 155,643.5C 152.333,647.5 149.667,651.5 147,655.5C 119.287,683.045 86.7869,690.212 49.5,677C 24.0359,665.715 8.36919,646.548 2.5,619.5 Z"/></g>
<g><path style="opacity:1" fill="#7717d9" d="M 2.5,619.5 C -4.59877,569.177 15.7346,535.677 63.5,519C 108.335,511.998 140.502,528.832 160,569.5C 171.417,603.841 164.584,634.007 139.5,660C 111.472,683.408 80.4718,688.075 46.5,674C 24.2198,661.896 9.55315,643.729 2.5,619.5 Z"/></g>
<g><path style="opacity:1" fill="#ae88d2" d="M 131.5,542.5 C 134.167,545.833 137.167,548.833 140.5,551.5C 154.505,567.819 160.338,586.819 158,608.5C 156.333,623.163 150.833,636.163 141.5,647.5C 137.229,650.101 133.563,653.434 130.5,657.5C 129.71,658.794 128.71,659.961 127.5,661C 121.853,663.85 116.186,666.85 110.5,670C 71.8535,681.786 41.0201,671.286 18,638.5C 1.55231,606.564 4.55231,576.564 27,548.5C 51.4641,524.424 79.9641,518.258 112.5,530C 117.83,532.995 123.164,535.995 128.5,539C 129.71,540.039 130.71,541.206 131.5,542.5 Z"/></g>
<g><path style="opacity:0.306" fill="#3ec6de" d="M 829.5,527.5 C 829.649,528.552 829.483,529.552 829,530.5C 825.5,534 822,537.5 818.5,541C 817.552,541.483 816.552,541.649 815.5,541.5C 816.167,540.167 817.167,539.167 818.5,538.5C 821.833,535.833 824.833,532.833 827.5,529.5C 828.167,528.833 828.833,528.167 829.5,527.5 Z"/></g>
<g><path style="opacity:1" fill="#9257d7" d="M 131.5,542.5 C 135.5,544.5 138.5,547.5 140.5,551.5C 137.167,548.833 134.167,545.833 131.5,542.5 Z"/></g>
<g><path style="opacity:0.369" fill="#3dc8db" d="M 815.5,541.5 C 814.191,544.451 811.857,545.784 808.5,545.5C 810.663,543.917 812.996,542.584 815.5,541.5 Z"/></g>
<g><path style="opacity:1" fill="#fefefe" d="M 445.5,544.5 C 447.252,544.418 448.252,545.251 448.5,547C 442.737,560.694 442.237,574.527 447,588.5C 449.448,592.615 452.281,596.448 455.5,600C 454.667,600.833 453.833,601.667 453,602.5C 440.483,590.788 436.149,576.455 440,559.5C 441.16,554.18 442.993,549.18 445.5,544.5 Z"/></g>
<g><path style="opacity:0.184" fill="#3ad4df" d="M 757.5,543.5 C 759.153,543.66 760.486,544.326 761.5,545.5C 759.517,545.843 758.183,545.176 757.5,543.5 Z"/></g>
<g><path style="opacity:0.204" fill="#39d1de" d="M 761.5,545.5 C 763.403,545.796 765.07,546.463 766.5,547.5C 764.219,547.923 762.552,547.256 761.5,545.5 Z"/></g>
<g><path style="opacity:0.063" fill="#2bc9da" d="M 807.5,545.5 C 806.817,547.176 805.483,547.843 803.5,547.5C 804.671,546.655 806.005,545.989 807.5,545.5 Z"/></g>
<g><path style="opacity:1" fill="#3784d8" d="M 767.5,547.5 C 777.418,548.474 787.418,548.807 797.5,548.5C 797.5,548.833 797.5,549.167 797.5,549.5C 787.111,550.141 777.111,549.474 767.5,547.5 Z"/></g>
<g><path style="opacity:0.102" fill="#3ecedf" d="M 803.5,547.5 C 802.082,549.308 800.082,549.975 797.5,549.5C 797.5,549.167 797.5,548.833 797.5,548.5C 799.5,548.167 801.5,547.833 803.5,547.5 Z"/></g>
<g><path style="opacity:1" fill="#fefefe" d="M 46.5,554.5 C 53.0095,555.207 55.1761,558.54 53,564.5C 47.6919,568.78 43.8586,567.613 41.5,561C 42.2831,558.062 43.9497,555.896 46.5,554.5 Z"/></g>
<g><path style="opacity:0.325" fill="#4dcdde" d="M 237.5,532.5 C 279.449,527.95 298.283,546.616 294,588.5C 289.5,603.667 279.667,613.5 264.5,618C 223.903,622.403 205.403,604.237 209,563.5C 210,560.5 211,557.5 212,554.5C 216.606,548.391 221.772,542.724 227.5,537.5C 230.844,535.596 234.178,533.929 237.5,532.5 Z"/></g>
<g><path style="opacity:1" fill="#7617d9" d="M 241.5,533.5 C 266.378,530.515 283.545,540.515 293,563.5C 297.968,589.658 288.134,607.491 263.5,617C 245.78,621.311 230.947,616.811 219,603.5C 207.954,587.628 206.62,570.962 215,553.5C 221.835,544.019 230.668,537.352 241.5,533.5 Z"/></g>
<g><path style="opacity:1" fill="#ae87d2" d="M 243.5,540.5 C 259.748,537.963 272.581,543.296 282,556.5C 290.983,573.587 288.817,589.087 275.5,603C 261.916,613.07 247.582,614.07 232.5,606C 215.611,593.238 211.778,577.071 221,557.5C 226.435,549.04 233.935,543.373 243.5,540.5 Z"/></g>
<g><path style="opacity:1" fill="#fefefe" d="M 226.5,562.5 C 227.5,562.5 228.5,562.5 229.5,562.5C 228.756,567.314 228.089,572.148 227.5,577C 227.354,582.903 229.354,587.903 233.5,592C 233.387,593.28 232.72,594.113 231.5,594.5C 224.116,588.992 221.283,581.659 223,572.5C 223.679,568.961 224.846,565.628 226.5,562.5 Z"/></g>
<g><path style="opacity:1" fill="#fefefe" d="M 232.5,554.5 C 233.833,554.5 235.167,554.5 236.5,554.5C 236.716,559.727 235.049,560.56 231.5,557C 232.252,556.329 232.586,555.496 232.5,554.5 Z"/></g>
<g><path style="opacity:1" fill="#fefefe" d="M 33.5,574.5 C 35.4841,574.484 36.4841,575.484 36.5,577.5C 30.2364,592.483 30.0698,607.483 36,622.5C 38.5246,625.686 41.0246,628.853 43.5,632C 43.3333,633.5 42.5,634.333 41,634.5C 32.7064,627.92 28.0398,619.254 27,608.5C 26.0537,596.502 28.2203,585.168 33.5,574.5 Z"/></g>
<g><path style="opacity:0.529" fill="#4fcde0" d="M 572.5,579.5 C 572.229,587.823 570.396,595.823 567,603.5C 566.093,606.572 564.26,608.905 561.5,610.5C 566.977,600.73 570.644,590.397 572.5,579.5 Z"/></g>
<g><path style="opacity:0.714" fill="#49cbde" d="M 413.5,556.5 C 411.365,579.169 417.032,599.502 430.5,617.5C 434.892,622.894 439.892,627.561 445.5,631.5C 447.647,633.737 449.98,635.737 452.5,637.5C 450.099,636.951 447.765,636.118 445.5,635C 439.667,629.167 433.833,623.333 428,617.5C 415.108,599.095 410.274,578.761 413.5,556.5 Z"/></g>
<g><path style="opacity:1" fill="#4960d8" d="M 430.5,617.5 C 436.108,621.439 441.108,626.106 445.5,631.5C 439.892,627.561 434.892,622.894 430.5,617.5 Z"/></g>
<g><path style="opacity:1" fill="#4566d8" d="M 553.5,620.5 C 551.5,623.167 549.167,625.5 546.5,627.5C 547.833,624.167 550.167,621.833 553.5,620.5 Z"/></g>
<g><path style="opacity:1" fill="#7718d9" d="M 325.5,628.5 C 333.167,628.5 340.833,628.5 348.5,628.5C 389.606,633.761 420.439,654.428 441,690.5C 446.715,702.718 450.549,715.384 452.5,728.5C 453.874,746.639 451.707,764.306 446,781.5C 442.571,785.115 440.738,789.449 440.5,794.5C 437.916,795.048 436.916,796.715 437.5,799.5C 435.983,799.511 434.816,800.177 434,801.5C 433.482,804.023 432.148,806.023 430,807.5C 429.51,808.793 429.343,810.127 429.5,811.5C 427.833,812.5 426.5,813.833 425.5,815.5C 420.5,818.5 416.5,822.5 413.5,827.5C 411.81,827.856 410.81,828.856 410.5,830.5C 409.022,830.238 407.689,830.571 406.5,831.5C 404.389,832.605 403.055,834.271 402.5,836.5C 394.188,838.823 386.522,842.489 379.5,847.5C 377.102,847.259 375.102,847.926 373.5,849.5C 371.102,849.259 369.102,849.926 367.5,851.5C 363.316,851.851 359.316,852.518 355.5,853.5C 344.833,854.833 334.167,854.833 323.5,853.5C 319.684,852.518 315.684,851.851 311.5,851.5C 309.898,849.926 307.898,849.259 305.5,849.5C 300.072,847.297 294.739,844.797 289.5,842C 288.207,841.51 286.873,841.343 285.5,841.5C 284.514,839.592 282.848,838.592 280.5,838.5C 278.777,836.782 276.777,835.449 274.5,834.5C 272.122,832.122 269.455,830.122 266.5,828.5C 262.153,825.152 258.486,821.152 255.5,816.5C 254.209,812.213 251.543,809.213 247.5,807.5C 246.876,805.246 245.543,803.579 243.5,802.5C 243.167,801.833 242.833,801.167 242.5,800.5C 239.778,795.332 237.444,789.999 235.5,784.5C 235.843,782.517 235.176,781.183 233.5,780.5C 218.403,732.892 228.736,691.726 264.5,657C 282.348,642.075 302.681,632.575 325.5,628.5 Z"/></g>
<g><path style="opacity:1" fill="#ae88d2" d="M 322.5,636.5 C 374.799,631.737 412.966,652.404 437,698.5C 454.904,747.041 445.071,788.874 407.5,824C 402.976,825.529 399.31,828.196 396.5,832C 390.027,834.112 384.027,837.112 378.5,841C 334.838,855.891 296.338,847.391 263,815.5C 232.43,780.603 225.763,741.27 243,697.5C 259.561,664.093 286.061,643.76 322.5,636.5 Z"/></g>
<g><path style="opacity:0.592" fill="#45c1dc" d="M 452.5,637.5 C 454.153,637.66 455.486,638.326 456.5,639.5C 454.62,639.771 453.287,639.104 452.5,637.5 Z"/></g>
<g><path style="opacity:0.816" fill="#5bd2e0" d="M 325.5,628.5 C 302.681,632.575 282.348,642.075 264.5,657C 228.736,691.726 218.403,732.892 233.5,780.5C 233.5,780.833 233.5,781.167 233.5,781.5C 232.883,781.389 232.383,781.056 232,780.5C 216.891,729.547 228.725,686.38 267.5,651C 279.964,642.522 293.297,635.855 307.5,631C 313.265,629.054 319.265,628.22 325.5,628.5 Z"/></g>
<g><path style="opacity:0.612" fill="#54cfdf" d="M 456.5,639.5 C 462.241,641.999 467.908,644.332 473.5,646.5C 468.673,646.059 464.007,644.893 459.5,643C 458.29,641.961 457.29,640.794 456.5,639.5 Z"/></g>
<g><path style="opacity:0.592" fill="#45cbdd" d="M 561.5,610.5 C 560.951,612.901 560.118,615.235 559,617.5C 536.229,644.035 507.729,653.702 473.5,646.5C 501.193,652.143 525.527,645.81 546.5,627.5C 549.167,625.5 551.5,623.167 553.5,620.5C 556.178,617.127 558.844,613.794 561.5,610.5 Z"/></g>
<g><path style="opacity:1" fill="#945ad7" d="M 141.5,647.5 C 138.437,651.566 134.771,654.899 130.5,657.5C 133.563,653.434 137.229,650.101 141.5,647.5 Z"/></g>
<g><path style="opacity:0.49" fill="#5ad4e1" d="M 348.5,628.5 C 357.049,628.122 365.383,628.956 373.5,631C 405.988,642.14 429.821,663.307 445,694.5C 447.333,701.5 449.667,708.5 452,715.5C 452.499,719.821 452.666,724.154 452.5,728.5C 450.549,715.384 446.715,702.718 441,690.5C 420.439,654.428 389.606,633.761 348.5,628.5 Z"/></g>
<g><path style="opacity:1" fill="#fefefe" d="M 288.5,679.5 C 297.749,679.367 301.249,683.7 299,692.5C 293.159,699.394 287.825,699.061 283,691.5C 282.333,689.167 282.333,686.833 283,684.5C 284.73,682.598 286.563,680.931 288.5,679.5 Z"/></g>
<g><path style="opacity:1" fill="#fefefe" d="M 270.5,708.5 C 272.635,708.147 273.968,708.98 274.5,711C 265.535,732.187 265.369,753.353 274,774.5C 276.748,779.252 280.248,783.419 284.5,787C 284.002,788.158 283.169,788.991 282,789.5C 271.029,780.904 264.696,769.571 263,755.5C 261.607,739.195 264.107,723.528 270.5,708.5 Z"/></g>
<g><path style="opacity:0.325" fill="#56c1df" d="M 452.5,728.5 C 456.391,751.924 452.391,773.924 440.5,794.5C 440.738,789.449 442.571,785.115 446,781.5C 451.707,764.306 453.874,746.639 452.5,728.5 Z"/></g>
<g><path style="opacity:1" fill="#5171da" d="M 233.5,780.5 C 235.176,781.183 235.843,782.517 235.5,784.5C 235.167,784.5 234.833,784.5 234.5,784.5C 233.596,783.791 233.263,782.791 233.5,781.5C 233.5,781.167 233.5,780.833 233.5,780.5 Z"/></g>
<g><path style="opacity:0.325" fill="#47c7df" d="M 234.5,784.5 C 234.833,784.5 235.167,784.5 235.5,784.5C 237.444,789.999 239.778,795.332 242.5,800.5C 241.542,800.047 240.708,799.381 240,798.5C 237.863,793.916 236.029,789.25 234.5,784.5 Z"/></g>
<g><path style="opacity:1" fill="#4e90dc" d="M 440.5,794.5 C 440.047,796.565 439.047,798.232 437.5,799.5C 436.916,796.715 437.916,795.048 440.5,794.5 Z"/></g>
<g><path style="opacity:1" fill="#4a8fda" d="M 437.5,799.5 C 436.273,802.582 434.773,805.582 433,808.5C 431.961,809.71 430.794,810.71 429.5,811.5C 429.343,810.127 429.51,808.793 430,807.5C 432.148,806.023 433.482,804.023 434,801.5C 434.816,800.177 435.983,799.511 437.5,799.5 Z"/></g>
<g><path style="opacity:0.573" fill="#42cddf" d="M 243.5,802.5 C 245.543,803.579 246.876,805.246 247.5,807.5C 249.252,809.246 250.585,811.246 251.5,813.5C 247.263,810.936 244.597,807.27 243.5,802.5 Z"/></g>
<g><path style="opacity:1" fill="#4f60d8" d="M 247.5,807.5 C 251.543,809.213 254.209,812.213 255.5,816.5C 254.833,816.167 254.167,815.833 253.5,815.5C 252.5,815.167 251.833,814.5 251.5,813.5C 250.585,811.246 249.252,809.246 247.5,807.5 Z"/></g>
<g><path style="opacity:0.553" fill="#45cedf" d="M 253.5,815.5 C 254.167,815.833 254.833,816.167 255.5,816.5C 258.486,821.152 262.153,825.152 266.5,828.5C 265.448,828.649 264.448,828.483 263.5,828C 260.333,824.833 257.167,821.667 254,818.5C 253.517,817.552 253.351,816.552 253.5,815.5 Z"/></g>
<g><path style="opacity:1" fill="#4760d8" d="M 425.5,815.5 C 421.833,819.833 417.833,823.833 413.5,827.5C 416.5,822.5 420.5,818.5 425.5,815.5 Z"/></g>
<g><path style="opacity:0.224" fill="#3ac9dc" d="M 429.5,811.5 C 429.649,812.552 429.483,813.552 429,814.5C 423.833,819.667 418.667,824.833 413.5,830C 412.552,830.483 411.552,830.649 410.5,830.5C 410.81,828.856 411.81,827.856 413.5,827.5C 417.833,823.833 421.833,819.833 425.5,815.5C 426.5,813.833 427.833,812.5 429.5,811.5 Z"/></g>
<g><path style="opacity:0.655" fill="#3abadd" d="M 266.5,828.5 C 269.455,830.122 272.122,832.122 274.5,834.5C 271.011,833.687 268.344,831.687 266.5,828.5 Z"/></g>
<g><path style="opacity:0.204" fill="#49a3db" d="M 410.5,830.5 C 408.656,833.687 405.989,835.687 402.5,836.5C 403.055,834.271 404.389,832.605 406.5,831.5C 407.689,830.571 409.022,830.238 410.5,830.5 Z"/></g>
<g><path style="opacity:0.408" fill="#3ebdde" d="M 274.5,834.5 C 276.777,835.449 278.777,836.782 280.5,838.5C 277.708,838.378 275.708,837.044 274.5,834.5 Z"/></g>
<g><path style="opacity:0.612" fill="#3daadc" d="M 280.5,838.5 C 282.848,838.592 284.514,839.592 285.5,841.5C 284.603,840.402 283.77,840.402 283,841.5C 281.955,840.627 281.122,839.627 280.5,838.5 Z"/></g>
<g><path style="opacity:1" fill="#4877d8" d="M 402.5,836.5 C 401.746,838.505 400.579,839.172 399,838.5C 393.035,842.625 386.535,845.625 379.5,847.5C 386.522,842.489 394.188,838.823 402.5,836.5 Z"/></g>
<g><path style="opacity:1" fill="#3a94d9" d="M 285.5,841.5 C 286.873,841.343 288.207,841.51 289.5,842C 294.739,844.797 300.072,847.297 305.5,849.5C 302.171,849.002 299.005,848.002 296,846.5C 295.667,846.833 295.333,847.167 295,847.5C 291.923,845.216 288.756,843.216 285.5,841.5 Z"/></g>
<g><path style="opacity:1" fill="#2e92d8" d="M 379.5,847.5 C 377.786,848.738 375.786,849.405 373.5,849.5C 375.102,847.926 377.102,847.259 379.5,847.5 Z"/></g>
<g><path style="opacity:1" fill="#3391d8" d="M 305.5,849.5 C 307.898,849.259 309.898,849.926 311.5,851.5C 309.214,851.405 307.214,850.738 305.5,849.5 Z"/></g>
<g><path style="opacity:0.99" fill="#2f94d8" d="M 373.5,849.5 C 371.786,850.738 369.786,851.405 367.5,851.5C 369.102,849.926 371.102,849.259 373.5,849.5 Z"/></g>
<g><path style="opacity:0.325" fill="#2ab2d9" d="M 311.5,851.5 C 315.684,851.851 319.684,852.518 323.5,853.5C 319.183,853.917 315.183,853.25 311.5,851.5 Z"/></g>
<g><path style="opacity:0.545" fill="#29a9d9" d="M 367.5,851.5 C 363.817,853.25 359.817,853.917 355.5,853.5C 359.316,852.518 363.316,851.851 367.5,851.5 Z"/></g>
<g><path style="opacity:0.286" fill="#2cb9da" d="M 323.5,853.5 C 334.167,854.833 344.833,854.833 355.5,853.5C 354.737,854.268 353.737,854.768 352.5,855C 343.833,855.667 335.167,855.667 326.5,855C 325.263,854.768 324.263,854.268 323.5,853.5 Z"/></g>
</svg>
