<?xml version="1.0" encoding="UTF-8"?>
<!DOCTYPE svg PUBLIC "-//W3C//DTD SVG 1.1//EN" "http://www.w3.org/Graphics/SVG/1.1/DTD/svg11.dtd">
<svg xmlns="http://www.w3.org/2000/svg" version="1.1" width="50px" height="38px" style="shape-rendering:geometricPrecision; text-rendering:geometricPrecision; image-rendering:optimizeQuality; fill-rule:evenodd; clip-rule:evenodd" xmlns:xlink="http://www.w3.org/1999/xlink">
<g><path style="opacity:0.118" fill="#dbeced" d="M 25.5,-0.5 C 29.5,-0.5 33.5,-0.5 37.5,-0.5C 36.828,0.267389 35.9947,0.934056 35,1.5C 33.3333,0.166667 31.6667,0.166667 30,1.5C 28.3775,0.901085 26.8775,0.234419 25.5,-0.5 Z"/></g>
<g><path style="opacity:1" fill="#2392af" d="M 19.5,7.5 C 20.795,8.48837 22.1283,9.48837 23.5,10.5C 23.5,11.5 23.5,12.5 23.5,13.5C 23.1667,13.5 22.8333,13.5 22.5,13.5C 22.0679,12.2905 21.4013,11.2905 20.5,10.5C 18.7918,8.48756 16.7918,8.15423 14.5,9.5C 14.1667,9.5 13.8333,9.5 13.5,9.5C 14.9899,7.72017 16.9899,7.05351 19.5,7.5 Z"/></g>
<g><path style="opacity:0.067" fill="#eafafc" d="M 19.5,7.5 C 22.1272,8.09157 24.7938,8.4249 27.5,8.5C 26.5,9.16667 25.5,9.83333 24.5,10.5C 24.1667,10.5 23.8333,10.5 23.5,10.5C 22.1283,9.48837 20.795,8.48837 19.5,7.5 Z"/></g>
<g><path style="opacity:0.933" fill="#938179" d="M 33.5,11.5 C 33.6716,12.4916 33.3382,13.1583 32.5,13.5C 32.5,12.8333 32.5,12.1667 32.5,11.5C 32.1667,10.1667 31.8333,10.1667 31.5,11.5C 28.9179,11.0254 26.9179,11.6921 25.5,13.5C 24.596,12.791 24.2627,11.791 24.5,10.5C 25.5,9.83333 26.5,9.16667 27.5,8.5C 27.56,7.95691 27.8933,7.62358 28.5,7.5C 30.4894,8.63189 32.1561,9.96522 33.5,11.5 Z"/></g>
<g><path style="opacity:1" fill="#278db1" d="M 12.5,9.5 C 12.4326,10.9587 12.7659,12.2921 13.5,13.5C 13.1667,13.5 12.8333,13.5 12.5,13.5C 9.83333,12.1667 9.83333,10.8333 12.5,9.5 Z"/></g>
<g><path style="opacity:1" fill="#0595ca" d="M 20.5,10.5 C 21.4013,11.2905 22.0679,12.2905 22.5,13.5C 21.5,13.5 20.5,13.5 19.5,13.5C 18.8333,13.5 18.1667,13.5 17.5,13.5C 16.791,12.596 15.791,12.2627 14.5,12.5C 14.5,11.5 14.5,10.5 14.5,9.5C 16.7918,8.15423 18.7918,8.48756 20.5,10.5 Z"/></g>
<g><path style="opacity:1" fill="#0696c6" d="M 12.5,9.5 C 12.8333,9.5 13.1667,9.5 13.5,9.5C 13.8333,9.5 14.1667,9.5 14.5,9.5C 14.5,10.5 14.5,11.5 14.5,12.5C 15.791,12.2627 16.791,12.596 17.5,13.5C 16.3684,14.3543 15.035,14.3543 13.5,13.5C 12.7659,12.2921 12.4326,10.9587 12.5,9.5 Z"/></g>
<g><path style="opacity:1" fill="#0995cf" d="M 20.5,10.5 C 20.6309,11.3764 20.2975,12.0431 19.5,12.5C 14.6148,10.3644 14.9481,9.69777 20.5,10.5 Z"/></g>
<g><path style="opacity:1" fill="#98492d" d="M 31.5,11.5 C 30.9517,14.0838 29.285,15.0838 26.5,14.5C 25.8333,14.5 25.5,14.1667 25.5,13.5C 26.9179,11.6921 28.9179,11.0254 31.5,11.5 Z"/></g>
<g><path style="opacity:1" fill="#0894cd" d="M 19.5,13.5 C 20.5,13.5 21.5,13.5 22.5,13.5C 22.8333,13.5 23.1667,13.5 23.5,13.5C 23.5,14.1667 23.5,14.8333 23.5,15.5C 23.5,15.8333 23.5,16.1667 23.5,16.5C 23.1667,16.5 22.8333,16.5 22.5,16.5C 20.8564,16.1898 19.8564,15.1898 19.5,13.5 Z"/></g>
<g><path style="opacity:1" fill="#4b8191" d="M 23.5,10.5 C 23.8333,10.5 24.1667,10.5 24.5,10.5C 24.2627,11.791 24.596,12.791 25.5,13.5C 25.5,14.1667 25.8333,14.5 26.5,14.5C 26.5,14.8333 26.5,15.1667 26.5,15.5C 26.1667,15.5 25.8333,15.5 25.5,15.5C 24.8333,15.5 24.1667,15.5 23.5,15.5C 23.5,14.8333 23.5,14.1667 23.5,13.5C 23.5,12.5 23.5,11.5 23.5,10.5 Z"/></g>
<g><path style="opacity:1" fill="#7d5047" d="M 31.5,11.5 C 31.8333,11.5 32.1667,11.5 32.5,11.5C 32.5,12.1667 32.5,12.8333 32.5,13.5C 32.6716,14.4916 32.3382,15.1583 31.5,15.5C 29.8333,15.5 28.1667,15.5 26.5,15.5C 26.5,15.1667 26.5,14.8333 26.5,14.5C 29.285,15.0838 30.9517,14.0838 31.5,11.5 Z"/></g>
<g><path style="opacity:0.027" fill="#dafffe" d="M 40.5,14.5 C 41.8333,15.1667 41.8333,15.1667 40.5,14.5 Z"/></g>
<g><path style="opacity:0.667" fill="#ddf9fd" d="M 12.5,13.5 C 12.8333,13.5 13.1667,13.5 13.5,13.5C 13.9731,14.9063 14.9731,15.573 16.5,15.5C 17.1667,16.5 17.8333,17.5 18.5,18.5C 17.8333,18.5 17.1667,18.5 16.5,18.5C 16.5,17.8333 16.1667,17.5 15.5,17.5C 15.1667,17.5 14.8333,17.5 14.5,17.5C 13.5,16.8333 12.5,16.1667 11.5,15.5C 12.3382,15.1583 12.6716,14.4916 12.5,13.5 Z"/></g>
<g><path style="opacity:1" fill="#1098c1" d="M 13.5,13.5 C 15.035,14.3543 16.3684,14.3543 17.5,13.5C 18.1667,13.5 18.8333,13.5 19.5,13.5C 19.8564,15.1898 20.8564,16.1898 22.5,16.5C 22.5,17.1667 22.5,17.8333 22.5,18.5C 20.4832,17.4706 18.4832,16.4706 16.5,15.5C 14.9731,15.573 13.9731,14.9063 13.5,13.5 Z"/></g>
<g><path style="opacity:0.384" fill="#d1dceb" d="M 33.5,11.5 C 34.4582,13.3024 35.1249,15.3024 35.5,17.5C 34.8333,17.5 34.5,17.8333 34.5,18.5C 33.609,19.1098 32.609,19.4431 31.5,19.5C 31.5,18.8333 31.5,18.1667 31.5,17.5C 32.2389,17.631 32.9056,17.4643 33.5,17C 32.5842,16.7216 31.9175,16.2216 31.5,15.5C 32.3382,15.1583 32.6716,14.4916 32.5,13.5C 33.3382,13.1583 33.6716,12.4916 33.5,11.5 Z"/></g>
<g><path style="opacity:1" fill="#34407a" d="M 25.5,15.5 C 25.8333,15.5 26.1667,15.5 26.5,15.5C 28.1667,15.5 29.8333,15.5 31.5,15.5C 31.9175,16.2216 32.5842,16.7216 33.5,17C 32.9056,17.4643 32.2389,17.631 31.5,17.5C 30.8333,17.5 30.1667,17.5 29.5,17.5C 28.1667,16.8333 26.8333,16.1667 25.5,15.5 Z"/></g>
<g><path style="opacity:1" fill="#2b92b0" d="M 16.5,15.5 C 18.4832,16.4706 20.4832,17.4706 22.5,18.5C 22.5,19.1667 22.5,19.8333 22.5,20.5C 21.5,19.8333 20.5,19.1667 19.5,18.5C 19.1667,18.5 18.8333,18.5 18.5,18.5C 17.8333,17.5 17.1667,16.5 16.5,15.5 Z"/></g>
<g><path style="opacity:1" fill="#4871b3" d="M 23.5,15.5 C 24.1667,15.5 24.8333,15.5 25.5,15.5C 26.8333,16.1667 28.1667,16.8333 29.5,17.5C 29.5,17.8333 29.5,18.1667 29.5,18.5C 28.1667,18.5 26.8333,18.5 25.5,18.5C 25.19,17.2617 24.69,17.2617 24,18.5C 23.5357,17.9056 23.369,17.2389 23.5,16.5C 23.5,16.1667 23.5,15.8333 23.5,15.5 Z"/></g>
<g><path style="opacity:1" fill="#d0dbe0" d="M 11.5,15.5 C 12.5,16.1667 13.5,16.8333 14.5,17.5C 13.0937,17.9731 12.427,18.9731 12.5,20.5C 12.5,20.8333 12.5,21.1667 12.5,21.5C 12.1407,23.8312 11.474,23.6645 10.5,21C 11.7911,19.7083 11.7911,18.5417 10.5,17.5C 10.3284,16.5084 10.6618,15.8417 11.5,15.5 Z"/></g>
<g><path style="opacity:0.686" fill="#effbfb" d="M 14.5,17.5 C 14.8333,17.5 15.1667,17.5 15.5,17.5C 16.1667,17.5 16.5,17.8333 16.5,18.5C 17.1667,18.5 17.8333,18.5 18.5,18.5C 18.8333,18.5 19.1667,18.5 19.5,18.5C 19.5,18.8333 19.5,19.1667 19.5,19.5C 18.0779,19.7496 17.0779,20.583 16.5,22C 17.8228,22.8159 18.4894,23.9826 18.5,25.5C 17.1667,25.1667 15.8333,24.8333 14.5,24.5C 17.5765,20.2935 16.9098,18.9601 12.5,20.5C 12.427,18.9731 13.0937,17.9731 14.5,17.5 Z"/></g>
<g><path style="opacity:1" fill="#dffcfd" d="M 34.5,18.5 C 34.5,17.8333 34.8333,17.5 35.5,17.5C 36.8333,18.1667 38.1667,18.8333 39.5,19.5C 39.5,20.1667 39.5,20.8333 39.5,21.5C 37.6675,20.7515 36.0009,19.7515 34.5,18.5 Z"/></g>
<g><path style="opacity:0.639" fill="#e5f2f4" d="M 41.5,21.5 C 41.1667,21.5 40.8333,21.5 40.5,21.5C 40.1667,21.5 39.8333,21.5 39.5,21.5C 39.5,20.8333 39.5,20.1667 39.5,19.5C 40.6883,18.6364 41.8549,17.6364 43,16.5C 43.8769,18.6742 43.3769,20.3409 41.5,21.5 Z"/></g>
<g><path style="opacity:1" fill="#5798c0" d="M 22.5,16.5 C 22.8333,16.5 23.1667,16.5 23.5,16.5C 23.369,17.2389 23.5357,17.9056 24,18.5C 24.69,17.2617 25.19,17.2617 25.5,18.5C 24.8333,19.1667 24.1667,19.8333 23.5,20.5C 23.1667,20.5 22.8333,20.5 22.5,20.5C 22.5,19.8333 22.5,19.1667 22.5,18.5C 22.5,17.8333 22.5,17.1667 22.5,16.5 Z"/></g>
<g><path style="opacity:1" fill="#114ea7" d="M 29.5,17.5 C 30.1667,17.5 30.8333,17.5 31.5,17.5C 31.5,18.1667 31.5,18.8333 31.5,19.5C 31.5,20.1667 31.5,20.8333 31.5,21.5C 31.1667,21.5 30.8333,21.5 30.5,21.5C 30.1667,21.5 29.8333,21.5 29.5,21.5C 29.5,20.8333 29.5,20.1667 29.5,19.5C 29.5,19.1667 29.5,18.8333 29.5,18.5C 29.5,18.1667 29.5,17.8333 29.5,17.5 Z"/></g>
<g><path style="opacity:1" fill="#146aa3" d="M 34.5,18.5 C 34.5,20.8333 34.5,23.1667 34.5,25.5C 34.1667,25.5 33.8333,25.5 33.5,25.5C 32.3157,24.3121 32.3157,23.1455 33.5,22C 32.9056,21.5357 32.2389,21.369 31.5,21.5C 31.5,20.8333 31.5,20.1667 31.5,19.5C 32.609,19.4431 33.609,19.1098 34.5,18.5 Z"/></g>
<g><path style="opacity:1" fill="#bcd3d8" d="M 14.5,24.5 C 13.8333,23.5 13.1667,22.5 12.5,21.5C 12.5,21.1667 12.5,20.8333 12.5,20.5C 16.9098,18.9601 17.5765,20.2935 14.5,24.5 Z"/></g>
<g><path style="opacity:1" fill="#e6fefb" d="M 19.5,18.5 C 20.5,19.1667 21.5,19.8333 22.5,20.5C 22.5,21.1667 22.5,21.8333 22.5,22.5C 22.5,22.8333 22.5,23.1667 22.5,23.5C 21.5116,22.205 20.5116,20.8717 19.5,19.5C 19.5,19.1667 19.5,18.8333 19.5,18.5 Z"/></g>
<g><path style="opacity:1" fill="#195099" d="M 25.5,18.5 C 26.8333,18.5 28.1667,18.5 29.5,18.5C 29.5,18.8333 29.5,19.1667 29.5,19.5C 28.1667,19.5 27.5,20.1667 27.5,21.5C 25.901,21.7678 24.5676,21.4345 23.5,20.5C 24.1667,19.8333 24.8333,19.1667 25.5,18.5 Z"/></g>
<g><path style="opacity:1" fill="#edfcfd" d="M 29.5,19.5 C 29.5,20.1667 29.5,20.8333 29.5,21.5C 28.8333,21.5 28.1667,21.5 27.5,21.5C 27.5,20.1667 28.1667,19.5 29.5,19.5 Z"/></g>
<g><path style="opacity:0.912" fill="#f0fafb" d="M 10.5,17.5 C 11.7911,18.5417 11.7911,19.7083 10.5,21C 11.474,23.6645 12.1407,23.8312 12.5,21.5C 13.1667,22.5 13.8333,23.5 14.5,24.5C 14.4431,25.609 14.1098,26.609 13.5,27.5C 12.1071,26.086 10.7737,23.9193 9.5,21C 10.2664,19.6317 10.5997,18.4651 10.5,17.5 Z"/></g>
<g><path style="opacity:1" fill="#9ebecd" d="M 22.5,20.5 C 22.8333,20.5 23.1667,20.5 23.5,20.5C 24.5676,21.4345 25.901,21.7678 27.5,21.5C 27.5,22.1667 27.5,22.8333 27.5,23.5C 26.2921,22.7659 24.9587,22.4326 23.5,22.5C 23.1667,22.5 22.8333,22.5 22.5,22.5C 22.5,21.8333 22.5,21.1667 22.5,20.5 Z"/></g>
<g><path style="opacity:1" fill="#8ba05e" d="M 27.5,21.5 C 28.1667,21.5 28.8333,21.5 29.5,21.5C 29.8333,21.5 30.1667,21.5 30.5,21.5C 30.5,22.1667 30.5,22.8333 30.5,23.5C 29.6618,23.8417 29.3284,24.5084 29.5,25.5C 28.8333,25.5 28.1667,25.5 27.5,25.5C 27.5,24.8333 27.5,24.1667 27.5,23.5C 27.5,22.8333 27.5,22.1667 27.5,21.5 Z"/></g>
<g><path style="opacity:1" fill="#6997be" d="M 30.5,21.5 C 30.8333,21.5 31.1667,21.5 31.5,21.5C 32.2389,21.369 32.9056,21.5357 33.5,22C 32.3157,23.1455 32.3157,24.3121 33.5,25.5C 32.2223,25.2178 31.2223,24.5511 30.5,23.5C 30.5,22.8333 30.5,22.1667 30.5,21.5 Z"/></g>
<g><path style="opacity:1" fill="#1995bf" d="M 34.5,18.5 C 36.0009,19.7515 37.6675,20.7515 39.5,21.5C 39.5,22.8333 39.5,24.1667 39.5,25.5C 39.1667,25.5 38.8333,25.5 38.5,25.5C 38.5,24.5 38.5,23.5 38.5,22.5C 37.5,22.5 36.5,22.5 35.5,22.5C 35.5,23.5 35.5,24.5 35.5,25.5C 35.1667,25.5 34.8333,25.5 34.5,25.5C 34.5,23.1667 34.5,20.8333 34.5,18.5 Z"/></g>
<g><path style="opacity:1" fill="#456d9d" d="M 23.5,22.5 C 24.9587,22.4326 26.2921,22.7659 27.5,23.5C 27.5,24.1667 27.5,24.8333 27.5,25.5C 25.8773,24.5092 24.8773,25.1759 24.5,27.5C 23.5489,26.0813 23.2155,24.4147 23.5,22.5 Z"/></g>
<g><path style="opacity:1" fill="#0295d2" d="M 38.5,25.5 C 37.8333,25.5 37.5,25.8333 37.5,26.5C 36.5084,26.6716 35.8417,26.3382 35.5,25.5C 35.5,24.5 35.5,23.5 35.5,22.5C 36.5,22.5 37.5,22.5 38.5,22.5C 38.5,23.5 38.5,24.5 38.5,25.5 Z"/></g>
<g><path style="opacity:1" fill="#0797bf" d="M 38.5,25.5 C 38.8333,25.5 39.1667,25.5 39.5,25.5C 40.609,25.5569 41.609,25.8902 42.5,26.5C 42.5,27.1667 42.1667,27.5 41.5,27.5C 40.1667,27.5 38.8333,27.5 37.5,27.5C 37.5,27.1667 37.5,26.8333 37.5,26.5C 37.5,25.8333 37.8333,25.5 38.5,25.5 Z"/></g>
<g><path style="opacity:1" fill="#4aa4bc" d="M 39.5,21.5 C 39.8333,21.5 40.1667,21.5 40.5,21.5C 40.9371,23.0744 41.9371,24.2411 43.5,25C 42.944,25.3826 42.6107,25.8826 42.5,26.5C 41.609,25.8902 40.609,25.5569 39.5,25.5C 39.5,24.1667 39.5,22.8333 39.5,21.5 Z"/></g>
<g><path style="opacity:0.996" fill="#e8fcfe" d="M 40.5,21.5 C 40.8333,21.5 41.1667,21.5 41.5,21.5C 43.9971,22.6736 45.3305,24.6736 45.5,27.5C 44.1389,29.8505 42.8056,32.1838 41.5,34.5C 41.1667,34.5 40.8333,34.5 40.5,34.5C 40.5,33.5 40.5,32.5 40.5,31.5C 40.8333,30.8333 41.1667,30.1667 41.5,29.5C 44.6822,28.8597 45.0155,27.8597 42.5,26.5C 42.6107,25.8826 42.944,25.3826 43.5,25C 41.9371,24.2411 40.9371,23.0744 40.5,21.5 Z"/></g>
<g><path style="opacity:0.733" fill="#c6d9da" d="M 14.5,24.5 C 15.8333,24.8333 17.1667,25.1667 18.5,25.5C 17.5,26.8333 16.5,28.1667 15.5,29.5C 14.8333,28.8333 14.1667,28.1667 13.5,27.5C 14.1098,26.609 14.4431,25.609 14.5,24.5 Z"/></g>
<g><path style="opacity:1" fill="#547963" d="M 27.5,25.5 C 28.1667,25.5 28.8333,25.5 29.5,25.5C 29.5,26.8333 29.5,28.1667 29.5,29.5C 28.8333,29.5 28.1667,29.5 27.5,29.5C 27.5,28.1667 27.5,26.8333 27.5,25.5 Z"/></g>
<g><path style="opacity:1" fill="#225289" d="M 30.5,23.5 C 30.1568,25.4832 30.8235,26.8166 32.5,27.5C 32.5,27.8333 32.5,28.1667 32.5,28.5C 31.609,29.1098 30.609,29.4431 29.5,29.5C 29.5,28.1667 29.5,26.8333 29.5,25.5C 29.3284,24.5084 29.6618,23.8417 30.5,23.5 Z"/></g>
<g><path style="opacity:1" fill="#1a5bab" d="M 30.5,23.5 C 31.2223,24.5511 32.2223,25.2178 33.5,25.5C 33.6716,26.4916 33.3382,27.1583 32.5,27.5C 30.8235,26.8166 30.1568,25.4832 30.5,23.5 Z"/></g>
<g><path style="opacity:0.511" fill="#fdfcfe" d="M 18.5,25.5 C 19.0431,25.56 19.3764,25.8933 19.5,26.5C 18.8075,27.5178 18.1408,28.5178 17.5,29.5C 16.8333,29.5 16.1667,29.5 15.5,29.5C 16.5,28.1667 17.5,26.8333 18.5,25.5 Z"/></g>
<g><path style="opacity:1" fill="#2a548d" d="M 27.5,25.5 C 27.5,26.8333 27.5,28.1667 27.5,29.5C 26.8333,29.5 26.1667,29.5 25.5,29.5C 25.1667,28.8333 24.8333,28.1667 24.5,27.5C 24.8773,25.1759 25.8773,24.5092 27.5,25.5 Z"/></g>
<g><path style="opacity:1" fill="#2794c0" d="M 33.5,25.5 C 33.8333,25.5 34.1667,25.5 34.5,25.5C 34.8333,25.5 35.1667,25.5 35.5,25.5C 35.8417,26.3382 36.5084,26.6716 37.5,26.5C 37.5,26.8333 37.5,27.1667 37.5,27.5C 37.5,28.5 37.5,29.5 37.5,30.5C 36.391,30.4431 35.391,30.1098 34.5,29.5C 34.1583,28.6618 33.4916,28.3284 32.5,28.5C 32.5,28.1667 32.5,27.8333 32.5,27.5C 33.3382,27.1583 33.6716,26.4916 33.5,25.5 Z"/></g>
<g><path style="opacity:0.633" fill="#f3fdfc" d="M 22.5,22.5 C 22.8333,22.5 23.1667,22.5 23.5,22.5C 23.2155,24.4147 23.5489,26.0813 24.5,27.5C 24.8333,28.1667 25.1667,28.8333 25.5,29.5C 24.8333,29.5 24.1667,29.5 23.5,29.5C 22.8333,29.5 22.1667,29.5 21.5,29.5C 22.3414,27.6208 22.6747,25.6208 22.5,23.5C 22.5,23.1667 22.5,22.8333 22.5,22.5 Z"/></g>
<g><path style="opacity:1" fill="#0d92c0" d="M 37.5,27.5 C 38.8333,27.5 40.1667,27.5 41.5,27.5C 41.5,28.1667 41.5,28.8333 41.5,29.5C 41.1667,30.1667 40.8333,30.8333 40.5,31.5C 39.8333,31.5 39.1667,31.5 38.5,31.5C 37.8333,31.5 37.5,31.1667 37.5,30.5C 37.5,29.5 37.5,28.5 37.5,27.5 Z"/></g>
<g><path style="opacity:1" fill="#3592b8" d="M 42.5,26.5 C 45.0155,27.8597 44.6822,28.8597 41.5,29.5C 41.5,28.8333 41.5,28.1667 41.5,27.5C 42.1667,27.5 42.5,27.1667 42.5,26.5 Z"/></g>
<g><path style="opacity:0.773" fill="#ebfcfa" d="M 32.5,28.5 C 33.4916,28.3284 34.1583,28.6618 34.5,29.5C 34.5,29.8333 34.5,30.1667 34.5,30.5C 33.5,30.5 32.5,30.5 31.5,30.5C 29.901,30.7678 28.5676,30.4345 27.5,29.5C 28.1667,29.5 28.8333,29.5 29.5,29.5C 30.609,29.4431 31.609,29.1098 32.5,28.5 Z"/></g>
<g><path style="opacity:0.52" fill="#e9f0ef" d="M 17.5,29.5 C 18.8333,29.5 20.1667,29.5 21.5,29.5C 22.1667,29.5 22.8333,29.5 23.5,29.5C 23.8333,30.1667 24.1667,30.8333 24.5,31.5C 23.5084,31.3284 22.8417,31.6618 22.5,32.5C 20.6316,31.7368 18.9649,30.7368 17.5,29.5 Z"/></g>
<g><path style="opacity:0.504" fill="#fafefd" d="M 23.5,29.5 C 24.1667,29.5 24.8333,29.5 25.5,29.5C 26.1667,29.5 26.8333,29.5 27.5,29.5C 28.5676,30.4345 29.901,30.7678 31.5,30.5C 30.0813,31.4511 28.4147,31.7845 26.5,31.5C 25.8333,31.5 25.1667,31.5 24.5,31.5C 24.1667,30.8333 23.8333,30.1667 23.5,29.5 Z"/></g>
<g><path style="opacity:0.706" fill="#e6feff" d="M 34.5,29.5 C 35.391,30.1098 36.391,30.4431 37.5,30.5C 37.5,31.1667 37.8333,31.5 38.5,31.5C 40.0311,32.9245 39.6977,33.5912 37.5,33.5C 36.3065,32.7281 35.3065,31.7281 34.5,30.5C 34.5,30.1667 34.5,29.8333 34.5,29.5 Z"/></g>
<g><path style="opacity:0.736" fill="#eff6f7" d="M 24.5,31.5 C 25.1667,31.5 25.8333,31.5 26.5,31.5C 27.4475,32.9779 28.7809,33.9779 30.5,34.5C 29.1266,34.3433 27.7932,34.51 26.5,35C 27.0944,35.4643 27.7611,35.631 28.5,35.5C 28.1583,36.3382 27.4916,36.6716 26.5,36.5C 24.0582,36.8808 23.3915,36.2141 24.5,34.5C 23.7573,33.8182 23.0906,33.1515 22.5,32.5C 22.8417,31.6618 23.5084,31.3284 24.5,31.5 Z"/></g>
<g><path style="opacity:1" fill="#dae0e1" d="M 30.5,34.5 C 30.8333,34.5 31.1667,34.5 31.5,34.5C 32.1667,35.1667 32.8333,35.8333 33.5,36.5C 31.7839,36.3713 30.1172,36.038 28.5,35.5C 27.7611,35.631 27.0944,35.4643 26.5,35C 27.7932,34.51 29.1266,34.3433 30.5,34.5 Z"/></g>
<g><path style="opacity:1" fill="#d1e1e7" d="M 38.5,31.5 C 39.1667,31.5 39.8333,31.5 40.5,31.5C 40.5,32.5 40.5,33.5 40.5,34.5C 39.391,34.5569 38.391,34.8902 37.5,35.5C 36.8333,35.5 36.5,35.1667 36.5,34.5C 36.5,33.8333 36.8333,33.5 37.5,33.5C 39.6977,33.5912 40.0311,32.9245 38.5,31.5 Z"/></g>
<g><path style="opacity:0.418" fill="#fcfdff" d="M 28.5,35.5 C 30.1172,36.038 31.7839,36.3713 33.5,36.5C 33.5,36.8333 33.5,37.1667 33.5,37.5C 31.1667,37.5 28.8333,37.5 26.5,37.5C 26.5,37.1667 26.5,36.8333 26.5,36.5C 27.4916,36.6716 28.1583,36.3382 28.5,35.5 Z"/></g>
<g><path style="opacity:1" fill="#e4edee" d="M 31.5,34.5 C 33.1667,34.5 34.8333,34.5 36.5,34.5C 36.5,35.1667 36.8333,35.5 37.5,35.5C 36.5,36.1667 35.5,36.8333 34.5,37.5C 34.1667,37.5 33.8333,37.5 33.5,37.5C 33.5,37.1667 33.5,36.8333 33.5,36.5C 32.8333,35.8333 32.1667,35.1667 31.5,34.5 Z"/></g>
<g><path style="opacity:0.877" fill="#f6feff" d="M 40.5,34.5 C 40.8333,34.5 41.1667,34.5 41.5,34.5C 40.3065,35.2719 39.3065,36.2719 38.5,37.5C 37.1667,37.5 35.8333,37.5 34.5,37.5C 35.5,36.8333 36.5,36.1667 37.5,35.5C 38.391,34.8902 39.391,34.5569 40.5,34.5 Z"/></g>
</svg>
