<?xml version="1.0" encoding="UTF-8"?>
<!DOCTYPE svg PUBLIC "-//W3C//DTD SVG 1.1//EN" "http://www.w3.org/Graphics/SVG/1.1/DTD/svg11.dtd">
<svg xmlns="http://www.w3.org/2000/svg" version="1.1" width="1112px" height="282px" style="shape-rendering:geometricPrecision; text-rendering:geometricPrecision; image-rendering:optimizeQuality; fill-rule:evenodd; clip-rule:evenodd" xmlns:xlink="http://www.w3.org/1999/xlink">
<g><path style="opacity:1" fill="#fdfdfd" d="M -0.5,-0.5 C 370.167,-0.5 740.833,-0.5 1111.5,-0.5C 1111.5,93.5 1111.5,187.5 1111.5,281.5C 740.833,281.5 370.167,281.5 -0.5,281.5C -0.5,187.5 -0.5,93.5 -0.5,-0.5 Z"/></g>
<g><path style="opacity:1" fill="#f7f7f7" d="M 1082.5,24.5 C 729.167,24.5 375.833,24.5 22.5,24.5C 24.5625,23.2237 26.8958,22.3903 29.5,22C 378.5,21.3333 727.5,21.3333 1076.5,22C 1078.85,22.2401 1080.85,23.0735 1082.5,24.5 Z"/></g>
<g><path style="opacity:1" fill="#f1f2f6" d="M 22.5,24.5 C 375.833,24.5 729.167,24.5 1082.5,24.5C 1087.53,25.9356 1091.36,28.9356 1094,33.5C 1095.29,36.4055 1096.29,39.4055 1097,42.5C 1097.67,111.167 1097.67,179.833 1097,248.5C 1095.27,259.225 1089.11,265.725 1078.5,268C 1075.5,268.333 1072.5,268.667 1069.5,269C 724.167,269.667 378.833,269.667 33.5,269C 14.4268,267.255 5.26016,256.755 6,237.5C 5.33333,177.167 5.33333,116.833 6,56.5C 4.84419,44.9293 8.34419,35.0959 16.5,27C 18.2166,25.4412 20.2166,24.6079 22.5,24.5 Z"/></g>
<g><path style="opacity:1" fill="#5086ec" d="M 1085.5,28.5 C 1085.83,101.208 1085.49,173.875 1084.5,246.5C 1083.51,246.328 1082.84,246.662 1082.5,247.5C 728.833,247.5 375.167,247.5 21.5,247.5C 21.1667,246.5 20.5,245.833 19.5,245.5C 19.5,173.167 19.5,100.833 19.5,28.5C 19.9528,27.5416 20.6195,26.7083 21.5,26C 375.5,25.3333 729.5,25.3333 1083.5,26C 1084.38,26.7083 1085.05,27.5416 1085.5,28.5 Z"/></g>
<g><path style="opacity:1" fill="#f0f0f0" d="M 18.5,31.5 C 18.5,33.1667 18.5,34.8333 18.5,36.5C 15.9624,39.2452 14.4624,42.5785 14,46.5C 13.3333,112.833 13.3333,179.167 14,245.5C 16.6737,256.174 23.507,261.674 34.5,262C 379.833,262.667 725.167,262.667 1070.5,262C 1084.93,260.366 1091.76,252.2 1091,237.5C 1091.67,176.5 1091.67,115.5 1091,54.5C 1090.73,49.7709 1090.06,45.1042 1089,40.5C 1088.62,39.0577 1087.79,38.0577 1086.5,37.5C 1086.5,35.8333 1086.5,34.1667 1086.5,32.5C 1090.06,35.6164 1092.23,39.6164 1093,44.5C 1093.67,111.833 1093.67,179.167 1093,246.5C 1090.35,258.474 1082.85,264.64 1070.5,265C 724.833,265.667 379.167,265.667 33.5,265C 20.6874,264.515 13.1874,258.015 11,245.5C 10.3333,178.833 10.3333,112.167 11,45.5C 11.6927,39.7764 14.1927,35.1097 18.5,31.5 Z"/></g>
<g><path style="opacity:1" fill="#eaeaea" d="M 18.5,36.5 C 17.7792,41.1699 16.9459,45.8365 16,50.5C 15.3333,113.833 15.3333,177.167 16,240.5C 16.0499,248.437 19.5499,254.271 26.5,258C 32.4361,259.139 38.4361,259.805 44.5,260C 383.167,260.667 721.833,260.667 1060.5,260C 1069.29,260.906 1077.12,258.739 1084,253.5C 1085.91,250.785 1087.24,247.785 1088,244.5C 1088.67,178.5 1088.67,112.5 1088,46.5C 1087.05,43.5682 1086.55,40.5682 1086.5,37.5C 1087.79,38.0577 1088.62,39.0577 1089,40.5C 1090.06,45.1042 1090.73,49.7709 1091,54.5C 1091.67,115.5 1091.67,176.5 1091,237.5C 1091.76,252.2 1084.93,260.366 1070.5,262C 725.167,262.667 379.833,262.667 34.5,262C 23.507,261.674 16.6737,256.174 14,245.5C 13.3333,179.167 13.3333,112.833 14,46.5C 14.4624,42.5785 15.9624,39.2452 18.5,36.5 Z"/></g>
<g><path style="opacity:1" fill="#e0e1e4" d="M 19.5,28.5 C 19.5,100.833 19.5,173.167 19.5,245.5C 22.1379,252.958 27.4712,256.791 35.5,257C 379.833,257.667 724.167,257.667 1068.5,257C 1076.13,256.703 1081.46,253.203 1084.5,246.5C 1085.49,173.875 1085.83,101.208 1085.5,28.5C 1086.43,29.5676 1086.77,30.901 1086.5,32.5C 1086.5,34.1667 1086.5,35.8333 1086.5,37.5C 1086.55,40.5682 1087.05,43.5682 1088,46.5C 1088.67,112.5 1088.67,178.5 1088,244.5C 1087.24,247.785 1085.91,250.785 1084,253.5C 1077.12,258.739 1069.29,260.906 1060.5,260C 721.833,260.667 383.167,260.667 44.5,260C 38.4361,259.805 32.4361,259.139 26.5,258C 19.5499,254.271 16.0499,248.437 16,240.5C 15.3333,177.167 15.3333,113.833 16,50.5C 16.9459,45.8365 17.7792,41.1699 18.5,36.5C 18.5,34.8333 18.5,33.1667 18.5,31.5C 18.2627,30.209 18.596,29.209 19.5,28.5 Z"/></g>
<g><path style="opacity:1" fill="#fefefe" d="M 234.5,30.5 C 235.117,30.6107 235.617,30.944 236,31.5C 236.667,101.5 236.667,171.5 236,241.5C 235.617,242.056 235.117,242.389 234.5,242.5C 164.833,242.5 95.1667,242.5 25.5,242.5C 25.2172,241.711 24.7172,241.044 24,240.5C 23.1704,170.763 23.337,101.096 24.5,31.5C 94.4587,30.5066 164.459,30.1733 234.5,30.5 Z"/></g>
<g><path style="opacity:1" fill="#b7cdf6" d="M 234.5,30.5 C 164.459,30.1733 94.4587,30.5066 24.5,31.5C 24.6107,30.8826 24.944,30.3826 25.5,30C 95.3345,29.1679 165.001,29.3345 234.5,30.5 Z"/></g>
<g><path style="opacity:1" fill="#e88f83" d="M 142.5,98.5 C 132.295,96.7331 122.295,97.3998 112.5,100.5C 114.858,98.8714 117.524,97.7048 120.5,97C 127.167,96.3333 133.833,96.3333 140.5,97C 141.416,97.2784 142.082,97.7784 142.5,98.5 Z"/></g>
<g><path style="opacity:1" fill="#d95342" d="M 142.5,98.5 C 147.639,100.569 152.306,103.402 156.5,107C 153.188,110.312 149.855,113.645 146.5,117C 143.958,117.007 141.624,116.174 139.5,114.5C 136.644,112.994 133.477,112.328 130,112.5C 126.523,112.328 123.356,112.994 120.5,114.5C 118.973,114.427 117.973,115.094 117.5,116.5C 112.748,119.349 109.415,123.349 107.5,128.5C 103.424,125.085 99.0908,122.085 94.5,119.5C 97.0417,111.627 102.042,105.961 109.5,102.5C 111.027,102.573 112.027,101.906 112.5,100.5C 122.295,97.3998 132.295,96.7331 142.5,98.5 Z"/></g>
<g><path style="opacity:1" fill="#e68c80" d="M 112.5,100.5 C 112.027,101.906 111.027,102.573 109.5,102.5C 109.973,101.094 110.973,100.427 112.5,100.5 Z"/></g>
<g><path style="opacity:1" fill="#f6f8fe" d="M 378.5,107.5 C 386.219,109.55 390.219,114.55 390.5,122.5C 387.721,122.721 385.054,122.388 382.5,121.5C 382.508,117.813 380.841,115.48 377.5,114.5C 373.354,113.353 369.02,113.186 364.5,114C 363.944,114.383 363.611,114.883 363.5,115.5C 359.633,118.798 359.633,122.298 363.5,126C 365.708,126.191 367.708,126.691 369.5,127.5C 372.937,128.945 376.603,129.945 380.5,130.5C 392.106,134.811 394.939,142.478 389,153.5C 385.899,156.352 382.399,158.352 378.5,159.5C 372.378,159.732 366.378,159.065 360.5,157.5C 360.027,156.094 359.027,155.427 357.5,155.5C 353.068,151.969 350.735,147.303 350.5,141.5C 353.167,141.5 355.833,141.5 358.5,141.5C 358.512,146.505 360.845,149.838 365.5,151.5C 369.044,153.569 372.71,153.902 376.5,152.5C 379.475,151.659 381.975,149.992 384,147.5C 385.538,142.88 384.038,139.713 379.5,138C 373.944,136.194 368.278,134.861 362.5,134C 352.412,128.74 350.245,121.24 356,111.5C 356.816,110.177 357.983,109.511 359.5,109.5C 365.681,107.748 372.014,107.081 378.5,107.5 Z"/></g>
<g><path style="opacity:1" fill="#c0d3f8" d="M 780.5,107.5 C 773.349,107.109 766.349,107.775 759.5,109.5C 760.842,108.207 762.509,107.374 764.5,107C 770.016,106.183 775.35,106.349 780.5,107.5 Z"/></g>
<g><path style="opacity:1" fill="#f7f9fe" d="M 780.5,107.5 C 788.762,109.095 793.095,114.095 793.5,122.5C 791.194,122.993 788.861,123.326 786.5,123.5C 786.021,119.025 783.688,116.025 779.5,114.5C 775.019,113.352 770.352,113.185 765.5,114C 764.584,114.278 763.918,114.778 763.5,115.5C 760.085,117.618 757.585,120.618 756,124.5C 754.887,131.715 755.554,138.715 758,145.5C 760.628,149.201 764.128,151.534 768.5,152.5C 769.964,153.16 771.631,153.493 773.5,153.5C 776.205,153.684 778.538,153.017 780.5,151.5C 782.66,150.266 784.827,148.933 787,147.5C 787.498,144.518 787.665,141.518 787.5,138.5C 782.5,138.5 777.5,138.5 772.5,138.5C 772.5,136.5 772.5,134.5 772.5,132.5C 779.833,132.5 787.167,132.5 794.5,132.5C 794.83,139.2 794.497,145.866 793.5,152.5C 790.769,154.192 788.102,155.858 785.5,157.5C 783.214,157.595 781.214,158.262 779.5,159.5C 774.138,159.528 768.805,159.194 763.5,158.5C 763.167,158.5 762.833,158.5 762.5,158.5C 762.027,157.094 761.027,156.427 759.5,156.5C 750.494,151.366 746.494,143.532 747.5,133C 746.501,122.435 750.501,114.601 759.5,109.5C 766.349,107.775 773.349,107.109 780.5,107.5 Z"/></g>
<g><path style="opacity:1" fill="#bed2f8" d="M 378.5,107.5 C 372.014,107.081 365.681,107.748 359.5,109.5C 360.347,108.034 361.68,107.2 363.5,107C 368.684,106.184 373.684,106.35 378.5,107.5 Z"/></g>
<g><path style="opacity:1" fill="#afc8f6" d="M 401.5,107.5 C 401.5,109.833 401.5,112.167 401.5,114.5C 403.5,114.5 405.5,114.5 407.5,114.5C 407.5,112.167 407.5,109.833 407.5,107.5C 408.473,109.948 408.806,112.615 408.5,115.5C 405.833,115.5 403.167,115.5 400.5,115.5C 400.194,112.615 400.527,109.948 401.5,107.5 Z"/></g>
<g><path style="opacity:1" fill="#fcfdfe" d="M 401.5,107.5 C 403.5,107.5 405.5,107.5 407.5,107.5C 407.5,109.833 407.5,112.167 407.5,114.5C 405.5,114.5 403.5,114.5 401.5,114.5C 401.5,112.167 401.5,109.833 401.5,107.5 Z"/></g>
<g><path style="opacity:1" fill="#b6ccf7" d="M 519.5,107.5 C 521.607,106.532 523.941,106.198 526.5,106.5C 526.5,109.5 526.5,112.5 526.5,115.5C 523.833,115.5 521.167,115.5 518.5,115.5C 518.194,112.615 518.527,109.948 519.5,107.5 Z"/></g>
<g><path style="opacity:1" fill="#fafbfe" d="M 519.5,107.5 C 521.5,107.5 523.5,107.5 525.5,107.5C 525.5,109.833 525.5,112.167 525.5,114.5C 523.5,114.5 521.5,114.5 519.5,114.5C 519.5,112.167 519.5,109.833 519.5,107.5 Z"/></g>
<g><path style="opacity:1" fill="#cadaf9" d="M 656.5,108.5 C 654.5,108.5 652.5,108.5 650.5,108.5C 650.5,110.5 650.5,112.5 650.5,114.5C 652.5,114.5 654.5,114.5 656.5,114.5C 654.393,115.468 652.059,115.802 649.5,115.5C 649.5,112.5 649.5,109.5 649.5,106.5C 652.388,105.99 654.721,106.656 656.5,108.5 Z"/></g>
<g><path style="opacity:1" fill="#fdfefe" d="M 656.5,108.5 C 656.5,110.5 656.5,112.5 656.5,114.5C 654.5,114.5 652.5,114.5 650.5,114.5C 650.5,112.5 650.5,110.5 650.5,108.5C 652.5,108.5 654.5,108.5 656.5,108.5 Z"/></g>
<g><path style="opacity:1" fill="#cad9f9" d="M 693.5,107.5 C 691.5,107.5 689.5,107.5 687.5,107.5C 687.5,124.5 687.5,141.5 687.5,158.5C 689.5,158.5 691.5,158.5 693.5,158.5C 691.393,159.468 689.059,159.802 686.5,159.5C 686.5,141.833 686.5,124.167 686.5,106.5C 689.059,106.198 691.393,106.532 693.5,107.5 Z"/></g>
<g><path style="opacity:1" fill="#fbfcfe" d="M 693.5,107.5 C 693.172,112.875 693.505,118.208 694.5,123.5C 695.107,123.376 695.44,123.043 695.5,122.5C 699.943,120.534 704.61,120.034 709.5,121C 713.742,122.245 716.242,125.078 717,129.5C 717.5,139.161 717.666,148.828 717.5,158.5C 715.5,158.5 713.5,158.5 711.5,158.5C 711.666,150.16 711.5,141.827 711,133.5C 710.768,132.263 710.268,131.263 709.5,130.5C 706.998,126.576 703.664,125.576 699.5,127.5C 697.973,127.427 696.973,128.094 696.5,129.5C 695.442,130.6 694.608,131.934 694,133.5C 693.5,141.827 693.334,150.16 693.5,158.5C 691.5,158.5 689.5,158.5 687.5,158.5C 687.5,141.5 687.5,124.5 687.5,107.5C 689.5,107.5 691.5,107.5 693.5,107.5 Z"/></g>
<g><path style="opacity:1" fill="#739fef" d="M 693.5,107.5 C 694.167,112.5 694.833,117.5 695.5,122.5C 695.44,123.043 695.107,123.376 694.5,123.5C 693.505,118.208 693.172,112.875 693.5,107.5 Z"/></g>
<g><path style="opacity:1" fill="#e5edfc" d="M 931.5,158.5 C 931.5,141.833 931.5,125.167 931.5,108.5C 929.833,108.5 928.167,108.5 926.5,108.5C 926.5,125.167 926.5,141.833 926.5,158.5C 925.503,141.675 925.17,124.675 925.5,107.5C 927.833,107.5 930.167,107.5 932.5,107.5C 932.83,124.675 932.497,141.675 931.5,158.5 Z"/></g>
<g><path style="opacity:1" fill="#fefffe" d="M 931.5,158.5 C 929.833,158.5 928.167,158.5 926.5,158.5C 926.5,141.833 926.5,125.167 926.5,108.5C 928.167,108.5 929.833,108.5 931.5,108.5C 931.5,125.167 931.5,141.833 931.5,158.5 Z"/></g>
<g><path style="opacity:1" fill="#fafcfe" d="M 674.5,120.5 C 676.265,121.461 678.265,121.795 680.5,121.5C 680.5,123.167 680.5,124.833 680.5,126.5C 678.167,126.5 675.833,126.5 673.5,126.5C 673.174,134.684 673.508,142.684 674.5,150.5C 675.99,152.28 677.99,152.946 680.5,152.5C 680.5,153.5 680.5,154.5 680.5,155.5C 680.5,156.5 680.5,157.5 680.5,158.5C 676.227,158.919 672.227,158.252 668.5,156.5C 667.89,155.609 667.557,154.609 667.5,153.5C 667.5,144.5 667.5,135.5 667.5,126.5C 665.833,126.5 664.167,126.5 662.5,126.5C 662.5,124.833 662.5,123.167 662.5,121.5C 664.167,121.5 665.833,121.5 667.5,121.5C 667.5,118.5 667.5,115.5 667.5,112.5C 667.973,111.094 668.973,110.427 670.5,110.5C 671.496,110.586 672.329,110.252 673,109.5C 673.177,113.356 673.677,117.023 674.5,120.5 Z"/></g>
<g><path style="opacity:1" fill="#bcd1f7" d="M 674.5,120.5 C 673.677,117.023 673.177,113.356 673,109.5C 672.329,110.252 671.496,110.586 670.5,110.5C 671.287,108.896 672.62,108.229 674.5,108.5C 674.5,112.5 674.5,116.5 674.5,120.5 Z"/></g>
<g><path style="opacity:1" fill="#f3c3bd" d="M 139.5,114.5 C 133.167,113.167 126.833,113.167 120.5,114.5C 123.356,112.994 126.523,112.328 130,112.5C 133.477,112.328 136.644,112.994 139.5,114.5 Z"/></g>
<g><path style="opacity:1" fill="#82a8f1" d="M 377.5,114.5 C 372.77,114.283 368.103,114.617 363.5,115.5C 363.611,114.883 363.944,114.383 364.5,114C 369.02,113.186 373.354,113.353 377.5,114.5 Z"/></g>
<g><path style="opacity:1" fill="#a9c3f5" d="M 667.5,112.5 C 667.5,115.5 667.5,118.5 667.5,121.5C 665.833,121.5 664.167,121.5 662.5,121.5C 663.568,120.566 664.901,120.232 666.5,120.5C 666.194,117.615 666.527,114.948 667.5,112.5 Z"/></g>
<g><path style="opacity:1" fill="#769ff0" d="M 779.5,114.5 C 774.13,114.392 768.797,114.725 763.5,115.5C 763.918,114.778 764.584,114.278 765.5,114C 770.352,113.185 775.019,113.352 779.5,114.5 Z"/></g>
<g><path style="opacity:1" fill="#f1bbb3" d="M 120.5,114.5 C 120.027,115.906 119.027,116.573 117.5,116.5C 117.973,115.094 118.973,114.427 120.5,114.5 Z"/></g>
<g><path style="opacity:1" fill="#f1be47" d="M 94.5,119.5 C 99.0908,122.085 103.424,125.085 107.5,128.5C 106.167,133.833 106.167,139.167 107.5,144.5C 102.963,147.263 98.6301,150.263 94.5,153.5C 91.6204,147.969 90.2871,141.969 90.5,135.5C 89.9801,129.579 91.3134,124.245 94.5,119.5 Z"/></g>
<g><path style="opacity:1" fill="#c3d5f8" d="M 481.5,121.5 C 476.797,121.437 472.13,121.771 467.5,122.5C 469.807,120.953 472.473,120.287 475.5,120.5C 477.696,120.505 479.696,120.838 481.5,121.5 Z"/></g>
<g><path style="opacity:1" fill="#c3d5f8" d="M 559.5,121.5 C 554.797,121.437 550.13,121.771 545.5,122.5C 547.807,120.953 550.473,120.287 553.5,120.5C 555.696,120.505 557.696,120.838 559.5,121.5 Z"/></g>
<g><path style="opacity:1" fill="#f5f8fe" d="M 440.5,161.5 C 441.793,159.636 441.793,157.636 440.5,155.5C 438.855,156.696 437.189,157.696 435.5,158.5C 422.092,159.394 415.425,153.061 415.5,139.5C 415.858,125.636 422.858,119.469 436.5,121C 437.966,121.635 439.3,122.469 440.5,123.5C 442.868,121.777 445.534,121.11 448.5,121.5C 448.667,134.837 448.5,148.171 448,161.5C 446.91,167.588 443.41,171.421 437.5,173C 432.833,173.667 428.167,173.667 423.5,173C 418.477,170.785 416.144,166.952 416.5,161.5C 420.775,160.726 423.775,162.226 425.5,166C 429.471,167.913 433.471,167.913 437.5,166C 439.141,164.871 440.141,163.371 440.5,161.5 Z"/></g>
<g><path style="opacity:1" fill="#f9fafe" d="M 464.5,121.5 C 464.694,125.005 465.694,125.338 467.5,122.5C 472.13,121.771 476.797,121.437 481.5,121.5C 484.428,122.591 486.594,124.591 488,127.5C 488.5,137.828 488.666,148.161 488.5,158.5C 486.5,158.5 484.5,158.5 482.5,158.5C 482.666,149.494 482.5,140.494 482,131.5C 481.617,130.944 481.117,130.611 480.5,130.5C 479.833,129.167 478.833,128.167 477.5,127.5C 476.551,126.848 475.385,126.514 474,126.5C 471.992,126.307 470.492,126.974 469.5,128.5C 467.926,128.937 466.759,129.937 466,131.5C 465.83,140.676 465.33,149.676 464.5,158.5C 462.5,158.5 460.5,158.5 458.5,158.5C 458.5,146.167 458.5,133.833 458.5,121.5C 460.5,121.5 462.5,121.5 464.5,121.5 Z"/></g>
<g><path style="opacity:1" fill="#f9fafe" d="M 542.5,121.5 C 542.694,125.005 543.694,125.338 545.5,122.5C 550.13,121.771 554.797,121.437 559.5,121.5C 562.428,122.591 564.594,124.591 566,127.5C 566.5,137.828 566.666,148.161 566.5,158.5C 564.5,158.5 562.5,158.5 560.5,158.5C 560.666,149.494 560.5,140.494 560,131.5C 559.617,130.944 559.117,130.611 558.5,130.5C 557.833,129.167 556.833,128.167 555.5,127.5C 554.551,126.848 553.385,126.514 552,126.5C 549.992,126.307 548.492,126.974 547.5,128.5C 545.926,128.937 544.759,129.937 544,131.5C 543.83,140.676 543.33,149.676 542.5,158.5C 540.5,158.5 538.5,158.5 536.5,158.5C 536.5,146.167 536.5,133.833 536.5,121.5C 538.5,121.5 540.5,121.5 542.5,121.5 Z"/></g>
<g><path style="opacity:1" fill="#c5d6f9" d="M 600.5,123.5 C 597.69,121.822 595.357,122.155 593.5,124.5C 592.566,123.432 592.232,122.099 592.5,120.5C 594.857,120.337 597.19,120.503 599.5,121C 600.252,121.671 600.586,122.504 600.5,123.5 Z"/></g>
<g><path style="opacity:1" fill="#f3f6fd" d="M 834.5,152.5 C 831.698,155.642 828.365,157.975 824.5,159.5C 807.424,159.92 799.924,151.587 802,134.5C 805.363,122.507 813.196,118.007 825.5,121C 833.241,124.475 837.241,130.475 837.5,139C 837.048,143.638 836.048,148.138 834.5,152.5 Z"/></g>
<g><path style="opacity:1" fill="#f5f8fd" d="M 854.5,159.5 C 853.486,158.326 852.153,157.66 850.5,157.5C 847.111,155.275 844.611,152.275 843,148.5C 842.333,142.833 842.333,137.167 843,131.5C 848.052,121.312 856.052,117.979 867,121.5C 876.044,126.915 879.377,134.915 877,145.5C 873.724,156.57 866.224,161.237 854.5,159.5 Z"/></g>
<g><path style="opacity:1" fill="#f7f9fe" d="M 904.5,173.5 C 899.797,173.563 895.13,173.229 890.5,172.5C 887.128,171.454 885.128,169.12 884.5,165.5C 884.5,164.5 884.5,163.5 884.5,162.5C 886.5,162.5 888.5,162.5 890.5,162.5C 891.219,164.091 892.219,165.591 893.5,167C 903.485,169.331 908.318,165.498 908,155.5C 895.51,162.308 887.344,158.974 883.5,145.5C 883.413,140.463 883.746,135.463 884.5,130.5C 888.201,121.363 894.868,118.363 904.5,121.5C 906.193,122.228 907.693,123.228 909,124.5C 909.483,123.552 909.649,122.552 909.5,121.5C 911.5,121.5 913.5,121.5 915.5,121.5C 915.667,135.504 915.5,149.504 915,163.5C 912.894,168.443 909.394,171.776 904.5,173.5 Z"/></g>
<g><path style="opacity:1" fill="#f5f8fd" d="M 966.5,148.5 C 969.054,147.612 971.721,147.279 974.5,147.5C 973.292,152.701 970.292,156.368 965.5,158.5C 961.202,159.2 956.869,159.533 952.5,159.5C 951.486,158.326 950.153,157.66 948.5,157.5C 942.179,153.227 939.512,147.227 940.5,139.5C 940.21,127.791 945.877,121.458 957.5,120.5C 970.558,121.911 976.225,129.244 974.5,142.5C 965.475,142.168 956.475,142.502 947.5,143.5C 949.154,151.345 953.821,154.512 961.5,153C 963.687,151.975 965.354,150.475 966.5,148.5 Z"/></g>
<g><path style="opacity:1" fill="#8aaef2" d="M 382.5,121.5 C 385.054,122.388 387.721,122.721 390.5,122.5C 389.378,123.156 388.045,123.489 386.5,123.5C 384.667,123.415 383.334,122.748 382.5,121.5 Z"/></g>
<g><path style="opacity:1" fill="#b6cdf7" d="M 401.5,121.5 C 401.5,133.833 401.5,146.167 401.5,158.5C 403.5,158.5 405.5,158.5 407.5,158.5C 405.393,159.468 403.059,159.802 400.5,159.5C 400.171,146.656 400.505,133.989 401.5,121.5 Z"/></g>
<g><path style="opacity:1" fill="#f3f6fd" d="M 401.5,121.5 C 403.833,121.5 406.167,121.5 408.5,121.5C 408.829,134.011 408.495,146.345 407.5,158.5C 405.5,158.5 403.5,158.5 401.5,158.5C 401.5,146.167 401.5,133.833 401.5,121.5 Z"/></g>
<g><path style="opacity:1" fill="#b5ccf7" d="M 464.5,121.5 C 462.5,121.5 460.5,121.5 458.5,121.5C 458.5,133.833 458.5,146.167 458.5,158.5C 460.5,158.5 462.5,158.5 464.5,158.5C 462.393,159.468 460.059,159.802 457.5,159.5C 457.5,146.5 457.5,133.5 457.5,120.5C 460.059,120.198 462.393,120.532 464.5,121.5 Z"/></g>
<g><path style="opacity:1" fill="#fbfcfe" d="M 525.5,121.5 C 525.5,133.833 525.5,146.167 525.5,158.5C 523.5,158.5 521.5,158.5 519.5,158.5C 519.5,146.167 519.5,133.833 519.5,121.5C 521.5,121.5 523.5,121.5 525.5,121.5 Z"/></g>
<g><path style="opacity:1" fill="#d0defa" d="M 525.5,121.5 C 526.495,133.989 526.829,146.656 526.5,159.5C 523.941,159.802 521.607,159.468 519.5,158.5C 521.5,158.5 523.5,158.5 525.5,158.5C 525.5,146.167 525.5,133.833 525.5,121.5 Z"/></g>
<g><path style="opacity:1" fill="#b5ccf7" d="M 542.5,121.5 C 540.5,121.5 538.5,121.5 536.5,121.5C 536.5,133.833 536.5,146.167 536.5,158.5C 538.5,158.5 540.5,158.5 542.5,158.5C 540.393,159.468 538.059,159.802 535.5,159.5C 535.5,146.5 535.5,133.5 535.5,120.5C 538.059,120.198 540.393,120.532 542.5,121.5 Z"/></g>
<g><path style="opacity:1" fill="#f6f8fe" d="M 643.5,124.5 C 641.057,129.5 639.39,134.834 638.5,140.5C 636.057,145.5 634.39,150.834 633.5,156.5C 630.855,158.242 627.855,158.909 624.5,158.5C 622.494,150.143 620.327,141.809 618,133.5C 616.539,136.679 615.705,140.012 615.5,143.5C 614.076,145.515 613.41,147.848 613.5,150.5C 612.232,152.905 611.565,155.572 611.5,158.5C 608.753,158.813 606.086,158.48 603.5,157.5C 599.757,146.607 596.424,135.607 593.5,124.5C 595.357,122.155 597.69,121.822 600.5,123.5C 602.558,131.511 604.725,139.511 607,147.5C 609.486,139.222 611.82,130.889 614,122.5C 616.719,121.556 619.552,121.223 622.5,121.5C 623.949,130.016 626.116,138.349 629,146.5C 631.501,138.494 634.001,130.494 636.5,122.5C 638.743,121.526 641.076,121.192 643.5,121.5C 643.5,122.5 643.5,123.5 643.5,124.5 Z"/></g>
<g><path style="opacity:1" fill="#fbfcfe" d="M 649.5,121.5 C 651.833,121.5 654.167,121.5 656.5,121.5C 656.5,133.833 656.5,146.167 656.5,158.5C 654.167,158.5 651.833,158.5 649.5,158.5C 649.5,146.167 649.5,133.833 649.5,121.5 Z"/></g>
<g><path style="opacity:1" fill="#a0bdf4" d="M 477.5,127.5 C 474.763,127.401 472.096,127.735 469.5,128.5C 470.492,126.974 471.992,126.307 474,126.5C 475.385,126.514 476.551,126.848 477.5,127.5 Z"/></g>
<g><path style="opacity:1" fill="#a0bdf4" d="M 555.5,127.5 C 552.763,127.401 550.096,127.735 547.5,128.5C 548.492,126.974 549.992,126.307 552,126.5C 553.385,126.514 554.551,126.848 555.5,127.5 Z"/></g>
<g><path style="opacity:1" fill="#93b4f3" d="M 863.5,127.5 C 860.43,127.368 857.43,127.701 854.5,128.5C 854.611,127.883 854.944,127.383 855.5,127C 858.367,126.199 861.034,126.366 863.5,127.5 Z"/></g>
<g><path style="opacity:1" fill="#91b3f3" d="M 902.5,127.5 C 899.763,127.401 897.096,127.735 894.5,128.5C 895.492,126.974 896.992,126.307 899,126.5C 900.385,126.514 901.551,126.848 902.5,127.5 Z"/></g>
<g><path style="opacity:1" fill="#91b3f3" d="M 961.5,127.5 C 958.43,127.368 955.43,127.701 952.5,128.5C 952.611,127.883 952.944,127.383 953.5,127C 956.367,126.199 959.034,126.366 961.5,127.5 Z"/></g>
<g><path style="opacity:1" fill="#a1bcf5" d="M 369.5,127.5 C 373.57,127.432 377.237,128.432 380.5,130.5C 376.603,129.945 372.937,128.945 369.5,127.5 Z"/></g>
<g><path style="opacity:1" fill="#5388ec" d="M 424.5,147.5 C 422.71,141.156 423.377,135.156 426.5,129.5C 427.512,127.124 429.345,126.124 432,126.5C 436.735,126.565 439.735,128.898 441,133.5C 442.646,140.523 441.146,146.689 436.5,152C 430.985,153.823 426.985,152.323 424.5,147.5 Z"/></g>
<g><path style="opacity:1" fill="#7aa2f0" d="M 643.5,124.5 C 642.61,130.166 640.943,135.5 638.5,140.5C 639.39,134.834 641.057,129.5 643.5,124.5 Z"/></g>
<g><path style="opacity:1" fill="#a9c3f5" d="M 662.5,126.5 C 664.167,126.5 665.833,126.5 667.5,126.5C 667.5,135.5 667.5,144.5 667.5,153.5C 666.507,145.016 666.174,136.349 666.5,127.5C 664.901,127.768 663.568,127.434 662.5,126.5 Z"/></g>
<g><path style="opacity:1" fill="#b8cef7" d="M 680.5,126.5 C 678.735,127.461 676.735,127.795 674.5,127.5C 674.5,135.167 674.5,142.833 674.5,150.5C 673.508,142.684 673.174,134.684 673.5,126.5C 675.833,126.5 678.167,126.5 680.5,126.5 Z"/></g>
<g><path style="opacity:1" fill="#5488ec" d="M 815.5,126.5 C 822.148,125.664 826.648,128.331 829,134.5C 830.422,140.8 829.256,146.466 825.5,151.5C 818.761,154.754 813.594,153.087 810,146.5C 807.924,138.544 809.757,131.877 815.5,126.5 Z"/></g>
<g><path style="opacity:1" fill="#5388ec" d="M 863.5,127.5 C 866.452,128.359 868.285,130.359 869,133.5C 870.245,139.706 869.412,145.539 866.5,151C 858.829,155.532 853.329,153.698 850,145.5C 849.333,141.833 849.333,138.167 850,134.5C 850.566,131.771 852.066,129.771 854.5,128.5C 857.43,127.701 860.43,127.368 863.5,127.5 Z"/></g>
<g><path style="opacity:1" fill="#5488ec" d="M 902.5,127.5 C 906.209,129.223 908.209,132.223 908.5,136.5C 908.677,140.234 908.344,143.901 907.5,147.5C 902.686,153.641 897.519,153.975 892,148.5C 889.859,144.042 889.193,139.375 890,134.5C 890.792,131.894 892.292,129.894 894.5,128.5C 897.096,127.735 899.763,127.401 902.5,127.5 Z"/></g>
<g><path style="opacity:1" fill="#5589ec" d="M 961.5,127.5 C 964.144,128.144 965.811,129.811 966.5,132.5C 966.5,133.5 966.5,134.5 966.5,135.5C 960.5,135.5 954.5,135.5 948.5,135.5C 948.149,132.188 949.482,129.855 952.5,128.5C 955.43,127.701 958.43,127.368 961.5,127.5 Z"/></g>
<g><path style="opacity:1" fill="#94b4f3" d="M 699.5,127.5 C 699.027,128.906 698.027,129.573 696.5,129.5C 696.973,128.094 697.973,127.427 699.5,127.5 Z"/></g>
<g><path style="opacity:1" fill="#adc6f5" d="M 167.5,130.5 C 155.167,130.5 142.833,130.5 130.5,130.5C 130.5,135.167 130.5,139.833 130.5,144.5C 129.513,139.695 129.179,134.695 129.5,129.5C 142.344,129.171 155.011,129.505 167.5,130.5 Z"/></g>
<g><path style="opacity:1" fill="#5187ec" d="M 167.5,130.5 C 169.113,140.949 167.28,150.949 162,160.5C 160.465,163.294 158.298,165.294 155.5,166.5C 152.149,163.152 148.482,160.152 144.5,157.5C 147.608,154.034 149.942,150.034 151.5,145.5C 144.532,144.503 137.532,144.17 130.5,144.5C 130.5,139.833 130.5,135.167 130.5,130.5C 142.833,130.5 155.167,130.5 167.5,130.5 Z"/></g>
<g><path style="opacity:1" fill="#cddcf9" d="M 480.5,130.5 C 481.117,130.611 481.617,130.944 482,131.5C 482.5,140.494 482.666,149.494 482.5,158.5C 484.5,158.5 486.5,158.5 488.5,158.5C 486.393,159.468 484.059,159.802 481.5,159.5C 481.782,149.781 481.449,140.114 480.5,130.5 Z"/></g>
<g><path style="opacity:1" fill="#cddcf9" d="M 558.5,130.5 C 559.117,130.611 559.617,130.944 560,131.5C 560.5,140.494 560.666,149.494 560.5,158.5C 562.5,158.5 564.5,158.5 566.5,158.5C 564.393,159.468 562.059,159.802 559.5,159.5C 559.782,149.781 559.449,140.114 558.5,130.5 Z"/></g>
<g><path style="opacity:1" fill="#cedcfa" d="M 709.5,130.5 C 710.268,131.263 710.768,132.263 711,133.5C 711.5,141.827 711.666,150.16 711.5,158.5C 713.5,158.5 715.5,158.5 717.5,158.5C 715.393,159.468 713.059,159.802 710.5,159.5C 710.725,149.801 710.392,140.134 709.5,130.5 Z"/></g>
<g><path style="opacity:1" fill="#a6c1f5" d="M 966.5,132.5 C 967.434,133.568 967.768,134.901 967.5,136.5C 960.978,136.823 954.645,136.49 948.5,135.5C 954.5,135.5 960.5,135.5 966.5,135.5C 966.5,134.5 966.5,133.5 966.5,132.5 Z"/></g>
<g><path style="opacity:1" fill="#7da4f0" d="M 426.5,129.5 C 423.377,135.156 422.71,141.156 424.5,147.5C 423.778,147.082 423.278,146.416 423,145.5C 422.333,141.833 422.333,138.167 423,134.5C 423.223,132.119 424.39,130.453 426.5,129.5 Z"/></g>
<g><path style="opacity:1" fill="#cfdefa" d="M 884.5,130.5 C 883.746,135.463 883.413,140.463 883.5,145.5C 882.838,143.696 882.505,141.696 882.5,139.5C 882.343,136.186 883.009,133.186 884.5,130.5 Z"/></g>
<g><path style="opacity:1" fill="#7aa2f0" d="M 638.5,140.5 C 637.61,146.166 635.943,151.5 633.5,156.5C 634.39,150.834 636.057,145.5 638.5,140.5 Z"/></g>
<g><path style="opacity:1" fill="#c4d5f8" d="M 908.5,136.5 C 909.641,139.64 909.808,142.973 909,146.5C 908.617,147.056 908.117,147.389 907.5,147.5C 908.344,143.901 908.677,140.234 908.5,136.5 Z"/></g>
<g><path style="opacity:1" fill="#5ca65f" d="M 107.5,144.5 C 110.442,150.442 114.775,155.109 120.5,158.5C 122.807,160.047 125.473,160.713 128.5,160.5C 130.696,160.495 132.696,160.162 134.5,159.5C 137.833,158.833 141.167,158.167 144.5,157.5C 148.482,160.152 152.149,163.152 155.5,166.5C 154.71,167.794 153.71,168.961 152.5,170C 148.259,172.349 143.925,174.182 139.5,175.5C 132.132,175.683 124.799,175.35 117.5,174.5C 116.609,173.89 115.609,173.557 114.5,173.5C 114.027,172.094 113.027,171.427 111.5,171.5C 103.778,167.444 98.1111,161.444 94.5,153.5C 98.6301,150.263 102.963,147.263 107.5,144.5 Z"/></g>
<g><path style="opacity:1" fill="#81a7f1" d="M 615.5,143.5 C 615.59,146.152 614.924,148.485 613.5,150.5C 613.41,147.848 614.076,145.515 615.5,143.5 Z"/></g>
<g><path style="opacity:1" fill="#c4d6f8" d="M 974.5,147.5 C 971.721,147.279 969.054,147.612 966.5,148.5C 967.334,147.252 968.667,146.585 970.5,146.5C 972.045,146.511 973.378,146.844 974.5,147.5 Z"/></g>
<g><path style="opacity:1" fill="#aec7f6" d="M 365.5,151.5 C 369.135,152.114 372.802,152.448 376.5,152.5C 372.71,153.902 369.044,153.569 365.5,151.5 Z"/></g>
<g><path style="opacity:1" fill="#c1d4f8" d="M 780.5,151.5 C 778.538,153.017 776.205,153.684 773.5,153.5C 771.631,153.493 769.964,153.16 768.5,152.5C 772.548,152.605 776.548,152.272 780.5,151.5 Z"/></g>
<g><path style="opacity:1" fill="#81a6f1" d="M 613.5,150.5 C 613.706,153.495 613.04,156.162 611.5,158.5C 611.565,155.572 612.232,152.905 613.5,150.5 Z"/></g>
<g><path style="opacity:1" fill="#b1c8f6" d="M 357.5,155.5 C 359.027,155.427 360.027,156.094 360.5,157.5C 358.973,157.573 357.973,156.906 357.5,155.5 Z"/></g>
<g><path style="opacity:1" fill="#8badf2" d="M 440.5,161.5 C 440.657,160.127 440.49,158.793 440,157.5C 438.644,158.38 437.144,158.714 435.5,158.5C 437.189,157.696 438.855,156.696 440.5,155.5C 441.793,157.636 441.793,159.636 440.5,161.5 Z"/></g>
<g><path style="opacity:1" fill="#97b6f3" d="M 759.5,156.5 C 761.027,156.427 762.027,157.094 762.5,158.5C 760.973,158.573 759.973,157.906 759.5,156.5 Z"/></g>
<g><path style="opacity:1" fill="#c4d6f8" d="M 680.5,155.5 C 681.434,156.568 681.768,157.901 681.5,159.5C 677.818,159.665 674.152,159.499 670.5,159C 669.619,158.292 668.953,157.458 668.5,156.5C 672.227,158.252 676.227,158.919 680.5,158.5C 680.5,157.5 680.5,156.5 680.5,155.5 Z"/></g>
<g><path style="opacity:1" fill="#87aaf1" d="M 785.5,157.5 C 784.01,159.28 782.01,159.946 779.5,159.5C 781.214,158.262 783.214,157.595 785.5,157.5 Z"/></g>
<g><path style="opacity:1" fill="#749def" d="M 834.5,152.5 C 832.865,157.12 829.531,159.453 824.5,159.5C 828.365,157.975 831.698,155.642 834.5,152.5 Z"/></g>
<g><path style="opacity:1" fill="#98b7f4" d="M 850.5,157.5 C 852.153,157.66 853.486,158.326 854.5,159.5C 852.62,159.771 851.287,159.104 850.5,157.5 Z"/></g>
<g><path style="opacity:1" fill="#97b7f4" d="M 948.5,157.5 C 950.153,157.66 951.486,158.326 952.5,159.5C 950.62,159.771 949.287,159.104 948.5,157.5 Z"/></g>
<g><path style="opacity:1" fill="#cee5cf" d="M 120.5,158.5 C 125.13,159.229 129.797,159.563 134.5,159.5C 132.696,160.162 130.696,160.495 128.5,160.5C 125.473,160.713 122.807,160.047 120.5,158.5 Z"/></g>
<g><path style="opacity:1" fill="#9bb9f4" d="M 360.5,157.5 C 366.378,159.065 372.378,159.732 378.5,159.5C 374.354,160.647 370.02,160.814 365.5,160C 363.509,159.626 361.842,158.793 360.5,157.5 Z"/></g>
<g><path style="opacity:1" fill="#93b4f3" d="M 763.5,158.5 C 768.805,159.194 774.138,159.528 779.5,159.5C 777.527,160.163 775.361,160.496 773,160.5C 769.523,160.672 766.356,160.006 763.5,158.5 Z"/></g>
<g><path style="opacity:1" fill="#90b2f2" d="M 965.5,158.5 C 963.152,159.952 960.486,160.618 957.5,160.5C 955.631,160.493 953.964,160.16 952.5,159.5C 956.869,159.533 961.202,159.2 965.5,158.5 Z"/></g>
<g><path style="opacity:1" fill="#bfd2f8" d="M 890.5,162.5 C 888.5,162.5 886.5,162.5 884.5,162.5C 884.5,163.5 884.5,164.5 884.5,165.5C 883.566,164.432 883.232,163.099 883.5,161.5C 886.059,161.198 888.393,161.532 890.5,162.5 Z"/></g>
<g><path style="opacity:1" fill="#b0d5b2" d="M 111.5,171.5 C 113.027,171.427 114.027,172.094 114.5,173.5C 112.973,173.573 111.973,172.906 111.5,171.5 Z"/></g>
<g><path style="opacity:1" fill="#92b4f3" d="M 890.5,172.5 C 895.13,173.229 899.797,173.563 904.5,173.5C 902.696,174.162 900.696,174.495 898.5,174.5C 895.473,174.713 892.807,174.047 890.5,172.5 Z"/></g>
<g><path style="opacity:1" fill="#9ecaa0" d="M 117.5,174.5 C 124.799,175.35 132.132,175.683 139.5,175.5C 133.347,176.653 127.014,176.82 120.5,176C 119.263,175.768 118.263,175.268 117.5,174.5 Z"/></g>
<g><path style="opacity:1" fill="#7ba1f0" d="M 25.5,242.5 C 95.1667,242.5 164.833,242.5 234.5,242.5C 234.389,243.117 234.056,243.617 233.5,244C 164.833,244.667 96.1667,244.667 27.5,244C 26.5842,243.722 25.9175,243.222 25.5,242.5 Z"/></g>
<g><path style="opacity:1" fill="#ddddde" d="M 19.5,245.5 C 20.5,245.833 21.1667,246.5 21.5,247.5C 21.8417,248.338 22.5084,248.672 23.5,248.5C 27.0257,252.854 31.6924,255.021 37.5,255C 380.167,255.667 722.833,255.667 1065.5,255C 1071.67,255.23 1076.67,253.064 1080.5,248.5C 1081.49,248.672 1082.16,248.338 1082.5,247.5C 1082.84,246.662 1083.51,246.328 1084.5,246.5C 1081.46,253.203 1076.13,256.703 1068.5,257C 724.167,257.667 379.833,257.667 35.5,257C 27.4712,256.791 22.1379,252.958 19.5,245.5 Z"/></g>
<g><path style="opacity:1" fill="#d8d8d8" d="M 23.5,248.5 C 24.8333,248.5 26.1667,248.5 27.5,248.5C 28.9746,250.41 30.9746,251.576 33.5,252C 37.1667,252.333 40.8333,252.667 44.5,253C 383.167,253.667 721.833,253.667 1060.5,253C 1066.82,253.433 1072.49,251.933 1077.5,248.5C 1078.5,248.5 1079.5,248.5 1080.5,248.5C 1076.67,253.064 1071.67,255.23 1065.5,255C 722.833,255.667 380.167,255.667 37.5,255C 31.6924,255.021 27.0257,252.854 23.5,248.5 Z"/></g>
<g><path style="opacity:1" fill="#d1d1d1" d="M 27.5,248.5 C 30.6074,248.351 33.6074,248.851 36.5,250C 380.167,250.667 723.833,250.667 1067.5,250C 1070.76,248.957 1074.09,248.457 1077.5,248.5C 1072.49,251.933 1066.82,253.433 1060.5,253C 721.833,253.667 383.167,253.667 44.5,253C 40.8333,252.667 37.1667,252.333 33.5,252C 30.9746,251.576 28.9746,250.41 27.5,248.5 Z"/></g>
<g><path style="opacity:1" fill="#c4c7ce" d="M 21.5,247.5 C 375.167,247.5 728.833,247.5 1082.5,247.5C 1082.16,248.338 1081.49,248.672 1080.5,248.5C 1079.5,248.5 1078.5,248.5 1077.5,248.5C 1074.09,248.457 1070.76,248.957 1067.5,250C 723.833,250.667 380.167,250.667 36.5,250C 33.6074,248.851 30.6074,248.351 27.5,248.5C 26.1667,248.5 24.8333,248.5 23.5,248.5C 22.5084,248.672 21.8417,248.338 21.5,247.5 Z"/></g>
</svg>
