<?xml version="1.0" standalone="no"?>
<!DOCTYPE svg PUBLIC "-//W3C//DTD SVG 20010904//EN"
 "http://www.w3.org/TR/2001/REC-SVG-20010904/DTD/svg10.dtd">
<svg version="1.0" xmlns="http://www.w3.org/2000/svg"
 width="694.000000pt" height="264.000000pt" viewBox="0 0 694.000000 264.000000"
 preserveAspectRatio="xMidYMid meet">
<metadata>
Created by potrace 1.16, written by Peter Selinger 2001-2019
</metadata>
<g transform="translate(0.000000,264.000000) scale(0.100000,-0.100000)"
fill="#000000" stroke="none">
<path d="M829 1932 c-51 -3 -56 -5 -52 -22 3 -11 0 -20 -6 -20 -6 0 -11 8 -11
17 0 26 -57 -33 -71 -74 -12 -36 -19 -873 -8 -873 4 0 9 -20 10 -44 2 -24 1
-42 -3 -39 -11 6 -10 -19 1 -35 6 -10 10 -7 15 13 6 22 10 25 19 16 9 -9 9
-14 -2 -20 -19 -12 -6 -57 22 -75 12 -8 36 -18 52 -23 38 -10 5230 -17 5305
-7 50 7 52 8 25 15 -27 6 -25 7 16 8 37 1 51 6 72 30 23 26 24 30 9 34 -12 3
-10 5 6 6 l23 1 -1 500 c-1 328 -5 500 -11 500 -6 0 -7 4 -4 10 4 6 -1 7 -11
3 -12 -4 -15 -3 -10 6 12 18 -14 42 -38 36 -12 -3 -15 -2 -8 1 13 6 17 25 5
22 -5 -1 -19 2 -33 6 -24 6 -5191 14 -5311 8z m502 -93 c244 0 436 -4 426 -8
-17 -6 -17 -8 2 -33 13 -16 18 -33 14 -44 -5 -13 -3 -16 10 -11 18 7 25 -17 8
-28 -13 -8 -13 4 -15 -432 -3 -411 -3 -410 -47 -434 -11 -6 -193 -10 -455 -10
-449 0 -494 4 -494 40 0 10 -3 12 -10 5 -17 -17 0 -44 27 -44 13 0 22 -4 19
-9 -11 -17 -61 4 -64 27 -2 12 -7 22 -12 22 -8 0 4 67 15 78 3 3 3 -14 0 -38
-4 -33 -3 -40 4 -25 6 12 10 200 10 454 0 474 0 474 59 487 15 3 32 7 37 9 6
1 13 1 16 -1 3 -2 206 -4 450 -5z m2441 -336 c19 -17 24 -58 8 -68 -5 -3 -10
-15 -10 -27 0 -16 3 -18 14 -9 10 9 15 8 20 -4 3 -8 10 -15 15 -15 14 0 7 34
-9 42 -12 5 -11 7 3 7 13 1 17 6 13 19 -3 9 -2 22 2 27 9 13 42 16 42 3 0 -5
4 -7 9 -4 5 3 11 -1 15 -9 3 -10 -1 -15 -12 -15 -15 0 -15 -2 -2 -10 12 -8 13
-13 2 -30 -12 -19 -11 -20 27 -14 34 5 43 3 65 -19 23 -23 26 -34 26 -102 l0
-75 -34 0 c-33 0 -34 1 -37 44 -3 32 -1 42 9 39 6 -3 12 0 12 6 0 10 -14 15
-32 12 -5 0 -8 4 -8 10 0 6 7 9 15 5 8 -3 15 -1 15 3 0 15 -32 22 -45 11 -19
-16 -29 -98 -14 -116 10 -12 6 -14 -24 -14 -35 0 -36 1 -39 43 -2 23 0 61 3
85 6 43 -4 59 -14 21 -4 -15 -11 -20 -21 -16 -9 4 -16 3 -16 -1 0 -4 -3 -18
-7 -31 -3 -14 -2 -22 3 -19 5 4 7 -13 5 -38 -3 -41 -5 -44 -33 -44 -30 0 -30
0 -26 53 2 43 0 52 -13 49 -9 -1 -22 11 -32 30 -15 32 -16 32 -10 -49 l5 -83
-31 0 c-29 0 -31 2 -31 38 0 20 -4 44 -10 52 -6 9 -5 17 3 22 9 5 9 10 1 18
-8 8 -17 -5 -34 -47 -28 -70 -37 -83 -60 -83 -11 0 -23 16 -35 47 -17 43 -19
45 -27 24 -4 -13 -6 -27 -2 -32 3 -5 1 -9 -5 -9 -6 0 -8 -6 -5 -13 3 -9 -7
-14 -33 -15 -33 -2 -41 2 -57 28 -10 17 -15 34 -12 37 3 3 10 -6 15 -20 5 -14
14 -28 20 -31 5 -4 -6 29 -25 73 -19 44 -31 86 -28 95 5 12 2 15 -12 9 -12 -4
-15 -3 -10 5 4 7 13 12 21 12 7 0 15 8 18 18 3 14 6 12 17 -10 7 -15 17 -25
21 -22 5 3 8 -5 8 -18 -1 -13 6 -39 15 -58 10 -20 15 -25 12 -12 -2 12 -1 22
4 22 4 0 5 12 2 26 -3 19 -1 25 7 20 6 -4 14 -1 17 7 11 29 54 7 54 -27 0 -12
6 -30 13 -40 13 -17 14 -18 20 -2 4 9 3 15 -2 12 -5 -3 -11 3 -14 13 -3 14 0
17 13 14 11 -3 19 2 23 16 3 13 13 21 26 21 12 0 21 6 22 13 0 6 4 3 9 -8 7
-19 8 -19 15 -1 5 11 3 21 -5 26 -8 5 -9 13 -2 26 5 11 8 25 6 32 -1 7 0 8 3
2 2 -5 13 -10 24 -10 10 0 19 -6 20 -12 0 -7 7 1 14 17 12 26 17 29 14 9 -1
-8 22 -24 34 -24 5 0 6 10 3 23 -3 12 -3 16 0 10 3 -7 15 -13 27 -14 12 0 16
-3 10 -6 -10 -3 -9 -8 3 -20 19 -19 25 -14 17 15 -3 13 -14 22 -27 23 -19 1
-19 2 -2 6 15 4 16 7 5 14 -8 5 -10 9 -5 9 5 0 18 -7 28 -17z m545 -5 c-2 -7
1 -20 8 -28 7 -8 17 -28 22 -44 5 -17 15 -32 21 -34 8 -2 10 3 6 15 -5 17 -5
17 9 1 8 -10 18 -14 22 -10 5 4 5 1 1 -6 -4 -7 -12 -9 -18 -6 -7 4 -8 -2 -3
-17 7 -22 5 -22 -19 6 -20 23 -28 27 -38 17 -9 -9 -16 -8 -31 5 -27 25 -91 23
-117 -4 -25 -28 -25 -28 7 -30 18 -1 22 2 12 8 -11 6 -11 11 -1 21 9 9 12 8
12 -6 0 -13 5 -16 23 -12 l22 6 -22 -11 c-13 -7 -23 -16 -23 -22 0 -5 -6 -5
-13 2 -11 8 -18 6 -33 -11 -10 -12 -13 -18 -6 -14 10 6 11 1 6 -20 -5 -19 -4
-25 5 -20 6 4 11 1 11 -7 0 -8 14 -20 31 -28 27 -10 36 -10 58 2 39 22 40 49
2 49 -24 0 -29 -3 -24 -16 4 -12 2 -15 -8 -12 -8 3 -13 12 -11 22 2 9 -2 16
-8 16 -20 0 -10 -41 13 -50 12 -5 16 -9 9 -9 -28 -2 -48 21 -44 50 2 16 8 26
13 23 5 -3 9 2 9 10 0 9 9 16 20 16 11 0 20 5 20 11 0 8 4 8 13 1 15 -12 67
-13 67 0 0 5 -4 6 -10 3 -5 -3 -7 0 -4 9 5 12 9 13 19 3 7 -7 10 -16 7 -21 -3
-5 0 -6 6 -2 6 3 14 -3 17 -15 6 -19 9 -18 31 15 30 43 77 56 123 33 22 -11
31 -12 32 -4 0 7 9 -13 19 -43 10 -31 19 -45 19 -33 2 64 67 107 129 85 17 -6
41 -8 54 -6 16 3 18 2 7 -3 -15 -7 -14 -12 2 -48 12 -27 18 -34 18 -20 2 24
28 59 58 74 24 12 66 15 76 5 3 -4 24 -8 46 -9 32 -3 40 0 44 16 3 12 0 19
-10 19 -8 0 -11 -4 -8 -10 3 -5 2 -10 -3 -10 -11 0 -25 30 -17 38 3 3 5 1 5
-5 0 -6 9 -9 20 -6 12 3 20 14 20 26 0 24 27 46 58 47 17 0 22 -5 21 -22 -1
-17 -2 -19 -6 -5 -3 10 -14 17 -26 17 -19 -1 -20 -2 -5 -11 25 -14 33 -73 18
-135 -15 -63 -7 -85 10 -25 11 42 38 68 78 74 12 2 25 6 28 10 12 11 26 8 18
-4 -5 -9 2 -10 22 -6 16 3 23 4 16 1 -20 -9 15 -44 36 -37 11 3 13 2 6 -4 -6
-4 -11 -28 -11 -53 -1 -86 -1 -88 -33 -95 -16 -4 -30 -11 -30 -16 0 -17 -50
-9 -84 13 -19 12 -41 34 -50 48 l-15 25 -1 -37 c0 -34 -3 -38 -25 -38 -23 0
-24 2 -27 82 -2 64 -6 83 -18 86 -13 2 -15 -15 -15 -102 0 -126 -7 -137 -89
-144 -41 -3 -62 0 -81 12 -29 19 -30 24 -10 50 9 11 18 15 27 10 7 -5 20 -9
28 -11 8 -1 16 -7 18 -12 5 -14 42 5 42 21 0 9 -3 9 -12 0 -15 -15 -31 -16
-22 0 5 7 2 9 -7 6 -24 -9 -58 10 -80 44 -16 25 -19 27 -14 9 4 -14 3 -21 -3
-18 -5 4 -26 -11 -46 -33 -20 -22 -42 -40 -49 -39 -9 0 -9 2 1 6 19 8 14 18
-10 19 -32 1 -50 7 -67 22 -11 11 -16 11 -23 0 -7 -9 -8 -8 -4 5 7 22 -3 67
-14 67 -5 0 -6 -18 -3 -40 4 -24 2 -40 -5 -40 -5 0 -8 10 -5 23 l5 22 -16 -22
c-10 -13 -24 -23 -33 -23 -12 0 -13 -3 -4 -14 9 -11 8 -15 -4 -20 -9 -3 -13
-2 -10 4 3 6 -5 10 -20 10 -14 0 -37 7 -50 16 -13 9 -31 17 -40 18 -9 1 -20 8
-25 16 -6 10 -11 8 -19 -9 -7 -11 -16 -21 -22 -21 -6 0 -4 7 4 15 9 8 18 20
20 27 4 9 10 8 21 -6 19 -24 19 -22 2 28 -13 38 -13 38 -20 11 -4 -15 -18 -38
-31 -51 -13 -13 -21 -24 -18 -24 3 0 0 -7 -7 -15 -7 -8 -17 -15 -22 -15 -6 0
-4 8 3 17 12 15 12 16 -6 8 -42 -17 -71 -15 -110 7 -43 25 -79 84 -89 148 -4
26 -4 30 3 15 l10 -20 1 20 c1 11 1 28 0 39 -1 10 3 15 8 12 5 -3 15 1 22 9
11 13 10 14 -4 9 -29 -11 -17 15 15 32 21 10 29 11 23 3 -5 -9 -2 -10 10 -6
10 4 23 7 29 8 7 0 3 4 -8 8 -16 7 -13 9 18 13 25 3 36 0 33 -7 -2 -6 4 -11
13 -11 9 0 27 -4 41 -8 17 -6 22 -5 15 2 -5 5 -19 12 -30 15 -18 4 -18 5 3 6
12 0 22 6 22 11 0 6 3 10 6 10 3 0 4 -6 1 -12z m-1997 -8 c0 -5 -1 -12 -2 -14
-2 -2 5 -13 15 -24 11 -12 15 -26 11 -37 -5 -13 -4 -16 4 -11 7 4 12 3 12 -2
0 -14 -54 -9 -73 6 -19 16 -57 7 -57 -13 0 -12 29 -35 44 -35 3 0 1 12 -4 28
-9 24 -9 25 4 9 8 -10 23 -25 33 -33 17 -13 17 -14 -2 -8 -12 4 -7 -2 10 -13
18 -12 33 -16 36 -10 4 5 10 -5 14 -23 4 -18 3 -35 -2 -39 -6 -3 -13 -17 -16
-31 -4 -17 -19 -31 -47 -42 -50 -22 -69 -22 -98 -2 -12 8 -26 13 -30 10 -15
-9 -12 45 4 76 13 25 14 32 2 39 -11 7 -11 9 1 9 11 0 11 3 0 16 -14 17 -21
96 -7 88 4 -3 8 -1 8 5 0 5 15 19 33 30 28 17 40 19 68 11 44 -13 44 -13 29 5
-9 10 -9 15 -1 15 6 0 11 -4 11 -10z m690 -24 c0 -2 3 -11 6 -19 3 -8 -5 -25
-18 -37 -13 -13 -17 -20 -10 -15 9 4 15 0 19 -14 3 -11 10 -18 16 -14 6 3 7 1
3 -5 -4 -7 -7 -46 -7 -87 l0 -75 -30 0 -30 0 3 103 c3 92 1 104 -17 119 -18
16 -18 17 -2 18 9 0 17 7 17 15 0 9 9 15 25 15 14 0 25 -2 25 -4z m-322 -37
c-15 -8 -15 -13 -5 -23 8 -9 14 -10 18 -3 5 6 26 5 65 -4 71 -17 90 -44 99
-137 l6 -62 -36 0 -35 0 0 49 c0 41 -4 51 -20 56 -11 3 -20 11 -20 18 0 8 3 8
12 -1 17 -17 33 -15 18 3 -16 19 -34 19 -49 1 -8 -10 -9 -16 -1 -21 15 -9 12
-25 -5 -25 -11 0 -15 -11 -15 -40 0 -32 -4 -40 -18 -40 -16 0 -20 13 -28 90
-5 50 -6 90 -2 90 5 0 8 5 8 11 0 5 -4 7 -10 4 -5 -3 -10 1 -10 9 0 10 -10 17
-27 17 -22 2 -19 3 12 9 58 10 62 10 43 -1z m384 -11 c-16 -16 -16 -33 1 -21
16 13 59 24 52 13 -2 -4 9 -10 25 -14 16 -3 37 -14 47 -25 9 -11 19 -18 22
-16 3 1 5 -11 5 -28 -1 -18 -2 -53 -3 -79 -1 -46 -2 -48 -31 -48 -30 0 -30 0
-30 58 0 68 -9 87 -39 77 -11 -3 -21 -10 -21 -15 0 -5 -3 -16 -7 -26 -3 -10
-2 -15 3 -12 5 4 7 -13 5 -38 -3 -42 -4 -44 -35 -44 l-31 0 0 95 c0 52 4 95 9
95 5 0 3 7 -4 15 -11 13 -10 14 4 9 9 -3 16 -1 16 5 0 6 5 11 12 11 9 0 9 -3
0 -12z m-640 -39 c-7 -20 -8 -99 -1 -119 1 -3 2 -9 3 -15 1 -5 6 -18 10 -28 5
-10 6 -21 2 -24 -3 -4 -6 2 -6 12 0 15 -3 16 -12 7 -20 -20 6 -38 35 -25 17 8
28 7 42 -3 25 -18 61 -18 69 1 3 8 1 15 -4 15 -6 0 -10 -4 -10 -10 0 -5 -5
-10 -11 -10 -5 0 -8 3 -6 8 3 4 -5 7 -16 8 -39 1 -52 8 -69 39 -22 39 -22 79
-1 116 21 35 57 51 114 50 77 -1 76 0 72 -50 -2 -35 -1 -41 7 -26 9 21 9 16
-5 -109 -7 -69 -34 -96 -96 -96 -26 0 -59 4 -73 10 -14 5 -26 6 -26 2 0 -4
-10 -8 -22 -9 l-23 -1 23 10 c12 6 22 14 22 18 0 15 -52 50 -75 50 -14 0 -25
4 -25 10 0 5 8 6 18 3 14 -6 15 -4 4 9 -10 12 -10 18 -1 24 8 4 10 27 6 68 -6
75 -3 84 28 78 16 -3 25 0 25 9 0 7 2 10 5 7 3 -3 2 -16 -3 -29z m3758 -569
c7 10 10 11 10 2 0 -16 -42 -32 -85 -32 -23 0 -33 -4 -31 -12 1 -7 1 -10 -1
-5 -3 4 -1199 7 -2658 7 -1460 0 -2656 3 -2658 8 -3 4 1191 6 2654 4 1462 -1
2659 1 2659 6 0 4 16 6 35 4 26 -3 36 0 41 13 5 13 9 14 15 3 7 -11 11 -10 19
2z"/>
<path d="M1230 1611 c-57 -12 -115 -47 -154 -93 l-36 -43 38 -32 c20 -18 39
-33 42 -33 3 0 14 14 24 31 27 46 72 69 134 69 29 0 65 -6 81 -14 26 -14 29
-13 60 16 17 16 30 35 29 40 -7 19 -91 57 -138 62 -25 2 -61 1 -80 -3z"/>
<path d="M1295 1380 c17 -7 17 -9 3 -9 -10 -1 -18 -7 -18 -15 0 -10 14 -16 43
-18 55 -4 54 -21 -3 -29 -44 -6 -44 -6 -8 -7 20 -1 48 2 62 8 16 6 35 6 48 0
13 -5 17 -9 9 -9 -11 -1 -10 -5 5 -17 10 -8 13 -13 7 -9 -7 3 -13 2 -13 -4 0
-5 -3 -16 -6 -24 -3 -8 2 -22 11 -31 9 -9 12 -16 6 -16 -5 0 -14 7 -19 16 -8
14 -10 13 -22 -3 -8 -10 -11 -15 -6 -11 5 4 16 -2 25 -13 15 -19 18 -20 30 -5
7 9 18 16 24 16 5 0 3 -8 -6 -18 -10 -10 -17 -25 -17 -33 1 -17 50 41 50 59 0
6 5 12 10 12 6 0 10 5 10 11 0 7 -10 5 -25 -5 -14 -9 -25 -12 -25 -6 0 5 4 10
9 10 4 0 20 11 35 25 20 18 26 34 26 65 0 30 -3 39 -12 34 -10 -6 -10 -4 0 8
10 13 10 17 -4 22 -25 10 -252 6 -229 -4z"/>
</g>
</svg>
