<?xml version="1.0" encoding="UTF-8"?>
<!DOCTYPE svg PUBLIC "-//W3C//DTD SVG 1.1//EN" "http://www.w3.org/Graphics/SVG/1.1/DTD/svg11.dtd">
<svg xmlns="http://www.w3.org/2000/svg" version="1.1" width="370px" height="456px" style="shape-rendering:geometricPrecision; text-rendering:geometricPrecision; image-rendering:optimizeQuality; fill-rule:evenodd; clip-rule:evenodd" xmlns:xlink="http://www.w3.org/1999/xlink">
<g><path style="opacity:1" fill="#909090" d="M 308.5,90.5 C 236.665,90.8326 164.998,90.4992 93.5,89.5C 93.5,87.1667 93.5,84.8333 93.5,82.5C 91.1789,82.7711 89.1789,82.1045 87.5,80.5C 86.8333,80.8333 86.1667,81.1667 85.5,81.5C 82.0356,79.6827 78.7022,77.6827 75.5,75.5C 74.914,75.7093 74.414,76.0426 74,76.5C 73.6667,75.1667 73.3333,73.8333 73,72.5C 72.7216,73.4158 72.2216,74.0825 71.5,74.5C 71.5,73.8333 71.5,73.1667 71.5,72.5C 72.0787,69.6689 73.412,67.3356 75.5,65.5C 76.9063,65.0269 77.573,64.0269 77.5,62.5C 77.3284,61.5084 77.6618,60.8417 78.5,60.5C 79.9063,60.0269 80.573,59.0269 80.5,57.5C 82.332,53.1638 84.6654,49.1638 87.5,45.5C 88.9063,45.0269 89.573,44.0269 89.5,42.5C 91.4077,41.5144 92.4077,39.8477 92.5,37.5C 92.3284,36.5084 92.6618,35.8417 93.5,35.5C 94.9063,35.0269 95.573,34.0269 95.5,32.5C 96.9063,32.0269 97.573,31.0269 97.5,29.5C 97.427,27.9731 98.0937,26.9731 99.5,26.5C 100.289,26.2172 100.956,25.7172 101.5,25C 108.492,24.5004 115.492,24.3337 122.5,24.5C 112.757,45.3512 103.424,66.6845 94.5,88.5C 165.999,89.1667 237.332,89.8333 308.5,90.5 Z"/></g>
<g><path style="opacity:1" fill="#adadad" d="M 268.5,24.5 C 269.677,26.1026 269.511,27.436 268,28.5C 264.793,25.8709 261.626,25.8709 258.5,28.5C 263.609,41.3853 269.776,53.7186 277,65.5C 278.356,66.3802 279.856,66.7135 281.5,66.5C 281.5,68.5 281.5,70.5 281.5,72.5C 287.715,71.4393 292.048,73.7727 294.5,79.5C 298.546,81.1917 301.713,83.8584 304,87.5C 304.417,86.244 305.25,85.5774 306.5,85.5C 307.837,86.3149 308.837,87.4815 309.5,89C 320.664,88.5817 331.664,88.7484 342.5,89.5C 336.642,89.1778 330.975,89.5111 325.5,90.5C 319.833,90.5 314.167,90.5 308.5,90.5C 237.332,89.8333 165.999,89.1667 94.5,88.5C 103.424,66.6845 112.757,45.3512 122.5,24.5C 115.492,24.3337 108.492,24.5004 101.5,25C 100.956,25.7172 100.289,26.2172 99.5,26.5C 99.5743,24.5891 100.574,23.4224 102.5,23C 157.167,22.3333 211.833,22.3333 266.5,23C 267.416,23.2784 268.082,23.7784 268.5,24.5 Z"/></g>
<g><path style="opacity:1" fill="#b0b0b0" d="M 258.5,28.5 C 220.18,27.3767 181.847,27.2101 143.5,28C 142.244,28.4169 141.577,29.2502 141.5,30.5C 139.761,29.5661 138.095,29.5661 136.5,30.5C 134.55,36.9259 132.217,42.7592 129.5,48C 126.728,56.5466 123.394,64.8799 119.5,73C 120.571,73.8518 121.571,74.6851 122.5,75.5C 122.396,77.7028 121.73,79.7028 120.5,81.5C 119.262,81.81 119.262,82.31 120.5,83C 171.833,83.6667 223.167,83.6667 274.5,83C 275.337,81.9887 275.67,80.8221 275.5,79.5C 276.338,79.8417 276.672,80.5084 276.5,81.5C 276.5,82.5 276.5,83.5 276.5,84.5C 223.458,84.1754 170.458,84.5088 117.5,85.5C 116.07,85.5792 114.736,85.2458 113.5,84.5C 112.669,82.5269 112.502,80.5269 113,78.5C 112.333,77.8333 111.667,77.1667 111,76.5C 108.247,77.7787 106.747,76.7787 106.5,73.5C 106.708,70.8152 107.875,70.1485 110,71.5C 110.92,68.0618 112.587,65.0618 115,62.5C 114.462,58.872 114.129,55.2053 114,51.5C 117.606,44.6214 120.939,37.6214 124,30.5C 124.903,29.2986 126.069,28.4652 127.5,28C 150.47,26.871 173.47,26.371 196.5,26.5C 217.511,26.5003 238.178,27.167 258.5,28.5 Z"/></g>
<g><path style="opacity:1" fill="#b4b4b4" d="M 268.5,24.5 C 269.794,25.2899 270.961,26.2899 272,27.5C 283.788,46.7559 295.288,66.0892 306.5,85.5C 305.25,85.5774 304.417,86.244 304,87.5C 301.713,83.8584 298.546,81.1917 294.5,79.5C 292.048,73.7727 287.715,71.4393 281.5,72.5C 281.5,70.5 281.5,68.5 281.5,66.5C 279.856,66.7135 278.356,66.3802 277,65.5C 269.776,53.7186 263.609,41.3853 258.5,28.5C 261.626,25.8709 264.793,25.8709 268,28.5C 269.511,27.436 269.677,26.1026 268.5,24.5 Z"/></g>
<g><path style="opacity:1" fill="#9f9f9f" d="M 250.5,29.5 C 248.585,29.2155 246.919,29.5489 245.5,30.5C 211.167,30.5 176.833,30.5 142.5,30.5C 143.263,29.7321 144.263,29.2321 145.5,29C 180.669,28.1691 215.669,28.3357 250.5,29.5 Z"/></g>
<g><path style="opacity:1" fill="#909090" d="M 245.5,30.5 C 246.919,29.5489 248.585,29.2155 250.5,29.5C 251.109,31.9433 252.609,33.61 255,34.5C 255.942,37.9927 257.275,41.326 259,44.5C 262.434,49.0511 265.601,53.7178 268.5,58.5C 272.586,64.7816 276.086,71.4482 279,78.5C 279.346,80.2182 279.846,81.8849 280.5,83.5C 280.167,83.8333 279.833,84.1667 279.5,84.5C 278.712,83.2299 277.712,82.2299 276.5,81.5C 276.672,80.5084 276.338,79.8417 275.5,79.5C 266.563,64.7787 258.396,49.7787 251,34.5C 249.549,32.5359 247.716,31.2026 245.5,30.5 Z"/></g>
<g><path style="opacity:0.757" fill="#d0d0d0" d="M 97.5,29.5 C 97.573,31.0269 96.9063,32.0269 95.5,32.5C 95.427,30.9731 96.0937,29.9731 97.5,29.5 Z"/></g>
<g><path style="opacity:1" fill="#bdbdbd" d="M 120.5,81.5 C 121.73,79.7028 122.396,77.7028 122.5,75.5C 128.575,61.6736 134.408,47.6736 140,33.5C 140.689,32.6433 141.522,31.9767 142.5,31.5C 177.463,32.1603 212.463,32.8269 247.5,33.5C 247.694,35.2633 247.694,37.0967 247.5,39C 251.532,45.5347 255.365,52.7014 259,60.5C 260.62,62.2415 262.12,64.0748 263.5,66C 261.527,66.4955 259.527,66.6621 257.5,66.5C 257.5,68.8333 257.5,71.1667 257.5,73.5C 250.246,74.8665 242.913,75.5332 235.5,75.5C 235.5,77.8333 235.5,80.1667 235.5,82.5C 197.094,82.8268 158.761,82.4935 120.5,81.5 Z"/></g>
<g><path style="opacity:1" fill="#b8b8b8" d="M 141.5,30.5 C 141.833,30.5 142.167,30.5 142.5,30.5C 176.833,30.5 211.167,30.5 245.5,30.5C 247.716,31.2026 249.549,32.5359 251,34.5C 258.396,49.7787 266.563,64.7787 275.5,79.5C 275.67,80.8221 275.337,81.9887 274.5,83C 223.167,83.6667 171.833,83.6667 120.5,83C 119.262,82.31 119.262,81.81 120.5,81.5C 158.761,82.4935 197.094,82.8268 235.5,82.5C 235.5,80.1667 235.5,77.8333 235.5,75.5C 242.913,75.5332 250.246,74.8665 257.5,73.5C 257.5,71.1667 257.5,68.8333 257.5,66.5C 259.527,66.6621 261.527,66.4955 263.5,66C 262.12,64.0748 260.62,62.2415 259,60.5C 255.365,52.7014 251.532,45.5347 247.5,39C 247.694,37.0967 247.694,35.2633 247.5,33.5C 212.463,32.8269 177.463,32.1603 142.5,31.5C 141.522,31.9767 140.689,32.6433 140,33.5C 134.408,47.6736 128.575,61.6736 122.5,75.5C 121.571,74.6851 120.571,73.8518 119.5,73C 123.394,64.8799 126.728,56.5466 129.5,48C 132.217,42.7592 134.55,36.9259 136.5,30.5C 138.095,29.5661 139.761,29.5661 141.5,30.5 Z"/></g>
<g><path style="opacity:0.624" fill="#d7d7d7" d="M 95.5,32.5 C 95.573,34.0269 94.9063,35.0269 93.5,35.5C 93.427,33.9731 94.0937,32.9731 95.5,32.5 Z"/></g>
<g><path style="opacity:1" fill="#bdbdbd" d="M 92.5,37.5 C 92.4077,39.8477 91.4077,41.5144 89.5,42.5C 89.7497,40.326 90.7497,38.6594 92.5,37.5 Z"/></g>
<g><path style="opacity:0.576" fill="#dbdbdb" d="M 89.5,42.5 C 89.573,44.0269 88.9063,45.0269 87.5,45.5C 87.427,43.9731 88.0937,42.9731 89.5,42.5 Z"/></g>
<g><path style="opacity:0.643" fill="#d6d6d6" d="M 80.5,57.5 C 80.573,59.0269 79.9063,60.0269 78.5,60.5C 78.427,58.9731 79.0937,57.9731 80.5,57.5 Z"/></g>
<g><path style="opacity:0.576" fill="#d4d4d4" d="M 77.5,62.5 C 77.573,64.0269 76.9063,65.0269 75.5,65.5C 75.427,63.9731 76.0937,62.9731 77.5,62.5 Z"/></g>
<g><path style="opacity:1" fill="#868686" d="M 93.5,89.5 C 83.1667,89.5 72.8333,89.5 62.5,89.5C 62.8333,88.1667 63.1667,86.8333 63.5,85.5C 65.4077,84.5144 66.4077,82.8477 66.5,80.5C 68.1638,78.5921 69.8305,76.5921 71.5,74.5C 72.2216,74.0825 72.7216,73.4158 73,72.5C 73.3333,73.8333 73.6667,75.1667 74,76.5C 74.414,76.0426 74.914,75.7093 75.5,75.5C 78.7022,77.6827 82.0356,79.6827 85.5,81.5C 86.1667,81.1667 86.8333,80.8333 87.5,80.5C 89.1789,82.1045 91.1789,82.7711 93.5,82.5C 93.5,84.8333 93.5,87.1667 93.5,89.5 Z"/></g>
<g><path style="opacity:0.6" fill="#cbcbcb" d="M 71.5,72.5 C 71.5,73.1667 71.5,73.8333 71.5,74.5C 69.8305,76.5921 68.1638,78.5921 66.5,80.5C 67.1695,77.1511 68.8361,74.4844 71.5,72.5 Z"/></g>
<g><path style="opacity:1" fill="#a4a4a4" d="M 268.5,58.5 C 269.496,58.4142 270.329,58.7476 271,59.5C 275.333,66.8333 279.667,74.1667 284,81.5C 285.41,82.7875 286.91,83.9542 288.5,85C 287.833,86.3333 286.833,87.3333 285.5,88C 228.71,88.637 171.71,88.637 114.5,88C 115.942,87.6232 116.942,86.7899 117.5,85.5C 170.458,84.5088 223.458,84.1754 276.5,84.5C 276.5,83.5 276.5,82.5 276.5,81.5C 277.712,82.2299 278.712,83.2299 279.5,84.5C 279.833,84.1667 280.167,83.8333 280.5,83.5C 279.846,81.8849 279.346,80.2182 279,78.5C 276.086,71.4482 272.586,64.7816 268.5,58.5 Z"/></g>
<g><path style="opacity:1" fill="#c0c0c0" d="M 66.5,80.5 C 66.4077,82.8477 65.4077,84.5144 63.5,85.5C 63.7497,83.326 64.7497,81.6594 66.5,80.5 Z"/></g>
<g><path style="opacity:1" fill="#a5a5a5" d="M 50.5,89.5 C 50.5,89.8333 50.5,90.1667 50.5,90.5C 42.8333,90.5 35.1667,90.5 27.5,90.5C 27.5,90.1667 27.5,89.8333 27.5,89.5C 35.0068,88.4383 42.6735,88.4383 50.5,89.5 Z"/></g>
<g><path style="opacity:0.796" fill="#b8b8b8" d="M 63.5,85.5 C 63.1667,86.8333 62.8333,88.1667 62.5,89.5C 61.8333,89.5 61.5,89.8333 61.5,90.5C 57.8333,90.5 54.1667,90.5 50.5,90.5C 50.5,90.1667 50.5,89.8333 50.5,89.5C 53.8499,89.665 57.1832,89.4983 60.5,89C 61.1634,87.4815 62.1634,86.3149 63.5,85.5 Z"/></g>
<g><path style="opacity:1" fill="#6b6b6b" d="M 61.5,90.5 C 61.5,89.8333 61.8333,89.5 62.5,89.5C 72.8333,89.5 83.1667,89.5 93.5,89.5C 164.998,90.4992 236.665,90.8326 308.5,90.5C 314.167,90.5 319.833,90.5 325.5,90.5C 331.952,90.0845 338.285,90.5845 344.5,92C 343.944,92.3826 343.611,92.8826 343.5,93.5C 341.61,93.2965 340.11,93.9632 339,95.5C 321.299,93.1581 303.465,92.1581 285.5,92.5C 252.833,92.5 220.167,92.5 187.5,92.5C 157.5,92.5 127.5,92.5 97.5,92.5C 88.3483,91.5064 79.015,91.1731 69.5,91.5C 67.0521,90.5269 64.3854,90.1936 61.5,90.5 Z"/></g>
<g><path style="opacity:1" fill="#b6b6b6" d="M 27.5,89.5 C 27.5,89.8333 27.5,90.1667 27.5,90.5C 26.5,91.1667 25.5,91.8333 24.5,92.5C 24.5,90.5 25.5,89.5 27.5,89.5 Z"/></g>
<g><path style="opacity:1" fill="#5c5c5c" d="M 27.5,90.5 C 35.1667,90.5 42.8333,90.5 50.5,90.5C 54.1667,90.5 57.8333,90.5 61.5,90.5C 64.3854,90.1936 67.0521,90.5269 69.5,91.5C 64.7144,100.061 61.0477,109.228 58.5,119C 59.385,121.157 61.0516,121.99 63.5,121.5C 62.6016,122.158 61.6016,122.824 60.5,123.5C 61.0253,124.192 61.6919,124.692 62.5,125C 80.4969,125.5 98.4969,125.667 116.5,125.5C 107.173,126.166 97.6726,126.5 88,126.5C 77.3806,126.428 66.8806,125.761 56.5,124.5C 55.6428,117.418 56.8095,110.751 60,104.5C 61.1163,101.18 61.783,97.847 62,94.5C 57.9527,102.633 54.2861,110.966 51,119.5C 50.4209,120.928 50.5876,122.262 51.5,123.5C 49.4205,122.956 47.4205,122.122 45.5,121C 35.6622,119.885 25.9956,120.552 16.5,123C 14.9632,124.11 14.2965,125.61 14.5,127.5C 13.1667,126.833 12.1667,125.833 11.5,124.5C 11.3894,122.352 12.056,122.019 13.5,123.5C 14.7003,122.469 16.0337,121.635 17.5,121C 25.3036,119.702 32.9703,118.202 40.5,116.5C 39.9999,112.836 41.1666,109.836 44,107.5C 44.096,104.549 44.9293,101.882 46.5,99.5C 45.624,98.7492 44.624,98.2492 43.5,98C 47.0822,96.3512 50.7489,94.8512 54.5,93.5C 44.2737,92.5726 34.2737,92.2392 24.5,92.5C 25.5,91.8333 26.5,91.1667 27.5,90.5 Z"/></g>
<g><path style="opacity:1" fill="#696969" d="M 24.5,92.5 C 34.2737,92.2392 44.2737,92.5726 54.5,93.5C 50.7489,94.8512 47.0822,96.3512 43.5,98C 44.624,98.2492 45.624,98.7492 46.5,99.5C 44.9293,101.882 44.096,104.549 44,107.5C 41.1666,109.836 39.9999,112.836 40.5,116.5C 32.9703,118.202 25.3036,119.702 17.5,121C 16.0337,121.635 14.7003,122.469 13.5,123.5C 12.056,122.019 11.3894,122.352 11.5,124.5C 10.3709,122.372 10.2042,120.039 11,117.5C 15.02,108.786 19.52,100.453 24.5,92.5 Z"/></g>
<g><path style="opacity:1" fill="#787878" d="M 325.5,90.5 C 330.975,89.5111 336.642,89.1778 342.5,89.5C 344.19,89.8564 345.19,90.8564 345.5,92.5C 344.997,95.4844 344.664,98.4844 344.5,101.5C 347.196,105.53 348.696,109.863 349,114.5C 344.951,117.311 340.451,119.144 335.5,120C 338.579,120.973 341.579,121.806 344.5,122.5C 339.167,122.5 333.833,122.5 328.5,122.5C 240.335,121.501 152.002,121.167 63.5,121.5C 61.0516,121.99 59.385,121.157 58.5,119C 61.0477,109.228 64.7144,100.061 69.5,91.5C 79.015,91.1731 88.3483,91.5064 97.5,92.5C 88.8269,92.3336 80.1603,92.5002 71.5,93C 66.2877,101.469 62.9543,110.636 61.5,120.5C 110.834,120.667 160.168,120.5 209.5,120C 219.2,119.755 228.866,119.255 238.5,118.5C 238.5,111.5 238.5,104.5 238.5,97.5C 243.566,97.6601 248.566,97.1601 253.5,96C 248.167,95.3333 248.167,94.6667 253.5,94C 231.33,93.832 209.33,93.332 187.5,92.5C 220.167,92.5 252.833,92.5 285.5,92.5C 288.689,93.1661 292.023,93.8328 295.5,94.5C 289.898,95.7045 284.398,97.3712 279,99.5C 280.122,105.7 280.622,112.033 280.5,118.5C 298.17,118.667 315.836,118.5 333.5,118C 337.49,116.673 341.49,115.34 345.5,114C 343.539,110.605 341.873,107.105 340.5,103.5C 341.475,100.135 342.475,96.8013 343.5,93.5C 343.611,92.8826 343.944,92.3826 344.5,92C 338.285,90.5845 331.952,90.0845 325.5,90.5 Z"/></g>
<g><path style="opacity:1" fill="#808080" d="M 97.5,92.5 C 127.5,92.5 157.5,92.5 187.5,92.5C 209.33,93.332 231.33,93.832 253.5,94C 248.167,94.6667 248.167,95.3333 253.5,96C 248.566,97.1601 243.566,97.6601 238.5,97.5C 238.5,104.5 238.5,111.5 238.5,118.5C 228.866,119.255 219.2,119.755 209.5,120C 160.168,120.5 110.834,120.667 61.5,120.5C 62.9543,110.636 66.2877,101.469 71.5,93C 80.1603,92.5002 88.8269,92.3336 97.5,92.5 Z"/></g>
<g><path style="opacity:1" fill="#737373" d="M 285.5,92.5 C 303.465,92.1581 321.299,93.1581 339,95.5C 340.11,93.9632 341.61,93.2965 343.5,93.5C 342.475,96.8013 341.475,100.135 340.5,103.5C 341.873,107.105 343.539,110.605 345.5,114C 341.49,115.34 337.49,116.673 333.5,118C 315.836,118.5 298.17,118.667 280.5,118.5C 280.622,112.033 280.122,105.7 279,99.5C 284.398,97.3712 289.898,95.7045 295.5,94.5C 292.023,93.8328 288.689,93.1661 285.5,92.5 Z"/></g>
<g><path style="opacity:1" fill="#848484" d="M 92.5,94.5 C 121.123,94.4325 149.79,94.5992 178.5,95C 163.5,95.3333 148.5,95.6667 133.5,96C 132.572,96.3879 131.905,97.0546 131.5,98C 133.429,99.6942 134.429,101.861 134.5,104.5C 138.833,104.5 143.167,104.5 147.5,104.5C 147.5,103.167 147.5,101.833 147.5,100.5C 152.167,100.5 156.833,100.5 161.5,100.5C 161.5,101.833 161.5,103.167 161.5,104.5C 166.5,104.5 171.5,104.5 176.5,104.5C 176.5,108.833 176.5,113.167 176.5,117.5C 166.999,117.029 157.666,117.529 148.5,119C 124.167,119.667 99.8333,119.667 75.5,119C 69.5889,118.511 69.0889,116.344 74,112.5C 74.3333,110.167 74.6667,107.833 75,105.5C 76.0113,104.663 77.1779,104.33 78.5,104.5C 78.5,101.5 78.5,98.5 78.5,95.5C 83.3633,95.8195 88.03,95.4861 92.5,94.5 Z"/></g>
<g><path style="opacity:1" fill="#868686" d="M 345.5,92.5 C 348.669,96.833 351.336,101.5 353.5,106.5C 354.053,108.939 354.053,111.273 353.5,113.5C 354.183,116.461 355.016,116.795 356,114.5C 357.23,115.275 357.563,116.275 357,117.5C 353.27,118.46 349.437,118.793 345.5,118.5C 345.285,120.179 345.952,121.179 347.5,121.5C 347.833,121.5 348.167,121.5 348.5,121.5C 348.414,122.496 348.748,123.329 349.5,124C 351.134,124.494 352.801,124.66 354.5,124.5C 354.634,126.292 354.301,127.958 353.5,129.5C 353.5,130.167 353.167,130.5 352.5,130.5C 352.5,128.833 352.5,127.167 352.5,125.5C 349.465,125.461 346.798,124.461 344.5,122.5C 341.579,121.806 338.579,120.973 335.5,120C 340.451,119.144 344.951,117.311 349,114.5C 348.696,109.863 347.196,105.53 344.5,101.5C 344.664,98.4844 344.997,95.4844 345.5,92.5 Z"/></g>
<g><path style="opacity:1" fill="#737373" d="M 56.5,124.5 C 56.2648,125.097 55.7648,125.43 55,125.5C 53.6974,125.022 52.5307,124.355 51.5,123.5C 50.5876,122.262 50.4209,120.928 51,119.5C 54.2861,110.966 57.9527,102.633 62,94.5C 61.783,97.847 61.1163,101.18 60,104.5C 56.8095,110.751 55.6428,117.418 56.5,124.5 Z"/></g>
<g><path style="opacity:1" fill="#9c9c9c" d="M 353.5,106.5 C 356.206,111.242 358.539,116.242 360.5,121.5C 359.522,125.471 357.189,128.138 353.5,129.5C 354.301,127.958 354.634,126.292 354.5,124.5C 352.801,124.66 351.134,124.494 349.5,124C 348.748,123.329 348.414,122.496 348.5,121.5C 351.187,121.664 353.854,121.497 356.5,121C 355.056,119.936 353.389,119.436 351.5,119.5C 349.667,119.585 348.334,120.252 347.5,121.5C 345.952,121.179 345.285,120.179 345.5,118.5C 349.437,118.793 353.27,118.46 357,117.5C 357.563,116.275 357.23,115.275 356,114.5C 355.016,116.795 354.183,116.461 353.5,113.5C 354.053,111.273 354.053,108.939 353.5,106.5 Z"/></g>
<g><path style="opacity:1" fill="#cbcbcb" d="M 348.5,121.5 C 348.167,121.5 347.833,121.5 347.5,121.5C 348.334,120.252 349.667,119.585 351.5,119.5C 353.389,119.436 355.056,119.936 356.5,121C 353.854,121.497 351.187,121.664 348.5,121.5 Z"/></g>
<g><path style="opacity:1" fill="#676767" d="M 63.5,121.5 C 152.002,121.167 240.335,121.501 328.5,122.5C 264.314,122.038 200.314,123.038 136.5,125.5C 129.833,125.5 123.167,125.5 116.5,125.5C 98.4969,125.667 80.4969,125.5 62.5,125C 61.6919,124.692 61.0253,124.192 60.5,123.5C 61.6016,122.824 62.6016,122.158 63.5,121.5 Z"/></g>
<g><path style="opacity:1" fill="#5f5f5f" d="M 328.5,122.5 C 333.833,122.5 339.167,122.5 344.5,122.5C 346.798,124.461 349.465,125.461 352.5,125.5C 352.5,127.167 352.5,128.833 352.5,130.5C 352.167,130.5 351.833,130.5 351.5,130.5C 350.201,129.755 348.868,128.255 347.5,126C 344.532,125.306 341.532,124.806 338.5,124.5C 271.179,125.486 203.846,125.82 136.5,125.5C 200.314,123.038 264.314,122.038 328.5,122.5 Z"/></g>
<g><path style="opacity:1" fill="#585858" d="M 51.5,123.5 C 52.5307,124.355 53.6974,125.022 55,125.5C 55.7648,125.43 56.2648,125.097 56.5,124.5C 66.8806,125.761 77.3806,126.428 88,126.5C 97.6726,126.5 107.173,126.166 116.5,125.5C 123.167,125.5 129.833,125.5 136.5,125.5C 203.846,125.82 271.179,125.486 338.5,124.5C 341.532,124.806 344.532,125.306 347.5,126C 348.868,128.255 350.201,129.755 351.5,130.5C 350.5,130.833 349.833,131.5 349.5,132.5C 348.508,132.328 347.842,132.662 347.5,133.5C 346.5,133.5 345.5,133.5 344.5,133.5C 251.598,132.168 158.598,132.168 65.5,133.5C 63.8828,132.962 62.2161,132.629 60.5,132.5C 58.5201,130.895 56.1868,129.728 53.5,129C 46.5,128.333 39.5,128.333 32.5,129C 28.8334,129.571 25.5,130.737 22.5,132.5C 21.609,131.89 20.609,131.557 19.5,131.5C 18.4154,129.413 16.7488,128.08 14.5,127.5C 14.2965,125.61 14.9632,124.11 16.5,123C 25.9956,120.552 35.6622,119.885 45.5,121C 47.4205,122.122 49.4205,122.956 51.5,123.5 Z"/></g>
<g><path style="opacity:1" fill="#959595" d="M 14.5,127.5 C 16.7488,128.08 18.4154,129.413 19.5,131.5C 17.2512,130.92 15.5846,129.587 14.5,127.5 Z"/></g>
<g><path style="opacity:1" fill="#6e6e6e" d="M 60.5,132.5 C 47.8333,132.5 35.1667,132.5 22.5,132.5C 25.5,130.737 28.8334,129.571 32.5,129C 39.5,128.333 46.5,128.333 53.5,129C 56.1868,129.728 58.5201,130.895 60.5,132.5 Z"/></g>
<g><path style="opacity:0.043" fill="#d6d6d6" d="M 351.5,130.5 C 351.833,130.5 352.167,130.5 352.5,130.5C 352.027,131.906 351.027,132.573 349.5,132.5C 349.833,131.5 350.5,130.833 351.5,130.5 Z"/></g>
<g><path style="opacity:1" fill="#a4a4a4" d="M 344.5,133.5 C 254.167,133.5 163.833,133.5 73.5,133.5C 71.5,133.5 69.5,133.5 67.5,133.5C 67.9606,153.87 69.1273,174.204 71,194.5C 74.115,216.918 76.2816,239.418 77.5,262C 77.2032,264.838 76.8699,267.671 76.5,270.5C 80.9089,316.495 84.9089,362.828 88.5,409.5C 87.3065,409.03 86.6399,408.03 86.5,406.5C 79.0845,320.517 71.9178,234.517 65,148.5C 64.2223,143.416 64.3889,138.416 65.5,133.5C 158.598,132.168 251.598,132.168 344.5,133.5 Z"/></g>
<g><path style="opacity:1" fill="#ababab" d="M 73.5,133.5 C 72.4324,134.434 71.099,134.768 69.5,134.5C 71.1439,137.606 72.3106,141.606 73,146.5C 73.47,151.836 73.97,157.17 74.5,162.5C 73.5563,169.152 73.3896,175.819 74,182.5C 80.0218,246.133 85.5218,309.8 90.5,373.5C 91.5,373.5 92.5,373.5 93.5,373.5C 94.5084,385.564 95.8418,397.564 97.5,409.5C 94.5,409.5 91.5,409.5 88.5,409.5C 84.9089,362.828 80.9089,316.495 76.5,270.5C 76.8699,267.671 77.2032,264.838 77.5,262C 76.2816,239.418 74.115,216.918 71,194.5C 69.1273,174.204 67.9606,153.87 67.5,133.5C 69.5,133.5 71.5,133.5 73.5,133.5 Z"/></g>
<g><path style="opacity:1" fill="#b1b1b1" d="M 73.5,133.5 C 163.833,133.5 254.167,133.5 344.5,133.5C 345.5,133.5 346.5,133.5 347.5,133.5C 347.5,133.833 347.5,134.167 347.5,134.5C 344.813,134.336 342.146,134.503 339.5,135C 339.324,140.48 339.658,146.146 340.5,152C 340.386,155.289 339.719,158.456 338.5,161.5C 339.123,164.445 339.456,167.445 339.5,170.5C 336.985,194.466 334.985,218.466 333.5,242.5C 333.532,244.759 333.866,246.925 334.5,249C 331.771,261.805 331.104,274.472 332.5,287C 332.248,290.707 331.415,294.207 330,297.5C 329.095,327.028 326.428,356.361 322,385.5C 321.333,392.5 321.333,399.5 322,406.5C 322.513,407.527 323.013,408.527 323.5,409.5C 248.167,409.5 172.833,409.5 97.5,409.5C 95.8418,397.564 94.5084,385.564 93.5,373.5C 92.5,373.5 91.5,373.5 90.5,373.5C 85.5218,309.8 80.0218,246.133 74,182.5C 73.3896,175.819 73.5563,169.152 74.5,162.5C 73.97,157.17 73.47,151.836 73,146.5C 72.3106,141.606 71.1439,137.606 69.5,134.5C 71.099,134.768 72.4324,134.434 73.5,133.5 Z"/></g>
<g><path style="opacity:1" fill="#969696" d="M 19.5,131.5 C 20.609,131.557 21.609,131.89 22.5,132.5C 35.1667,132.5 47.8333,132.5 60.5,132.5C 62.2161,132.629 63.8828,132.962 65.5,133.5C 64.3889,138.416 64.2223,143.416 65,148.5C 71.9178,234.517 79.0845,320.517 86.5,406.5C 86.6399,408.03 87.3065,409.03 88.5,409.5C 91.5,409.5 94.5,409.5 97.5,409.5C 172.833,409.5 248.167,409.5 323.5,409.5C 324.5,409.5 325.5,409.5 326.5,409.5C 326.5,409.833 326.5,410.167 326.5,410.5C 261.833,410.5 197.167,410.5 132.5,410.5C 117.5,410.5 102.5,410.5 87.5,410.5C 72.8333,410.5 58.1667,410.5 43.5,410.5C 42.0511,388.304 40.0511,366.304 37.5,344.5C 37.5,344.167 37.5,343.833 37.5,343.5C 37.6388,335.618 36.9721,327.951 35.5,320.5C 35.5,320.167 35.5,319.833 35.5,319.5C 35.5875,311.291 34.9208,303.291 33.5,295.5C 33.5,295.167 33.5,294.833 33.5,294.5C 33.5389,286.626 32.8722,278.96 31.5,271.5C 28.2056,225.348 24.8723,179.348 21.5,133.5C 20.5,133.167 19.8333,132.5 19.5,131.5 Z"/></g>
<g><path style="opacity:1" fill="#b8b8b8" d="M 347.5,134.5 C 344.5,179.168 341.5,223.834 338.5,268.5C 338.5,268.833 338.5,269.167 338.5,269.5C 336.839,271.633 335.839,274.133 335.5,277C 336.369,282.129 336.702,287.296 336.5,292.5C 334.723,304.29 333.723,316.29 333.5,328.5C 330.725,355.316 328.392,382.316 326.5,409.5C 325.5,409.5 324.5,409.5 323.5,409.5C 323.013,408.527 322.513,407.527 322,406.5C 321.333,399.5 321.333,392.5 322,385.5C 326.428,356.361 329.095,327.028 330,297.5C 331.415,294.207 332.248,290.707 332.5,287C 331.104,274.472 331.771,261.805 334.5,249C 333.866,246.925 333.532,244.759 333.5,242.5C 334.985,218.466 336.985,194.466 339.5,170.5C 339.456,167.445 339.123,164.445 338.5,161.5C 339.719,158.456 340.386,155.289 340.5,152C 339.658,146.146 339.324,140.48 339.5,135C 342.146,134.503 344.813,134.336 347.5,134.5 Z"/></g>
<g><path style="opacity:0.367" fill="#e0e0e0" d="M 349.5,132.5 C 346.54,177.985 342.873,223.319 338.5,268.5C 341.5,223.834 344.5,179.168 347.5,134.5C 347.5,134.167 347.5,133.833 347.5,133.5C 347.842,132.662 348.508,132.328 349.5,132.5 Z"/></g>
<g><path style="opacity:1" fill="#e9e9e9" d="M 266.5,268.5 C 253.94,259.297 241.44,249.964 229,240.5C 228.333,239.833 228.333,239.167 229,238.5C 231,237.167 233,235.833 235,234.5C 235.781,233.056 235.614,231.723 234.5,230.5C 229.056,221.675 223.889,212.675 219,203.5C 215.495,198.333 210.662,195.666 204.5,195.5C 200.305,195.681 196.805,197.347 194,200.5C 190.515,206.301 187.515,212.301 185,218.5C 183.89,220.037 182.39,220.703 180.5,220.5C 176.672,219.114 173.005,217.281 169.5,215C 167.785,214.223 166.785,212.89 166.5,211C 170.635,200.549 176.635,191.383 184.5,183.5C 192.707,176.97 202.041,174.803 212.5,177C 220.876,178.724 227.71,182.891 233,189.5C 239.5,200.453 245.667,211.453 251.5,222.5C 255.041,221.241 258.708,220.241 262.5,219.5C 264.993,235.808 267.327,252.141 269.5,268.5C 268.5,268.5 267.5,268.5 266.5,268.5 Z"/></g>
<g><path style="opacity:0.343" fill="#d9d9d9" d="M 21.5,133.5 C 24.8723,179.348 28.2056,225.348 31.5,271.5C 26.6811,225.755 23.3478,179.755 21.5,133.5 Z"/></g>
<g><path style="opacity:1" fill="#a4a4a4" d="M 184.5,183.5 C 176.635,191.383 170.635,200.549 166.5,211C 166.785,212.89 167.785,214.223 169.5,215C 173.005,217.281 176.672,219.114 180.5,220.5C 180.209,221.649 179.376,222.316 178,222.5C 172.965,220.651 168.132,218.318 163.5,215.5C 162.108,210.97 162.608,206.637 165,202.5C 170.028,199.616 173.528,195.282 175.5,189.5C 178.537,186.961 181.37,184.294 184,181.5C 184.464,182.094 184.631,182.761 184.5,183.5 Z"/></g>
<g><path style="opacity:1" fill="#e9e9e9" d="M 170.5,323.5 C 170.5,329.833 170.5,336.167 170.5,342.5C 163.833,342.5 157.167,342.5 150.5,342.5C 149.167,342.5 147.833,342.5 146.5,342.5C 132.874,340.203 123.874,332.537 119.5,319.5C 115.625,308.614 117.125,298.614 124,289.5C 124.49,288.207 124.657,286.873 124.5,285.5C 129.142,276.887 133.808,268.221 138.5,259.5C 136.147,257.477 133.814,255.477 131.5,253.5C 142.643,243.864 153.976,234.364 165.5,225C 167.217,223.441 169.217,222.608 171.5,222.5C 170.096,239.261 167.929,255.927 165,272.5C 161.899,272.894 159.065,271.894 156.5,269.5C 149.511,280.135 143.011,291.135 137,302.5C 134.974,311.437 137.807,318.27 145.5,323C 153.827,323.5 162.16,323.666 170.5,323.5 Z"/></g>
<g><path style="opacity:1" fill="#9c9c9c" d="M 204.5,195.5 C 210.662,195.666 215.495,198.333 219,203.5C 223.889,212.675 229.056,221.675 234.5,230.5C 235.614,231.723 235.781,233.056 235,234.5C 233,235.833 231,237.167 229,238.5C 228.333,239.167 228.333,239.833 229,240.5C 241.44,249.964 253.94,259.297 266.5,268.5C 264.911,269.621 263.244,269.454 261.5,268C 250.065,258.543 238.232,249.71 226,241.5C 225.833,241 225.667,240.5 225.5,240C 227.276,238.294 228.942,236.461 230.5,234.5C 224.125,222.857 217.292,211.523 210,200.5C 209.517,199.552 209.351,198.552 209.5,197.5C 207.447,197.598 205.78,196.931 204.5,195.5 Z"/></g>
<g><path style="opacity:1" fill="#d3d3d3" d="M 338.5,269.5 C 338.639,277.382 337.972,285.049 336.5,292.5C 336.702,287.296 336.369,282.129 335.5,277C 335.839,274.133 336.839,271.633 338.5,269.5 Z"/></g>
<g><path style="opacity:1" fill="#e9e9e9" d="M 222.5,351.5 C 208.137,346.496 193.804,341.163 179.5,335.5C 179.511,333.983 180.177,332.816 181.5,332C 195.869,324.978 210.536,318.811 225.5,313.5C 225.5,316.5 225.5,319.5 225.5,322.5C 238.837,322.667 252.171,322.5 265.5,322C 270.079,320.256 273.079,317.09 274.5,312.5C 275.58,309.257 275.747,305.924 275,302.5C 270.634,295.766 266.801,288.766 263.5,281.5C 268.344,278.244 273.344,275.244 278.5,272.5C 280.029,272.529 281.196,273.196 282,274.5C 283.825,277.311 285.158,280.311 286,283.5C 298.434,301.937 296.934,319.437 281.5,336C 278.198,337.651 274.864,339.318 271.5,341C 256.216,342.418 240.883,342.918 225.5,342.5C 225.5,345.5 225.5,348.5 225.5,351.5C 224.5,351.5 223.5,351.5 222.5,351.5 Z"/></g>
<g><path style="opacity:0.524" fill="#d9d9d9" d="M 31.5,271.5 C 32.8722,278.96 33.5389,286.626 33.5,294.5C 31.9422,287.056 31.2755,279.389 31.5,271.5 Z"/></g>
<g><path style="opacity:0.422" fill="#e1e1e1" d="M 336.5,292.5 C 336.26,304.709 335.26,316.709 333.5,328.5C 333.723,316.29 334.723,304.29 336.5,292.5 Z"/></g>
<g><path style="opacity:1" fill="#959595" d="M 263.5,281.5 C 266.801,288.766 270.634,295.766 275,302.5C 275.747,305.924 275.58,309.257 274.5,312.5C 273.883,312.611 273.383,312.944 273,313.5C 272.067,303.113 268.401,293.779 262,285.5C 261.333,284.167 261.333,282.833 262,281.5C 262.69,280.262 263.19,280.262 263.5,281.5 Z"/></g>
<g><path style="opacity:1" fill="#cccccc" d="M 124.5,285.5 C 124.657,286.873 124.49,288.207 124,289.5C 117.125,298.614 115.625,308.614 119.5,319.5C 117.933,318.319 117.099,316.653 117,314.5C 114.733,303.487 117.233,293.821 124.5,285.5 Z"/></g>
<g><path style="opacity:0.4" fill="#d8d8d8" d="M 33.5,295.5 C 34.9208,303.291 35.5875,311.291 35.5,319.5C 34.0792,311.709 33.4125,303.709 33.5,295.5 Z"/></g>
<g><path style="opacity:0.478" fill="#dbdbdb" d="M 35.5,320.5 C 36.9721,327.951 37.6388,335.618 37.5,343.5C 36.2381,336.031 35.5715,328.365 35.5,320.5 Z"/></g>
<g><path style="opacity:1" fill="#959595" d="M 131.5,253.5 C 133.814,255.477 136.147,257.477 138.5,259.5C 133.808,268.221 129.142,276.887 124.5,285.5C 117.233,293.821 114.733,303.487 117,314.5C 117.099,316.653 117.933,318.319 119.5,319.5C 123.874,332.537 132.874,340.203 146.5,342.5C 144.372,343.629 142.039,343.796 139.5,343C 124.009,336.332 115.342,324.665 113.5,308C 116.415,294.669 121.915,282.503 130,271.5C 132.007,267.641 133.507,263.641 134.5,259.5C 133.5,259.5 132.5,259.5 131.5,259.5C 131.617,257.516 130.95,255.85 129.5,254.5C 129.957,253.702 130.624,253.369 131.5,253.5 Z"/></g>
<g><path style="opacity:1" fill="#cbcbcb" d="M 170.5,323.5 C 171.491,329.979 171.824,336.646 171.5,343.5C 164.313,343.825 157.313,343.491 150.5,342.5C 157.167,342.5 163.833,342.5 170.5,342.5C 170.5,336.167 170.5,329.833 170.5,323.5 Z"/></g>
<g><path style="opacity:1" fill="#969696" d="M 179.5,335.5 C 193.804,341.163 208.137,346.496 222.5,351.5C 222.611,352.117 222.944,352.617 223.5,353C 222.167,353.667 220.833,353.667 219.5,353C 205.215,347.186 190.882,341.686 176.5,336.5C 176.694,332.995 177.694,332.662 179.5,335.5 Z"/></g>
<g><path style="opacity:0.752" fill="#cecece" d="M 333.5,328.5 C 331.897,355.86 329.897,383.193 327.5,410.5C 327.167,410.5 326.833,410.5 326.5,410.5C 326.5,410.167 326.5,409.833 326.5,409.5C 328.392,382.316 330.725,355.316 333.5,328.5 Z"/></g>
<g><path style="opacity:0.21" fill="#d6d6d6" d="M 37.5,344.5 C 40.0511,366.304 42.0511,388.304 43.5,410.5C 42.1667,410.833 40.8333,411.167 39.5,411.5C 40.7142,410.374 41.7142,409.041 42.5,407.5C 40.0517,386.568 38.385,365.568 37.5,344.5 Z"/></g>
<g><path style="opacity:1" fill="#7a7a7a" d="M 87.5,410.5 C 102.5,410.5 117.5,410.5 132.5,410.5C 133.263,411.268 134.263,411.768 135.5,412C 170.167,412.333 204.833,412.667 239.5,413C 189.52,415.458 139.52,416.291 89.5,415.5C 87.5,415.5 85.5,415.5 83.5,415.5C 83.5,414.167 83.5,412.833 83.5,411.5C 85.099,411.768 86.4324,411.434 87.5,410.5 Z"/></g>
<g><path style="opacity:1" fill="#737373" d="M 132.5,410.5 C 197.167,410.5 261.833,410.5 326.5,410.5C 323.087,413.345 319.087,415.345 314.5,416.5C 317.07,417.223 319.403,418.39 321.5,420C 322.252,420.671 322.586,421.504 322.5,422.5C 318.044,421.803 313.71,420.636 309.5,419C 304.167,418.667 298.833,418.333 293.5,418C 231.459,417.83 169.459,417.33 107.5,416.5C 106.707,416.931 105.873,417.265 105,417.5C 99.6872,416.902 94.5206,416.235 89.5,415.5C 139.52,416.291 189.52,415.458 239.5,413C 204.833,412.667 170.167,412.333 135.5,412C 134.263,411.768 133.263,411.268 132.5,410.5 Z"/></g>
<g><path style="opacity:1" fill="#b7b7b7" d="M 327.5,410.5 C 328.79,411.058 329.623,412.058 330,413.5C 330.816,418.684 330.65,423.684 329.5,428.5C 329.666,423.821 329.499,419.155 329,414.5C 328.502,417.482 328.335,420.482 328.5,423.5C 324.51,424.176 322.843,422.51 323.5,418.5C 322.884,414.616 324.55,412.782 328.5,413C 327.748,412.329 327.414,411.496 327.5,410.5 Z"/></g>
<g><path style="opacity:1" fill="#545454" d="M 78.5,415.5 C 78.6458,419.519 78.9791,423.519 79.5,427.5C 78.7784,427.082 78.2784,426.416 78,425.5C 77.8357,428.84 76.3357,431.34 73.5,433C 75.5767,433.192 77.5767,433.692 79.5,434.5C 69.8505,435.332 60.1838,435.832 50.5,436C 65.6275,437.082 80.6275,437.916 95.5,438.5C 86.1667,438.5 76.8333,438.5 67.5,438.5C 61.8236,438.666 56.1569,438.499 50.5,438C 47.9963,437.302 45.663,436.469 43.5,435.5C 43.1667,434.5 42.5,433.833 41.5,433.5C 41.5,433.167 41.5,432.833 41.5,432.5C 46.3375,430.633 51.0041,430.3 55.5,431.5C 61.1369,430.757 66.8036,430.257 72.5,430C 74.6574,428.915 74.8241,427.749 73,426.5C 72.502,423.518 72.3354,420.518 72.5,417.5C 74.7028,417.396 76.7028,416.73 78.5,415.5 Z"/></g>
<g><path style="opacity:1" fill="#6c6c6c" d="M 43.5,410.5 C 58.1667,410.5 72.8333,410.5 87.5,410.5C 86.4324,411.434 85.099,411.768 83.5,411.5C 83.5,412.833 83.5,414.167 83.5,415.5C 85.5,415.5 87.5,415.5 89.5,415.5C 94.5206,416.235 99.6872,416.902 105,417.5C 105.873,417.265 106.707,416.931 107.5,416.5C 169.459,417.33 231.459,417.83 293.5,418C 298.833,418.333 304.167,418.667 309.5,419C 313.71,420.636 318.044,421.803 322.5,422.5C 323.81,424.148 325.143,425.814 326.5,427.5C 326.167,428.167 325.833,428.833 325.5,429.5C 326.853,430.524 327.52,431.857 327.5,433.5C 327.027,434.906 326.027,435.573 324.5,435.5C 324.567,434.041 324.234,432.708 323.5,431.5C 323.938,431.565 324.272,431.399 324.5,431C 323.833,429 323.167,427 322.5,425C 318.954,423.483 315.288,422.15 311.5,421C 261.843,419.474 212.177,419.141 162.5,420C 152.141,420.656 141.808,421.489 131.5,422.5C 131.244,424.792 131.577,426.959 132.5,429C 137.167,429.333 141.833,429.667 146.5,430C 137.5,430.333 128.5,430.667 119.5,431C 120.416,431.278 121.082,431.778 121.5,432.5C 110.167,432.5 98.8333,432.5 87.5,432.5C 86.5,432.5 85.5,432.5 84.5,432.5C 80.5,433.167 78.8333,431.5 79.5,427.5C 78.9791,423.519 78.6458,419.519 78.5,415.5C 77.7261,414.853 76.7261,414.52 75.5,414.5C 64.4614,415.027 53.4614,415.86 42.5,417C 41.1059,417.956 40.4393,419.289 40.5,421C 41.5919,424.959 41.9252,428.793 41.5,432.5C 41.5,432.833 41.5,433.167 41.5,433.5C 41.1667,433.5 40.8333,433.5 40.5,433.5C 37.6395,427.206 36.8062,420.539 38,413.5C 38.2784,412.584 38.7784,411.918 39.5,411.5C 40.8333,411.167 42.1667,410.833 43.5,410.5 Z"/></g>
<g><path style="opacity:1" fill="#565656" d="M 78.5,415.5 C 76.7028,416.73 74.7028,417.396 72.5,417.5C 72.3354,420.518 72.502,423.518 73,426.5C 74.8241,427.749 74.6574,428.915 72.5,430C 66.8036,430.257 61.1369,430.757 55.5,431.5C 51.0041,430.3 46.3375,430.633 41.5,432.5C 41.9252,428.793 41.5919,424.959 40.5,421C 40.4393,419.289 41.1059,417.956 42.5,417C 53.4614,415.86 64.4614,415.027 75.5,414.5C 76.7261,414.52 77.7261,414.853 78.5,415.5 Z"/></g>
<g><path style="opacity:1" fill="#676767" d="M 323.5,431.5 C 322.819,429.842 321.985,428.175 321,426.5C 320.586,426.957 320.086,427.291 319.5,427.5C 316.848,425.418 313.848,424.085 310.5,423.5C 284.364,423.536 258.197,423.536 232,423.5C 224.244,424.956 216.41,425.622 208.5,425.5C 208.5,426.5 208.5,427.5 208.5,428.5C 207.127,428.343 205.793,428.51 204.5,429C 204.833,429.333 205.167,429.667 205.5,430C 209.584,430.231 213.584,430.898 217.5,432C 185.502,432.5 153.502,432.667 121.5,432.5C 121.082,431.778 120.416,431.278 119.5,431C 128.5,430.667 137.5,430.333 146.5,430C 141.833,429.667 137.167,429.333 132.5,429C 131.577,426.959 131.244,424.792 131.5,422.5C 141.808,421.489 152.141,420.656 162.5,420C 212.177,419.141 261.843,419.474 311.5,421C 315.288,422.15 318.954,423.483 322.5,425C 323.167,427 323.833,429 324.5,431C 324.272,431.399 323.938,431.565 323.5,431.5 Z"/></g>
<g><path style="opacity:1" fill="#8d8d8d" d="M 326.5,410.5 C 326.833,410.5 327.167,410.5 327.5,410.5C 327.414,411.496 327.748,412.329 328.5,413C 324.55,412.782 322.884,414.616 323.5,418.5C 322.843,422.51 324.51,424.176 328.5,423.5C 328.335,420.482 328.502,417.482 329,414.5C 329.499,419.155 329.666,423.821 329.5,428.5C 329.88,430.698 329.213,432.365 327.5,433.5C 327.52,431.857 326.853,430.524 325.5,429.5C 325.833,428.833 326.167,428.167 326.5,427.5C 325.143,425.814 323.81,424.148 322.5,422.5C 322.586,421.504 322.252,420.671 321.5,420C 319.403,418.39 317.07,417.223 314.5,416.5C 319.087,415.345 323.087,413.345 326.5,410.5 Z"/></g>
<g><path style="opacity:1" fill="#5f5f5f" d="M 323.5,431.5 C 324.234,432.708 324.567,434.041 324.5,435.5C 323.833,435.5 323.167,435.5 322.5,435.5C 317.349,434.673 312.016,434.173 306.5,434C 233.332,433.833 160.332,433.333 87.5,432.5C 98.8333,432.5 110.167,432.5 121.5,432.5C 153.502,432.667 185.502,432.5 217.5,432C 213.584,430.898 209.584,430.231 205.5,430C 205.167,429.667 204.833,429.333 204.5,429C 205.793,428.51 207.127,428.343 208.5,428.5C 208.5,427.5 208.5,426.5 208.5,425.5C 216.41,425.622 224.244,424.956 232,423.5C 258.197,423.536 284.364,423.536 310.5,423.5C 313.848,424.085 316.848,425.418 319.5,427.5C 320.086,427.291 320.586,426.957 321,426.5C 321.985,428.175 322.819,429.842 323.5,431.5 Z"/></g>
<g><path style="opacity:1" fill="#a7a7a7" d="M 40.5,433.5 C 40.8333,433.5 41.1667,433.5 41.5,433.5C 42.5,433.833 43.1667,434.5 43.5,435.5C 41.9731,435.573 40.9731,434.906 40.5,433.5 Z"/></g>
<g><path style="opacity:1" fill="#4a4a4a" d="M 84.5,432.5 C 85.5,432.5 86.5,432.5 87.5,432.5C 160.332,433.333 233.332,433.833 306.5,434C 312.016,434.173 317.349,434.673 322.5,435.5C 320.597,435.796 318.93,436.463 317.5,437.5C 293.844,438.336 270.177,438.669 246.5,438.5C 264.329,437.668 282.329,437.168 300.5,437C 229.492,436.891 158.492,436.224 87.5,435C 86.0577,434.623 85.0577,433.79 84.5,432.5 Z"/></g>
<g><path style="opacity:1" fill="#3c3c3c" d="M 79.5,427.5 C 78.8333,431.5 80.5,433.167 84.5,432.5C 85.0577,433.79 86.0577,434.623 87.5,435C 158.492,436.224 229.492,436.891 300.5,437C 282.329,437.168 264.329,437.668 246.5,438.5C 196.167,438.5 145.833,438.5 95.5,438.5C 80.6275,437.916 65.6275,437.082 50.5,436C 60.1838,435.832 69.8505,435.332 79.5,434.5C 77.5767,433.692 75.5767,433.192 73.5,433C 76.3357,431.34 77.8357,428.84 78,425.5C 78.2784,426.416 78.7784,427.082 79.5,427.5 Z"/></g>
<g><path style="opacity:0.714" fill="#b7b7b7" d="M 322.5,435.5 C 323.167,435.5 323.833,435.5 324.5,435.5C 324.389,436.117 324.056,436.617 323.5,437C 321.527,437.495 319.527,437.662 317.5,437.5C 318.93,436.463 320.597,435.796 322.5,435.5 Z"/></g>
<g><path style="opacity:0.235" fill="#b3b3b3" d="M 317.5,437.5 C 314.023,438.323 310.356,438.823 306.5,439C 226.666,439.832 146.999,439.666 67.5,438.5C 76.8333,438.5 86.1667,438.5 95.5,438.5C 145.833,438.5 196.167,438.5 246.5,438.5C 270.177,438.669 293.844,438.336 317.5,437.5 Z"/></g>
<g><path style="opacity:0.018" fill="#dadbda" d="M 300.5,455.5 C 300.167,455.5 299.833,455.5 299.5,455.5C 299.833,438.167 300.167,438.167 300.5,455.5 Z"/></g>
</svg>
