<?xml version="1.0" encoding="UTF-8"?>
<!DOCTYPE svg PUBLIC "-//W3C//DTD SVG 1.1//EN" "http://www.w3.org/Graphics/SVG/1.1/DTD/svg11.dtd">
<svg xmlns="http://www.w3.org/2000/svg" version="1.1" width="241px" height="200px" style="shape-rendering:geometricPrecision; text-rendering:geometricPrecision; image-rendering:optimizeQuality; fill-rule:evenodd; clip-rule:evenodd" xmlns:xlink="http://www.w3.org/1999/xlink">
<g><path style="opacity:1" fill="#fdfdfd" d="M -0.5,-0.5 C 79.8333,-0.5 160.167,-0.5 240.5,-0.5C 240.5,66.1667 240.5,132.833 240.5,199.5C 160.167,199.5 79.8333,199.5 -0.5,199.5C -0.5,132.833 -0.5,66.1667 -0.5,-0.5 Z"/></g>
<g><path style="opacity:1" fill="#181615" d="M 161.5,190.5 C 160.602,189.842 159.602,189.176 158.5,188.5C 158.863,187.817 159.196,187.15 159.5,186.5C 158.5,185.5 157.5,184.5 156.5,183.5C 166.489,185.264 176.489,187.097 186.5,189C 191.511,189.388 196.511,189.222 201.5,188.5C 202.465,178.432 203.965,168.432 206,158.5C 207.705,156.423 208.872,154.09 209.5,151.5C 210.397,152.598 211.23,152.598 212,151.5C 214.003,146.16 216.503,141.16 219.5,136.5C 219.393,138.379 219.893,138.712 221,137.5C 222.122,135.593 222.955,133.593 223.5,131.5C 226.593,127.653 228.926,123.32 230.5,118.5C 230.167,117.833 229.833,117.167 229.5,116.5C 226.823,112.835 223.157,111.335 218.5,112C 219.758,113.741 220.758,115.574 221.5,117.5C 223.063,118.945 224.396,120.611 225.5,122.5C 224.833,122.5 224.167,122.5 223.5,122.5C 223.5,121.833 223.167,121.5 222.5,121.5C 219.372,119.846 216.039,118.679 212.5,118C 210.884,117.385 209.551,116.385 208.5,115C 209.42,112.165 210.42,109.332 211.5,106.5C 203.314,104.955 195.147,103.289 187,101.5C 185.174,102.01 185.007,102.844 186.5,104C 192.516,104.907 198.516,105.907 204.5,107C 204.986,109.027 204.986,111.193 204.5,113.5C 198.568,112.129 192.568,111.129 186.5,110.5C 186.5,112.167 186.5,113.833 186.5,115.5C 187.5,115.5 188.5,115.5 189.5,115.5C 188.278,118.062 187.611,120.895 187.5,124C 187.944,129.497 188.278,134.997 188.5,140.5C 185.052,141.39 182.052,143.057 179.5,145.5C 176.012,145.899 175.846,146.566 179,147.5C 186.097,148.614 192.93,150.281 199.5,152.5C 199.5,152.833 199.5,153.167 199.5,153.5C 189.95,151.19 180.284,149.524 170.5,148.5C 169.29,148.932 168.29,149.599 167.5,150.5C 165.456,151.508 163.456,152.508 161.5,153.5C 153.417,154.531 148.084,158.864 145.5,166.5C 145.043,167.298 144.376,167.631 143.5,167.5C 144.588,165.417 145.588,163.251 146.5,161C 141.663,162.085 137.33,164.252 133.5,167.5C 129.5,168.833 125.5,168.833 121.5,167.5C 117.639,165.723 113.639,164.057 109.5,162.5C 108.417,162.461 107.417,162.127 106.5,161.5C 103.171,167.491 99.8374,173.491 96.5,179.5C 97.0253,180.192 97.6919,180.692 98.5,181C 111.758,181.724 124.925,180.891 138,178.5C 142.861,178.957 147.361,180.29 151.5,182.5C 149.833,182.5 148.167,182.5 146.5,182.5C 140.902,178.517 135.235,178.517 129.5,182.5C 135.779,183.889 142.112,184.889 148.5,185.5C 151.421,186.194 154.421,187.027 157.5,188C 156.207,188.49 154.873,188.657 153.5,188.5C 144.242,186.696 134.909,185.196 125.5,184C 109.903,184.107 95.0697,187.607 81,194.5C 75.3422,190.009 70.1756,185.009 65.5,179.5C 65.5,178.833 65.8333,178.5 66.5,178.5C 71.1464,182.812 75.8131,187.145 80.5,191.5C 87.728,188.721 95.0613,186.221 102.5,184C 99.0612,183.783 96.3946,182.283 94.5,179.5C 98.2343,173.755 101.568,167.755 104.5,161.5C 100.542,159.347 96.3756,157.68 92,156.5C 89.0077,159.8 86.0077,163.134 83,166.5C 82.5065,168.134 82.3398,169.801 82.5,171.5C 80.1667,171.5 77.8333,171.5 75.5,171.5C 75.8333,170.833 76.1667,170.167 76.5,169.5C 77.8333,169.5 79.1667,169.5 80.5,169.5C 81.4266,163.866 82.0933,158.199 82.5,152.5C 80.2133,152.276 78.0466,151.609 76,150.5C 73.4884,152.089 70.8217,153.422 68,154.5C 66.7425,154.15 66.4092,153.483 67,152.5C 72.7609,150.46 72.7609,148.794 67,147.5C 63.8921,148.193 60.8921,149.193 58,150.5C 57.5,150.167 57,149.833 56.5,149.5C 58.9023,148.425 61.2356,147.258 63.5,146C 61.3496,144.589 59.0163,143.755 56.5,143.5C 56.5,142.5 56.5,141.5 56.5,140.5C 56.5,137.833 56.5,135.167 56.5,132.5C 56.5045,128.466 56.8379,124.466 57.5,120.5C 52.8333,120.833 48.1667,121.167 43.5,121.5C 42.8333,121.5 42.5,121.833 42.5,122.5C 41.596,121.791 41.2627,120.791 41.5,119.5C 46.813,118.902 52.1463,118.569 57.5,118.5C 55.8569,101.278 53.8569,84.1112 51.5,67C 53.6089,60.673 56.1089,54.5064 59,48.5C 59.8176,42.256 61.4843,36.256 64,30.5C 69.8682,27.3176 76.0349,24.8176 82.5,23C 100.792,18.0103 119.125,13.177 137.5,8.5C 135.522,15.2629 132.856,21.7629 129.5,28C 140.246,24.6934 150.912,20.86 161.5,16.5C 167.593,32.1176 176.76,45.7842 189,57.5C 188.648,68.8441 187.815,80.1775 186.5,91.5C 186.833,94.1667 187.167,96.8333 187.5,99.5C 195.758,101.074 204.091,102.241 212.5,103C 213.453,104.955 214.787,106.622 216.5,108C 220.855,109.206 225.189,110.539 229.5,112C 230.2,114.472 231.2,116.805 232.5,119C 227.327,130.513 221.493,141.68 215,152.5C 211.543,165.448 208.209,178.448 205,191.5C 191.909,192.655 178.742,192.822 165.5,192C 164.255,191.209 162.922,190.709 161.5,190.5 Z"/></g>
<g><path style="opacity:1" fill="#b3905a" d="M 133.5,13.5 C 111.079,19.8581 88.746,26.6915 66.5,34C 64.6033,39.0264 63.1033,44.1931 62,49.5C 61.5172,48.552 61.3505,47.552 61.5,46.5C 62.2891,41.5094 63.6225,36.6761 65.5,32C 81.3994,26.0336 97.7327,21.7003 114.5,19C 120.821,15.4981 127.487,13.1648 134.5,12C 133.944,12.3826 133.611,12.8826 133.5,13.5 Z"/></g>
<g><path style="opacity:1" fill="#9e7a49" d="M 186.5,59.5 C 170.829,65.518 155.163,71.1847 139.5,76.5C 134.356,77.8719 129.356,79.7052 124.5,82C 123.056,82.7805 121.723,82.6139 120.5,81.5C 113.777,72.6184 107.277,63.6184 101,54.5C 99.1606,52.7988 97.3273,51.1322 95.5,49.5C 94.5868,47.9139 94.5868,46.4139 95.5,45C 116.935,37.056 138.268,28.8893 159.5,20.5C 164.156,27.1338 168.322,34.1338 172,41.5C 176.691,47.6826 181.524,53.6826 186.5,59.5 Z"/></g>
<g><path style="opacity:1" fill="#755935" d="M 133.5,13.5 C 131.118,19.2657 128.451,24.9323 125.5,30.5C 114.115,35.1976 102.781,39.8643 91.5,44.5C 91.774,46.9806 93.1073,48.6473 95.5,49.5C 95.0296,50.6935 94.0296,51.3601 92.5,51.5C 87.7662,50.5849 83.0996,49.7515 78.5,49C 70.913,54.0432 63.413,59.2099 56,64.5C 56.9942,58.1953 58.8275,52.1953 61.5,46.5C 61.3505,47.552 61.5172,48.552 62,49.5C 63.1033,44.1931 64.6033,39.0264 66.5,34C 88.746,26.6915 111.079,19.8581 133.5,13.5 Z"/></g>
<g><path style="opacity:1" fill="#785a33" d="M 161.5,42.5 C 163.814,43.1787 164.147,44.512 162.5,46.5C 157.954,52.2565 152.954,57.5898 147.5,62.5C 146.417,61.635 146.251,60.635 147,59.5C 152.323,54.1428 157.157,48.4762 161.5,42.5 Z"/></g>
<g><path style="opacity:1" fill="#745934" d="M 114.5,76.5 C 112.745,75.9278 111.078,75.0945 109.5,74C 104.622,68.8817 99.2892,64.2151 93.5,60C 81.8254,61.4949 70.1588,63.3282 58.5,65.5C 64.9282,60.7755 71.5949,56.2755 78.5,52C 85.2683,52.021 91.935,53.021 98.5,55C 103.964,62.1071 109.298,69.2738 114.5,76.5 Z"/></g>
<g><path style="opacity:1" fill="#745935" d="M 186.5,59.5 C 185.587,70.6601 184.587,81.8268 183.5,93C 184.076,108.202 185.076,123.369 186.5,138.5C 174.295,145.099 161.628,150.932 148.5,156C 141.554,159.721 134.721,163.554 128,167.5C 125.424,139.883 123.924,112.216 123.5,84.5C 128.747,81.4693 134.414,79.3026 140.5,78C 141.712,76.8932 141.379,76.3932 139.5,76.5C 155.163,71.1847 170.829,65.518 186.5,59.5 Z"/></g>
<g><path style="opacity:1" fill="#9d7a48" d="M 114.5,76.5 C 116.636,78.8123 118.636,81.3123 120.5,84C 120.167,84.1667 119.833,84.3333 119.5,84.5C 114.322,82.5795 108.988,81.2461 103.5,80.5C 96.6327,76.6157 89.2994,74.949 81.5,75.5C 89.0276,76.8998 96.361,78.8998 103.5,81.5C 109.63,83.5324 115.964,85.199 122.5,86.5C 121.808,104.03 122.641,121.364 125,138.5C 125.666,147.828 126.166,157.161 126.5,166.5C 104.056,158.907 81.7228,150.907 59.5,142.5C 59.9126,117.106 58.2459,91.7723 54.5,66.5C 55.9587,66.5674 57.2921,66.2341 58.5,65.5C 70.1588,63.3282 81.8254,61.4949 93.5,60C 99.2892,64.2151 104.622,68.8817 109.5,74C 111.078,75.0945 112.745,75.9278 114.5,76.5 Z"/></g>
<g><path style="opacity:1" fill="#5c442a" d="M 103.5,80.5 C 103.5,80.8333 103.5,81.1667 103.5,81.5C 96.361,78.8998 89.0276,76.8998 81.5,75.5C 89.2994,74.949 96.6327,76.6157 103.5,80.5 Z"/></g>
<g><path style="opacity:1" fill="#1f1710" d="M 73.5,81.5 C 80.5867,82.2694 87.2534,84.2694 93.5,87.5C 95.8439,90.5014 96.6772,93.8347 96,97.5C 88.0882,98.5396 80.5882,97.0396 73.5,93C 69.5267,89.0467 69.5267,85.2134 73.5,81.5 Z"/></g>
<g><path style="opacity:1" fill="#735935" d="M 73.5,83.5 C 79.7392,84.0478 85.7392,85.5478 91.5,88C 93.1134,90.2276 93.78,92.7276 93.5,95.5C 86.429,95.6198 79.7624,94.1198 73.5,91C 70.9824,88.5212 70.9824,86.0212 73.5,83.5 Z"/></g>
<g><path style="opacity:1" fill="#706f70" d="M 186.5,105.5 C 191.493,106.25 196.493,107.083 201.5,108C 201.957,108.414 202.291,108.914 202.5,109.5C 197.815,110.63 193.149,110.463 188.5,109C 187.027,108.29 186.36,107.124 186.5,105.5 Z"/></g>
<g><path style="opacity:1" fill="#dfeaea" d="M 221.5,117.5 C 218.201,117.99 214.867,117.323 211.5,115.5C 210.402,112.601 210.902,109.935 213,107.5C 215.698,111.025 218.531,114.358 221.5,117.5 Z"/></g>
<g><path style="opacity:1" fill="#dae6e6" d="M 229.5,116.5 C 228.167,118.5 226.833,120.5 225.5,122.5C 224.396,120.611 223.063,118.945 221.5,117.5C 220.758,115.574 219.758,113.741 218.5,112C 223.157,111.335 226.823,112.835 229.5,116.5 Z"/></g>
<g><path style="opacity:1" fill="#1e1811" d="M 170.5,99.5 C 171.043,99.56 171.376,99.8933 171.5,100.5C 163.538,111.295 153.371,119.295 141,124.5C 140.517,123.552 140.351,122.552 140.5,121.5C 152.631,117.098 162.631,109.765 170.5,99.5 Z"/></g>
<g><path style="opacity:1" fill="#212324" d="M 192.5,116.5 C 198.469,117.385 204.469,118.052 210.5,118.5C 203.879,119.676 197.212,119.176 190.5,117C 191.094,116.536 191.761,116.369 192.5,116.5 Z"/></g>
<g><path style="opacity:1" fill="#6f6f6f" d="M 189.5,115.5 C 190.791,115.263 191.791,115.596 192.5,116.5C 191.761,116.369 191.094,116.536 190.5,117C 197.212,119.176 203.879,119.676 210.5,118.5C 211.613,119.946 211.78,121.613 211,123.5C 208.969,127.665 206.803,131.665 204.5,135.5C 204.19,134.262 203.69,134.262 203,135.5C 202.55,137.519 201.717,139.352 200.5,141C 197.025,140.412 193.692,140.579 190.5,141.5C 189.833,141.167 189.167,140.833 188.5,140.5C 188.278,134.997 187.944,129.497 187.5,124C 187.611,120.895 188.278,118.062 189.5,115.5 Z"/></g>
<g><path style="opacity:1" fill="#b3bab9" d="M 230.5,118.5 C 228.926,123.32 226.593,127.653 223.5,131.5C 225.074,126.68 227.407,122.347 230.5,118.5 Z"/></g>
<g><path style="opacity:1" fill="#f2eabd" d="M 56.5,132.5 C 55.5655,133.568 55.2322,134.901 55.5,136.5C 53.54,137.138 51.7067,137.138 50,136.5C 48.6892,131.047 46.5226,126.047 43.5,121.5C 48.1667,121.167 52.8333,120.833 57.5,120.5C 56.8379,124.466 56.5045,128.466 56.5,132.5 Z"/></g>
<g><path style="opacity:1" fill="#454c4c" d="M 229.5,116.5 C 229.833,117.167 230.167,117.833 230.5,118.5C 227.407,122.347 225.074,126.68 223.5,131.5C 222.955,133.593 222.122,135.593 221,137.5C 219.893,138.712 219.393,138.379 219.5,136.5C 221.088,132.157 223.088,127.99 225.5,124C 224.584,123.722 223.918,123.222 223.5,122.5C 224.167,122.5 224.833,122.5 225.5,122.5C 226.833,120.5 228.167,118.5 229.5,116.5 Z"/></g>
<g><path style="opacity:1" fill="#281e15" d="M 140.5,129.5 C 141.675,129.281 142.675,129.614 143.5,130.5C 139.491,133.049 135.158,133.882 130.5,133C 134.11,132.262 137.443,131.095 140.5,129.5 Z"/></g>
<g><path style="opacity:1" fill="#8f9899" d="M 222.5,121.5 C 223.167,121.5 223.5,121.833 223.5,122.5C 223.918,123.222 224.584,123.722 225.5,124C 223.088,127.99 221.088,132.157 219.5,136.5C 216.503,141.16 214.003,146.16 212,151.5C 211.23,152.598 210.397,152.598 209.5,151.5C 213.38,142.738 217.547,134.071 222,125.5C 222.49,124.207 222.657,122.873 222.5,121.5 Z"/></g>
<g><path style="opacity:1" fill="#3b4041" d="M 204.5,135.5 C 203.226,137.993 202.56,140.659 202.5,143.5C 198.5,142.833 194.5,142.167 190.5,141.5C 193.692,140.579 197.025,140.412 200.5,141C 201.717,139.352 202.55,137.519 203,135.5C 203.69,134.262 204.19,134.262 204.5,135.5 Z"/></g>
<g><path style="opacity:1" fill="#535655" d="M 179.5,145.5 C 188.032,146.479 196.366,147.813 204.5,149.5C 203.5,149.5 202.5,149.5 201.5,149.5C 201.715,151.179 201.048,152.179 199.5,152.5C 192.93,150.281 186.097,148.614 179,147.5C 175.846,146.566 176.012,145.899 179.5,145.5 Z"/></g>
<g><path style="opacity:1" fill="#262521" d="M 43.5,121.5 C 46.5226,126.047 48.6892,131.047 50,136.5C 51.7067,137.138 53.54,137.138 55.5,136.5C 55.2322,134.901 55.5655,133.568 56.5,132.5C 56.5,135.167 56.5,137.833 56.5,140.5C 51.9955,139.705 47.6621,140.539 43.5,143C 45.7744,145.344 46.9411,148.178 47,151.5C 49.4471,152.406 51.9471,153.239 54.5,154C 55.5937,155.78 56.5937,157.614 57.5,159.5C 60.4528,157.127 63.7862,156.293 67.5,157C 70.0324,160.558 72.199,164.391 74,168.5C 74.6708,169.252 75.5041,169.586 76.5,169.5C 76.1667,170.167 75.8333,170.833 75.5,171.5C 74.5416,171.047 73.7083,170.381 73,169.5C 70.788,166.196 68.9546,162.696 67.5,159C 63.7048,158.021 60.3715,158.854 57.5,161.5C 55.4654,160.403 54.1321,158.737 53.5,156.5C 52.1667,157.167 50.8333,157.833 49.5,158.5C 48.479,159.002 48.3123,159.668 49,160.5C 55.0362,166.369 60.8695,172.369 66.5,178.5C 65.8333,178.5 65.5,178.833 65.5,179.5C 57.8196,172.819 50.8196,165.486 44.5,157.5C 45.3805,156.029 46.7139,155.196 48.5,155C 47.5,154.5 46.5,154 45.5,153.5C 44.6816,150.893 44.1816,148.226 44,145.5C 42.3651,144.274 40.8651,142.941 39.5,141.5C 42.4222,140.202 45.4222,139.202 48.5,138.5C 48.477,136.073 47.977,133.74 47,131.5C 45.2389,128.589 43.7389,125.589 42.5,122.5C 42.5,121.833 42.8333,121.5 43.5,121.5 Z"/></g>
<g><path style="opacity:1" fill="#707070" d="M 167.5,150.5 C 177.963,152.193 188.297,154.526 198.5,157.5C 194.286,165.261 190.619,173.261 187.5,181.5C 186.833,181.833 186.167,182.167 185.5,182.5C 177.344,181.113 169.177,179.78 161,178.5C 159.93,178.528 159.097,178.861 158.5,179.5C 157.508,179.672 156.842,179.338 156.5,178.5C 155.987,177.674 154.653,177.008 152.5,176.5C 155.116,173.33 156.449,169.997 156.5,166.5C 158.487,162.527 160.487,158.527 162.5,154.5C 162.376,153.893 162.043,153.56 161.5,153.5C 163.456,152.508 165.456,151.508 167.5,150.5 Z"/></g>
<g><path style="opacity:1" fill="#ede5b8" d="M 56.5,140.5 C 56.5,141.5 56.5,142.5 56.5,143.5C 59.0163,143.755 61.3496,144.589 63.5,146C 61.2356,147.258 58.9023,148.425 56.5,149.5C 57,149.833 57.5,150.167 58,150.5C 60.8921,149.193 63.8921,148.193 67,147.5C 72.7609,148.794 72.7609,150.46 67,152.5C 66.4092,153.483 66.7425,154.15 68,154.5C 70.8217,153.422 73.4884,152.089 76,150.5C 78.0466,151.609 80.2133,152.276 82.5,152.5C 82.0933,158.199 81.4266,163.866 80.5,169.5C 79.1667,169.5 77.8333,169.5 76.5,169.5C 75.5041,169.586 74.6708,169.252 74,168.5C 72.199,164.391 70.0324,160.558 67.5,157C 63.7862,156.293 60.4528,157.127 57.5,159.5C 56.5937,157.614 55.5937,155.78 54.5,154C 51.9471,153.239 49.4471,152.406 47,151.5C 46.9411,148.178 45.7744,145.344 43.5,143C 47.6621,140.539 51.9955,139.705 56.5,140.5 Z"/></g>
<g><path style="opacity:1" fill="#666666" d="M 170.5,148.5 C 180.284,149.524 189.95,151.19 199.5,153.5C 199.631,154.376 199.298,155.043 198.5,155.5C 189.017,153.372 179.684,151.038 170.5,148.5 Z"/></g>
<g><path style="opacity:1" fill="#262727" d="M 170.5,148.5 C 179.684,151.038 189.017,153.372 198.5,155.5C 199.298,155.043 199.631,154.376 199.5,153.5C 199.5,153.167 199.5,152.833 199.5,152.5C 201.048,152.179 201.715,151.179 201.5,149.5C 202.5,149.5 203.5,149.5 204.5,149.5C 198.244,160.851 192.91,172.685 188.5,185C 178.755,182.524 168.755,180.691 158.5,179.5C 159.097,178.861 159.93,178.528 161,178.5C 169.177,179.78 177.344,181.113 185.5,182.5C 186.167,182.167 186.833,181.833 187.5,181.5C 190.619,173.261 194.286,165.261 198.5,157.5C 188.297,154.526 177.963,152.193 167.5,150.5C 168.29,149.599 169.29,148.932 170.5,148.5 Z"/></g>
<g><path style="opacity:1" fill="#d2cfa7" d="M 84.5,153.5 C 86.3117,153.771 87.9783,154.438 89.5,155.5C 87.476,157.69 85.6427,160.023 84,162.5C 83.6987,159.493 83.8654,156.493 84.5,153.5 Z"/></g>
<g><path style="opacity:1" fill="#9ca3a3" d="M 209.5,159.5 C 210.097,159.735 210.43,160.235 210.5,161C 208.821,167.946 206.988,174.779 205,181.5C 205.531,173.987 207.031,166.654 209.5,159.5 Z"/></g>
<g><path style="opacity:1" fill="#666666" d="M 143.5,167.5 C 140.167,167.5 136.833,167.5 133.5,167.5C 137.33,164.252 141.663,162.085 146.5,161C 145.588,163.251 144.588,165.417 143.5,167.5 Z"/></g>
<g><path style="opacity:1" fill="#faf6d7" d="M 75.5,171.5 C 77.8333,171.5 80.1667,171.5 82.5,171.5C 82.3398,169.801 82.5065,168.134 83,166.5C 86.0077,163.134 89.0077,159.8 92,156.5C 96.3756,157.68 100.542,159.347 104.5,161.5C 101.568,167.755 98.2343,173.755 94.5,179.5C 96.3946,182.283 99.0612,183.783 102.5,184C 95.0613,186.221 87.728,188.721 80.5,191.5C 75.8131,187.145 71.1464,182.812 66.5,178.5C 60.8695,172.369 55.0362,166.369 49,160.5C 48.3123,159.668 48.479,159.002 49.5,158.5C 50.8333,157.833 52.1667,157.167 53.5,156.5C 54.1321,158.737 55.4654,160.403 57.5,161.5C 60.3715,158.854 63.7048,158.021 67.5,159C 68.9546,162.696 70.788,166.196 73,169.5C 73.7083,170.381 74.5416,171.047 75.5,171.5 Z"/></g>
<g><path style="opacity:1" fill="#e4f2f2" d="M 222.5,121.5 C 222.657,122.873 222.49,124.207 222,125.5C 217.547,134.071 213.38,142.738 209.5,151.5C 208.872,154.09 207.705,156.423 206,158.5C 203.965,168.432 202.465,178.432 201.5,188.5C 196.511,189.222 191.511,189.388 186.5,189C 176.489,187.097 166.489,185.264 156.5,183.5C 155.081,182.549 153.415,182.216 151.5,182.5C 147.361,180.29 142.861,178.957 138,178.5C 124.925,180.891 111.758,181.724 98.5,181C 97.6919,180.692 97.0253,180.192 96.5,179.5C 99.8374,173.491 103.171,167.491 106.5,161.5C 107.417,162.127 108.417,162.461 109.5,162.5C 109.461,163.583 109.127,164.583 108.5,165.5C 112.749,166.726 117.083,167.393 121.5,167.5C 125.5,168.833 129.5,168.833 133.5,167.5C 136.833,167.5 140.167,167.5 143.5,167.5C 144.376,167.631 145.043,167.298 145.5,166.5C 148.084,158.864 153.417,154.531 161.5,153.5C 162.043,153.56 162.376,153.893 162.5,154.5C 160.487,158.527 158.487,162.527 156.5,166.5C 154.258,169.979 152.258,173.646 150.5,177.5C 152.396,178.466 154.396,178.799 156.5,178.5C 156.842,179.338 157.508,179.672 158.5,179.5C 168.755,180.691 178.755,182.524 188.5,185C 192.91,172.685 198.244,160.851 204.5,149.5C 196.366,147.813 188.032,146.479 179.5,145.5C 182.052,143.057 185.052,141.39 188.5,140.5C 189.167,140.833 189.833,141.167 190.5,141.5C 194.5,142.167 198.5,142.833 202.5,143.5C 202.56,140.659 203.226,137.993 204.5,135.5C 206.803,131.665 208.969,127.665 211,123.5C 211.78,121.613 211.613,119.946 210.5,118.5C 204.469,118.052 198.469,117.385 192.5,116.5C 191.791,115.596 190.791,115.263 189.5,115.5C 188.5,115.5 187.5,115.5 186.5,115.5C 186.5,113.833 186.5,112.167 186.5,110.5C 192.568,111.129 198.568,112.129 204.5,113.5C 204.986,111.193 204.986,109.027 204.5,107C 198.516,105.907 192.516,104.907 186.5,104C 185.007,102.844 185.174,102.01 187,101.5C 195.147,103.289 203.314,104.955 211.5,106.5C 210.42,109.332 209.42,112.165 208.5,115C 209.551,116.385 210.884,117.385 212.5,118C 216.039,118.679 219.372,119.846 222.5,121.5 Z"/></g>
<g><path style="opacity:1" fill="#3c403e" d="M 109.5,162.5 C 113.639,164.057 117.639,165.723 121.5,167.5C 117.083,167.393 112.749,166.726 108.5,165.5C 109.127,164.583 109.461,163.583 109.5,162.5 Z"/></g>
<g><path style="opacity:1" fill="#111313" d="M 142.5,172.5 C 130.167,172.5 117.833,172.5 105.5,172.5C 105.611,171.883 105.944,171.383 106.5,171C 112.5,170.833 118.5,170.667 124.5,170.5C 130.872,170.504 136.872,171.171 142.5,172.5 Z"/></g>
<g><path style="opacity:1" fill="#575b5b" d="M 105.5,172.5 C 117.833,172.5 130.167,172.5 142.5,172.5C 142.389,173.117 142.056,173.617 141.5,174C 129.189,175.628 116.856,175.628 104.5,174C 105.056,173.617 105.389,173.117 105.5,172.5 Z"/></g>
<g><path style="opacity:1" fill="#252829" d="M 156.5,166.5 C 156.449,169.997 155.116,173.33 152.5,176.5C 154.653,177.008 155.987,177.674 156.5,178.5C 154.396,178.799 152.396,178.466 150.5,177.5C 152.258,173.646 154.258,169.979 156.5,166.5 Z"/></g>
<g><path style="opacity:1" fill="#8f9897" d="M 146.5,182.5 C 144.131,182.149 141.797,181.982 139.5,182C 143.23,183.095 146.23,184.261 148.5,185.5C 142.112,184.889 135.779,183.889 129.5,182.5C 135.235,178.517 140.902,178.517 146.5,182.5 Z"/></g>
<g><path style="opacity:1" fill="#393b3d" d="M 146.5,182.5 C 148.167,182.5 149.833,182.5 151.5,182.5C 153.415,182.216 155.081,182.549 156.5,183.5C 157.5,184.5 158.5,185.5 159.5,186.5C 159.196,187.15 158.863,187.817 158.5,188.5C 159.602,189.176 160.602,189.842 161.5,190.5C 158.572,190.435 155.905,189.768 153.5,188.5C 154.873,188.657 156.207,188.49 157.5,188C 154.421,187.027 151.421,186.194 148.5,185.5C 146.23,184.261 143.23,183.095 139.5,182C 141.797,181.982 144.131,182.149 146.5,182.5 Z"/></g>
<g><path style="opacity:1" fill="#d1d7d7" d="M 159.5,186.5 C 159.917,185.876 160.584,185.543 161.5,185.5C 166.846,186.504 172.18,187.504 177.5,188.5C 175.735,189.461 173.735,189.795 171.5,189.5C 167.357,189.096 163.357,188.096 159.5,186.5 Z"/></g>
<g><path style="opacity:1" fill="#707474" d="M 177.5,188.5 C 178.756,188.461 179.756,188.961 180.5,190C 177.304,190.805 174.304,190.638 171.5,189.5C 173.735,189.795 175.735,189.461 177.5,188.5 Z"/></g>
</svg>
