<?xml version="1.0" encoding="UTF-8"?>
<!DOCTYPE svg PUBLIC "-//W3C//DTD SVG 1.1//EN" "http://www.w3.org/Graphics/SVG/1.1/DTD/svg11.dtd">
<svg xmlns="http://www.w3.org/2000/svg" version="1.1" width="529px" height="528px" style="shape-rendering:geometricPrecision; text-rendering:geometricPrecision; image-rendering:optimizeQuality; fill-rule:evenodd; clip-rule:evenodd" xmlns:xlink="http://www.w3.org/1999/xlink">
<g><path style="opacity:1" fill="#fcfaf9" d="M 239.5,21.5 C 265.569,18.0496 289.235,24.0496 310.5,39.5C 323.327,49.9661 332.327,63.1328 337.5,79C 397.68,101.154 441.18,141.987 468,201.5C 492.95,262.385 490.45,322.385 460.5,381.5C 463.184,386.535 465.017,391.869 466,397.5C 466.449,405.222 467.282,412.888 468.5,420.5C 468.54,424.944 467.873,429.277 466.5,433.5C 469.278,439.277 471.444,445.277 473,451.5C 476.195,470.936 469.362,485.436 452.5,495C 448.285,495.628 444.118,496.462 440,497.5C 435.286,496.35 430.619,495.016 426,493.5C 420.766,498.368 414.6,501.534 407.5,503C 379.914,506.12 352.247,508.787 324.5,511C 312.721,511.033 301.054,511.866 289.5,513.5C 283.675,512.102 277.675,511.269 271.5,511C 269.297,509.981 267.131,508.814 265,507.5C 260.499,510.238 255.665,512.071 250.5,513C 240.45,513.292 230.45,513.458 220.5,513.5C 183.032,509.635 145.365,506.135 107.5,503C 104.362,501.756 101.028,501.089 97.5,501C 93.152,498.492 88.4854,496.659 83.5,495.5C 68.4236,499.545 55.4236,495.878 44.5,484.5C 43,481.5 41.5,478.5 40,475.5C 38.4133,465.908 38.0799,456.242 39,446.5C 41.3111,425.457 43.9778,404.457 47,383.5C 47.9702,380.226 49.4702,377.226 51.5,374.5C 22.2478,313.448 22.2478,252.281 51.5,191C 74.6821,143.493 110.682,108.493 159.5,86C 164.692,83.9117 170.025,82.0784 175.5,80.5C 184.641,48.8776 205.641,29.711 238.5,23C 239.056,22.6174 239.389,22.1174 239.5,21.5 Z"/></g>
<g><path style="opacity:1" fill="#05b923" d="M 270.5,50.5 C 270.5,51.5 270.5,52.5 270.5,53.5C 269.609,54.2613 268.942,55.2613 268.5,56.5C 274.022,58.4501 279.356,60.7834 284.5,63.5C 281.344,69.1876 283.01,72.521 289.5,73.5C 287.581,79.6786 286.581,86.0119 286.5,92.5C 279.641,94.4659 272.641,96.2992 265.5,98C 263.242,98.876 261.242,100.043 259.5,101.5C 253.746,103.541 248.08,105.874 242.5,108.5C 232.05,102.941 221.384,97.9406 210.5,93.5C 211.129,82.4906 214.796,72.6573 221.5,64C 225.898,61.1428 230.232,58.3095 234.5,55.5C 234.833,55.5 235.167,55.5 235.5,55.5C 234.667,65.4903 234.5,75.4903 235,85.5C 235.333,86.1667 235.667,86.8333 236,87.5C 236.191,85.2922 236.691,83.2922 237.5,81.5C 237.231,83.4286 237.731,85.0953 239,86.5C 240.012,75.905 242.179,65.5717 245.5,55.5C 249.107,54.5108 252.774,54.1774 256.5,54.5C 252.064,67.4479 249.898,80.7812 250,94.5C 253.667,80.8509 259,67.8509 266,55.5C 267.517,53.7605 269.017,52.0938 270.5,50.5 Z"/></g>
<g><path style="opacity:1" fill="#8304f4" d="M 315.5,97.5 C 315.441,101.736 314.441,105.736 312.5,109.5C 309.567,110.93 307.067,112.93 305,115.5C 301.714,122.268 299.047,129.268 297,136.5C 293.275,140.558 288.775,143.391 283.5,145C 276.5,145.667 269.5,145.667 262.5,145C 256.284,143.225 250.284,140.892 244.5,138C 242.866,137.506 241.199,137.34 239.5,137.5C 240.678,136.001 242.345,135.001 244.5,134.5C 245.167,131.167 245.833,127.833 246.5,124.5C 249.711,121.257 253.378,118.924 257.5,117.5C 257.5,118.5 257.5,119.5 257.5,120.5C 256.624,123.799 256.457,127.132 257,130.5C 258.401,132.192 260.234,132.859 262.5,132.5C 264.114,134.075 266.114,134.741 268.5,134.5C 270.833,135.833 273.167,135.833 275.5,134.5C 277.099,134.768 278.432,134.434 279.5,133.5C 283.992,132.506 286.992,129.839 288.5,125.5C 290.017,125.511 291.184,126.177 292,127.5C 293.736,120.032 296.569,113.032 300.5,106.5C 299.167,106.167 297.833,105.833 296.5,105.5C 291.207,106.728 285.874,107.228 280.5,107C 285.514,106.906 289.681,105.073 293,101.5C 295.462,100.841 297.962,100.507 300.5,100.5C 301.045,104.172 301.378,103.838 301.5,99.5C 303.698,99.1249 305.698,98.4582 307.5,97.5C 310.328,96.5033 312.995,96.5033 315.5,97.5 Z"/></g>
<g><path style="opacity:1" fill="#9003fc" d="M 176.5,125.5 C 178.388,127.988 179.055,130.988 178.5,134.5C 178.676,137.727 179.343,140.727 180.5,143.5C 181.723,146.911 183.223,150.244 185,153.5C 188.692,156.365 192.192,159.365 195.5,162.5C 195.111,165.553 195.777,168.22 197.5,170.5C 198.65,175.806 200.65,180.806 203.5,185.5C 193.797,189.955 183.464,191.788 172.5,191C 154.329,196.057 139.163,205.89 127,220.5C 124.404,225.456 121.904,230.456 119.5,235.5C 101.251,247.086 85.5841,261.419 72.5,278.5C 77.4966,217.327 105.497,169.827 156.5,136C 163.402,132.896 170.069,129.396 176.5,125.5 Z"/></g>
<g><path style="opacity:0.396" fill="#c45f44" d="M 179.5,123.5 C 179.5,127.167 179.5,130.833 179.5,134.5C 179.167,134.5 178.833,134.5 178.5,134.5C 179.055,130.988 178.388,127.988 176.5,125.5C 176.821,123.952 177.821,123.285 179.5,123.5 Z"/></g>
<g><path style="opacity:1" fill="#9003fb" d="M 337.5,124.5 C 387.937,148.645 421.103,187.645 437,241.5C 438.338,248.178 439.672,254.844 441,261.5C 443.949,264.95 445.116,268.95 444.5,273.5C 443.5,273.5 442.5,273.5 441.5,273.5C 430.77,259.271 417.937,247.271 403,237.5C 400.461,230.756 397.128,224.422 393,218.5C 391.64,208.034 396.14,202.034 406.5,200.5C 406.719,199.325 406.386,198.325 405.5,197.5C 398.537,195.703 394.037,191.37 392,184.5C 391.083,188.164 389.25,191.33 386.5,194C 383.491,195.504 380.491,197.004 377.5,198.5C 382.39,200.886 386.557,204.219 390,208.5C 390.74,211.176 391.073,213.842 391,216.5C 372.204,197.696 349.371,188.029 322.5,187.5C 318.24,184.213 313.573,181.879 308.5,180.5C 308.351,179.448 308.517,178.448 309,177.5C 314.039,173.29 317.539,167.956 319.5,161.5C 329.15,157.683 334.983,150.683 337,140.5C 337.499,135.177 337.666,129.844 337.5,124.5 Z"/></g>
<g><path style="opacity:1" fill="#f2ae12" d="M 320.5,123.5 C 320.931,129.023 320.264,134.356 318.5,139.5C 316.856,139.714 315.356,139.38 314,138.5C 313.011,135.544 312.178,132.544 311.5,129.5C 312.621,126.804 312.621,124.137 311.5,121.5C 310.416,122.665 309.583,123.998 309,125.5C 308.536,124.906 308.369,124.239 308.5,123.5C 312.508,114.169 316.508,114.169 320.5,123.5 Z"/></g>
<g><path style="opacity:1" fill="#0c460b" d="M 293.5,183.5 C 293.389,184.117 293.056,184.617 292.5,185C 294.134,185.494 295.801,185.66 297.5,185.5C 297.5,186.833 297.5,188.167 297.5,189.5C 293.879,188.627 290.212,187.961 286.5,187.5C 286.238,186.022 286.571,184.689 287.5,183.5C 288.524,184.853 289.857,185.52 291.5,185.5C 291.5,184.167 291.5,182.833 291.5,181.5C 289.179,181.771 287.179,181.104 285.5,179.5C 283.626,180.935 281.626,182.102 279.5,183C 284.036,185.312 284.702,188.479 281.5,192.5C 281.5,190.833 281.5,189.167 281.5,187.5C 280.5,187.5 279.5,187.5 278.5,187.5C 278.67,188.822 278.337,189.989 277.5,191C 270.726,194.766 263.726,198.099 256.5,201C 249.464,201.72 242.464,201.553 235.5,200.5C 235.629,202.216 235.962,203.883 236.5,205.5C 235.005,205.585 234.005,204.919 233.5,203.5C 234.246,202.264 234.579,200.93 234.5,199.5C 236.857,199.663 239.19,199.497 241.5,199C 242.337,197.989 242.67,196.822 242.5,195.5C 241.07,195.421 239.736,195.754 238.5,196.5C 237.494,196.062 237.494,195.396 238.5,194.5C 244.546,193.944 249.213,193.277 252.5,192.5C 260.945,189.946 268.945,186.28 276.5,181.5C 281.486,178.179 285.82,174.179 289.5,169.5C 291.89,166.789 294.89,164.789 298.5,163.5C 301.714,158.662 303.714,153.329 304.5,147.5C 302.519,143.359 299.852,142.692 296.5,145.5C 296.5,144.167 296.5,142.833 296.5,141.5C 299.167,140.833 301.833,140.167 304.5,139.5C 305.647,134.759 306.647,130.092 307.5,125.5C 307.087,131.049 307.92,136.382 310,141.5C 313.579,144.398 316.412,143.731 318.5,139.5C 320.264,134.356 320.931,129.023 320.5,123.5C 321.698,120.938 323.031,118.438 324.5,116C 323.262,116.077 322.262,115.911 321.5,115.5C 322.52,113.568 322.687,111.568 322,109.5C 320.403,105.055 318.237,101.055 315.5,97.5C 312.995,96.5033 310.328,96.5033 307.5,97.5C 301.611,97.4497 295.944,98.1164 290.5,99.5C 288.5,99.5 286.5,99.5 284.5,99.5C 283.167,99.5 281.833,99.5 280.5,99.5C 273.441,99.6635 266.441,100.33 259.5,101.5C 261.242,100.043 263.242,98.876 265.5,98C 272.641,96.2992 279.641,94.4659 286.5,92.5C 295.472,91.6529 304.472,91.3195 313.5,91.5C 313.094,83.1915 310.26,75.8582 305,69.5C 303.693,67.8082 302.193,66.4749 300.5,65.5C 293.535,57.2473 284.702,51.5806 274,48.5C 272.697,48.9783 271.531,49.645 270.5,50.5C 269.017,52.0938 267.517,53.7605 266,55.5C 259,67.8509 253.667,80.8509 250,94.5C 249.898,80.7812 252.064,67.4479 256.5,54.5C 257.441,52.9505 258.107,51.2838 258.5,49.5C 259.338,49.1583 259.672,48.4916 259.5,47.5C 260.289,47.2172 260.956,46.7172 261.5,46C 255.418,45.2124 249.418,45.379 243.5,46.5C 242.596,47.209 242.263,48.209 242.5,49.5C 239.122,59.774 237.456,70.4407 237.5,81.5C 236.691,83.2922 236.191,85.2922 236,87.5C 235.667,86.8333 235.333,86.1667 235,85.5C 234.5,75.4903 234.667,65.4903 235.5,55.5C 235.936,53.2537 236.603,51.0871 237.5,49C 218.142,53.857 205.808,66.0237 200.5,85.5C 197.865,87.3392 196.532,90.0058 196.5,93.5C 194.41,93.5499 193.077,92.5499 192.5,90.5C 193.198,87.2293 193.198,83.896 192.5,80.5C 194.295,71.2417 198.462,63.2417 205,56.5C 223.422,37.9383 245.589,31.4383 271.5,37C 300.107,43.9406 317.607,61.7739 324,90.5C 324.654,96.8515 324.488,103.185 323.5,109.5C 324.875,114.128 326.375,118.794 328,123.5C 329.35,131.639 328.017,139.306 324,146.5C 322.786,148.049 321.286,149.215 319.5,150C 316.74,150.674 314.073,151.507 311.5,152.5C 309.491,164.177 303.658,173.51 294,180.5C 293.517,181.448 293.351,182.448 293.5,183.5 Z"/></g>
<g><path style="opacity:1" fill="#4bef4d" d="M 234.5,55.5 C 230.232,58.3095 225.898,61.1428 221.5,64C 214.796,72.6573 211.129,82.4906 210.5,93.5C 207.848,93.5905 205.515,92.9238 203.5,91.5C 204.513,83.1666 207.513,75.4999 212.5,68.5C 218.711,62.0182 226.044,57.6849 234.5,55.5 Z"/></g>
<g><path style="opacity:1" fill="#057310" d="M 300.5,65.5 C 302.193,66.4749 303.693,67.8082 305,69.5C 310.26,75.8582 313.094,83.1915 313.5,91.5C 304.472,91.3195 295.472,91.6529 286.5,92.5C 286.581,86.0119 287.581,79.6786 289.5,73.5C 291.833,73.1667 293.167,71.8333 293.5,69.5C 294.5,68.8333 295.5,68.1667 296.5,67.5C 297.605,66.3995 298.938,65.7329 300.5,65.5 Z"/></g>
<g><path style="opacity:1" fill="#e9fbe8" d="M 284.5,63.5 C 286.954,63.3205 289.121,63.9872 291,65.5C 292.595,66.3557 293.428,67.6891 293.5,69.5C 293.167,71.8333 291.833,73.1667 289.5,73.5C 283.01,72.521 281.344,69.1876 284.5,63.5 Z"/></g>
<g><path style="opacity:1" fill="#e7f8df" d="M 235.5,55.5 C 235.167,55.5 234.833,55.5 234.5,55.5C 226.044,57.6849 218.711,62.0182 212.5,68.5C 207.513,75.4999 204.513,83.1666 203.5,91.5C 202.5,91.5 201.5,91.5 200.5,91.5C 200.5,89.5 200.5,87.5 200.5,85.5C 205.808,66.0237 218.142,53.857 237.5,49C 236.603,51.0871 235.936,53.2537 235.5,55.5 Z"/></g>
<g><path style="opacity:1" fill="#55ee52" d="M 270.5,53.5 C 281.105,54.6428 289.771,59.3095 296.5,67.5C 295.5,68.1667 294.5,68.8333 293.5,69.5C 293.428,67.6891 292.595,66.3557 291,65.5C 289.121,63.9872 286.954,63.3205 284.5,63.5C 279.356,60.7834 274.022,58.4501 268.5,56.5C 268.942,55.2613 269.609,54.2613 270.5,53.5 Z"/></g>
<g><path style="opacity:1" fill="#e1f5db" d="M 300.5,65.5 C 298.938,65.7329 297.605,66.3995 296.5,67.5C 289.771,59.3095 281.105,54.6428 270.5,53.5C 270.5,52.5 270.5,51.5 270.5,50.5C 271.531,49.645 272.697,48.9783 274,48.5C 284.702,51.5806 293.535,57.2473 300.5,65.5 Z"/></g>
<g><path style="opacity:1" fill="#45ec45" d="M 242.5,49.5 C 247.833,49.5 253.167,49.5 258.5,49.5C 258.107,51.2838 257.441,52.9505 256.5,54.5C 252.774,54.1774 249.107,54.5108 245.5,55.5C 242.179,65.5717 240.012,75.905 239,86.5C 237.731,85.0953 237.231,83.4286 237.5,81.5C 237.456,70.4407 239.122,59.774 242.5,49.5 Z"/></g>
<g><path style="opacity:1" fill="#a1e79f" d="M 243.5,46.5 C 248.64,47.4881 253.974,47.8214 259.5,47.5C 259.672,48.4916 259.338,49.1583 258.5,49.5C 253.167,49.5 247.833,49.5 242.5,49.5C 242.263,48.209 242.596,47.209 243.5,46.5 Z"/></g>
<g><path style="opacity:1" fill="#dbeedf" d="M 259.5,47.5 C 253.974,47.8214 248.64,47.4881 243.5,46.5C 249.418,45.379 255.418,45.2124 261.5,46C 260.956,46.7172 260.289,47.2172 259.5,47.5 Z"/></g>
<g><path style="opacity:1" fill="#cf95fe" d="M 178.5,134.5 C 178.833,134.5 179.167,134.5 179.5,134.5C 180.159,137.455 180.492,140.455 180.5,143.5C 179.343,140.727 178.676,137.727 178.5,134.5 Z"/></g>
<g><path style="opacity:1" fill="#d2830e" d="M 318.5,139.5 C 316.412,143.731 313.579,144.398 310,141.5C 307.92,136.382 307.087,131.049 307.5,125.5C 307.328,124.508 307.662,123.842 308.5,123.5C 308.369,124.239 308.536,124.906 309,125.5C 309.583,123.998 310.416,122.665 311.5,121.5C 312.621,124.137 312.621,126.804 311.5,129.5C 312.178,132.544 313.011,135.544 314,138.5C 315.356,139.38 316.856,139.714 318.5,139.5 Z"/></g>
<g><path style="opacity:1" fill="#097910" d="M 284.5,151.5 C 287.167,151.5 289.833,151.5 292.5,151.5C 292.941,157.774 291.941,163.774 289.5,169.5C 285.82,174.179 281.486,178.179 276.5,181.5C 278.093,171.901 279.093,162.234 279.5,152.5C 281.042,151.699 282.708,151.366 284.5,151.5 Z"/></g>
<g><path style="opacity:1" fill="#04630b" d="M 289.5,169.5 C 291.941,163.774 292.941,157.774 292.5,151.5C 289.833,151.5 287.167,151.5 284.5,151.5C 285.141,150.518 285.807,149.518 286.5,148.5C 289.809,147.285 293.142,146.285 296.5,145.5C 299.852,142.692 302.519,143.359 304.5,147.5C 303.714,153.329 301.714,158.662 298.5,163.5C 294.89,164.789 291.89,166.789 289.5,169.5 Z"/></g>
<g><path style="opacity:1" fill="#f5b494" d="M 241.5,143.5 C 251.874,149.628 263.207,153.628 275.5,155.5C 275.738,164.427 273.738,172.76 269.5,180.5C 261.72,186.984 252.72,190.317 242.5,190.5C 239.759,189.917 237.092,188.917 234.5,187.5C 223.976,177.789 217.643,165.789 215.5,151.5C 218.518,151.665 221.518,151.498 224.5,151C 230.188,148.488 235.855,145.988 241.5,143.5 Z"/></g>
<g><path style="opacity:1" fill="#223613" d="M 259.5,168.5 C 255.757,168.541 255.59,167.874 259,166.5C 259.837,164.649 260.671,162.816 261.5,161C 260.552,160.517 259.552,160.351 258.5,160.5C 260.608,159.225 262.942,158.725 265.5,159C 264.311,161.878 262.978,164.712 261.5,167.5C 261.043,168.298 260.376,168.631 259.5,168.5 Z"/></g>
<g><path style="opacity:1" fill="#d39bfc" d="M 195.5,162.5 C 196.531,164.961 197.198,167.627 197.5,170.5C 195.777,168.22 195.111,165.553 195.5,162.5 Z"/></g>
<g><path style="opacity:1" fill="#1c3c14" d="M 231.5,161.5 C 231.933,164.195 233.266,166.362 235.5,168C 234.263,168.232 233.263,168.732 232.5,169.5C 230.926,169.063 229.759,168.063 229,166.5C 228.443,164.385 227.609,162.385 226.5,160.5C 228.439,159.366 230.105,159.7 231.5,161.5 Z"/></g>
<g><path style="opacity:1" fill="#f7f8f3" d="M 258.5,160.5 C 259.552,160.351 260.552,160.517 261.5,161C 260.671,162.816 259.837,164.649 259,166.5C 255.59,167.874 255.757,168.541 259.5,168.5C 255.673,173.058 250.673,175.058 244.5,174.5C 239.405,175.143 235.405,173.477 232.5,169.5C 233.263,168.732 234.263,168.232 235.5,168C 233.266,166.362 231.933,164.195 231.5,161.5C 240.584,161.804 249.584,161.471 258.5,160.5 Z"/></g>
<g><path style="opacity:1" fill="#f7e9f1" d="M 356.5,158.5 C 357.6,160.277 358.434,162.277 359,164.5C 361.898,167.283 365.065,169.616 368.5,171.5C 362.108,173.058 358.275,177.058 357,183.5C 355.701,180.853 354.368,178.186 353,175.5C 350.167,174 347.333,172.5 344.5,171C 347.88,169.559 351.047,167.726 354,165.5C 355.411,163.35 356.245,161.016 356.5,158.5 Z"/></g>
<g><path style="opacity:1" fill="#f5e5ef" d="M 158.5,158.5 C 160.6,164.764 164.934,168.93 171.5,171C 164.981,172.852 160.814,177.019 159,183.5C 157.853,181.269 156.853,178.935 156,176.5C 153.417,174.302 150.584,172.469 147.5,171C 153.868,169.136 157.535,164.97 158.5,158.5 Z"/></g>
<g><path style="opacity:1" fill="#f3f0e7" d="M 215.5,151.5 C 217.643,165.789 223.976,177.789 234.5,187.5C 237.092,188.917 239.759,189.917 242.5,190.5C 243.167,191.167 243.833,191.833 244.5,192.5C 236.69,192.345 230.19,189.345 225,183.5C 216.925,174.348 212.425,163.682 211.5,151.5C 212.833,151.5 214.167,151.5 215.5,151.5 Z"/></g>
<g><path style="opacity:1" fill="#c47f5b" d="M 241.5,143.5 C 250.426,146.281 259.426,149.114 268.5,152C 272.152,152.499 275.818,152.665 279.5,152.5C 279.093,162.234 278.093,171.901 276.5,181.5C 268.945,186.28 260.945,189.946 252.5,192.5C 249.833,192.5 247.167,192.5 244.5,192.5C 243.833,191.833 243.167,191.167 242.5,190.5C 252.72,190.317 261.72,186.984 269.5,180.5C 273.738,172.76 275.738,164.427 275.5,155.5C 263.207,153.628 251.874,149.628 241.5,143.5 Z"/></g>
<g><path style="opacity:1" fill="#11490f" d="M 441.5,273.5 C 442.5,273.5 443.5,273.5 444.5,273.5C 445.116,268.95 443.949,264.95 441,261.5C 439.672,254.844 438.338,248.178 437,241.5C 421.103,187.645 387.937,148.645 337.5,124.5C 336.558,120.582 335.892,116.582 335.5,112.5C 369.235,126.133 396.735,147.8 418,177.5C 441.123,210.709 452.957,247.709 453.5,288.5C 452.325,288.719 451.325,288.386 450.5,287.5C 447.431,282.787 444.431,278.121 441.5,273.5 Z"/></g>
<g><path style="opacity:1" fill="#164a0f" d="M 179.5,123.5 C 177.821,123.285 176.821,123.952 176.5,125.5C 170.069,129.396 163.402,132.896 156.5,136C 105.497,169.827 77.4966,217.327 72.5,278.5C 68.6884,285.468 65.3551,292.801 62.5,300.5C 60.1589,222.995 91.4922,163.828 156.5,123C 164.197,118.648 172.197,115.148 180.5,112.5C 179.886,116.135 179.552,119.802 179.5,123.5 Z"/></g>
<g><path style="opacity:1" fill="#113f0c" d="M 192.5,80.5 C 193.198,83.896 193.198,87.2293 192.5,90.5C 193.077,92.5499 194.41,93.5499 196.5,93.5C 196.532,90.0058 197.865,87.3392 200.5,85.5C 200.5,87.5 200.5,89.5 200.5,91.5C 201.5,91.5 202.5,91.5 203.5,91.5C 205.515,92.9238 207.848,93.5905 210.5,93.5C 221.384,97.9406 232.05,102.941 242.5,108.5C 248.08,105.874 253.746,103.541 259.5,101.5C 266.441,100.33 273.441,99.6635 280.5,99.5C 279.5,100.167 278.5,100.833 277.5,101.5C 273.494,102.222 269.494,103.055 265.5,104C 263.569,104.902 261.903,106.069 260.5,107.5C 259.127,107.343 257.793,107.51 256.5,108C 252.226,110.689 247.726,112.855 243,114.5C 235.291,111.395 227.791,107.895 220.5,104C 219.207,103.51 217.873,103.343 216.5,103.5C 209.056,99.6931 201.056,97.6931 192.5,97.5C 193.757,109.861 196.59,121.861 201,133.5C 203.474,139.144 207.641,142.811 213.5,144.5C 223.294,146.685 231.961,144.351 239.5,137.5C 241.199,137.34 242.866,137.506 244.5,138C 250.284,140.892 256.284,143.225 262.5,145C 269.5,145.667 276.5,145.667 283.5,145C 288.775,143.391 293.275,140.558 297,136.5C 299.047,129.268 301.714,122.268 305,115.5C 307.067,112.93 309.567,110.93 312.5,109.5C 314.441,105.736 315.441,101.736 315.5,97.5C 318.237,101.055 320.403,105.055 322,109.5C 322.687,111.568 322.52,113.568 321.5,115.5C 322.262,115.911 323.262,116.077 324.5,116C 323.031,118.438 321.698,120.938 320.5,123.5C 316.508,114.169 312.508,114.169 308.5,123.5C 307.662,123.842 307.328,124.508 307.5,125.5C 306.647,130.092 305.647,134.759 304.5,139.5C 301.833,140.167 299.167,140.833 296.5,141.5C 296.5,142.833 296.5,144.167 296.5,145.5C 293.142,146.285 289.809,147.285 286.5,148.5C 285.807,149.518 285.141,150.518 284.5,151.5C 282.708,151.366 281.042,151.699 279.5,152.5C 275.818,152.665 272.152,152.499 268.5,152C 259.426,149.114 250.426,146.281 241.5,143.5C 235.855,145.988 230.188,148.488 224.5,151C 221.518,151.498 218.518,151.665 215.5,151.5C 214.167,151.5 212.833,151.5 211.5,151.5C 212.425,163.682 216.925,174.348 225,183.5C 230.19,189.345 236.69,192.345 244.5,192.5C 247.167,192.5 249.833,192.5 252.5,192.5C 249.213,193.277 244.546,193.944 238.5,194.5C 237.494,195.396 237.494,196.062 238.5,196.5C 239.736,195.754 241.07,195.421 242.5,195.5C 242.67,196.822 242.337,197.989 241.5,199C 239.19,199.497 236.857,199.663 234.5,199.5C 234.579,200.93 234.246,202.264 233.5,203.5C 234.005,204.919 235.005,205.585 236.5,205.5C 237.525,208.369 239.525,210.202 242.5,211C 251.109,210.847 259.109,208.513 266.5,204C 271.691,200.295 276.691,196.462 281.5,192.5C 284.702,188.479 284.036,185.312 279.5,183C 281.626,182.102 283.626,180.935 285.5,179.5C 287.179,181.104 289.179,181.771 291.5,181.5C 291.5,182.833 291.5,184.167 291.5,185.5C 289.857,185.52 288.524,184.853 287.5,183.5C 286.571,184.689 286.238,186.022 286.5,187.5C 290.212,187.961 293.879,188.627 297.5,189.5C 297.5,188.167 297.5,186.833 297.5,185.5C 295.801,185.66 294.134,185.494 292.5,185C 293.056,184.617 293.389,184.117 293.5,183.5C 303.42,187.366 312.753,192.366 321.5,198.5C 327.113,198.708 332.78,198.875 338.5,199C 343.236,200.081 347.903,201.414 352.5,203C 354.439,203.908 355.439,205.408 355.5,207.5C 359.297,207.872 362.63,209.206 365.5,211.5C 361.133,211.013 356.799,210.347 352.5,209.5C 352.843,211.483 352.176,212.817 350.5,213.5C 343.17,211.867 336.17,212.533 329.5,215.5C 329.167,215.5 328.833,215.5 328.5,215.5C 328.5,214.833 328.5,214.167 328.5,213.5C 329.99,211.72 331.99,211.054 334.5,211.5C 337.132,210.673 339.798,209.84 342.5,209C 334.564,207.47 326.564,207.137 318.5,208C 308.999,210.114 299.999,213.28 291.5,217.5C 275.192,223.151 259.192,229.651 243.5,237C 241.833,237.667 240.167,237.667 238.5,237C 235.277,234.938 231.943,233.104 228.5,231.5C 216.732,223.775 204.732,216.275 192.5,209C 188.129,208.172 183.795,208.339 179.5,209.5C 181.528,210.549 183.528,211.549 185.5,212.5C 185.5,212.833 185.5,213.167 185.5,213.5C 183.179,213.771 181.179,213.104 179.5,211.5C 177.89,212.552 176.223,212.552 174.5,211.5C 173.287,211.747 172.62,212.414 172.5,213.5C 170.254,214.455 167.921,215.122 165.5,215.5C 165.5,214.167 165.5,212.833 165.5,211.5C 161.785,211.423 158.119,211.756 154.5,212.5C 162.093,209.704 169.093,205.871 175.5,201C 183.5,200.667 191.5,200.333 199.5,200C 205.139,195.727 211.473,192.893 218.5,191.5C 218.657,190.127 218.49,188.793 218,187.5C 209.84,176.872 204.673,164.872 202.5,151.5C 195.826,149.658 191.659,145.325 190,138.5C 188.198,131.376 188.032,124.209 189.5,117C 188.362,109.162 187.362,101.329 186.5,93.5C 187.077,91.4501 188.41,90.4501 190.5,90.5C 190.549,86.9219 191.215,83.5885 192.5,80.5 Z"/></g>
<g><path style="opacity:1" fill="#dfd1ca" d="M 226.5,197.5 C 217.997,200.085 209.997,203.752 202.5,208.5C 202.389,207.883 202.056,207.383 201.5,207C 209.371,201.39 218.038,198.057 227.5,197C 227.272,197.399 226.938,197.565 226.5,197.5 Z"/></g>
<g><path style="opacity:1" fill="#dcbcc3" d="M 289.5,191.5 C 289.56,190.957 289.893,190.624 290.5,190.5C 293.5,191.667 296.5,192.833 299.5,194C 304.036,195.762 308.036,198.262 311.5,201.5C 311.167,201.5 310.833,201.5 310.5,201.5C 303.517,198.197 296.517,194.863 289.5,191.5 Z"/></g>
<g><path style="opacity:1" fill="#e7d7dc" d="M 216.5,103.5 C 209.268,101.524 201.935,100.191 194.5,99.5C 195.077,105.357 196.41,111.024 198.5,116.5C 199.869,127.912 204.869,137.245 213.5,144.5C 207.641,142.811 203.474,139.144 201,133.5C 196.59,121.861 193.757,109.861 192.5,97.5C 201.056,97.6931 209.056,99.6931 216.5,103.5 Z"/></g>
<g><path style="opacity:1" fill="#3ab5c3" d="M 277.5,116.5 C 283.301,123.228 282.634,129.228 275.5,134.5C 273.167,135.833 270.833,135.833 268.5,134.5C 264.957,131.713 263.457,128.046 264,123.5C 265.011,124.337 266.178,124.67 267.5,124.5C 266.708,128.077 268.375,130.077 272.5,130.5C 278.485,128.381 279.818,124.548 276.5,119C 276.528,117.93 276.861,117.097 277.5,116.5 Z"/></g>
<g><path style="opacity:1" fill="#def1ef" d="M 267.5,124.5 C 266.178,124.67 265.011,124.337 264,123.5C 263.457,128.046 264.957,131.713 268.5,134.5C 266.114,134.741 264.114,134.075 262.5,132.5C 259.242,127.378 259.908,122.878 264.5,119C 268.714,117.838 270.548,119.338 270,123.5C 269.329,124.252 268.496,124.586 267.5,124.5 Z"/></g>
<g><path style="opacity:1" fill="#8305e0" d="M 284.5,99.5 C 286.5,99.5 288.5,99.5 290.5,99.5C 294.167,99.5 297.833,99.5 301.5,99.5C 301.378,103.838 301.045,104.172 300.5,100.5C 297.962,100.507 295.462,100.841 293,101.5C 289.681,105.073 285.514,106.906 280.5,107C 285.874,107.228 291.207,106.728 296.5,105.5C 297.833,105.833 299.167,106.167 300.5,106.5C 296.569,113.032 293.736,120.032 292,127.5C 291.184,126.177 290.017,125.511 288.5,125.5C 288.392,120.13 288.725,114.797 289.5,109.5C 284.623,108.812 280.29,109.979 276.5,113C 270.418,114.21 264.418,115.71 258.5,117.5C 258.737,118.791 258.404,119.791 257.5,120.5C 257.5,119.5 257.5,118.5 257.5,117.5C 253.378,118.924 249.711,121.257 246.5,124.5C 245.833,127.833 245.167,131.167 244.5,134.5C 242.345,135.001 240.678,136.001 239.5,137.5C 231.961,144.351 223.294,146.685 213.5,144.5C 204.869,137.245 199.869,127.912 198.5,116.5C 200.144,116.714 201.644,116.38 203,115.5C 203.434,112.032 202.934,108.698 201.5,105.5C 203.857,105.337 206.19,105.503 208.5,106C 215.72,109.63 223.386,112.297 231.5,114C 232.357,114.689 233.023,115.522 233.5,116.5C 233.154,117.696 232.654,117.696 232,116.5C 231.333,119.5 231.333,122.5 232,125.5C 233.356,126.38 234.856,126.714 236.5,126.5C 236.5,124.5 236.5,122.5 236.5,120.5C 240.915,120.695 245.249,120.195 249.5,119C 258.419,113.248 268.086,109.248 278.5,107C 274.805,106.682 271.138,106.182 267.5,105.5C 265.423,106.937 263.09,107.604 260.5,107.5C 261.903,106.069 263.569,104.902 265.5,104C 269.494,103.055 273.494,102.222 277.5,101.5C 280.388,102.01 282.721,101.344 284.5,99.5 Z"/></g>
<g><path style="opacity:1" fill="#44abba" d="M 217.5,124.5 C 217.504,129.989 220.171,131.822 225.5,130C 226.376,128.414 227.376,126.914 228.5,125.5C 229.48,128.086 229.813,130.753 229.5,133.5C 225.232,134.373 220.898,134.706 216.5,134.5C 216.5,134.167 216.5,133.833 216.5,133.5C 217.239,133.631 217.906,133.464 218.5,133C 215.276,130.161 214.942,127.328 217.5,124.5 Z"/></g>
<g><path style="opacity:1" fill="#c9ded9" d="M 277.5,116.5 C 277.56,115.957 277.893,115.624 278.5,115.5C 281.688,117.209 283.355,119.876 283.5,123.5C 283.134,127.272 281.801,130.606 279.5,133.5C 278.432,134.434 277.099,134.768 275.5,134.5C 282.634,129.228 283.301,123.228 277.5,116.5 Z"/></g>
<g><path style="opacity:1" fill="#113a15" d="M 288.5,125.5 C 286.992,129.839 283.992,132.506 279.5,133.5C 281.801,130.606 283.134,127.272 283.5,123.5C 283.355,119.876 281.688,117.209 278.5,115.5C 277.893,115.624 277.56,115.957 277.5,116.5C 276.861,117.097 276.528,117.93 276.5,119C 279.818,124.548 278.485,128.381 272.5,130.5C 268.375,130.077 266.708,128.077 267.5,124.5C 268.496,124.586 269.329,124.252 270,123.5C 270.548,119.338 268.714,117.838 264.5,119C 259.908,122.878 259.242,127.378 262.5,132.5C 260.234,132.859 258.401,132.192 257,130.5C 256.457,127.132 256.624,123.799 257.5,120.5C 258.404,119.791 258.737,118.791 258.5,117.5C 264.418,115.71 270.418,114.21 276.5,113C 280.29,109.979 284.623,108.812 289.5,109.5C 288.725,114.797 288.392,120.13 288.5,125.5 Z"/></g>
<g><path style="opacity:1" fill="#1d3c18" d="M 229.5,133.5 C 229.813,130.753 229.48,128.086 228.5,125.5C 227.376,126.914 226.376,128.414 225.5,130C 220.171,131.822 217.504,129.989 217.5,124.5C 219.213,123.365 219.88,121.698 219.5,119.5C 216.282,119.349 215.949,118.516 218.5,117C 215.692,116.08 213.525,116.913 212,119.5C 210.452,125.29 211.952,129.956 216.5,133.5C 216.5,133.833 216.5,134.167 216.5,134.5C 214.863,135.218 213.197,135.384 211.5,135C 209.667,133.167 207.833,131.333 206,129.5C 204.81,122.903 204.643,116.236 205.5,109.5C 209.306,109.02 212.639,110.02 215.5,112.5C 216.086,112.291 216.586,111.957 217,111.5C 221.054,113.557 225.221,115.391 229.5,117C 230.825,122.599 230.825,128.099 229.5,133.5 Z"/></g>
<g><path style="opacity:1" fill="#e1f2ef" d="M 217.5,124.5 C 214.942,127.328 215.276,130.161 218.5,133C 217.906,133.464 217.239,133.631 216.5,133.5C 211.952,129.956 210.452,125.29 212,119.5C 213.525,116.913 215.692,116.08 218.5,117C 215.949,118.516 216.282,119.349 219.5,119.5C 219.88,121.698 219.213,123.365 217.5,124.5 Z"/></g>
<g><path style="opacity:1" fill="#8e06f6" d="M 216.5,103.5 C 217.873,103.343 219.207,103.51 220.5,104C 227.791,107.895 235.291,111.395 243,114.5C 247.726,112.855 252.226,110.689 256.5,108C 257.793,107.51 259.127,107.343 260.5,107.5C 263.09,107.604 265.423,106.937 267.5,105.5C 271.138,106.182 274.805,106.682 278.5,107C 268.086,109.248 258.419,113.248 249.5,119C 245.249,120.195 240.915,120.695 236.5,120.5C 236.5,122.5 236.5,124.5 236.5,126.5C 234.856,126.714 233.356,126.38 232,125.5C 231.333,122.5 231.333,119.5 232,116.5C 232.654,117.696 233.154,117.696 233.5,116.5C 233.023,115.522 232.357,114.689 231.5,114C 223.386,112.297 215.72,109.63 208.5,106C 206.19,105.503 203.857,105.337 201.5,105.5C 202.934,108.698 203.434,112.032 203,115.5C 201.644,116.38 200.144,116.714 198.5,116.5C 196.41,111.024 195.077,105.357 194.5,99.5C 201.935,100.191 209.268,101.524 216.5,103.5 Z"/></g>
<g><path style="opacity:1" fill="#76678e" d="M 280.5,99.5 C 281.833,99.5 283.167,99.5 284.5,99.5C 282.721,101.344 280.388,102.01 277.5,101.5C 278.5,100.833 279.5,100.167 280.5,99.5 Z"/></g>
<g><path style="opacity:1" fill="#c98fce" d="M 307.5,97.5 C 305.698,98.4582 303.698,99.1249 301.5,99.5C 297.833,99.5 294.167,99.5 290.5,99.5C 295.944,98.1164 301.611,97.4497 307.5,97.5 Z"/></g>
<g><path style="opacity:1" fill="#057510" d="M 281.5,192.5 C 276.691,196.462 271.691,200.295 266.5,204C 259.109,208.513 251.109,210.847 242.5,211C 239.525,210.202 237.525,208.369 236.5,205.5C 235.962,203.883 235.629,202.216 235.5,200.5C 242.464,201.553 249.464,201.72 256.5,201C 263.726,198.099 270.726,194.766 277.5,191C 278.337,189.989 278.67,188.822 278.5,187.5C 279.5,187.5 280.5,187.5 281.5,187.5C 281.5,189.167 281.5,190.833 281.5,192.5 Z"/></g>
<g><path style="opacity:1" fill="#a52124" d="M 310.5,201.5 C 310.833,201.5 311.167,201.5 311.5,201.5C 313.912,201.694 314.912,203.027 314.5,205.5C 309.778,205.848 305.111,206.515 300.5,207.5C 303.833,205.5 307.167,203.5 310.5,201.5 Z"/></g>
<g><path style="opacity:1" fill="#f6edf4" d="M 126.5,185.5 C 128.945,187.672 130.945,190.338 132.5,193.5C 135.96,195.133 139.294,196.966 142.5,199C 140.089,200.583 137.422,201.583 134.5,202C 131.133,205.201 128.8,209.034 127.5,213.5C 126.611,210.054 124.944,207.054 122.5,204.5C 119.157,202.496 115.824,200.496 112.5,198.5C 115.858,196.829 119.192,195.162 122.5,193.5C 124.372,191.09 125.705,188.423 126.5,185.5 Z"/></g>
<g><path style="opacity:1" fill="#ee0b33" d="M 289.5,191.5 C 296.517,194.863 303.517,198.197 310.5,201.5C 307.167,203.5 303.833,205.5 300.5,207.5C 299.082,209.308 297.082,209.975 294.5,209.5C 288.83,208.553 284.83,210.553 282.5,215.5C 278.508,215.998 274.842,217.332 271.5,219.5C 269.396,219.201 267.396,219.534 265.5,220.5C 262.832,221.513 260.832,223.179 259.5,225.5C 252.091,229.855 244.091,231.522 235.5,230.5C 224.801,222.478 213.801,215.145 202.5,208.5C 209.997,203.752 217.997,200.085 226.5,197.5C 228.056,214.422 237.056,220.088 253.5,214.5C 265.456,210.251 276.456,204.251 286.5,196.5C 287.275,194.604 288.275,192.937 289.5,191.5 Z"/></g>
<g><path style="opacity:1" fill="#f2a107" d="M 334.5,211.5 C 331.99,211.054 329.99,211.72 328.5,213.5C 326.5,213.5 324.5,213.5 322.5,213.5C 320.076,213.808 317.743,213.474 315.5,212.5C 319.065,210.555 322.898,209.555 327,209.5C 329.929,209.525 332.429,210.191 334.5,211.5 Z"/></g>
<g><path style="opacity:1" fill="#8d1211" d="M 294.5,209.5 C 293.993,210.859 292.993,211.859 291.5,212.5C 288.348,213.255 285.348,214.255 282.5,215.5C 284.83,210.553 288.83,208.553 294.5,209.5 Z"/></g>
<g><path style="opacity:1" fill="#e1bc3c" d="M 334.5,211.5 C 332.429,210.191 329.929,209.525 327,209.5C 322.898,209.555 319.065,210.555 315.5,212.5C 317.743,213.474 320.076,213.808 322.5,213.5C 319.098,215.278 315.431,216.611 311.5,217.5C 312.007,216.141 313.007,215.141 314.5,214.5C 312.667,214.167 310.833,213.833 309,213.5C 303.112,214.597 297.279,215.93 291.5,217.5C 299.999,213.28 308.999,210.114 318.5,208C 326.564,207.137 334.564,207.47 342.5,209C 339.798,209.84 337.132,210.673 334.5,211.5 Z"/></g>
<g><path style="opacity:1" fill="#c6f2be" d="M 172.5,213.5 C 176.032,213.31 179.365,213.977 182.5,215.5C 181.22,216.931 179.553,217.598 177.5,217.5C 166.247,217.06 156.581,220.727 148.5,228.5C 145.439,233.204 142.106,237.537 138.5,241.5C 143.534,228.801 152.534,220.134 165.5,215.5C 167.921,215.122 170.254,214.455 172.5,213.5 Z"/></g>
<g><path style="opacity:1" fill="#4bf547" d="M 328.5,215.5 C 328.833,215.5 329.167,215.5 329.5,215.5C 342.559,215.078 354.559,218.411 365.5,225.5C 368.177,227.845 370.51,230.512 372.5,233.5C 369.833,233.5 367.167,233.5 364.5,233.5C 361.264,230.203 357.597,227.37 353.5,225C 345.383,221.063 337.05,217.896 328.5,215.5 Z"/></g>
<g><path style="opacity:1" fill="#e9e8ac" d="M 228.5,231.5 C 225.87,230.572 223.204,229.572 220.5,228.5C 211.801,223.143 203.134,217.81 194.5,212.5C 191.355,211.197 188.355,211.197 185.5,212.5C 183.528,211.549 181.528,210.549 179.5,209.5C 183.795,208.339 188.129,208.172 192.5,209C 204.732,216.275 216.732,223.775 228.5,231.5 Z"/></g>
<g><path style="opacity:1" fill="#f2d9e9" d="M 107.5,217.5 C 108.5,217.5 109.5,217.5 110.5,217.5C 110.5,218.5 110.5,219.5 110.5,220.5C 112.103,220.312 113.437,220.812 114.5,222C 112.29,223.509 110.457,225.342 109,227.5C 107.152,225.321 104.985,223.487 102.5,222C 103.623,220.956 104.956,220.29 106.5,220C 107.252,219.329 107.586,218.496 107.5,217.5 Z"/></g>
<g><path style="opacity:1" fill="#f5d9e7" d="M 407.5,216.5 C 409.026,217.105 410.026,218.271 410.5,220C 411.938,220.219 413.271,220.719 414.5,221.5C 411.81,223.193 409.81,225.527 408.5,228.5C 407.565,225.898 405.898,223.898 403.5,222.5C 404.347,221.155 405.513,220.155 407,219.5C 407.483,218.552 407.649,217.552 407.5,216.5 Z"/></g>
<g><path style="opacity:1" fill="#abf2a1" d="M 350.5,213.5 C 359.705,216.102 367.705,220.769 374.5,227.5C 371.564,226.594 368.564,225.928 365.5,225.5C 354.559,218.411 342.559,215.078 329.5,215.5C 336.17,212.533 343.17,211.867 350.5,213.5 Z"/></g>
<g><path style="opacity:1" fill="#0abc24" d="M 328.5,215.5 C 337.05,217.896 345.383,221.063 353.5,225C 357.597,227.37 361.264,230.203 364.5,233.5C 362.775,236.437 363.441,238.603 366.5,240C 371.199,241.713 373.532,240.213 373.5,235.5C 375.967,238.83 377.3,242.664 377.5,247C 376.724,250.489 376.058,253.989 375.5,257.5C 377.833,257.5 380.167,257.5 382.5,257.5C 378.465,264.828 379.799,265.494 386.5,259.5C 402.586,272.228 417.92,285.895 432.5,300.5C 429.783,307.436 426.283,314.103 422,320.5C 420.989,321.337 419.822,321.67 418.5,321.5C 418.5,320.167 417.833,319.5 416.5,319.5C 412.651,309.823 405.651,303.823 395.5,301.5C 395.5,300.167 394.833,299.5 393.5,299.5C 398.171,295.719 403.504,292.886 409.5,291C 406.722,289.608 403.722,289.108 400.5,289.5C 379.955,277.619 362.955,261.952 349.5,242.5C 345.495,241.562 341.495,241.395 337.5,242C 336.887,239.853 336.221,237.686 335.5,235.5C 328.985,247.865 322.485,260.198 316,272.5C 306.582,283.116 295.082,290.116 281.5,293.5C 278.921,288.013 275.588,283.013 271.5,278.5C 266.104,280.521 261.437,283.521 257.5,287.5C 259.694,291.421 261.694,295.421 263.5,299.5C 263.389,300.117 263.056,300.617 262.5,301C 260.19,301.497 257.857,301.663 255.5,301.5C 254.325,301.281 253.325,301.614 252.5,302.5C 250.234,306.247 248.234,310.08 246.5,314C 247.513,318.531 249.68,322.365 253,325.5C 257.986,323.834 263.153,323.001 268.5,323C 271.319,318.519 273.986,314.019 276.5,309.5C 277.376,309.631 278.043,309.298 278.5,308.5C 279.137,305.893 280.304,303.56 282,301.5C 284.706,303.871 287.039,306.537 289,309.5C 291.063,325.087 289.063,340.087 283,354.5C 281.482,355.163 280.315,356.163 279.5,357.5C 274.489,357.666 269.489,357.499 264.5,357C 258.97,350.693 251.97,347.527 243.5,347.5C 243.048,332.834 242.548,318.168 242,303.5C 241.612,302.572 240.945,301.905 240,301.5C 234.217,302.01 228.384,302.01 222.5,301.5C 223.352,298.777 224.519,296.11 226,293.5C 227.241,295.421 228.741,295.754 230.5,294.5C 228.566,290.241 226.232,286.241 223.5,282.5C 216.858,281.336 210.192,281.169 203.5,282C 205.768,282.972 207.768,284.305 209.5,286C 207.985,288.666 206.319,291.166 204.5,293.5C 202.847,293.34 201.514,292.674 200.5,291.5C 192.153,284.64 184.153,277.307 176.5,269.5C 175.64,265.566 175.307,261.566 175.5,257.5C 176.758,248.465 179.258,239.798 183,231.5C 185.277,227.92 187.777,224.586 190.5,221.5C 206.977,232.738 224.31,242.404 242.5,250.5C 271.245,239.08 299.911,227.414 328.5,215.5 Z"/></g>
<g><path style="opacity:1" fill="#47f344" d="M 177.5,217.5 C 171.091,221.545 164.425,225.379 157.5,229C 155.253,232.051 152.919,234.884 150.5,237.5C 148.254,239.649 146.754,242.316 146,245.5C 145.436,250.194 145.603,254.86 146.5,259.5C 144.5,259.5 142.5,259.5 140.5,259.5C 138.59,258.025 137.424,256.025 137,253.5C 136.088,249.194 136.588,245.194 138.5,241.5C 142.106,237.537 145.439,233.204 148.5,228.5C 156.581,220.727 166.247,217.06 177.5,217.5 Z"/></g>
<g><path style="opacity:1" fill="#efac16" d="M 228.5,231.5 C 231.943,233.104 235.277,234.938 238.5,237C 240.167,237.667 241.833,237.667 243.5,237C 259.192,229.651 275.192,223.151 291.5,217.5C 297.279,215.93 303.112,214.597 309,213.5C 310.833,213.833 312.667,214.167 314.5,214.5C 313.007,215.141 312.007,216.141 311.5,217.5C 287.901,225.972 264.568,234.972 241.5,244.5C 236.082,242.292 230.749,239.792 225.5,237C 212.244,228.878 198.91,221.045 185.5,213.5C 185.5,213.167 185.5,212.833 185.5,212.5C 188.355,211.197 191.355,211.197 194.5,212.5C 203.134,217.81 211.801,223.143 220.5,228.5C 223.204,229.572 225.87,230.572 228.5,231.5 Z"/></g>
<g><path style="opacity:1" fill="#e6fbea" d="M 364.5,233.5 C 367.167,233.5 369.833,233.5 372.5,233.5C 372.328,234.492 372.662,235.158 373.5,235.5C 373.532,240.213 371.199,241.713 366.5,240C 363.441,238.603 362.775,236.437 364.5,233.5 Z"/></g>
<g><path style="opacity:1" fill="#effae9" d="M 187.5,219.5 C 189.027,219.427 190.027,220.094 190.5,221.5C 187.777,224.586 185.277,227.92 183,231.5C 179.258,239.798 176.758,248.465 175.5,257.5C 174.833,262.167 174.167,266.833 173.5,271.5C 171.496,270.327 169.996,268.66 169,266.5C 168.251,259.402 168.751,252.402 170.5,245.5C 173.673,236.828 178.173,228.828 184,221.5C 184.816,220.177 185.983,219.511 187.5,219.5 Z"/></g>
<g><path style="opacity:1" fill="#104908" d="M 185.5,213.5 C 198.91,221.045 212.244,228.878 225.5,237C 230.749,239.792 236.082,242.292 241.5,244.5C 264.568,234.972 287.901,225.972 311.5,217.5C 315.431,216.611 319.098,215.278 322.5,213.5C 324.5,213.5 326.5,213.5 328.5,213.5C 328.5,214.167 328.5,214.833 328.5,215.5C 299.911,227.414 271.245,239.08 242.5,250.5C 224.31,242.404 206.977,232.738 190.5,221.5C 190.027,220.094 189.027,219.427 187.5,219.5C 186.421,217.457 184.754,216.124 182.5,215.5C 179.365,213.977 176.032,213.31 172.5,213.5C 172.62,212.414 173.287,211.747 174.5,211.5C 176.223,212.552 177.89,212.552 179.5,211.5C 181.179,213.104 183.179,213.771 185.5,213.5 Z"/></g>
<g><path style="opacity:1" fill="#6b150a" d="M 271.5,219.5 C 268.066,222.351 264.066,224.351 259.5,225.5C 260.832,223.179 262.832,221.513 265.5,220.5C 267.396,219.534 269.396,219.201 271.5,219.5 Z"/></g>
<g><path style="opacity:1" fill="#69f961" d="M 365.5,225.5 C 368.564,225.928 371.564,226.594 374.5,227.5C 382.695,234.229 386.195,242.895 385,253.5C 384.8,255.32 383.966,256.653 382.5,257.5C 380.167,257.5 377.833,257.5 375.5,257.5C 376.058,253.989 376.724,250.489 377.5,247C 377.3,242.664 375.967,238.83 373.5,235.5C 372.662,235.158 372.328,234.492 372.5,233.5C 370.51,230.512 368.177,227.845 365.5,225.5 Z"/></g>
<g><path style="opacity:1" fill="#0e480c" d="M 365.5,211.5 C 380.162,218.501 389.829,229.834 394.5,245.5C 415.3,259.464 432.133,277.131 445,298.5C 445.799,312.109 441.132,323.442 431,332.5C 425.951,346.965 417.284,358.632 405,367.5C 404.506,369.134 404.34,370.801 404.5,372.5C 402.827,368.28 403.827,364.613 407.5,361.5C 408.192,362.025 408.692,362.692 409,363.5C 409.814,361.718 410.981,360.218 412.5,359C 412.167,358.667 411.833,358.333 411.5,358C 412.448,357.517 413.448,357.351 414.5,357.5C 414.59,354.654 415.756,352.321 418,350.5C 419.138,346.879 419.972,343.212 420.5,339.5C 421.114,335.865 421.448,332.198 421.5,328.5C 423.747,327.396 425.58,325.729 427,323.5C 428.567,322.144 430.4,321.477 432.5,321.5C 433.727,315.805 435.06,310.139 436.5,304.5C 436.702,302.011 436.202,299.677 435,297.5C 423.041,280.54 408.707,265.874 392,253.5C 389.96,255.37 388.127,257.37 386.5,259.5C 379.799,265.494 378.465,264.828 382.5,257.5C 383.966,256.653 384.8,255.32 385,253.5C 386.195,242.895 382.695,234.229 374.5,227.5C 367.705,220.769 359.705,216.102 350.5,213.5C 352.176,212.817 352.843,211.483 352.5,209.5C 356.799,210.347 361.133,211.013 365.5,211.5 Z"/></g>
<g><path style="opacity:1" fill="#f3fbf4" d="M 228.5,253.5 C 235.243,254.408 239.243,258.242 240.5,265C 237.977,270.712 234.977,276.212 231.5,281.5C 225.812,279.041 220.812,275.708 216.5,271.5C 219.517,264.785 223.517,258.785 228.5,253.5 Z"/></g>
<g><path style="opacity:1" fill="#f4fbf5" d="M 236.5,254.5 C 243.344,253.181 250.344,253.181 257.5,254.5C 259.957,257.914 262.291,261.414 264.5,265C 266.464,265.624 268.131,265.124 269.5,263.5C 269.833,263.833 270.167,264.167 270.5,264.5C 267.455,268.752 264.789,273.252 262.5,278C 256.493,278.2 250.493,277.867 244.5,277C 246.167,275.833 247.833,274.667 249.5,273.5C 246.272,266.296 241.938,259.962 236.5,254.5 Z"/></g>
<g><path style="opacity:1" fill="#0ab922" d="M 182.5,215.5 C 184.754,216.124 186.421,217.457 187.5,219.5C 185.983,219.511 184.816,220.177 184,221.5C 178.173,228.828 173.673,236.828 170.5,245.5C 169.5,246.833 168.5,248.167 167.5,249.5C 152.056,269.697 132.389,283.697 108.5,291.5C 109.766,292.362 111.099,293.029 112.5,293.5C 116.425,294.579 119.758,296.579 122.5,299.5C 118.577,299.809 115.243,301.142 112.5,303.5C 102.901,307.776 96.9012,315.11 94.5,325.5C 94.1667,325.5 93.8333,325.5 93.5,325.5C 89.5597,318.619 85.8931,311.619 82.5,304.5C 89.5761,296.922 96.9094,289.422 104.5,282C 114.609,274.29 124.275,266.124 133.5,257.5C 136.186,260.673 139.52,262.507 143.5,263C 142.29,261.961 141.29,260.794 140.5,259.5C 142.5,259.5 144.5,259.5 146.5,259.5C 145.603,254.86 145.436,250.194 146,245.5C 146.754,242.316 148.254,239.649 150.5,237.5C 152.919,234.884 155.253,232.051 157.5,229C 164.425,225.379 171.091,221.545 177.5,217.5C 179.553,217.598 181.22,216.931 182.5,215.5 Z"/></g>
<g><path style="opacity:1" fill="#ccf8df" d="M 150.5,237.5 C 152.384,237.712 153.717,238.712 154.5,240.5C 152.833,241.833 151.167,241.833 149.5,240.5C 150.127,239.583 150.461,238.583 150.5,237.5 Z"/></g>
<g><path style="opacity:1" fill="#bdf9ad" d="M 175.5,257.5 C 175.307,261.566 175.64,265.566 176.5,269.5C 176.884,271.929 177.551,274.263 178.5,276.5C 176.5,275.167 174.833,273.5 173.5,271.5C 174.167,266.833 174.833,262.167 175.5,257.5 Z"/></g>
<g><path style="opacity:1" fill="#87fa79" d="M 436.5,304.5 C 435.167,303.167 433.833,301.833 432.5,300.5C 417.92,285.895 402.586,272.228 386.5,259.5C 388.127,257.37 389.96,255.37 392,253.5C 408.707,265.874 423.041,280.54 435,297.5C 436.202,299.677 436.702,302.011 436.5,304.5 Z"/></g>
<g><path style="opacity:1" fill="#7a01d4" d="M 358.5,289.5 C 362.736,296.888 364.736,304.888 364.5,313.5C 363.325,313.281 362.325,313.614 361.5,314.5C 357.052,320.601 353.052,326.935 349.5,333.5C 346.52,333.759 344.687,332.426 344,329.5C 342.321,320.28 339.488,311.446 335.5,303C 337.165,299.997 336.498,297.664 333.5,296C 334.252,295.329 334.586,294.496 334.5,293.5C 334.5,292.833 334.5,292.167 334.5,291.5C 337.161,287.69 338.161,283.356 337.5,278.5C 339.011,276.559 341.011,276.059 343.5,277C 346.5,280.333 349.5,283.667 352.5,287C 354.217,288.559 356.217,289.392 358.5,289.5 Z"/></g>
<g><path style="opacity:1" fill="#4ff44c" d="M 133.5,257.5 C 124.275,266.124 114.609,274.29 104.5,282C 96.9094,289.422 89.5761,296.922 82.5,304.5C 82.1667,304.5 81.8333,304.5 81.5,304.5C 90.579,285.752 103.912,270.752 121.5,259.5C 125.36,258.356 129.36,257.689 133.5,257.5 Z"/></g>
<g><path style="opacity:1" fill="#03790f" d="M 167.5,249.5 C 167.958,254.866 167.291,260.033 165.5,265C 164.552,265.483 163.552,265.649 162.5,265.5C 163.511,269.199 163.511,272.866 162.5,276.5C 154.136,282.676 145.803,288.843 137.5,295C 136.271,295.781 134.938,296.281 133.5,296.5C 126.631,294.41 119.798,292.41 113,290.5C 112.5,290.667 112,290.833 111.5,291C 112.252,291.671 112.586,292.504 112.5,293.5C 111.099,293.029 109.766,292.362 108.5,291.5C 132.389,283.697 152.056,269.697 167.5,249.5 Z"/></g>
<g><path style="opacity:1" fill="#0d480b" d="M 165.5,215.5 C 152.534,220.134 143.534,228.801 138.5,241.5C 136.588,245.194 136.088,249.194 137,253.5C 137.424,256.025 138.59,258.025 140.5,259.5C 141.29,260.794 142.29,261.961 143.5,263C 139.52,262.507 136.186,260.673 133.5,257.5C 132.521,255.855 131.188,254.521 129.5,253.5C 126.407,255.034 123.74,257.034 121.5,259.5C 103.912,270.752 90.579,285.752 81.5,304.5C 82.6836,311.537 85.5169,317.87 90,323.5C 90.8159,324.823 91.9826,325.489 93.5,325.5C 93.8333,325.5 94.1667,325.5 94.5,325.5C 92.9046,335.633 96.2379,343.633 104.5,349.5C 103.697,350.423 103.53,351.423 104,352.5C 109.285,359.228 116.118,363.562 124.5,365.5C 124.721,366.735 125.388,367.735 126.5,368.5C 126.167,369.167 125.833,369.833 125.5,370.5C 121.893,371.489 118.226,371.823 114.5,371.5C 114.5,370.167 114.5,368.833 114.5,367.5C 111.833,366.833 109.167,366.167 106.5,365.5C 105.115,364.386 103.615,363.386 102,362.5C 98.9931,355.814 94.9931,349.814 90,344.5C 88.1556,341.467 87.1556,338.134 87,334.5C 77.5719,324.316 73.2386,312.316 74,298.5C 87.3153,275.685 105.482,257.685 128.5,244.5C 131.775,234.113 137.442,225.28 145.5,218C 148.194,215.653 151.194,213.82 154.5,212.5C 158.119,211.756 161.785,211.423 165.5,211.5C 165.5,212.833 165.5,214.167 165.5,215.5 Z"/></g>
<g><path style="opacity:1" fill="#8aed85" d="M 133.5,257.5 C 129.36,257.689 125.36,258.356 121.5,259.5C 123.74,257.034 126.407,255.034 129.5,253.5C 131.188,254.521 132.521,255.855 133.5,257.5 Z"/></g>
<g><path style="opacity:1" fill="#73ee70" d="M 176.5,269.5 C 184.153,277.307 192.153,284.64 200.5,291.5C 192.118,287.98 184.785,282.98 178.5,276.5C 177.551,274.263 176.884,271.929 176.5,269.5 Z"/></g>
<g><path style="opacity:1" fill="#7b01d3" d="M 172.5,283.5 C 169.55,298.671 163.883,312.671 155.5,325.5C 153.492,324.384 152.492,322.551 152.5,320C 154.755,311.08 157.089,302.247 159.5,293.5C 159.5,292.167 159.5,290.833 159.5,289.5C 160.552,289.649 161.552,289.483 162.5,289C 164.219,286.281 166.553,284.281 169.5,283C 170.749,282.26 171.749,282.427 172.5,283.5 Z"/></g>
<g><path style="opacity:1" fill="#6e0092" d="M 172.5,283.5 C 174.812,284.478 176.478,286.145 177.5,288.5C 179.464,293.687 180.797,299.021 181.5,304.5C 179.135,316.859 175.801,328.859 171.5,340.5C 169.376,342.174 167.042,343.007 164.5,343C 160.812,337.49 157.812,331.657 155.5,325.5C 163.883,312.671 169.55,298.671 172.5,283.5 Z"/></g>
<g><path style="opacity:1" fill="#094209" d="M 170.5,245.5 C 168.751,252.402 168.251,259.402 169,266.5C 169.996,268.66 171.496,270.327 173.5,271.5C 174.833,273.5 176.5,275.167 178.5,276.5C 184.785,282.98 192.118,287.98 200.5,291.5C 201.514,292.674 202.847,293.34 204.5,293.5C 204.401,296.237 204.735,298.904 205.5,301.5C 199.818,300.827 195.151,298.327 191.5,294C 190.5,293.333 189.5,293.333 188.5,294C 190.79,300.735 193.457,307.235 196.5,313.5C 200.441,325.993 203.775,338.66 206.5,351.5C 206.5,352.833 206.5,354.167 206.5,355.5C 203.833,355.5 201.167,355.5 198.5,355.5C 198.757,352.068 199.424,348.734 200.5,345.5C 196.445,345.824 192.445,345.491 188.5,344.5C 186.076,342.286 186.743,341.286 190.5,341.5C 191.833,341.5 193.167,341.5 194.5,341.5C 192.124,331.034 189.124,320.7 185.5,310.5C 184.421,308.214 183.087,306.214 181.5,304.5C 180.797,299.021 179.464,293.687 177.5,288.5C 176.478,286.145 174.812,284.478 172.5,283.5C 171.749,282.427 170.749,282.26 169.5,283C 166.553,284.281 164.219,286.281 162.5,289C 161.552,289.483 160.552,289.649 159.5,289.5C 159.5,290.833 159.5,292.167 159.5,293.5C 158.504,293.586 157.671,293.252 157,292.5C 156.502,295.482 156.335,298.482 156.5,301.5C 152.416,300.945 151.749,301.945 154.5,304.5C 153.311,305.429 151.978,305.762 150.5,305.5C 151.038,302.811 151.705,300.144 152.5,297.5C 152.167,297.167 151.833,296.833 151.5,296.5C 147.763,298.221 144.763,300.721 142.5,304C 144.126,306.406 145.459,308.906 146.5,311.5C 146.762,312.978 146.429,314.311 145.5,315.5C 144.682,313.892 144.015,312.225 143.5,310.5C 141.833,309.833 140.167,309.167 138.5,308.5C 139.167,307.833 139.833,307.167 140.5,306.5C 138.204,304.448 135.537,303.448 132.5,303.5C 132.5,302.167 132.5,300.833 132.5,299.5C 130.302,299.12 128.635,299.787 127.5,301.5C 127.167,301.5 126.833,301.5 126.5,301.5C 125.486,300.326 124.153,299.66 122.5,299.5C 119.758,296.579 116.425,294.579 112.5,293.5C 112.586,292.504 112.252,291.671 111.5,291C 112,290.833 112.5,290.667 113,290.5C 119.798,292.41 126.631,294.41 133.5,296.5C 134.938,296.281 136.271,295.781 137.5,295C 145.803,288.843 154.136,282.676 162.5,276.5C 163.511,272.866 163.511,269.199 162.5,265.5C 163.552,265.649 164.552,265.483 165.5,265C 167.291,260.033 167.958,254.866 167.5,249.5C 168.5,248.167 169.5,246.833 170.5,245.5 Z"/></g>
<g><path style="opacity:1" fill="#f4fbf5" d="M 222.5,301.5 C 216.833,304.167 211.167,304.167 205.5,301.5C 204.735,298.904 204.401,296.237 204.5,293.5C 206.319,291.166 207.985,288.666 209.5,286C 207.768,284.305 205.768,282.972 203.5,282C 210.192,281.169 216.858,281.336 223.5,282.5C 226.232,286.241 228.566,290.241 230.5,294.5C 228.741,295.754 227.241,295.421 226,293.5C 224.519,296.11 223.352,298.777 222.5,301.5 Z"/></g>
<g><path style="opacity:1" fill="#620481" d="M 334.5,293.5 C 334.586,294.496 334.252,295.329 333.5,296C 336.498,297.664 337.165,299.997 335.5,303C 339.488,311.446 342.321,320.28 344,329.5C 344.687,332.426 346.52,333.759 349.5,333.5C 347.89,336.466 346.223,339.466 344.5,342.5C 343.554,342.987 342.554,343.32 341.5,343.5C 334.839,341.835 328.173,340.168 321.5,338.5C 319.314,338.711 317.147,339.044 315,339.5C 313.301,339.613 312.134,338.947 311.5,337.5C 317.695,322.001 325.361,307.334 334.5,293.5 Z"/></g>
<g><path style="opacity:1" fill="#f4fbf4" d="M 281.5,293.5 C 282.186,297.287 281.186,300.454 278.5,303C 274.5,303.667 270.5,303.667 266.5,303C 265.364,301.855 264.364,300.688 263.5,299.5C 261.694,295.421 259.694,291.421 257.5,287.5C 261.437,283.521 266.104,280.521 271.5,278.5C 275.588,283.013 278.921,288.013 281.5,293.5 Z"/></g>
<g><path style="opacity:1" fill="#047910" d="M 400.5,289.5 C 396.5,290.865 392.5,292.698 388.5,295C 385.366,296.252 382.366,296.252 379.5,295C 370.224,287.025 360.557,279.525 350.5,272.5C 342.95,266.628 336.117,259.961 330,252.5C 328.665,258.819 329.998,264.486 334,269.5C 334.667,270.833 334.667,272.167 334,273.5C 323.364,294.771 312.698,316.104 302,337.5C 300.307,343.608 298.307,349.608 296,355.5C 290.803,357.42 285.303,358.087 279.5,357.5C 280.315,356.163 281.482,355.163 283,354.5C 289.063,340.087 291.063,325.087 289,309.5C 287.039,306.537 284.706,303.871 282,301.5C 280.304,303.56 279.137,305.893 278.5,308.5C 278.043,309.298 277.376,309.631 276.5,309.5C 277.028,308.279 277.695,307.113 278.5,306C 270.841,305.5 263.174,305.334 255.5,305.5C 255.5,304.167 255.5,302.833 255.5,301.5C 257.857,301.663 260.19,301.497 262.5,301C 263.056,300.617 263.389,300.117 263.5,299.5C 264.364,300.688 265.364,301.855 266.5,303C 270.5,303.667 274.5,303.667 278.5,303C 281.186,300.454 282.186,297.287 281.5,293.5C 295.082,290.116 306.582,283.116 316,272.5C 322.485,260.198 328.985,247.865 335.5,235.5C 336.221,237.686 336.887,239.853 337.5,242C 341.495,241.395 345.495,241.562 349.5,242.5C 362.955,261.952 379.955,277.619 400.5,289.5 Z"/></g>
<g><path style="opacity:1" fill="#f2ec5b" d="M 393.5,299.5 C 394.833,299.5 395.5,300.167 395.5,301.5C 391.811,303.201 391.811,304.867 395.5,306.5C 394.129,309.638 391.796,311.304 388.5,311.5C 384.716,309.684 380.716,308.684 376.5,308.5C 380.986,303.365 386.652,300.365 393.5,299.5 Z"/></g>
<g><path style="opacity:1" fill="#f8bc0b" d="M 395.5,301.5 C 405.651,303.823 412.651,309.823 416.5,319.5C 412.87,322.117 409.203,324.784 405.5,327.5C 404.735,326.388 403.735,325.721 402.5,325.5C 398.174,320.507 393.507,315.84 388.5,311.5C 391.796,311.304 394.129,309.638 395.5,306.5C 391.811,304.867 391.811,303.201 395.5,301.5 Z"/></g>
<g><path style="opacity:1" fill="#e8eb53" d="M 122.5,299.5 C 124.153,299.66 125.486,300.326 126.5,301.5C 123.813,301.336 121.146,301.503 118.5,302C 120.747,304.929 123.08,307.763 125.5,310.5C 125.158,311.338 124.492,311.672 123.5,311.5C 119.856,311.292 117.689,309.292 117,305.5C 115.89,303.963 114.39,303.297 112.5,303.5C 115.243,301.142 118.577,299.809 122.5,299.5 Z"/></g>
<g><path style="opacity:1" fill="#f0b81b" d="M 126.5,301.5 C 126.833,301.5 127.167,301.5 127.5,301.5C 130.833,302.833 133.167,305.167 134.5,308.5C 131.303,308.405 128.303,309.072 125.5,310.5C 123.08,307.763 120.747,304.929 118.5,302C 121.146,301.503 123.813,301.336 126.5,301.5 Z"/></g>
<g><path style="opacity:1" fill="#e7b01b" d="M 150.5,305.5 C 149.577,307.767 148.744,310.1 148,312.5C 147.617,311.944 147.117,311.611 146.5,311.5C 145.459,308.906 144.126,306.406 142.5,304C 144.763,300.721 147.763,298.221 151.5,296.5C 151.833,296.833 152.167,297.167 152.5,297.5C 151.705,300.144 151.038,302.811 150.5,305.5 Z"/></g>
<g><path style="opacity:1" fill="#7b01d6" d="M 134.5,308.5 C 137.803,312.651 140.97,316.985 144,321.5C 148.148,329.731 152.314,337.731 156.5,345.5C 156.87,348.267 158.204,350.267 160.5,351.5C 160.735,352.097 161.235,352.43 162,352.5C 167.038,351.321 171.871,349.654 176.5,347.5C 180.5,347.5 184.5,347.5 188.5,347.5C 190.23,348.026 191.564,349.026 192.5,350.5C 192.821,352.048 193.821,352.715 195.5,352.5C 195.5,353.5 195.5,354.5 195.5,355.5C 193.302,355.12 191.635,355.787 190.5,357.5C 188.586,363.599 187.086,369.932 186,376.5C 184.005,381.504 182.172,386.504 180.5,391.5C 178.087,393.051 175.421,393.717 172.5,393.5C 172.167,393.5 171.833,393.5 171.5,393.5C 167.349,390.197 163.015,387.03 158.5,384C 156.266,381.937 154.266,379.771 152.5,377.5C 152.956,373.889 152.289,370.556 150.5,367.5C 138.03,359.86 125.697,352.027 113.5,344C 110.187,341.865 107.854,339.032 106.5,335.5C 106.5,335.167 106.5,334.833 106.5,334.5C 107.928,331.697 108.595,328.697 108.5,325.5C 109.675,325.719 110.675,325.386 111.5,324.5C 114.532,319.14 118.532,314.807 123.5,311.5C 124.492,311.672 125.158,311.338 125.5,310.5C 128.303,309.072 131.303,308.405 134.5,308.5 Z"/></g>
<g><path style="opacity:1" fill="#7b00d7" d="M 376.5,308.5 C 380.716,308.684 384.716,309.684 388.5,311.5C 393.507,315.84 398.174,320.507 402.5,325.5C 405.295,329.082 406.961,333.082 407.5,337.5C 399.582,343.445 391.249,348.945 382.5,354C 374.181,357.826 365.847,361.659 357.5,365.5C 352.974,368.203 351.308,372.203 352.5,377.5C 346.584,383.789 339.917,389.122 332.5,393.5C 330.621,394.341 328.621,394.675 326.5,394.5C 326.636,387.449 324.303,381.449 319.5,376.5C 318.62,373.889 317.954,371.222 317.5,368.5C 317.132,367.09 316.299,366.09 315,365.5C 313.984,360.513 313.151,355.513 312.5,350.5C 315.137,349.147 317.97,348.481 321,348.5C 328.176,349.648 335.176,351.648 342,354.5C 343.07,354.472 343.903,354.139 344.5,353.5C 354.92,339.755 364.92,325.755 374.5,311.5C 374.932,310.29 375.599,309.29 376.5,308.5 Z"/></g>
<g><path style="opacity:1" fill="#077a12" d="M 81.5,304.5 C 81.8333,304.5 82.1667,304.5 82.5,304.5C 85.8931,311.619 89.5597,318.619 93.5,325.5C 91.9826,325.489 90.8159,324.823 90,323.5C 85.5169,317.87 82.6836,311.537 81.5,304.5 Z"/></g>
<g><path style="opacity:1" fill="#f7bb0d" d="M 112.5,303.5 C 114.39,303.297 115.89,303.963 117,305.5C 117.689,309.292 119.856,311.292 123.5,311.5C 118.532,314.807 114.532,319.14 111.5,324.5C 110.675,325.386 109.675,325.719 108.5,325.5C 108.595,328.697 107.928,331.697 106.5,334.5C 102.462,331.488 98.4617,328.488 94.5,325.5C 96.9012,315.11 102.901,307.776 112.5,303.5 Z"/></g>
<g><path style="opacity:1" fill="#09760f" d="M 432.5,300.5 C 433.833,301.833 435.167,303.167 436.5,304.5C 435.06,310.139 433.727,315.805 432.5,321.5C 430.4,321.477 428.567,322.144 427,323.5C 425.58,325.729 423.747,327.396 421.5,328.5C 420.227,326.287 419.227,323.954 418.5,321.5C 419.822,321.67 420.989,321.337 422,320.5C 426.283,314.103 429.783,307.436 432.5,300.5 Z"/></g>
<g><path style="opacity:1" fill="#c87d09" d="M 416.5,319.5 C 417.833,319.5 418.5,320.167 418.5,321.5C 419.227,323.954 420.227,326.287 421.5,328.5C 421.448,332.198 421.114,335.865 420.5,339.5C 417.224,343.114 413.891,346.781 410.5,350.5C 410.5,350.167 410.5,349.833 410.5,349.5C 410.665,346.482 410.498,343.482 410,340.5C 409.623,339.058 408.79,338.058 407.5,337.5C 406.961,333.082 405.295,329.082 402.5,325.5C 403.735,325.721 404.735,326.388 405.5,327.5C 409.203,324.784 412.87,322.117 416.5,319.5 Z"/></g>
<g><path style="opacity:1" fill="#6a01b6" d="M 106.5,335.5 C 107.854,339.032 110.187,341.865 113.5,344C 125.697,352.027 138.03,359.86 150.5,367.5C 152.289,370.556 152.956,373.889 152.5,377.5C 143.402,373.1 134.069,369.1 124.5,365.5C 116.118,363.562 109.285,359.228 104,352.5C 103.53,351.423 103.697,350.423 104.5,349.5C 104.335,345.818 104.501,342.152 105,338.5C 105.232,337.263 105.732,336.263 106.5,335.5 Z"/></g>
<g><path style="opacity:1" fill="#6a00b9" d="M 407.5,337.5 C 408.79,338.058 409.623,339.058 410,340.5C 410.498,343.482 410.665,346.482 410.5,349.5C 403.67,354.302 396.336,358.469 388.5,362C 381.001,363.755 374.001,366.588 367.5,370.5C 364.291,369.257 361.624,370.09 359.5,373C 357.527,373.495 355.527,373.662 353.5,373.5C 353.5,374.833 353.5,376.167 353.5,377.5C 353.167,377.5 352.833,377.5 352.5,377.5C 351.308,372.203 352.974,368.203 357.5,365.5C 365.847,361.659 374.181,357.826 382.5,354C 391.249,348.945 399.582,343.445 407.5,337.5 Z"/></g>
<g><path style="opacity:1" fill="#12390d" d="M 358.5,289.5 C 360.492,289.328 362.158,289.995 363.5,291.5C 364.08,294.447 365.08,297.114 366.5,299.5C 366.372,301.655 366.872,303.655 368,305.5C 369.045,304.627 369.878,303.627 370.5,302.5C 372.09,302.628 373.423,303.295 374.5,304.5C 372.163,305.517 370.496,307.184 369.5,309.5C 367.286,307.076 366.286,307.743 366.5,311.5C 369.167,311.5 371.833,311.5 374.5,311.5C 364.92,325.755 354.92,339.755 344.5,353.5C 337.138,350.157 329.471,347.824 321.5,346.5C 316.896,346.97 312.562,348.303 308.5,350.5C 307.833,350.5 307.167,350.5 306.5,350.5C 305.909,349.849 305.243,349.182 304.5,348.5C 307.447,347.679 310.447,347.179 313.5,347C 313.167,346.667 312.833,346.333 312.5,346C 313.308,345.692 313.975,345.192 314.5,344.5C 313.311,343.571 311.978,343.238 310.5,343.5C 310.205,341.265 310.539,339.265 311.5,337.5C 312.134,338.947 313.301,339.613 315,339.5C 317.147,339.044 319.314,338.711 321.5,338.5C 328.173,340.168 334.839,341.835 341.5,343.5C 342.554,343.32 343.554,342.987 344.5,342.5C 346.223,339.466 347.89,336.466 349.5,333.5C 353.052,326.935 357.052,320.601 361.5,314.5C 362.325,313.614 363.325,313.281 364.5,313.5C 364.736,304.888 362.736,296.888 358.5,289.5 Z"/></g>
<g><path style="opacity:1" fill="#c97d0c" d="M 94.5,325.5 C 98.4617,328.488 102.462,331.488 106.5,334.5C 106.5,334.833 106.5,335.167 106.5,335.5C 105.732,336.263 105.232,337.263 105,338.5C 104.501,342.152 104.335,345.818 104.5,349.5C 96.2379,343.633 92.9046,335.633 94.5,325.5 Z"/></g>
<g><path style="opacity:1" fill="#74195c" d="M 156.5,345.5 C 158.326,347.147 159.66,349.147 160.5,351.5C 158.204,350.267 156.87,348.267 156.5,345.5 Z"/></g>
<g><path style="opacity:1" fill="#1e4d12" d="M 65.5,322.5 C 66.4959,322.414 67.3292,322.748 68,323.5C 71.3864,332.282 76.7197,339.616 84,345.5C 87.5147,353.218 91.6813,360.552 96.5,367.5C 95.1667,367.833 93.8333,368.167 92.5,368.5C 88.8907,367.529 85.2241,366.863 81.5,366.5C 78.0611,359.372 74.8944,352.038 72,344.5C 70.1348,337.072 67.9681,329.738 65.5,322.5 Z"/></g>
<g><path style="opacity:1" fill="#efdbdf" d="M 344.5,353.5 C 343.903,354.139 343.07,354.472 342,354.5C 335.176,351.648 328.176,349.648 321,348.5C 317.97,348.481 315.137,349.147 312.5,350.5C 311.039,351.686 309.705,351.686 308.5,350.5C 312.562,348.303 316.896,346.97 321.5,346.5C 329.471,347.824 337.138,350.157 344.5,353.5 Z"/></g>
<g><path style="opacity:1" fill="#640287" d="M 306.5,350.5 C 307.167,350.5 307.833,350.5 308.5,350.5C 309.705,351.686 311.039,351.686 312.5,350.5C 313.151,355.513 313.984,360.513 315,365.5C 316.299,366.09 317.132,367.09 317.5,368.5C 317.954,371.222 318.62,373.889 319.5,376.5C 324.303,381.449 326.636,387.449 326.5,394.5C 323.996,392.156 320.996,390.656 317.5,390C 316.265,387.018 314.432,384.518 312,382.5C 310.074,374.627 309.24,366.627 309.5,358.5C 308.167,358.5 306.833,358.5 305.5,358.5C 305.194,355.615 305.527,352.948 306.5,350.5 Z"/></g>
<g><path style="opacity:1" fill="#5c281d" d="M 192.5,350.5 C 193.583,350.539 194.583,350.873 195.5,351.5C 196.466,353.396 196.799,355.396 196.5,357.5C 195.167,357.5 193.833,357.5 192.5,357.5C 192.5,358.5 192.5,359.5 192.5,360.5C 191.833,359.5 191.167,358.5 190.5,357.5C 191.635,355.787 193.302,355.12 195.5,355.5C 195.5,354.5 195.5,353.5 195.5,352.5C 193.821,352.715 192.821,352.048 192.5,350.5 Z"/></g>
<g><path style="opacity:1" fill="#620380" d="M 410.5,349.5 C 410.5,349.833 410.5,350.167 410.5,350.5C 410.415,352.929 409.415,354.929 407.5,356.5C 404.128,357.701 401.128,359.534 398.5,362C 385.915,365.784 373.581,370.451 361.5,376C 358.937,377.079 356.271,377.579 353.5,377.5C 353.5,376.167 353.5,374.833 353.5,373.5C 355.527,373.662 357.527,373.495 359.5,373C 361.624,370.09 364.291,369.257 367.5,370.5C 374.001,366.588 381.001,363.755 388.5,362C 396.336,358.469 403.67,354.302 410.5,349.5 Z"/></g>
<g><path style="opacity:1" fill="#154d0d" d="M 446.5,328.5 C 447.124,328.917 447.457,329.584 447.5,330.5C 444.563,342.704 440.229,354.37 434.5,365.5C 429.833,366.833 425.167,366.833 420.5,365.5C 424.496,358.526 428.496,351.526 432.5,344.5C 438.402,340.145 443.069,334.811 446.5,328.5 Z"/></g>
<g><path style="opacity:1" fill="#660180" d="M 190.5,357.5 C 191.167,358.5 191.833,359.5 192.5,360.5C 192.568,370.29 191.568,379.956 189.5,389.5C 186.145,389.091 183.145,389.758 180.5,391.5C 182.172,386.504 184.005,381.504 186,376.5C 187.086,369.932 188.586,363.599 190.5,357.5 Z"/></g>
<g><path style="opacity:1" fill="#0e3a0a" d="M 420.5,339.5 C 419.972,343.212 419.138,346.879 418,350.5C 415.756,352.321 414.59,354.654 414.5,357.5C 413.448,357.351 412.448,357.517 411.5,358C 411.833,358.333 412.167,358.667 412.5,359C 410.981,360.218 409.814,361.718 409,363.5C 408.692,362.692 408.192,362.025 407.5,361.5C 403.827,364.613 402.827,368.28 404.5,372.5C 405.5,372.833 406.167,373.5 406.5,374.5C 405.833,375.167 405.167,375.833 404.5,376.5C 402.721,375.33 401.721,373.664 401.5,371.5C 399.723,371.214 398.056,370.547 396.5,369.5C 387.124,373.779 377.457,377.113 367.5,379.5C 367.144,382.776 368.144,385.443 370.5,387.5C 367.856,387.84 365.523,387.173 363.5,385.5C 362.237,387.029 361.237,388.695 360.5,390.5C 358.142,387.764 355.142,386.93 351.5,388C 349.847,390.978 347.847,393.645 345.5,396C 345.836,397.03 346.503,397.53 347.5,397.5C 347.209,398.649 346.376,399.316 345,399.5C 341.661,397.956 338.161,397.29 334.5,397.5C 334.843,395.517 334.176,394.183 332.5,393.5C 339.917,389.122 346.584,383.789 352.5,377.5C 352.833,377.5 353.167,377.5 353.5,377.5C 356.271,377.579 358.937,377.079 361.5,376C 373.581,370.451 385.915,365.784 398.5,362C 401.128,359.534 404.128,357.701 407.5,356.5C 409.415,354.929 410.415,352.929 410.5,350.5C 413.891,346.781 417.224,343.114 420.5,339.5 Z"/></g>
<g><path style="opacity:1" fill="#7803d2" d="M 404.5,376.5 C 405.167,380.5 403.5,382.167 399.5,381.5C 395.922,381.549 392.589,382.215 389.5,383.5C 383.13,384.51 376.796,385.843 370.5,387.5C 368.144,385.443 367.144,382.776 367.5,379.5C 377.457,377.113 387.124,373.779 396.5,369.5C 398.056,370.547 399.723,371.214 401.5,371.5C 401.721,373.664 402.721,375.33 404.5,376.5 Z"/></g>
<g><path style="opacity:1" fill="#7f00ce" d="M 121.5,374.5 C 121.851,377.812 120.518,380.145 117.5,381.5C 115.219,381.923 113.552,381.256 112.5,379.5C 114.301,377.862 115.967,376.029 117.5,374C 119.066,373.235 120.399,373.402 121.5,374.5 Z"/></g>
<g><path style="opacity:1" fill="#10400e" d="M 106.5,365.5 C 109.167,366.167 111.833,366.833 114.5,367.5C 114.5,368.833 114.5,370.167 114.5,371.5C 118.226,371.823 121.893,371.489 125.5,370.5C 125.833,369.833 126.167,369.167 126.5,368.5C 125.388,367.735 124.721,366.735 124.5,365.5C 134.069,369.1 143.402,373.1 152.5,377.5C 154.266,379.771 156.266,381.937 158.5,384C 163.015,387.03 167.349,390.197 171.5,393.5C 169.712,393.215 168.045,393.548 166.5,394.5C 164.043,397.558 161.043,399.892 157.5,401.5C 156.41,400.273 155.076,399.44 153.5,399C 149.975,398.821 146.641,398.321 143.5,397.5C 142.566,396.432 142.232,395.099 142.5,393.5C 139.692,393.693 137.025,394.36 134.5,395.5C 134.5,394.167 134.5,392.833 134.5,391.5C 137.297,390.639 139.963,390.305 142.5,390.5C 138.5,389.167 134.5,389.167 130.5,390.5C 131.687,391.519 132.687,392.686 133.5,394C 132.289,394.787 131.289,395.454 130.5,396C 131.779,403.825 133.113,411.659 134.5,419.5C 133.611,422.279 132.444,424.945 131,427.5C 130.667,430.833 130.333,434.167 130,437.5C 129.292,438.381 128.458,439.047 127.5,439.5C 129.05,429.552 130.384,419.552 131.5,409.5C 130.195,400.366 124.862,395.533 115.5,395C 101.484,393.565 87.4844,392.065 73.5,390.5C 73.4681,395.391 72.8015,400.057 71.5,404.5C 71.5,398.833 71.5,393.167 71.5,387.5C 82.4066,388.937 93.2399,390.27 104,391.5C 107.276,391.442 110.276,390.776 113,389.5C 114.77,390.276 116.603,390.11 118.5,389C 118.167,388.667 117.833,388.333 117.5,388C 115.1,387.814 112.766,387.314 110.5,386.5C 110,385.5 109.5,384.5 109,383.5C 108.577,384.956 107.744,385.456 106.5,385C 107.641,384.259 107.641,383.425 106.5,382.5C 107.689,381.571 109.022,381.238 110.5,381.5C 113.831,383.298 117.498,383.964 121.5,383.5C 125.295,383.946 128.962,384.946 132.5,386.5C 135.703,386.232 138.37,384.898 140.5,382.5C 134.739,378.452 128.406,375.786 121.5,374.5C 120.399,373.402 119.066,373.235 117.5,374C 115.967,376.029 114.301,377.862 112.5,379.5C 112.167,379.5 111.833,379.5 111.5,379.5C 111.5,378.167 111.5,376.833 111.5,375.5C 112.5,375.5 113.5,375.5 114.5,375.5C 114.649,374.448 114.483,373.448 114,372.5C 112.855,373.684 111.688,373.684 110.5,372.5C 110.923,371.735 111.257,370.902 111.5,370C 109.957,368.287 108.291,366.787 106.5,365.5 Z"/></g>
<g><path style="opacity:1" fill="#0b410c" d="M 400.5,289.5 C 403.722,289.108 406.722,289.608 409.5,291C 403.504,292.886 398.171,295.719 393.5,299.5C 386.652,300.365 380.986,303.365 376.5,308.5C 375.599,309.29 374.932,310.29 374.5,311.5C 371.833,311.5 369.167,311.5 366.5,311.5C 366.286,307.743 367.286,307.076 369.5,309.5C 370.496,307.184 372.163,305.517 374.5,304.5C 373.423,303.295 372.09,302.628 370.5,302.5C 370.306,300.088 368.973,299.088 366.5,299.5C 365.08,297.114 364.08,294.447 363.5,291.5C 362.158,289.995 360.492,289.328 358.5,289.5C 356.217,289.392 354.217,288.559 352.5,287C 349.5,283.667 346.5,280.333 343.5,277C 341.011,276.059 339.011,276.559 337.5,278.5C 336.598,282.755 335.598,287.089 334.5,291.5C 334.5,292.167 334.5,292.833 334.5,293.5C 325.361,307.334 317.695,322.001 311.5,337.5C 310.539,339.265 310.205,341.265 310.5,343.5C 311.978,343.238 313.311,343.571 314.5,344.5C 313.975,345.192 313.308,345.692 312.5,346C 312.833,346.333 313.167,346.667 313.5,347C 310.447,347.179 307.447,347.679 304.5,348.5C 305.243,349.182 305.909,349.849 306.5,350.5C 305.527,352.948 305.194,355.615 305.5,358.5C 306.833,358.5 308.167,358.5 309.5,358.5C 309.24,366.627 310.074,374.627 312,382.5C 314.432,384.518 316.265,387.018 317.5,390C 320.996,390.656 323.996,392.156 326.5,394.5C 328.621,394.675 330.621,394.341 332.5,393.5C 334.176,394.183 334.843,395.517 334.5,397.5C 338.161,397.29 341.661,397.956 345,399.5C 346.376,399.316 347.209,398.649 347.5,397.5C 352.797,396.725 358.13,396.392 363.5,396.5C 363.567,395.041 363.234,393.708 362.5,392.5C 363.583,392.461 364.583,392.127 365.5,391.5C 366.466,393.396 366.799,395.396 366.5,397.5C 359.951,397.907 359.951,398.907 366.5,400.5C 365.335,401.584 364.002,402.417 362.5,403C 364.878,403.974 364.544,404.641 361.5,405C 364.15,407.893 365.15,411.393 364.5,415.5C 357.167,415.5 349.833,415.5 342.5,415.5C 348.319,414.672 354.319,414.172 360.5,414C 362.192,412.599 362.859,410.766 362.5,408.5C 354.47,408.478 346.47,408.978 338.5,410C 337.069,410.465 335.903,411.299 335,412.5C 334.333,417.167 334.333,421.833 335,426.5C 335.574,428.492 336.741,429.992 338.5,431C 346.868,431.74 355.202,431.574 363.5,430.5C 361.673,432.561 359.34,433.894 356.5,434.5C 357.376,435.251 358.376,435.751 359.5,436C 359.167,436.333 358.833,436.667 358.5,437C 355.128,437.134 351.961,437.968 349,439.5C 347.838,438.813 346.672,438.647 345.5,439C 347.229,440.789 347.896,442.956 347.5,445.5C 354.841,445.334 362.174,445.5 369.5,446C 370.467,450.401 370.8,454.901 370.5,459.5C 363.8,459.17 357.134,459.503 350.5,460.5C 348.995,461.842 348.328,463.508 348.5,465.5C 357.833,465.5 367.167,465.5 376.5,465.5C 377.444,468.999 377.444,472.332 376.5,475.5C 376.296,472.482 375.963,469.482 375.5,466.5C 365.833,467.167 356.167,467.833 346.5,468.5C 346.5,464.833 346.5,461.167 346.5,457.5C 353.525,456.998 360.525,456.331 367.5,455.5C 367.5,452.833 367.5,450.167 367.5,447.5C 360.187,448.187 352.854,448.521 345.5,448.5C 345.5,445.833 345.5,443.167 345.5,440.5C 341.5,440.5 337.5,440.5 333.5,440.5C 334.698,453.468 335.364,466.468 335.5,479.5C 334.691,477.708 334.191,475.708 334,473.5C 333.5,465.507 333.334,457.507 333.5,449.5C 332.5,449.5 331.5,449.5 330.5,449.5C 329.875,444.913 328.542,440.58 326.5,436.5C 324.396,436.799 322.396,436.466 320.5,435.5C 321.025,434.808 321.692,434.308 322.5,434C 320.866,433.506 319.199,433.34 317.5,433.5C 317.175,425.648 317.508,417.982 318.5,410.5C 321.287,409.523 324.287,409.19 327.5,409.5C 327.833,412.167 328.167,414.833 328.5,417.5C 332.53,416.494 334.197,413.827 333.5,409.5C 334.833,409.5 336.167,409.5 337.5,409.5C 337.5,408.167 337.5,406.833 337.5,405.5C 333.459,405.498 332.792,404.165 335.5,401.5C 337.412,403.156 339.412,403.489 341.5,402.5C 339.816,400.378 337.65,399.044 335,398.5C 332.302,400.21 330.302,402.543 329,405.5C 328.167,403.833 327.333,402.167 326.5,400.5C 327.802,398.799 329.469,397.632 331.5,397C 329.323,395.798 326.989,395.298 324.5,395.5C 324.5,397.5 324.5,399.5 324.5,401.5C 322.088,401.669 319.921,401.003 318,399.5C 316.739,399.759 315.739,400.426 315,401.5C 314.808,399.423 314.308,397.423 313.5,395.5C 312.735,394.388 311.735,393.721 310.5,393.5C 303.197,392.169 295.53,391.502 287.5,391.5C 279.659,391.5 271.993,391.834 264.5,392.5C 262.393,394.727 260.06,396.727 257.5,398.5C 255.33,399.768 253.163,399.768 251,398.5C 249.913,400.932 249.413,400.598 249.5,397.5C 245.741,398.042 243.074,396.708 241.5,393.5C 257.8,393.701 265.3,385.701 264,369.5C 263.059,367.273 261.892,365.273 260.5,363.5C 256.263,357.187 250.263,354.521 242.5,355.5C 231.302,358.538 226.136,365.871 227,377.5C 228.448,383.416 231.615,388.082 236.5,391.5C 236.03,392.693 235.03,393.36 233.5,393.5C 229.856,393.286 229.523,392.119 232.5,390C 231.667,389.833 230.833,389.667 230,389.5C 222.628,391.32 215.128,391.987 207.5,391.5C 204.941,391.198 202.607,391.532 200.5,392.5C 199.5,392.5 198.5,392.5 197.5,392.5C 197.414,394.677 196.747,396.677 195.5,398.5C 196.325,399.386 197.325,399.719 198.5,399.5C 196.417,402.082 194.083,402.082 191.5,399.5C 188.725,401.607 185.725,401.941 182.5,400.5C 179.034,398.122 175.7,395.789 172.5,393.5C 175.421,393.717 178.087,393.051 180.5,391.5C 183.145,389.758 186.145,389.091 189.5,389.5C 191.568,379.956 192.568,370.29 192.5,360.5C 192.5,359.5 192.5,358.5 192.5,357.5C 193.833,357.5 195.167,357.5 196.5,357.5C 196.799,355.396 196.466,353.396 195.5,351.5C 194.583,350.873 193.583,350.539 192.5,350.5C 191.564,349.026 190.23,348.026 188.5,347.5C 184.53,344.921 180.53,344.921 176.5,347.5C 171.871,349.654 167.038,351.321 162,352.5C 161.235,352.43 160.735,352.097 160.5,351.5C 159.66,349.147 158.326,347.147 156.5,345.5C 152.314,337.731 148.148,329.731 144,321.5C 140.97,316.985 137.803,312.651 134.5,308.5C 133.167,305.167 130.833,302.833 127.5,301.5C 128.635,299.787 130.302,299.12 132.5,299.5C 132.5,300.833 132.5,302.167 132.5,303.5C 135.537,303.448 138.204,304.448 140.5,306.5C 139.833,307.167 139.167,307.833 138.5,308.5C 140.167,309.167 141.833,309.833 143.5,310.5C 144.015,312.225 144.682,313.892 145.5,315.5C 146.429,314.311 146.762,312.978 146.5,311.5C 147.117,311.611 147.617,311.944 148,312.5C 148.744,310.1 149.577,307.767 150.5,305.5C 151.978,305.762 153.311,305.429 154.5,304.5C 151.749,301.945 152.416,300.945 156.5,301.5C 156.335,298.482 156.502,295.482 157,292.5C 157.671,293.252 158.504,293.586 159.5,293.5C 157.089,302.247 154.755,311.08 152.5,320C 152.492,322.551 153.492,324.384 155.5,325.5C 157.812,331.657 160.812,337.49 164.5,343C 167.042,343.007 169.376,342.174 171.5,340.5C 172.117,340.611 172.617,340.944 173,341.5C 174.313,340.427 175.813,339.76 177.5,339.5C 179.644,340.688 181.811,340.688 184,339.5C 186.4,339.802 188.566,340.468 190.5,341.5C 186.743,341.286 186.076,342.286 188.5,344.5C 192.445,345.491 196.445,345.824 200.5,345.5C 199.424,348.734 198.757,352.068 198.5,355.5C 201.167,355.5 203.833,355.5 206.5,355.5C 206.5,354.167 206.5,352.833 206.5,351.5C 207.293,353.918 208.626,355.918 210.5,357.5C 212.167,357.5 213.833,357.5 215.5,357.5C 219.182,357.665 222.848,357.499 226.5,357C 229.477,352.687 233.477,350.187 238.5,349.5C 240.011,348.498 241.678,347.831 243.5,347.5C 251.97,347.527 258.97,350.693 264.5,357C 269.489,357.499 274.489,357.666 279.5,357.5C 285.303,358.087 290.803,357.42 296,355.5C 298.307,349.608 300.307,343.608 302,337.5C 312.698,316.104 323.364,294.771 334,273.5C 334.667,272.167 334.667,270.833 334,269.5C 329.998,264.486 328.665,258.819 330,252.5C 336.117,259.961 342.95,266.628 350.5,272.5C 360.557,279.525 370.224,287.025 379.5,295C 382.366,296.252 385.366,296.252 388.5,295C 392.5,292.698 396.5,290.865 400.5,289.5 Z"/></g>
<g><path style="opacity:1" fill="#cbc064" d="M 220.5,365.5 C 221.686,366.705 221.686,368.039 220.5,369.5C 213.833,369.5 207.167,369.5 200.5,369.5C 200.5,374.167 200.5,378.833 200.5,383.5C 207.584,384.126 214.25,383.459 220.5,381.5C 221.404,382.209 221.737,383.209 221.5,384.5C 214.167,384.5 206.833,384.5 199.5,384.5C 199.5,378.833 199.5,373.167 199.5,367.5C 206.913,368.128 213.913,367.461 220.5,365.5 Z"/></g>
<g><path style="opacity:1" fill="#fab004" d="M 220.5,369.5 C 220.5,373.5 220.5,377.5 220.5,381.5C 214.25,383.459 207.584,384.126 200.5,383.5C 200.5,378.833 200.5,374.167 200.5,369.5C 207.167,369.5 213.833,369.5 220.5,369.5 Z"/></g>
<g><path style="opacity:1" fill="#eb9b0a" d="M 260.5,363.5 C 261.892,365.273 263.059,367.273 264,369.5C 265.3,385.701 257.8,393.701 241.5,393.5C 240.29,393.068 239.29,392.401 238.5,391.5C 239.5,391.5 240.5,391.5 241.5,391.5C 241.567,390.041 241.234,388.708 240.5,387.5C 254.513,389.461 260.513,383.461 258.5,369.5C 257.696,367.864 256.696,366.364 255.5,365C 257.025,363.991 258.692,363.491 260.5,363.5 Z"/></g>
<g><path style="opacity:1" fill="#e69409" d="M 302.5,365.5 C 303.946,371.274 304.612,377.274 304.5,383.5C 292.824,384.44 281.157,384.44 269.5,383.5C 270.451,378.23 270.785,372.897 270.5,367.5C 281.552,368.143 292.219,367.476 302.5,365.5 Z"/></g>
<g><path style="opacity:1" fill="#fab905" d="M 242.5,355.5 C 250.263,354.521 256.263,357.187 260.5,363.5C 258.692,363.491 257.025,363.991 255.5,365C 256.696,366.364 257.696,367.864 258.5,369.5C 260.513,383.461 254.513,389.461 240.5,387.5C 235.401,386.226 232.568,382.893 232,377.5C 231.454,374.101 231.787,370.768 233,367.5C 233.71,366.027 234.876,365.36 236.5,365.5C 236.281,364.325 236.614,363.325 237.5,362.5C 242.449,362.231 244.116,359.898 242.5,355.5 Z"/></g>
<g><path style="opacity:1" fill="#e2ce5e" d="M 302.5,365.5 C 292.219,367.476 281.552,368.143 270.5,367.5C 280.781,365.524 291.448,364.857 302.5,365.5 Z"/></g>
<g><path style="opacity:1" fill="#f2f4f3" d="M 220.5,365.5 C 213.913,367.461 206.913,368.128 199.5,367.5C 206.087,365.539 213.087,364.872 220.5,365.5 Z"/></g>
<g><path style="opacity:1" fill="#f0d420" d="M 242.5,355.5 C 244.116,359.898 242.449,362.231 237.5,362.5C 236.614,363.325 236.281,364.325 236.5,365.5C 234.876,365.36 233.71,366.027 233,367.5C 231.787,370.768 231.454,374.101 232,377.5C 232.568,382.893 235.401,386.226 240.5,387.5C 241.234,388.708 241.567,390.041 241.5,391.5C 240.5,391.5 239.5,391.5 238.5,391.5C 237.833,391.5 237.167,391.5 236.5,391.5C 231.615,388.082 228.448,383.416 227,377.5C 226.136,365.871 231.302,358.538 242.5,355.5 Z"/></g>
<g><path style="opacity:1" fill="#6f428b" d="M 188.5,347.5 C 184.5,347.5 180.5,347.5 176.5,347.5C 180.53,344.921 184.53,344.921 188.5,347.5 Z"/></g>
<g><path style="opacity:1" fill="#04bd23" d="M 206.5,305.5 C 207.022,307.219 208.022,308.552 209.5,309.5C 212.724,313.593 215.724,317.926 218.5,322.5C 225.468,323.497 232.468,323.83 239.5,323.5C 239.803,332.251 239.47,340.918 238.5,349.5C 233.477,350.187 229.477,352.687 226.5,357C 222.848,357.499 219.182,357.665 215.5,357.5C 212.333,344.831 209.166,332.165 206,319.5C 205.185,314.648 205.352,309.981 206.5,305.5 Z"/></g>
<g><path style="opacity:1" fill="#45f546" d="M 204.5,303.5 C 205.833,303.5 206.5,304.167 206.5,305.5C 205.352,309.981 205.185,314.648 206,319.5C 209.166,332.165 212.333,344.831 215.5,357.5C 213.833,357.5 212.167,357.5 210.5,357.5C 207.95,344.632 204.783,331.965 201,319.5C 199.72,313.468 200.886,308.135 204.5,303.5 Z"/></g>
<g><path style="opacity:1" fill="#d5f6c5" d="M 204.5,303.5 C 200.886,308.135 199.72,313.468 201,319.5C 204.783,331.965 207.95,344.632 210.5,357.5C 208.626,355.918 207.293,353.918 206.5,351.5C 203.775,338.66 200.441,325.993 196.5,313.5C 197.588,309.071 199.921,305.405 203.5,302.5C 204.107,302.624 204.44,302.957 204.5,303.5 Z"/></g>
<g><path style="opacity:1" fill="#f6fcf6" d="M 239.5,323.5 C 232.468,323.83 225.468,323.497 218.5,322.5C 215.724,317.926 212.724,313.593 209.5,309.5C 208.708,308.033 208.708,306.7 209.5,305.5C 219.447,306.475 229.447,306.808 239.5,306.5C 239.5,312.167 239.5,317.833 239.5,323.5 Z"/></g>
<g><path style="opacity:1" fill="#18801c" d="M 205.5,301.5 C 211.167,304.167 216.833,304.167 222.5,301.5C 228.384,302.01 234.217,302.01 240,301.5C 240.945,301.905 241.612,302.572 242,303.5C 242.548,318.168 243.048,332.834 243.5,347.5C 241.678,347.831 240.011,348.498 238.5,349.5C 239.47,340.918 239.803,332.251 239.5,323.5C 239.5,317.833 239.5,312.167 239.5,306.5C 229.447,306.808 219.447,306.475 209.5,305.5C 208.708,306.7 208.708,308.033 209.5,309.5C 208.022,308.552 207.022,307.219 206.5,305.5C 206.5,304.167 205.833,303.5 204.5,303.5C 204.44,302.957 204.107,302.624 203.5,302.5C 199.921,305.405 197.588,309.071 196.5,313.5C 193.457,307.235 190.79,300.735 188.5,294C 189.5,293.333 190.5,293.333 191.5,294C 195.151,298.327 199.818,300.827 205.5,301.5 Z"/></g>
<g><path style="opacity:1" fill="#f3fbf5" d="M 255.5,301.5 C 255.5,302.833 255.5,304.167 255.5,305.5C 263.174,305.334 270.841,305.5 278.5,306C 277.695,307.113 277.028,308.279 276.5,309.5C 273.986,314.019 271.319,318.519 268.5,323C 263.153,323.001 257.986,323.834 253,325.5C 249.68,322.365 247.513,318.531 246.5,314C 248.234,310.08 250.234,306.247 252.5,302.5C 253.325,301.614 254.325,301.281 255.5,301.5 Z"/></g>
<g><path style="opacity:1" fill="#620380" d="M 181.5,304.5 C 183.087,306.214 184.421,308.214 185.5,310.5C 189.124,320.7 192.124,331.034 194.5,341.5C 193.167,341.5 191.833,341.5 190.5,341.5C 188.566,340.468 186.4,339.802 184,339.5C 181.811,340.688 179.644,340.688 177.5,339.5C 175.813,339.76 174.313,340.427 173,341.5C 172.617,340.944 172.117,340.611 171.5,340.5C 175.801,328.859 179.135,316.859 181.5,304.5 Z"/></g>
<g><path style="opacity:1" fill="#c8a734" d="M 366.5,299.5 C 368.973,299.088 370.306,300.088 370.5,302.5C 369.878,303.627 369.045,304.627 368,305.5C 366.872,303.655 366.372,301.655 366.5,299.5 Z"/></g>
<g><path style="opacity:1" fill="#5b1a88" d="M 337.5,278.5 C 338.161,283.356 337.161,287.69 334.5,291.5C 335.598,287.089 336.598,282.755 337.5,278.5 Z"/></g>
<g><path style="opacity:1" fill="#06460c" d="M 110.5,372.5 C 111.688,373.684 112.855,373.684 114,372.5C 114.483,373.448 114.649,374.448 114.5,375.5C 113.5,375.5 112.5,375.5 111.5,375.5C 111.5,376.833 111.5,378.167 111.5,379.5C 110.662,379.842 110.328,380.508 110.5,381.5C 109.022,381.238 107.689,381.571 106.5,382.5C 107.641,383.425 107.641,384.259 106.5,385C 107.744,385.456 108.577,384.956 109,383.5C 109.5,384.5 110,385.5 110.5,386.5C 112.766,387.314 115.1,387.814 117.5,388C 117.833,388.333 118.167,388.667 118.5,389C 116.603,390.11 114.77,390.276 113,389.5C 110.276,390.776 107.276,391.442 104,391.5C 93.2399,390.27 82.4066,388.937 71.5,387.5C 71.5,393.167 71.5,398.833 71.5,404.5C 69.911,422.879 67.911,441.212 65.5,459.5C 65.0155,467.019 68.3488,469.686 75.5,467.5C 76.3928,464.916 76.7261,462.249 76.5,459.5C 77.2488,453.176 77.9154,446.843 78.5,440.5C 82.6804,440.189 86.6804,440.855 90.5,442.5C 93.2409,448.981 96.2409,455.314 99.5,461.5C 101.234,465.3 103.234,468.966 105.5,472.5C 110.683,473.624 115.849,474.624 121,475.5C 119.649,470.465 117.483,465.798 114.5,461.5C 112.527,455.386 109.861,449.552 106.5,444C 111.495,444.082 116.495,444.082 121.5,444C 124.229,443.434 126.229,441.934 127.5,439.5C 128.458,439.047 129.292,438.381 130,437.5C 130.333,434.167 130.667,430.833 131,427.5C 132.444,424.945 133.611,422.279 134.5,419.5C 133.113,411.659 131.779,403.825 130.5,396C 131.289,395.454 132.289,394.787 133.5,394C 132.687,392.686 131.687,391.519 130.5,390.5C 134.5,389.167 138.5,389.167 142.5,390.5C 139.963,390.305 137.297,390.639 134.5,391.5C 134.5,392.833 134.5,394.167 134.5,395.5C 137.025,394.36 139.692,393.693 142.5,393.5C 142.232,395.099 142.566,396.432 143.5,397.5C 146.641,398.321 149.975,398.821 153.5,399C 155.076,399.44 156.41,400.273 157.5,401.5C 161.043,399.892 164.043,397.558 166.5,394.5C 168.045,393.548 169.712,393.215 171.5,393.5C 171.833,393.5 172.167,393.5 172.5,393.5C 175.7,395.789 179.034,398.122 182.5,400.5C 185.725,401.941 188.725,401.607 191.5,399.5C 194.083,402.082 196.417,402.082 198.5,399.5C 198.833,399.5 199.167,399.5 199.5,399.5C 211.171,399.667 222.838,399.5 234.5,399C 231.872,397.374 229.539,395.374 227.5,393C 220.654,392.828 213.987,392.328 207.5,391.5C 215.128,391.987 222.628,391.32 230,389.5C 230.833,389.667 231.667,389.833 232.5,390C 229.523,392.119 229.856,393.286 233.5,393.5C 235.03,393.36 236.03,392.693 236.5,391.5C 237.167,391.5 237.833,391.5 238.5,391.5C 239.29,392.401 240.29,393.068 241.5,393.5C 243.074,396.708 245.741,398.042 249.5,397.5C 249.413,400.598 249.913,400.932 251,398.5C 253.163,399.768 255.33,399.768 257.5,398.5C 269.322,399.495 281.322,399.828 293.5,399.5C 299.5,399.5 305.5,399.5 311.5,399.5C 311.483,397.435 311.15,395.435 310.5,393.5C 311.735,393.721 312.735,394.388 313.5,395.5C 314.308,397.423 314.808,399.423 315,401.5C 315.739,400.426 316.739,399.759 318,399.5C 319.921,401.003 322.088,401.669 324.5,401.5C 324.5,399.5 324.5,397.5 324.5,395.5C 326.989,395.298 329.323,395.798 331.5,397C 329.469,397.632 327.802,398.799 326.5,400.5C 327.333,402.167 328.167,403.833 329,405.5C 330.302,402.543 332.302,400.21 335,398.5C 337.65,399.044 339.816,400.378 341.5,402.5C 339.412,403.489 337.412,403.156 335.5,401.5C 332.792,404.165 333.459,405.498 337.5,405.5C 337.5,406.833 337.5,408.167 337.5,409.5C 336.167,409.5 334.833,409.5 333.5,409.5C 334.197,413.827 332.53,416.494 328.5,417.5C 328.167,414.833 327.833,412.167 327.5,409.5C 324.287,409.19 321.287,409.523 318.5,410.5C 317.508,417.982 317.175,425.648 317.5,433.5C 319.199,433.34 320.866,433.506 322.5,434C 321.692,434.308 321.025,434.808 320.5,435.5C 322.396,436.466 324.396,436.799 326.5,436.5C 328.542,440.58 329.875,444.913 330.5,449.5C 331.5,449.5 332.5,449.5 333.5,449.5C 333.334,457.507 333.5,465.507 334,473.5C 334.191,475.708 334.691,477.708 335.5,479.5C 337.473,480.163 339.639,480.496 342,480.5C 348.169,480.028 354.336,479.528 360.5,479C 366.258,478.555 371.592,477.388 376.5,475.5C 377.444,472.332 377.444,468.999 376.5,465.5C 367.167,465.5 357.833,465.5 348.5,465.5C 348.328,463.508 348.995,461.842 350.5,460.5C 357.134,459.503 363.8,459.17 370.5,459.5C 370.8,454.901 370.467,450.401 369.5,446C 362.174,445.5 354.841,445.334 347.5,445.5C 347.896,442.956 347.229,440.789 345.5,439C 346.672,438.647 347.838,438.813 349,439.5C 351.961,437.968 355.128,437.134 358.5,437C 358.833,436.667 359.167,436.333 359.5,436C 358.376,435.751 357.376,435.251 356.5,434.5C 359.34,433.894 361.673,432.561 363.5,430.5C 363.5,428.833 363.5,427.167 363.5,425.5C 356.471,425.603 349.471,425.77 342.5,426C 341.18,422.399 341.18,418.899 342.5,415.5C 349.833,415.5 357.167,415.5 364.5,415.5C 365.15,411.393 364.15,407.893 361.5,405C 364.544,404.641 364.878,403.974 362.5,403C 364.002,402.417 365.335,401.584 366.5,400.5C 359.951,398.907 359.951,397.907 366.5,397.5C 366.799,395.396 366.466,393.396 365.5,391.5C 364.583,392.127 363.583,392.461 362.5,392.5C 362.167,391.5 361.5,390.833 360.5,390.5C 361.237,388.695 362.237,387.029 363.5,385.5C 365.523,387.173 367.856,387.84 370.5,387.5C 376.796,385.843 383.13,384.51 389.5,383.5C 393.122,383.678 396.456,383.011 399.5,381.5C 403.5,382.167 405.167,380.5 404.5,376.5C 405.167,375.833 405.833,375.167 406.5,374.5C 407.391,375.261 408.058,376.261 408.5,377.5C 417.482,378.332 426.482,378.832 435.5,379C 443.514,381.682 448.348,387.182 450,395.5C 452.319,405.727 453.319,416.061 453,426.5C 452.016,429.791 450.849,432.957 449.5,436C 451.588,441.009 454.088,445.842 457,450.5C 461.804,463.375 458.304,473.209 446.5,480C 438.834,481.733 432,480.233 426,475.5C 422.955,471.244 419.788,467.077 416.5,463C 415.552,462.517 414.552,462.351 413.5,462.5C 414.068,468.834 414.234,475.167 414,481.5C 412.833,483.333 411.333,484.833 409.5,486C 393.54,488.164 377.54,489.997 361.5,491.5C 350.416,491.271 339.416,491.937 328.5,493.5C 323.771,493.227 319.104,492.561 314.5,491.5C 313.167,491.667 311.833,491.833 310.5,492C 309.167,493 309.167,494 310.5,495C 305.981,495.175 301.647,495.675 297.5,496.5C 290.825,496.666 284.158,496.5 277.5,496C 272.517,494.493 268.183,491.993 264.5,488.5C 261.09,491.245 257.423,493.578 253.5,495.5C 239.163,495.667 224.829,495.5 210.5,495C 192.624,492.835 174.624,491.502 156.5,491C 137.023,489.189 117.69,486.689 98.5,483.5C 95.8143,479.949 92.481,476.949 88.5,474.5C 85.4458,475.713 82.7792,477.546 80.5,480C 61.2412,484.387 52.0745,476.887 53,457.5C 55.4608,432.679 58.7941,408.012 63,383.5C 64.5,382 66,380.5 67.5,379C 78.2292,378.186 88.8959,378.686 99.5,380.5C 101.167,380.167 102.833,379.833 104.5,379.5C 106.281,376.909 108.281,374.575 110.5,372.5 Z"/></g>
<g><path style="opacity:1" fill="#f6fbf6" d="M 281.5,465.5 C 281.329,467.993 282.329,469.826 284.5,471C 292.493,471.5 300.493,471.666 308.5,471.5C 308.5,468.167 308.5,464.833 308.5,461.5C 304.5,461.5 300.5,461.5 296.5,461.5C 296.5,458.5 296.5,455.5 296.5,452.5C 304.179,452.404 311.846,452.07 319.5,451.5C 319.44,461.85 319.774,472.183 320.5,482.5C 307.172,483.267 293.839,483.433 280.5,483C 273.813,480.454 270.48,475.621 270.5,468.5C 270.5,460.833 270.5,453.167 270.5,445.5C 273.833,445.5 277.167,445.5 280.5,445.5C 280.176,452.354 280.509,459.021 281.5,465.5 Z"/></g>
<g><path style="opacity:1" fill="#99dc96" d="M 444.5,455.5 C 448.05,461.47 446.55,465.803 440,468.5C 435.88,466.217 433.046,462.883 431.5,458.5C 435.881,457.624 440.214,456.624 444.5,455.5 Z"/></g>
<g><path style="opacity:1" fill="#9edb96" d="M 65.5,459.5 C 69.1667,459.5 72.8333,459.5 76.5,459.5C 76.7261,462.249 76.3928,464.916 75.5,467.5C 68.3488,469.686 65.0155,467.019 65.5,459.5 Z"/></g>
<g><path style="opacity:1" fill="#9fd995" d="M 99.5,461.5 C 104.645,462.691 109.645,462.691 114.5,461.5C 117.483,465.798 119.649,470.465 121,475.5C 115.849,474.624 110.683,473.624 105.5,472.5C 103.234,468.966 101.234,465.3 99.5,461.5 Z"/></g>
<g><path style="opacity:1" fill="#f4f9f4" d="M 376.5,475.5 C 371.592,477.388 366.258,478.555 360.5,479C 354.336,479.528 348.169,480.028 342,480.5C 339.639,480.496 337.473,480.163 335.5,479.5C 335.364,466.468 334.698,453.468 333.5,440.5C 337.5,440.5 341.5,440.5 345.5,440.5C 345.5,443.167 345.5,445.833 345.5,448.5C 352.854,448.521 360.187,448.187 367.5,447.5C 367.5,450.167 367.5,452.833 367.5,455.5C 360.525,456.331 353.525,456.998 346.5,457.5C 346.5,461.167 346.5,464.833 346.5,468.5C 356.167,467.833 365.833,467.167 375.5,466.5C 375.963,469.482 376.296,472.482 376.5,475.5 Z"/></g>
<g><path style="opacity:1" fill="#f4f9f4" d="M 207.5,440.5 C 213.502,440.909 219.502,441.409 225.5,442C 231.333,449.833 237.167,457.667 243,465.5C 243.5,457.507 243.666,449.507 243.5,441.5C 247.167,441.5 250.833,441.5 254.5,441.5C 254.667,453.171 254.5,464.838 254,476.5C 251.568,483.302 246.735,485.802 239.5,484C 232.702,473.57 225.536,463.404 218,453.5C 217.5,463.494 217.334,473.494 217.5,483.5C 213.833,483.5 210.167,483.5 206.5,483.5C 206.456,469.156 206.789,454.822 207.5,440.5 Z"/></g>
<g><path style="opacity:1" fill="#f2f8f2" d="M 146.5,438.5 C 150.5,438.5 154.5,438.5 158.5,438.5C 156.773,445.011 154.439,451.345 151.5,457.5C 158.418,458.993 165.418,459.66 172.5,459.5C 170.908,453.057 168.908,446.724 166.5,440.5C 170.734,440.182 175.067,440.182 179.5,440.5C 184.446,454.061 189.113,467.728 193.5,481.5C 188.786,481.827 184.12,481.493 179.5,480.5C 178.167,476.833 176.833,473.167 175.5,469.5C 166.997,468.525 158.497,467.525 150,466.5C 148.893,466.585 147.893,466.919 147,467.5C 145.533,470.758 144.367,474.092 143.5,477.5C 138.425,477.407 133.425,476.741 128.5,475.5C 134.499,463.172 140.499,450.838 146.5,438.5 Z"/></g>
<g><path style="opacity:1" fill="#a9d2aa" d="M 281.5,465.5 C 280.509,459.021 280.176,452.354 280.5,445.5C 277.167,445.5 273.833,445.5 270.5,445.5C 270.5,453.167 270.5,460.833 270.5,468.5C 269.507,459.682 269.173,450.682 269.5,441.5C 284.17,441.333 298.837,441.5 313.5,442C 303.068,442.048 292.735,442.714 282.5,444C 281.52,451.079 281.187,458.245 281.5,465.5 Z"/></g>
<g><path style="opacity:1" fill="#d6eedc" d="M 183.5,426.5 C 189.5,426.5 195.5,426.5 201.5,426.5C 201.5,428.5 201.5,430.5 201.5,432.5C 193.146,432.573 184.812,432.24 176.5,431.5C 176.723,424.16 177.056,416.827 177.5,409.5C 179.5,409.5 181.5,409.5 183.5,409.5C 183.5,415.167 183.5,420.833 183.5,426.5 Z"/></g>
<g><path style="opacity:1" fill="#fcfbfb" d="M 183.5,426.5 C 188.975,427.489 194.642,427.822 200.5,427.5C 200.5,428.833 200.5,430.167 200.5,431.5C 192.968,431.845 185.635,431.178 178.5,429.5C 178.5,423.5 178.5,417.5 178.5,411.5C 179.833,411.5 181.167,411.5 182.5,411.5C 182.179,416.695 182.513,421.695 183.5,426.5 Z"/></g>
<g><path style="opacity:1" fill="#f0f8f2" d="M 212.5,410.5 C 216.833,410.5 221.167,410.5 225.5,410.5C 228.284,418.069 231.618,425.403 235.5,432.5C 231.276,434.274 228.276,433.108 226.5,429C 221.136,428.171 215.802,428.337 210.5,429.5C 209.72,431.455 208.22,432.455 206,432.5C 204.833,432.167 203.667,431.833 202.5,431.5C 206.118,424.6 209.451,417.6 212.5,410.5 Z"/></g>
<g><path style="opacity:1" fill="#164916" d="M 217.5,415.5 C 221.377,416.527 223.377,419.194 223.5,423.5C 220.15,423.665 216.817,423.498 213.5,423C 214.973,420.552 216.307,418.052 217.5,415.5 Z"/></g>
<g><path style="opacity:1" fill="#edf3ee" d="M 264.5,411.5 C 280.167,411.5 295.833,411.5 311.5,411.5C 311.5,413.167 311.5,414.833 311.5,416.5C 305.167,416.5 298.833,416.5 292.5,416.5C 292.5,421.833 292.5,427.167 292.5,432.5C 290.167,432.5 287.833,432.5 285.5,432.5C 285.5,427.167 285.5,421.833 285.5,416.5C 278.5,416.5 271.5,416.5 264.5,416.5C 264.5,414.833 264.5,413.167 264.5,411.5 Z"/></g>
<g><path style="opacity:1" fill="#edf6ee" d="M 141.5,408.5 C 149.853,408.617 158.187,409.117 166.5,410C 170.432,414.596 170.432,419.263 166.5,424C 159.842,424.5 153.175,424.666 146.5,424.5C 146.5,426.833 146.5,429.167 146.5,431.5C 144.5,431.5 142.5,431.5 140.5,431.5C 140.354,423.804 140.687,416.138 141.5,408.5 Z"/></g>
<g><path style="opacity:1" fill="#f3f8f3" d="M 342.5,415.5 C 341.18,418.899 341.18,422.399 342.5,426C 349.471,425.77 356.471,425.603 363.5,425.5C 363.5,427.167 363.5,428.833 363.5,430.5C 355.202,431.574 346.868,431.74 338.5,431C 336.741,429.992 335.574,428.492 335,426.5C 334.333,421.833 334.333,417.167 335,412.5C 335.903,411.299 337.069,410.465 338.5,410C 346.47,408.978 354.47,408.478 362.5,408.5C 362.859,410.766 362.192,412.599 360.5,414C 354.319,414.172 348.319,414.672 342.5,415.5 Z"/></g>
<g><path style="opacity:1" fill="#eaf4ec" d="M 238.5,411.5 C 245.833,411.5 253.167,411.5 260.5,411.5C 260.5,413.167 260.5,414.833 260.5,416.5C 254.833,416.5 249.167,416.5 243.5,416.5C 243.5,417.5 243.5,418.5 243.5,419.5C 248.93,419.161 254.264,419.661 259.5,421C 262.089,424.598 262.089,428.264 259.5,432C 251.92,433.396 244.253,433.896 236.5,433.5C 236.5,431.5 236.5,429.5 236.5,427.5C 242.5,427.5 248.5,427.5 254.5,427.5C 254.5,426.5 254.5,425.5 254.5,424.5C 249.07,424.839 243.736,424.339 238.5,423C 235.888,419.169 235.888,415.336 238.5,411.5 Z"/></g>
<g><path style="opacity:1" fill="#234d24" d="M 147.5,413.5 C 152.473,414.164 157.473,414.497 162.5,414.5C 162.5,416.167 162.5,417.833 162.5,419.5C 157.493,419.249 152.493,418.916 147.5,418.5C 147.5,416.833 147.5,415.167 147.5,413.5 Z"/></g>
<g><path style="opacity:1" fill="#f2f8f1" d="M 318.5,410.5 C 320.5,410.5 322.5,410.5 324.5,410.5C 324.833,417.833 325.167,425.167 325.5,432.5C 323.167,432.5 320.833,432.5 318.5,432.5C 318.5,425.167 318.5,417.833 318.5,410.5 Z"/></g>
<g><path style="opacity:1" fill="#352042" d="M 156.5,392.5 C 159.957,392.96 161.623,394.96 161.5,398.5C 158.941,398.802 156.607,398.468 154.5,397.5C 161.624,397.947 162.291,396.28 156.5,392.5 Z"/></g>
<g><path style="opacity:1" fill="#087512" d="M 264.5,392.5 C 271.993,391.834 279.659,391.5 287.5,391.5C 295.53,391.502 303.197,392.169 310.5,393.5C 311.15,395.435 311.483,397.435 311.5,399.5C 305.5,399.5 299.5,399.5 293.5,399.5C 291.721,397.454 290.054,395.287 288.5,393C 280.507,392.5 272.507,392.334 264.5,392.5 Z"/></g>
<g><path style="opacity:1" fill="#d9f6c9" d="M 200.5,392.5 C 200.552,394.903 200.219,397.236 199.5,399.5C 199.167,399.5 198.833,399.5 198.5,399.5C 197.325,399.719 196.325,399.386 195.5,398.5C 196.747,396.677 197.414,394.677 197.5,392.5C 198.5,392.5 199.5,392.5 200.5,392.5 Z"/></g>
<g><path style="opacity:1" fill="#f6faf6" d="M 444.5,455.5 C 440.214,456.624 435.881,457.624 431.5,458.5C 426.697,452.854 422.031,447.021 417.5,441C 410.837,441.166 404.171,441.666 397.5,442.5C 398.032,448.152 398.365,453.819 398.5,459.5C 398.5,460.833 398.5,462.167 398.5,463.5C 394.466,463.505 390.466,463.838 386.5,464.5C 384.677,441.481 382.677,418.481 380.5,395.5C 395.021,394.039 409.521,392.372 424,390.5C 431.366,390.174 436.032,393.507 438,400.5C 439.26,408.987 440.427,417.487 441.5,426C 441.167,432 438.167,436 432.5,438C 437.111,443.439 441.111,449.273 444.5,455.5 Z"/></g>
<g><path style="opacity:1" fill="#144119" d="M 412.5,403.5 C 417.43,403.197 422.263,403.531 427,404.5C 429.243,411.326 429.91,418.326 429,425.5C 428.25,426.126 427.416,426.626 426.5,427C 415.88,428.661 405.213,429.828 394.5,430.5C 394.62,422.551 393.953,414.718 392.5,407C 399.268,405.66 405.935,404.494 412.5,403.5 Z"/></g>
<g><path style="opacity:1" fill="#014609" d="M 414.5,405.5 C 418.5,405.5 422.5,405.5 426.5,405.5C 427.212,412.143 427.546,418.809 427.5,425.5C 417.223,426.859 406.889,427.526 396.5,427.5C 395.505,420.87 394.838,414.203 394.5,407.5C 401.584,408.126 408.25,407.459 414.5,405.5 Z"/></g>
<g><path style="opacity:1" fill="#1bc02f" d="M 207.5,391.5 C 213.987,392.328 220.654,392.828 227.5,393C 229.539,395.374 231.872,397.374 234.5,399C 222.838,399.5 211.171,399.667 199.5,399.5C 200.219,397.236 200.552,394.903 200.5,392.5C 202.607,391.532 204.941,391.198 207.5,391.5 Z"/></g>
<g><path style="opacity:1" fill="#f5faf5" d="M 127.5,439.5 C 126.229,441.934 124.229,443.434 121.5,444C 116.495,444.082 111.495,444.082 106.5,444C 109.861,449.552 112.527,455.386 114.5,461.5C 109.645,462.691 104.645,462.691 99.5,461.5C 96.2409,455.314 93.2409,448.981 90.5,442.5C 86.6804,440.855 82.6804,440.189 78.5,440.5C 77.9154,446.843 77.2488,453.176 76.5,459.5C 72.8333,459.5 69.1667,459.5 65.5,459.5C 67.911,441.212 69.911,422.879 71.5,404.5C 72.8015,400.057 73.4681,395.391 73.5,390.5C 87.4844,392.065 101.484,393.565 115.5,395C 124.862,395.533 130.195,400.366 131.5,409.5C 130.384,419.552 129.05,429.552 127.5,439.5 Z"/></g>
<g><path style="opacity:1" fill="#05450d" d="M 81.5,403.5 C 93.5239,404.836 105.524,406.336 117.5,408C 119.045,409.822 119.712,411.989 119.5,414.5C 119.082,418.843 118.582,423.176 118,427.5C 117.682,429.061 116.849,430.228 115.5,431C 103.508,430.39 91.5081,429.557 79.5,428.5C 80.4601,420.192 81.1268,411.859 81.5,403.5 Z"/></g>
<g><path style="opacity:1" fill="#09b72b" d="M 264.5,392.5 C 272.507,392.334 280.507,392.5 288.5,393C 290.054,395.287 291.721,397.454 293.5,399.5C 281.322,399.828 269.322,399.495 257.5,398.5C 260.06,396.727 262.393,394.727 264.5,392.5 Z"/></g>
<g><path style="opacity:1" fill="#630282" d="M 156.5,392.5 C 162.291,396.28 161.624,397.947 154.5,397.5C 150.833,397.5 147.167,397.5 143.5,397.5C 143.35,394.057 145.017,392.057 148.5,391.5C 151.435,390.102 154.102,390.435 156.5,392.5 Z"/></g>
<g><path style="opacity:1" fill="#61057d" d="M 360.5,390.5 C 361.5,390.833 362.167,391.5 362.5,392.5C 363.234,393.708 363.567,395.041 363.5,396.5C 358.13,396.392 352.797,396.725 347.5,397.5C 346.503,397.53 345.836,397.03 345.5,396C 347.847,393.645 349.847,390.978 351.5,388C 355.142,386.93 358.142,387.764 360.5,390.5 Z"/></g>
<g><path style="opacity:1" fill="#411f59" d="M 399.5,381.5 C 396.456,383.011 393.122,383.678 389.5,383.5C 392.589,382.215 395.922,381.549 399.5,381.5 Z"/></g>
<g><path style="opacity:1" fill="#741913" d="M 111.5,379.5 C 111.833,379.5 112.167,379.5 112.5,379.5C 113.552,381.256 115.219,381.923 117.5,381.5C 118.833,382.167 120.167,382.833 121.5,383.5C 117.498,383.964 113.831,383.298 110.5,381.5C 110.328,380.508 110.662,379.842 111.5,379.5 Z"/></g>
<g><path style="opacity:1" fill="#670284" d="M 121.5,374.5 C 128.406,375.786 134.739,378.452 140.5,382.5C 138.37,384.898 135.703,386.232 132.5,386.5C 128.962,384.946 125.295,383.946 121.5,383.5C 120.167,382.833 118.833,382.167 117.5,381.5C 120.518,380.145 121.851,377.812 121.5,374.5 Z"/></g>
<g><path style="opacity:1" fill="#9fe098" d="M 398.5,459.5 C 399.487,464.32 400.153,469.32 400.5,474.5C 396.19,475.08 391.857,475.414 387.5,475.5C 387.448,471.802 387.114,468.135 386.5,464.5C 390.466,463.838 394.466,463.505 398.5,463.5C 398.5,462.167 398.5,460.833 398.5,459.5 Z"/></g>
<g><path style="opacity:1" fill="#465b13" d="M 361.5,491.5 C 340.355,493.797 319.022,495.464 297.5,496.5C 301.647,495.675 305.981,495.175 310.5,495C 309.167,494 309.167,493 310.5,492C 311.833,491.833 313.167,491.667 314.5,491.5C 319.104,492.561 323.771,493.227 328.5,493.5C 339.416,491.937 350.416,491.271 361.5,491.5 Z"/></g>
<g><path style="opacity:1" fill="#405211" d="M 98.5,483.5 C 117.69,486.689 137.023,489.189 156.5,491C 174.624,491.502 192.624,492.835 210.5,495C 224.829,495.5 239.163,495.667 253.5,495.5C 203.121,496.123 152.787,492.957 102.5,486C 100.934,485.392 99.6002,484.558 98.5,483.5 Z"/></g>
</svg>
