<?xml version="1.0" encoding="UTF-8"?>
<!DOCTYPE svg PUBLIC "-//W3C//DTD SVG 1.1//EN" "http://www.w3.org/Graphics/SVG/1.1/DTD/svg11.dtd">
<svg xmlns="http://www.w3.org/2000/svg" version="1.1" width="40px" height="40px" style="shape-rendering:geometricPrecision; text-rendering:geometricPrecision; image-rendering:optimizeQuality; fill-rule:evenodd; clip-rule:evenodd" xmlns:xlink="http://www.w3.org/1999/xlink">
<g><path style="opacity:0.587" fill="#e8ede5" d="M -0.5,-0.5 C -0.166667,-0.5 0.166667,-0.5 0.5,-0.5C 0.5,12.5 0.5,25.5 0.5,38.5C 2.5273,38.6621 4.5273,38.4955 6.5,38C 4.09553,37.8045 2.42887,36.6378 1.5,34.5C 1.44402,27.4739 1.94402,20.4739 3,13.5C 6.19391,8.97274 10.0272,5.13941 14.5,2C 17.5,-1.11022e-16 20.5,-1.11022e-16 23.5,2C 27.9455,5.11214 31.7789,8.94547 35,13.5C 35.9347,15.9088 36.4347,18.4088 36.5,21C 35.9399,26.1607 35.4399,31.3274 35,36.5C 33.9326,37.1905 32.7659,37.6905 31.5,38C 34.146,38.4974 36.8127,38.6641 39.5,38.5C 39.5,38.8333 39.5,39.1667 39.5,39.5C 36.5,39.5 33.5,39.5 30.5,39.5C 27.8333,38.1667 25.1667,38.1667 22.5,39.5C 21.8333,39.5 21.1667,39.5 20.5,39.5C 20.1667,38.1667 19.8333,38.1667 19.5,39.5C 18.1667,39.5 16.8333,39.5 15.5,39.5C 12.8333,38.1667 10.1667,38.1667 7.5,39.5C 4.83333,39.5 2.16667,39.5 -0.5,39.5C -0.5,26.1667 -0.5,12.8333 -0.5,-0.5 Z"/></g>
<g><path style="opacity:1" fill="#2f9b2e" d="M 23.5,5.5 C 23.5,5.83333 23.5,6.16667 23.5,6.5C 20.4467,7.42367 17.4467,7.42367 14.5,6.5C 14.5,6.16667 14.5,5.83333 14.5,5.5C 15.1485,3.41361 16.6485,2.41361 19,2.5C 21.1829,2.52208 22.6829,3.52208 23.5,5.5 Z"/></g>
<g><path style="opacity:1" fill="#849966" d="M 14.5,5.5 C 14.5,5.83333 14.5,6.16667 14.5,6.5C 14.5774,7.74975 15.244,8.58309 16.5,9C 16.1667,9.33333 15.8333,9.66667 15.5,10C 19.6677,12.4182 22.3343,11.2515 23.5,6.5C 23.5,6.16667 23.5,5.83333 23.5,5.5C 24.4511,6.91866 24.7845,8.58533 24.5,10.5C 24.1961,11.1499 23.8627,11.8165 23.5,12.5C 27.137,14.4796 30.137,17.1463 32.5,20.5C 32.5,20.8333 32.5,21.1667 32.5,21.5C 30.447,20.4664 28.7803,18.9664 27.5,17C 25.5273,16.5045 23.5273,16.3379 21.5,16.5C 22.463,15.6365 22.463,14.9698 21.5,14.5C 19.8333,15.8333 18.1667,15.8333 16.5,14.5C 15.7025,14.9569 15.3691,15.6236 15.5,16.5C 14.2921,15.7659 12.9587,15.4326 11.5,15.5C 11.5,15.1667 11.5,14.8333 11.5,14.5C 12.5,14.5 13.5,14.5 14.5,14.5C 14.7409,11.9664 13.7409,10.2998 11.5,9.5C 12.6588,8.25971 13.6588,6.92637 14.5,5.5 Z"/></g>
<g><path style="opacity:1" fill="#622ea2" d="M 14.5,6.5 C 17.4467,7.42367 20.4467,7.42367 23.5,6.5C 22.3343,11.2515 19.6677,12.4182 15.5,10C 15.8333,9.66667 16.1667,9.33333 16.5,9C 15.244,8.58309 14.5774,7.74975 14.5,6.5 Z"/></g>
<g><path style="opacity:1" fill="#8d29e3" d="M 11.5,9.5 C 13.7409,10.2998 14.7409,11.9664 14.5,14.5C 13.5,14.5 12.5,14.5 11.5,14.5C 10.5041,14.5858 9.67076,14.2524 9,13.5C 9.25267,16.3574 7.91934,18.6907 5,20.5C 5.10131,15.633 7.26798,11.9664 11.5,9.5 Z"/></g>
<g><path style="opacity:1" fill="#c92327" d="M 21.5,16.5 C 19.4513,17.6414 17.4513,17.6414 15.5,16.5C 15.3691,15.6236 15.7025,14.9569 16.5,14.5C 18.1667,15.8333 19.8333,15.8333 21.5,14.5C 22.463,14.9698 22.463,15.6365 21.5,16.5 Z"/></g>
<g><path style="opacity:0.996" fill="#9b45dd" d="M 32.5,20.5 C 30.137,17.1463 27.137,14.4796 23.5,12.5C 23.8627,11.8165 24.1961,11.1499 24.5,10.5C 27.231,9.62609 29.3976,10.6261 31,13.5C 32.5542,15.8962 33.0542,18.2295 32.5,20.5 Z"/></g>
<g><path style="opacity:1" fill="#2bab24" d="M 11.5,15.5 C 12.9587,15.4326 14.2921,15.7659 15.5,16.5C 17.4513,17.6414 19.4513,17.6414 21.5,16.5C 23.5273,16.3379 25.5273,16.5045 27.5,17C 28.7803,18.9664 30.447,20.4664 32.5,21.5C 32.6495,22.552 32.4828,23.552 32,24.5C 31.1841,23.1772 30.0174,22.5106 28.5,22.5C 27.5178,21.8592 26.5178,21.1925 25.5,20.5C 24.2172,22.7301 23.2172,25.0634 22.5,27.5C 18.521,26.7239 17.8543,24.8905 20.5,22C 18.8333,17.3333 17.1667,17.3333 15.5,22C 16.3295,23.4651 16.4962,24.9651 16,26.5C 15.6174,25.944 15.1174,25.6107 14.5,25.5C 13.9738,19.6466 11.9738,18.9799 8.5,23.5C 8.5,24.1667 8.16667,24.5 7.5,24.5C 6.40168,23.3991 6.23502,22.0657 7,20.5C 8.70733,18.9625 10.2073,17.2959 11.5,15.5 Z"/></g>
<g><path style="opacity:1" fill="#93bb64" d="M 22.5,27.5 C 22.5,27.8333 22.5,28.1667 22.5,28.5C 19.7284,29.3715 17.0618,29.3715 14.5,28.5C 14.5,27.5 14.5,26.5 14.5,25.5C 15.1174,25.6107 15.6174,25.944 16,26.5C 16.4962,24.9651 16.3295,23.4651 15.5,22C 17.1667,17.3333 18.8333,17.3333 20.5,22C 17.8543,24.8905 18.521,26.7239 22.5,27.5 Z"/></g>
<g><path style="opacity:1" fill="#6d15b5" d="M 28.5,22.5 C 29.6005,23.6049 30.2671,24.9382 30.5,26.5C 29.596,27.209 29.2627,28.209 29.5,29.5C 29.1667,29.5 28.8333,29.5 28.5,29.5C 27.7784,29.0825 27.2784,28.4158 27,27.5C 25.7741,29.5477 24.2741,29.881 22.5,28.5C 22.5,28.1667 22.5,27.8333 22.5,27.5C 23.2172,25.0634 24.2172,22.7301 25.5,20.5C 26.5178,21.1925 27.5178,21.8592 28.5,22.5 Z"/></g>
<g><path style="opacity:1" fill="#8303e3" d="M 8.5,23.5 C 10.5,24.8333 12.1667,26.5 13.5,28.5C 13.44,29.0431 13.1067,29.3764 12.5,29.5C 11.2742,27.7221 9.6075,26.7221 7.5,26.5C 7.5,25.8333 7.5,25.1667 7.5,24.5C 8.16667,24.5 8.5,24.1667 8.5,23.5 Z"/></g>
<g><path style="opacity:1" fill="#501f6a" d="M 14.5,25.5 C 14.5,26.5 14.5,27.5 14.5,28.5C 14.1667,28.5 13.8333,28.5 13.5,28.5C 12.1667,26.5 10.5,24.8333 8.5,23.5C 11.9738,18.9799 13.9738,19.6466 14.5,25.5 Z"/></g>
<g><path style="opacity:1" fill="#527752" d="M 7.5,26.5 C 9.6075,26.7221 11.2742,27.7221 12.5,29.5C 13.1067,29.3764 13.44,29.0431 13.5,28.5C 13.8333,28.5 14.1667,28.5 14.5,28.5C 17.0618,29.3715 19.7284,29.3715 22.5,28.5C 24.2741,29.881 25.7741,29.5477 27,27.5C 27.2784,28.4158 27.7784,29.0825 28.5,29.5C 28.3398,31.1992 28.5065,32.8659 29,34.5C 30,33.1667 31,33.1667 32,34.5C 32.4935,32.8659 32.6602,31.1992 32.5,29.5C 31.5,29.5 30.5,29.5 29.5,29.5C 29.2627,28.209 29.596,27.209 30.5,26.5C 30.8212,28.0481 31.8212,28.7148 33.5,28.5C 33.3184,30.5914 33.6518,32.5914 34.5,34.5C 32.228,35.4853 29.8947,36.3187 27.5,37C 23.4216,36.9995 19.4216,37.1661 15.5,37.5C 11.41,36.7082 7.57663,36.0415 4,35.5C 3.33333,33.5 3.33333,31.5 4,29.5C 5.72861,29.0257 6.89527,28.0257 7.5,26.5 Z"/></g>
<g><path style="opacity:1" fill="#b8c6b9" d="M 28.5,29.5 C 28.8333,29.5 29.1667,29.5 29.5,29.5C 30.5,29.5 31.5,29.5 32.5,29.5C 32.6602,31.1992 32.4935,32.8659 32,34.5C 31,33.1667 30,33.1667 29,34.5C 28.5065,32.8659 28.3398,31.1992 28.5,29.5 Z"/></g>
</svg>
